<svg width="16" height="16" viewBox="0 0 16 16" fill="none" xmlns="http://www.w3.org/2000/svg">
<path d="M14.1712 7.30792C14.4872 7.72125 14.4872 8.27925 14.1712 8.69192C13.1758 9.99125 10.7878 12.6666 7.99985 12.6666C5.21184 12.6666 2.82384 9.99125 1.82851 8.69192C1.67477 8.49401 1.59131 8.25053 1.59131 7.99992C1.59131 7.74931 1.67477 7.50583 1.82851 7.30792C2.82384 6.00859 5.21184 3.33325 7.99985 3.33325C10.7878 3.33325 13.1758 6.00859 14.1712 7.30792V7.30792Z" stroke="black" stroke-opacity="0.25" stroke-width="1.33333" stroke-linecap="round" stroke-linejoin="round"/>
<path d="M8 10C9.10457 10 10 9.10457 10 8C10 6.89543 9.10457 6 8 6C6.89543 6 6 6.89543 6 8C6 9.10457 6.89543 10 8 10Z" stroke="black" stroke-opacity="0.25" stroke-width="1.33333" stroke-linecap="round" stroke-linejoin="round"/>
</svg>
