<svg width="16" height="16" viewBox="0 0 16 16" fill="none" xmlns="http://www.w3.org/2000/svg">
<path d="M4.582 11.4195C3.352 10.5462 2.37867 9.41016 1.82867 8.69283C1.67487 8.49481 1.59138 8.25122 1.59138 8.0005C1.59138 7.74977 1.67487 7.50618 1.82867 7.30816C2.824 6.00883 5.212 3.3335 8 3.3335C9.25067 3.3335 10.42 3.8715 11.42 4.58283" stroke="black" stroke-opacity="0.25" stroke-width="1.33333" stroke-linecap="round" stroke-linejoin="round"/>
<path d="M9.42 6.59141C9.23487 6.40319 9.01429 6.25349 8.77101 6.15094C8.52773 6.04839 8.26655 5.99502 8.00253 5.99391C7.73852 5.99281 7.4769 6.04399 7.23277 6.14449C6.98864 6.245 6.76682 6.39285 6.58011 6.57952C6.3934 6.76618 6.2455 6.98796 6.14493 7.23208C6.04437 7.47619 5.99313 7.73779 5.99417 8.0018C5.99522 8.26582 6.04852 8.52701 6.15101 8.77032C6.25351 9.01362 6.40316 9.23423 6.59134 9.41941" stroke="black" stroke-opacity="0.25" stroke-width="1.33333" stroke-linecap="round" stroke-linejoin="round"/>
<path d="M2.66667 13.3334L13.3333 2.66675" stroke="black" stroke-opacity="0.25" stroke-width="1.33333" stroke-linecap="round" stroke-linejoin="round"/>
<path d="M6.66667 12.4693C7.09947 12.5982 7.54844 12.6646 8.00001 12.6667C10.788 12.6667 13.176 9.99133 14.1713 8.692C14.3251 8.49381 14.4085 8.25006 14.4084 7.99922C14.4083 7.74838 14.3246 7.50471 14.1707 7.30667C13.8209 6.85033 13.4456 6.41408 13.0467 6" stroke="black" stroke-opacity="0.25" stroke-width="1.33333" stroke-linecap="round" stroke-linejoin="round"/>
</svg>
