<svg width="59" height="77" viewBox="0 0 59 77" fill="none" xmlns="http://www.w3.org/2000/svg">
<g clip-path="url(#clip0)">
<path d="M39.1057 68.084L57.9257 71.164V71.164V71.164" stroke="#737A99" stroke-width="1.5"/>
<path d="M0.285645 75.424L17.1056 74.084L26.1056 68.084H34.1056" stroke="#737A99" stroke-width="1.5"/>
<path d="M12.4432 4.96154H20.2081V58.1662H12.4432V4.96154Z" fill="#306F95" stroke="#6C95E6" stroke-width="0.755114"/>
<path d="M13.0256 73.2932C13.0256 71.4706 14.5031 69.9932 16.3256 69.9932C18.1482 69.9932 19.6256 71.4706 19.6256 73.2932C19.6256 75.1157 18.1482 76.5931 16.3256 76.5931C14.5031 76.5931 13.0256 75.1157 13.0256 73.2932Z" fill="#306F95" stroke="#5397EA" stroke-width="0.5"/>
<path fill-rule="evenodd" clip-rule="evenodd" d="M20.5857 1.74414H29.1057V52.8639H20.5857V1.74414Z" fill="#003153"/>
<path fill-rule="evenodd" clip-rule="evenodd" d="M21.2957 67.6135C21.2957 65.6529 22.8851 64.0635 24.8457 64.0635C26.8063 64.0635 28.3957 65.6529 28.3957 67.6134C28.3957 69.5741 26.8062 71.1634 24.8456 71.1634C22.885 71.1634 21.2957 69.5741 21.2957 67.6135Z" fill="#003153"/>
<path fill-rule="evenodd" clip-rule="evenodd" d="M36.9158 67.6135C36.9158 65.6529 38.5052 64.0635 40.4658 64.0635C42.4264 64.0635 44.0158 65.6529 44.0158 67.6135C44.0158 69.5741 42.4264 71.1634 40.4658 71.1634C38.5052 71.1634 36.9158 69.5741 36.9158 67.6135Z" fill="#666666"/>
<path fill-rule="evenodd" clip-rule="evenodd" d="M36.2058 0.324219H44.7258V45.764H36.2058V0.324219Z" fill="#666666"/>
</g>
<defs>
<clipPath id="clip0">
<rect width="59" height="77" fill="white"/>
</clipPath>
</defs>
</svg>
