<svg width="24" height="24" viewBox="0 0 24 24" fill="none" xmlns="http://www.w3.org/2000/svg">
<path opacity="0.35" fill-rule="evenodd" clip-rule="evenodd" d="M22 11C21.6547 5.98021 17.3015 2 11.9975 2C6.69852 2 2.34526 5.98021 2 11H22Z" fill="#008AD6"/>
<path fill-rule="evenodd" clip-rule="evenodd" d="M24 11C23.65 4.87974 18.405 0 12 0C5.595 0 0.35 4.87974 0 11H2.01C2.355 5.95066 6.7 1.94317 12 1.94317C17.3 1.94317 21.645 5.95066 21.99 11H24Z" fill="#008AD6"/>
<path fill-rule="evenodd" clip-rule="evenodd" d="M0 13C0.35 19.1251 5.595 24 12 24C18.405 24 23.65 19.1251 24 13H21.99C21.645 18.0542 17.3 22.0617 12 22.0617C6.7 22.0617 2.355 18.0542 2.01 13H0Z" fill="#008AD6"/>
<path opacity="0.35" fill-rule="evenodd" clip-rule="evenodd" d="M2 13C2.34526 18.0198 6.69852 22 11.9975 22C17.3015 22 21.6547 18.0198 22 13H2Z" fill="#008AD6"/>
</svg>
