<svg width="207" height="92" viewBox="0 0 207 92" fill="none" xmlns="http://www.w3.org/2000/svg">
<path fill-rule="evenodd" clip-rule="evenodd" d="M14.2996 1.46484C14.8518 1.46484 15.2996 1.91256 15.2996 2.46484L15.2996 58.5883C15.2996 59.1406 14.8518 59.5883 14.2996 59.5883H11.9278C11.3755 59.5883 10.9278 59.1406 10.9278 58.5883L10.9278 2.46484C10.9278 1.91256 11.3755 1.46484 11.9278 1.46484L14.2996 1.46484Z" fill="#306F95"/>
<path fill-rule="evenodd" clip-rule="evenodd" d="M29.6003 0C30.1526 0 30.6003 0.447715 30.6003 1L30.6003 66.2163C30.6003 66.7685 30.1526 67.2163 29.6003 67.2163H27.2286C26.6763 67.2163 26.2286 66.7685 26.2286 66.2163L26.2286 0.999998C26.2286 0.447713 26.6763 0 27.2286 0L29.6003 0Z" fill="#306F95"/>
<path fill-rule="evenodd" clip-rule="evenodd" d="M44.905 0.708984C45.4573 0.708984 45.905 1.1567 45.905 1.70898L45.905 61.9066C45.905 62.4588 45.4573 62.9066 44.905 62.9066H42.5332C41.981 62.9066 41.5332 62.4588 41.5332 61.9066V1.70898C41.5332 1.1567 41.981 0.708984 42.5332 0.708984L44.905 0.708984Z" fill="#306F95"/>
<path fill-rule="evenodd" clip-rule="evenodd" d="M60.2058 0.634766C60.7581 0.634766 61.2058 1.08248 61.2058 1.63477L61.2058 62.95C61.2058 63.5022 60.7581 63.95 60.2058 63.95H57.834C57.2817 63.95 56.834 63.5022 56.834 62.95V1.63476C56.834 1.08248 57.2817 0.634766 57.834 0.634766L60.2058 0.634766Z" fill="#306F95"/>
<path fill-rule="evenodd" clip-rule="evenodd" d="M72.1355 6.36133C72.1355 5.80904 72.5832 5.36133 73.1355 5.36133H75.5073C76.0596 5.36133 76.5073 5.80904 76.5073 6.36133V69.3917C76.5073 69.944 76.0596 70.3917 75.5073 70.3917H73.1355C72.5832 70.3917 72.1355 69.944 72.1355 69.3917V6.36133Z" fill="#306F95"/>
<path fill-rule="evenodd" clip-rule="evenodd" d="M88.6218 1.19336C89.1741 1.19336 89.6218 1.64107 89.6218 2.19336V61.9063C89.6218 62.4586 89.1741 62.9063 88.6218 62.9063H86.25C85.6978 62.9063 85.25 62.4586 85.25 61.9063V2.19336C85.25 1.64108 85.6978 1.19336 86.25 1.19336L88.6218 1.19336Z" fill="#306F95"/>
<path fill-rule="evenodd" clip-rule="evenodd" d="M106.11 4.82031C106.662 4.82031 107.11 5.26803 107.11 5.82031V62.9493C107.11 63.5016 106.662 63.9493 106.11 63.9493H103.738C103.186 63.9493 102.738 63.5016 102.738 62.9493V5.82031C102.738 5.26803 103.186 4.82031 103.738 4.82031H106.11Z" fill="#306F95"/>
<path fill-rule="evenodd" clip-rule="evenodd" d="M121.413 1.37695C121.965 1.37695 122.413 1.82467 122.413 2.37695V60.5267C122.413 61.0789 121.965 61.5267 121.413 61.5267H119.041C118.489 61.5267 118.041 61.0789 118.041 60.5267V2.37696C118.041 1.82467 118.489 1.37695 119.041 1.37695L121.413 1.37695Z" fill="#306F95"/>
<path fill-rule="evenodd" clip-rule="evenodd" d="M136.714 2.58301C137.266 2.58301 137.714 3.03072 137.714 3.58301V72.0781C137.714 72.6304 137.266 73.0781 136.714 73.0781H134.342C133.79 73.0781 133.342 72.6304 133.342 72.0781V3.58301C133.342 3.03072 133.79 2.58301 134.342 2.58301H136.714Z" fill="#306F95"/>
<path fill-rule="evenodd" clip-rule="evenodd" d="M152.014 4.9541C152.567 4.9541 153.014 5.40182 153.014 5.9541V63.6759C153.014 64.2282 152.567 64.6759 152.014 64.6759H149.643C149.09 64.6759 148.643 64.2282 148.643 63.6759V5.9541C148.643 5.40182 149.09 4.9541 149.643 4.9541H152.014Z" fill="#306F95"/>
<path fill-rule="evenodd" clip-rule="evenodd" d="M167.315 5.91309C167.867 5.91309 168.315 6.3608 168.315 6.91309V69.4913C168.315 70.0435 167.867 70.4913 167.315 70.4913H164.943C164.391 70.4913 163.943 70.0435 163.943 69.4913V6.91309C163.943 6.3608 164.391 5.91309 164.943 5.91309H167.315Z" fill="#306F95"/>
<path fill-rule="evenodd" clip-rule="evenodd" d="M182.618 0.727539C183.17 0.727539 183.618 1.17525 183.618 1.72754V66.3973C183.618 66.9496 183.17 67.3973 182.618 67.3973H180.246C179.694 67.3973 179.246 66.9496 179.246 66.3973V1.72754C179.246 1.17526 179.694 0.727539 180.246 0.727539L182.618 0.727539Z" fill="#306F95"/>
<path fill-rule="evenodd" clip-rule="evenodd" d="M195.729 2.59961C196.282 2.59961 196.729 3.04732 196.729 3.59961V60.0723C196.729 60.6246 196.282 61.0723 195.729 61.0723H193.357C192.805 61.0723 192.357 60.6246 192.357 60.0723V3.59961C192.357 3.04732 192.805 2.59961 193.357 2.59961H195.729Z" fill="#306F95"/>
<path fill-rule="evenodd" clip-rule="evenodd" d="M3.37183 5.52734C3.92411 5.52734 4.37183 5.97506 4.37183 6.52734L4.37183 65.7324C4.37183 66.2847 3.92411 66.7324 3.37183 66.7324H1.00004C0.447752 66.7324 3.62396e-05 66.2847 3.62396e-05 65.7324L3.62396e-05 6.52734C3.62396e-05 5.97506 0.447752 5.52734 1.00004 5.52734H3.37183Z" fill="#003153"/>
<path fill-rule="evenodd" clip-rule="evenodd" d="M18.6726 0.0625C19.2249 0.0625 19.6726 0.510215 19.6726 1.0625L19.6726 66.5842C19.6726 67.1365 19.2249 67.5842 18.6726 67.5842H16.3008C15.7485 67.5842 15.3008 67.1365 15.3008 66.5842L15.3008 1.0625C15.3008 0.510213 15.7485 0.0625 16.3008 0.0625L18.6726 0.0625Z" fill="#003153"/>
<path fill-rule="evenodd" clip-rule="evenodd" d="M30.6042 2.00684C30.6042 1.45455 31.052 1.00684 31.6042 1.00684H33.976C34.5283 1.00684 34.976 1.45455 34.976 2.00684V68.5237C34.976 69.076 34.5283 69.5237 33.976 69.5237H31.6042C31.052 69.5237 30.6042 69.076 30.6042 68.5237V2.00684Z" fill="#003153"/>
<path fill-rule="evenodd" clip-rule="evenodd" d="M49.2781 1.20898C49.8304 1.20898 50.2781 1.6567 50.2781 2.20898L50.2781 60.7693C50.2781 61.3216 49.8304 61.7693 49.2781 61.7693H46.9063C46.354 61.7693 45.9063 61.3216 45.9063 60.7693V2.20898C45.9063 1.6567 46.354 1.20898 46.9063 1.20898L49.2781 1.20898Z" fill="#003153"/>
<path fill-rule="evenodd" clip-rule="evenodd" d="M64.5789 2.59375C65.1311 2.59375 65.5789 3.04147 65.5789 3.59375V60.2845C65.5789 60.8368 65.1311 61.2845 64.5789 61.2845H62.2071C61.6548 61.2845 61.2071 60.8368 61.2071 60.2845V3.59375C61.2071 3.04146 61.6548 2.59375 62.2071 2.59375H64.5789Z" fill="#003153"/>
<path fill-rule="evenodd" clip-rule="evenodd" d="M79.8816 3.32129C80.4339 3.32129 80.8816 3.769 80.8816 4.32129V63.9196C80.8816 64.4719 80.4339 64.9196 79.8816 64.9196H77.5098C76.9575 64.9196 76.5098 64.4719 76.5098 63.9196V4.32129C76.5098 3.769 76.9575 3.32129 77.5098 3.32129H79.8816Z" fill="#003153"/>
<path fill-rule="evenodd" clip-rule="evenodd" d="M110.485 1.47266C111.037 1.47266 111.485 1.92037 111.485 2.47266V59.0738C111.485 59.6261 111.037 60.0738 110.485 60.0738H108.113C107.561 60.0738 107.113 59.6261 107.113 59.0738V2.47266C107.113 1.92037 107.561 1.47266 108.113 1.47266L110.485 1.47266Z" fill="#003153"/>
<path fill-rule="evenodd" clip-rule="evenodd" d="M125.786 1.70312C126.338 1.70312 126.786 2.15084 126.786 2.70312V68.5238C126.786 69.0761 126.338 69.5238 125.786 69.5238H123.414C122.862 69.5238 122.414 69.0761 122.414 68.5238V2.70313C122.414 2.15084 122.862 1.70313 123.414 1.70313L125.786 1.70312Z" fill="#003153"/>
<path fill-rule="evenodd" clip-rule="evenodd" d="M141.087 8.44238C141.639 8.44238 142.087 8.8901 142.087 9.44238V69.0118C142.087 69.564 141.639 70.0118 141.087 70.0118H138.715C138.163 70.0118 137.715 69.564 137.715 69.0118V9.44238C137.715 8.8901 138.163 8.44238 138.715 8.44238H141.087Z" fill="#003153"/>
<path fill-rule="evenodd" clip-rule="evenodd" d="M156.387 1.8877C156.94 1.8877 157.387 2.33541 157.387 2.8877V61.0114C157.387 61.5637 156.94 62.0114 156.387 62.0114H154.016C153.463 62.0114 153.016 61.5637 153.016 61.0114V2.8877C153.016 2.33541 153.463 1.8877 154.016 1.8877L156.387 1.8877Z" fill="#003153"/>
<path fill-rule="evenodd" clip-rule="evenodd" d="M171.69 2.36328C172.242 2.36328 172.69 2.811 172.69 3.36328V65.9415C172.69 66.4937 172.242 66.9415 171.69 66.9415H169.318C168.766 66.9415 168.318 66.4937 168.318 65.9415V3.36328C168.318 2.811 168.766 2.36328 169.318 2.36328H171.69Z" fill="#003153"/>
<path fill-rule="evenodd" clip-rule="evenodd" d="M186.991 10.0176C187.543 10.0176 187.991 10.4653 187.991 11.0176V64.4035C187.991 64.9558 187.543 65.4035 186.991 65.4035H184.619C184.067 65.4035 183.619 64.9558 183.619 64.4035V11.0176C183.619 10.4653 184.067 10.0176 184.619 10.0176H186.991Z" fill="#003153"/>
<path fill-rule="evenodd" clip-rule="evenodd" d="M97.3679 3.85938C97.9202 3.85938 98.3679 4.30709 98.3679 4.85937V63.919C98.3679 64.4712 97.9202 64.919 97.3679 64.919H94.9961C94.4438 64.919 93.9961 64.4712 93.9961 63.919V4.85938C93.9961 4.30709 94.4438 3.85938 94.9961 3.85938H97.3679Z" fill="#003153"/>
<path fill-rule="evenodd" clip-rule="evenodd" d="M204.477 14.6221C205.03 14.6221 205.477 15.0698 205.477 15.6221V69.3624C205.477 69.9147 205.03 70.3624 204.477 70.3624H202.106C201.553 70.3624 201.106 69.9147 201.106 69.3624V15.6221C201.106 15.0698 201.553 14.6221 202.106 14.6221H204.477Z" fill="#003153"/>
<path d="M1.6394 90.3625L13.6618 86.8978L16.9407 79.433L28.9631 85.2584L32.2419 73.9683L44.2644 78.8865L47.5432 84.7119L59.5656 78.8865L62.8445 86.3514L74.8669 82.1654L78.1457 77.2471L86.8893 83.2529L96.7258 79.9795L105.469 90.1767L108.748 85.9907L120.771 88.7176L124.05 79.9795L136.072 84.3513L139.351 74.5093L151.373 84.3513L154.652 77.422L166.674 79.433L169.953 77.422L181.976 75.0612L185.255 78.5149L193.998 84.7119L198.916 66.1318L203.835 79.9795" stroke="#B2B2B2"/>
<path fill-rule="evenodd" clip-rule="evenodd" d="M28.4175 83.6172C27.5104 83.6172 26.7781 84.3495 26.7781 85.2566C26.7781 86.1638 27.5104 86.896 28.4175 86.896C29.3246 86.896 30.0569 86.1638 30.0569 85.2566C30.0569 84.3495 29.3246 83.6172 28.4175 83.6172Z" fill="#306F95"/>
<path style="mix-blend-mode:multiply" opacity="0.3" fill-rule="evenodd" clip-rule="evenodd" d="M28.4175 83.6172C27.5104 83.6172 26.7781 84.3495 26.7781 85.2566C26.7781 86.1638 27.5104 86.896 28.4175 86.896C29.3246 86.896 30.0569 86.1638 30.0569 85.2566C30.0569 84.3495 29.3246 83.6172 28.4175 83.6172Z" fill="#306F95"/>
<path fill-rule="evenodd" clip-rule="evenodd" d="M59.021 77.2461C58.1139 77.2461 57.3816 77.9784 57.3816 78.8855C57.3816 79.7927 58.1139 80.5249 59.021 80.5249C59.9282 80.5249 60.6604 79.7927 60.6604 78.8855C60.6604 77.9784 59.9282 77.2461 59.021 77.2461Z" fill="#306F95"/>
<path fill-rule="evenodd" clip-rule="evenodd" d="M74.3218 80.5244C73.4146 80.5244 72.6824 81.2567 72.6824 82.1638C72.6824 83.071 73.4146 83.8033 74.3218 83.8033C75.2289 83.8033 75.9612 83.071 75.9612 82.1638C75.9612 81.2567 75.2289 80.5244 74.3218 80.5244Z" fill="#306F95"/>
<path fill-rule="evenodd" clip-rule="evenodd" d="M86.3452 81.6143C85.4381 81.6143 84.7058 82.3465 84.7058 83.2537C84.7058 84.1608 85.4381 84.8931 86.3452 84.8931C87.2524 84.8931 87.9847 84.1608 87.9847 83.2537C87.9847 82.3465 87.2524 81.6143 86.3452 81.6143Z" fill="#306F95"/>
<path fill-rule="evenodd" clip-rule="evenodd" d="M104.923 88.5361C104.016 88.5361 103.284 89.2684 103.284 90.1756C103.284 91.0827 104.016 91.815 104.923 91.815C105.831 91.815 106.563 91.0827 106.563 90.1756C106.563 89.2684 105.831 88.5361 104.923 88.5361Z" fill="#306F95"/>
<path fill-rule="evenodd" clip-rule="evenodd" d="M120.226 87.0781C119.319 87.0781 118.587 87.8104 118.587 88.7175C118.587 89.6247 119.319 90.357 120.226 90.357C121.133 90.357 121.866 89.6247 121.866 88.7175C121.866 87.8104 121.133 87.0781 120.226 87.0781Z" fill="#306F95"/>
<path fill-rule="evenodd" clip-rule="evenodd" d="M135.527 82.71C134.62 82.71 133.887 83.4422 133.887 84.3494C133.887 85.2565 134.62 85.9888 135.527 85.9888C136.434 85.9888 137.166 85.2565 137.166 84.3494C137.166 83.4422 136.434 82.71 135.527 82.71Z" fill="#306F95"/>
<path fill-rule="evenodd" clip-rule="evenodd" d="M150.828 82.71C149.921 82.71 149.188 83.4422 149.188 84.3494C149.188 85.2565 149.921 85.9888 150.828 85.9888C151.735 85.9888 152.467 85.2565 152.467 84.3494C152.467 83.4422 151.735 82.71 150.828 82.71Z" fill="#306F95"/>
<path fill-rule="evenodd" clip-rule="evenodd" d="M166.128 77.792C165.221 77.792 164.489 78.5243 164.489 79.4314C164.489 80.3386 165.221 81.0708 166.128 81.0708C167.036 81.0708 167.768 80.3386 167.768 79.4314C167.768 78.5243 167.036 77.792 166.128 77.792Z" fill="#306F95"/>
<path fill-rule="evenodd" clip-rule="evenodd" d="M181.429 73.4199C180.522 73.4199 179.79 74.1522 179.79 75.0593C179.79 75.9665 180.522 76.6988 181.429 76.6988C182.336 76.6988 183.069 75.9665 183.069 75.0593C183.069 74.1522 182.336 73.4199 181.429 73.4199Z" fill="#306F95"/>
<path fill-rule="evenodd" clip-rule="evenodd" d="M193.455 83.0713C192.547 83.0713 191.815 83.8036 191.815 84.7107C191.815 85.6179 192.547 86.3501 193.455 86.3501C194.362 86.3501 195.094 85.6179 195.094 84.7107C195.094 83.8036 194.362 83.0713 193.455 83.0713Z" fill="#306F95"/>
<path fill-rule="evenodd" clip-rule="evenodd" d="M2.18703 88.7217C1.27988 88.7217 0.547607 89.454 0.547607 90.3611C0.547607 91.2682 1.27988 92.0005 2.18703 92.0005C3.09417 92.0005 3.82645 91.2682 3.82645 90.3611C3.82645 89.454 3.09417 88.7217 2.18703 88.7217Z" fill="#003153"/>
<path fill-rule="evenodd" clip-rule="evenodd" d="M17.4878 77.792C16.5807 77.792 15.8484 78.5243 15.8484 79.4314C15.8484 80.3386 16.5807 81.0708 17.4878 81.0708C18.395 81.0708 19.1272 80.3386 19.1272 79.4314C19.1272 78.5243 18.395 77.792 17.4878 77.792Z" fill="#003153"/>
<path fill-rule="evenodd" clip-rule="evenodd" d="M48.0913 83.0713C47.1842 83.0713 46.4519 83.8036 46.4519 84.7107C46.4519 85.6179 47.1842 86.3501 48.0913 86.3501C48.9985 86.3501 49.7307 85.6179 49.7307 84.7107C49.7307 83.8036 48.9985 83.0713 48.0913 83.0713Z" fill="#003153"/>
<path fill-rule="evenodd" clip-rule="evenodd" d="M32.7886 72.3271C31.8814 72.3271 31.1492 73.0594 31.1492 73.9666C31.1492 74.8737 31.8814 75.606 32.7886 75.606C33.6957 75.606 34.428 74.8737 34.428 73.9666C34.428 73.0594 33.6957 72.3271 32.7886 72.3271Z" fill="#003153"/>
<path fill-rule="evenodd" clip-rule="evenodd" d="M63.3921 84.7109C62.485 84.7109 61.7527 85.4432 61.7527 86.3504C61.7527 87.2575 62.485 87.9898 63.3921 87.9898C64.2993 87.9898 65.0315 87.2575 65.0315 86.3504C65.0315 85.4432 64.2993 84.7109 63.3921 84.7109Z" fill="#003153"/>
<path fill-rule="evenodd" clip-rule="evenodd" d="M78.6929 75.6055C77.7857 75.6055 77.0535 76.3377 77.0535 77.2449C77.0535 78.152 77.7857 78.8843 78.6929 78.8843C79.6 78.8843 80.3323 78.152 80.3323 77.2449C80.3323 76.3377 79.6 75.6055 78.6929 75.6055Z" fill="#003153"/>
<path fill-rule="evenodd" clip-rule="evenodd" d="M97.273 78.3389C96.3658 78.3389 95.6335 79.0711 95.6335 79.9783C95.6335 80.8854 96.3658 81.6177 97.273 81.6177C98.1801 81.6177 98.9124 80.8854 98.9124 79.9783C98.9124 79.0711 98.1801 78.3389 97.273 78.3389Z" fill="#003153"/>
<path fill-rule="evenodd" clip-rule="evenodd" d="M109.294 84.3496C108.387 84.3496 107.655 85.0819 107.655 85.989C107.655 86.8962 108.387 87.6285 109.294 87.6285C110.202 87.6285 110.934 86.8962 110.934 85.989C110.934 85.0819 110.202 84.3496 109.294 84.3496Z" fill="#003153"/>
<path fill-rule="evenodd" clip-rule="evenodd" d="M124.597 78.3389C123.69 78.3389 122.958 79.0711 122.958 79.9783C122.958 80.8854 123.69 81.6177 124.597 81.6177C125.504 81.6177 126.237 80.8854 126.237 79.9783C126.237 79.0711 125.504 78.3389 124.597 78.3389Z" fill="#003153"/>
<path fill-rule="evenodd" clip-rule="evenodd" d="M139.898 72.8711C138.991 72.8711 138.259 73.6034 138.259 74.5105C138.259 75.4177 138.991 76.1499 139.898 76.1499C140.805 76.1499 141.537 75.4177 141.537 74.5105C141.537 73.6034 140.805 72.8711 139.898 72.8711Z" fill="#003153"/>
<path fill-rule="evenodd" clip-rule="evenodd" d="M155.199 75.7852C154.292 75.7852 153.559 76.5174 153.559 77.4246C153.559 78.3317 154.292 79.064 155.199 79.064C156.106 79.064 156.838 78.3317 156.838 77.4246C156.838 76.5174 156.106 75.7852 155.199 75.7852Z" fill="#003153"/>
<path fill-rule="evenodd" clip-rule="evenodd" d="M170.5 75.7852C169.592 75.7852 168.86 76.5174 168.86 77.4246C168.86 78.3317 169.592 79.064 170.5 79.064C171.407 79.064 172.139 78.3317 172.139 77.4246C172.139 76.5174 171.407 75.7852 170.5 75.7852Z" fill="#003153"/>
<path fill-rule="evenodd" clip-rule="evenodd" d="M185.802 76.8779C184.895 76.8779 184.163 77.6102 184.163 78.5174C184.163 79.4245 184.895 80.1568 185.802 80.1568C186.709 80.1568 187.442 79.4245 187.442 78.5174C187.442 77.6102 186.709 76.8779 185.802 76.8779Z" fill="#003153"/>
<path fill-rule="evenodd" clip-rule="evenodd" d="M204.382 78.3389C203.475 78.3389 202.743 79.0711 202.743 79.9783C202.743 80.8854 203.475 81.6177 204.382 81.6177C205.289 81.6177 206.022 80.8854 206.022 79.9783C206.022 79.0711 205.289 78.3389 204.382 78.3389Z" fill="#003153"/>
</svg>
