<svg width="40" height="40" viewBox="0 0 40 40" fill="none" xmlns="http://www.w3.org/2000/svg">
<path d="M29.44 35.8425H27.94V27.9825C27.94 23.2425 27.7599 21.0624 23.0999 19.1624C22.7168 19.0695 22.3643 18.8788 22.0768 18.6089C21.7894 18.3389 21.5769 17.9991 21.46 17.6225C21.3843 17.2514 21.4155 16.8664 21.55 16.5123C21.6846 16.1582 21.9169 15.8497 22.2199 15.6225C23.3402 14.5198 24.0465 13.0649 24.2199 11.5025C24.3492 10.669 24.2926 9.81714 24.054 9.00805C23.8154 8.19895 23.4009 7.45256 22.84 6.8225C22.4586 6.37881 21.9814 6.02767 21.4443 5.79553C20.9073 5.56339 20.3245 5.45635 19.74 5.48254C19.164 5.43903 18.5859 5.5302 18.0513 5.7489C17.5167 5.9676 17.0403 6.30783 16.66 6.74255C16.1019 7.37082 15.6875 8.11327 15.4457 8.91808C15.2039 9.72289 15.1406 10.5708 15.26 11.4026C15.4227 13.0029 16.1285 14.4992 17.26 15.6426C17.4007 15.7634 17.5221 15.9049 17.62 16.0625C17.8096 16.3706 17.9196 16.7212 17.94 17.0825C17.9691 17.2546 17.9691 17.4304 17.94 17.6025C17.9032 17.7796 17.8355 17.9489 17.74 18.1025C17.6585 18.266 17.5504 18.4146 17.42 18.5424C17.3041 18.6827 17.1613 18.7984 17 18.8825C16.8436 18.9824 16.6757 19.063 16.5 19.1225C11.74 21.1225 11.54 23.2625 11.54 27.9425V35.8024H10V27.9425C10 23.0225 10.26 20.1224 15.78 17.7824C15.9101 17.7461 16.0301 17.6804 16.1307 17.5902C16.2312 17.5 16.3097 17.3879 16.36 17.2625C16.3802 17.1429 16.3707 17.0201 16.3324 16.905C16.294 16.7899 16.228 16.6861 16.14 16.6025C14.8028 15.2378 13.9643 13.4622 13.76 11.5625C13.6182 10.526 13.702 9.47115 14.0057 8.47008C14.3095 7.46901 14.8261 6.54544 15.52 5.76257C16.6781 4.63256 18.2319 4 19.85 4C21.468 4 23.0219 4.63256 24.18 5.76257C24.8808 6.54156 25.4033 7.46416 25.7107 8.46593C26.0182 9.46771 26.1032 10.5244 25.96 11.5625C25.7372 13.5047 24.8211 15.3014 23.38 16.6225C22.98 16.9225 22.98 17.1625 22.98 17.2625C22.98 17.3625 23.2 17.5824 23.7 17.7824C29.48 20.1424 29.4799 23.4025 29.4799 27.9425L29.44 35.8425Z" fill="black" fill-opacity="0.85"/>
<path d="M18.6206 29.7627C18.7114 29.7576 18.8017 29.7796 18.88 29.8259C18.9584 29.8722 19.0212 29.9407 19.0606 30.0227L19.6606 31.1626L20.2406 30.0227C20.293 29.9104 20.3867 29.8227 20.5023 29.7779C20.6179 29.7332 20.7462 29.7348 20.8606 29.7826L22.1006 30.1826L21.7006 28.9826C21.5806 28.7226 21.7006 28.5426 21.9406 28.4226L23.1206 27.8426L21.9406 27.2826C21.8575 27.2328 21.7943 27.1558 21.7615 27.0647C21.7286 26.9736 21.7284 26.8739 21.7606 26.7826L22.1806 25.6026L20.9206 25.9826C20.8655 26.0096 20.8057 26.0253 20.7445 26.0288C20.6833 26.0323 20.6221 26.0236 20.5643 26.0032C20.5066 25.9827 20.4535 25.9508 20.4082 25.9095C20.3629 25.8682 20.3263 25.8183 20.3006 25.7627L19.7206 24.6227L19.1206 25.7627C19.0991 25.8169 19.0665 25.8661 19.0249 25.9071C18.9834 25.948 18.9337 25.9799 18.8791 26.0006C18.8246 26.0213 18.7663 26.0303 18.708 26.0272C18.6497 26.0241 18.5927 26.009 18.5406 25.9826L17.2606 25.6026L17.7006 26.7826C17.7229 26.8376 17.7339 26.8967 17.7328 26.956C17.7318 27.0154 17.7187 27.074 17.6944 27.1282C17.6701 27.1823 17.6351 27.231 17.5915 27.2713C17.5479 27.3116 17.4965 27.3427 17.4406 27.3626L16.2606 27.9226L17.4406 28.5027C17.4958 28.5204 17.5468 28.5494 17.5903 28.5877C17.6337 28.6261 17.6688 28.6731 17.6932 28.7257C17.7176 28.7783 17.731 28.8354 17.7322 28.8934C17.7335 28.9514 17.7227 29.009 17.7006 29.0626L17.2606 30.2627L18.6206 29.7826V29.7627ZM19.7206 32.6826C19.6293 32.6904 19.5378 32.6696 19.459 32.623C19.3801 32.5764 19.3177 32.5063 19.2806 32.4226L18.4206 30.8026L16.6606 31.3827C16.5737 31.404 16.483 31.4043 16.396 31.3834C16.309 31.3625 16.2283 31.3211 16.1606 31.2627C16.0831 31.2131 16.0263 31.1372 16.0005 31.0489C15.9748 30.9607 15.9819 30.866 16.0206 30.7826L16.6406 29.0626L14.9406 28.2627C14.8565 28.2299 14.7845 28.1719 14.7344 28.0968C14.6843 28.0216 14.6585 27.9329 14.6606 27.8426C14.6565 27.7544 14.6818 27.6673 14.7325 27.5949C14.7831 27.5226 14.8563 27.469 14.9406 27.4426L16.6406 26.6227L16.0206 24.9027C15.9832 24.8222 15.9767 24.7308 16.0026 24.6459C16.0284 24.561 16.0846 24.4885 16.1606 24.4426C16.2231 24.3757 16.3028 24.3273 16.391 24.3026C16.4791 24.2779 16.5724 24.2779 16.6606 24.3026L18.4206 24.8827L19.2806 23.2826C19.3247 23.2059 19.3891 23.143 19.4668 23.1007C19.5444 23.0583 19.6322 23.0382 19.7206 23.0426C19.8085 23.0403 19.8956 23.0614 19.9728 23.1035C20.0501 23.1456 20.1148 23.2074 20.1606 23.2826L21.0006 24.8827L22.8006 24.3026C22.8889 24.2801 22.9816 24.2812 23.0693 24.3058C23.1571 24.3303 23.2368 24.3775 23.3006 24.4426C23.3509 24.5087 23.3781 24.5895 23.3781 24.6726C23.3781 24.7557 23.3509 24.8366 23.3006 24.9027L22.7206 26.6227L24.4006 27.4426C24.4778 27.4772 24.5434 27.5334 24.5895 27.6043C24.6356 27.6753 24.6603 27.758 24.6606 27.8426C24.6593 27.9296 24.6346 28.0146 24.5888 28.0886C24.543 28.1626 24.4779 28.2228 24.4006 28.2627L22.7206 29.0626L23.3006 30.7826C23.3496 30.853 23.3759 30.9369 23.3759 31.0227C23.3759 31.1085 23.3496 31.1922 23.3006 31.2627C23.2329 31.3211 23.1522 31.3625 23.0652 31.3834C22.9782 31.4043 22.8874 31.404 22.8006 31.3827L21.0006 30.8026L20.1606 32.4226C20.1192 32.503 20.0559 32.5701 19.9781 32.6161C19.9002 32.6621 19.8109 32.6851 19.7206 32.6826Z" fill="black" fill-opacity="0.85"/>
</svg>
