<svg width="14" height="15" viewBox="0 0 14 15" fill="none" xmlns="http://www.w3.org/2000/svg">
<path fill-rule="evenodd" clip-rule="evenodd" d="M0 2.07012C0 1.40738 0.537258 0.870117 1.2 0.870117H12.8004C13.4631 0.870117 14.0004 1.40738 14.0004 2.07012V13.6701C14.0004 14.3329 13.4631 14.8701 12.8004 14.8701H1.2C0.537258 14.8701 0 14.3329 0 13.6701V2.07012Z" fill="#1890ff"/>
<path fill-rule="evenodd" clip-rule="evenodd" d="M10.2325 11.3139C10.247 11.3526 10.2712 11.3864 10.305 11.4009C10.3292 11.4106 10.3486 11.4155 10.3727 11.4155C10.3873 11.4155 10.4018 11.4155 10.4163 11.4106L11.5238 11.0479C11.5625 11.0334 11.5915 11.0092 11.6061 10.9753C11.6254 10.9415 11.6254 10.9028 11.6157 10.8641L11.5432 10.6416C11.5142 10.5691 11.4368 10.5304 11.3546 10.5546C11.282 10.5787 11.1756 10.6126 11.0595 10.6513C11.4078 9.88713 11.5915 9.04558 11.5915 8.21853C11.5915 6.72406 11.0063 5.32147 9.94714 4.26228C9.8891 4.20424 9.79721 4.20424 9.74401 4.26228L9.49251 4.52345C9.43931 4.57665 9.43931 4.66371 9.49251 4.72175C10.4308 5.65519 10.9435 6.89817 10.9435 8.21853C10.9435 8.95852 10.7839 9.70334 10.4743 10.3804C10.4308 10.2499 10.3921 10.129 10.3631 10.0467C10.3534 10.0129 10.3244 9.98386 10.2905 9.96451C10.2518 9.95 10.2131 9.95 10.1841 9.95967L9.96648 10.0322C9.8891 10.0564 9.84557 10.1338 9.86975 10.2112L10.2325 11.3139Z" fill="white"/>
<path fill-rule="evenodd" clip-rule="evenodd" d="M8.94715 8.21421C8.94715 6.65203 7.78155 5.41388 6.171 5.27362C6.12263 5.26879 6.08394 5.26879 6.08394 5.26879C6.05009 5.26879 6.01623 5.27846 5.99205 5.30264C5.96303 5.33166 5.94368 5.37035 5.94368 5.40905V5.76211C5.94368 5.84433 6.00656 5.9072 6.08394 5.9072L6.11296 5.91204C7.38496 6.02328 8.30873 6.99058 8.30873 8.21421C8.30873 9.71836 7.20117 10.8501 5.73088 10.8501C4.10098 10.8501 2.77578 9.54425 2.77578 7.94337C2.77578 6.1587 4.22189 4.71259 6.00656 4.71259C7.93632 4.71259 9.50818 6.28445 9.50818 8.21421C9.50818 9.17668 9.1261 10.1295 8.4635 10.8308C8.32324 10.9565 8.3571 10.9275 8.3571 10.9275C8.33291 10.9565 8.31357 10.9904 8.31357 11.0291C8.31357 11.0677 8.32808 11.1064 8.3716 11.15L8.61343 11.4111C8.6231 11.4208 8.65696 11.4353 8.69565 11.4402C8.73918 11.4402 8.77303 11.4256 8.80205 11.3966C8.80205 11.3966 8.73434 11.4643 8.9278 11.2709C9.70648 10.4535 10.1514 9.33628 10.1514 8.21421C10.1514 5.92655 8.28938 4.06934 6.00656 4.06934C3.86883 4.06934 2.13252 5.80564 2.13252 7.94337C2.13252 9.89732 3.74791 11.4934 5.73088 11.4934C7.53489 11.4934 8.94715 10.0521 8.94715 8.21421Z" fill="white"/>
</svg>
