<svg width="17" height="16" viewBox="0 0 17 16" fill="none" xmlns="http://www.w3.org/2000/svg">
<g clip-path="url(#clip0)">
<path fill-rule="evenodd" clip-rule="evenodd" d="M0.47998 1.66667C0.47998 0.746193 1.22617 0 2.14665 0H14.8133C15.7338 0 16.48 0.746192 16.48 1.66667V14.333C16.48 15.2534 15.7338 15.9996 14.8133 15.9996H2.14665C1.22617 15.9996 0.47998 15.2534 0.47998 14.333V1.66667Z" fill="#7F7F7F"/>
<path fill-rule="evenodd" clip-rule="evenodd" d="M15.1875 12.8462C15.2151 12.7979 15.2151 12.7428 15.2013 12.6876L15.0979 12.3704C15.0565 12.267 14.9462 12.2118 14.8289 12.2463C14.7255 12.2808 14.5738 12.329 14.4083 12.3842C14.9048 11.2947 15.1668 10.0948 15.1668 8.91564C15.1668 6.78487 14.3324 4.78511 12.8223 3.27495C12.7395 3.1922 12.6085 3.1922 12.5327 3.27495L12.1741 3.64732C12.0982 3.72317 12.0982 3.8473 12.1741 3.93004C13.5118 5.26092 14.2428 7.03312 14.2428 8.91564C14.2428 9.97069 14.0152 11.0326 13.5739 11.998C13.5118 11.8118 13.4567 11.6395 13.4153 11.5222C13.4015 11.474 13.3601 11.4326 13.3119 11.405C13.2567 11.3843 13.2015 11.3843 13.1602 11.3981L12.8499 11.5015C12.7395 11.536 12.6775 11.6463 12.7119 11.7567L13.2291 13.3289C13.2498 13.3841 13.2843 13.4254 13.3326 13.453C13.367 13.4668 13.3946 13.4737 13.4291 13.4737C13.4498 13.4737 13.4705 13.4737 13.4912 13.4668L15.0703 12.9496C15.1254 12.9289 15.1668 12.8945 15.1875 12.8462Z" fill="white"/>
<path fill-rule="evenodd" clip-rule="evenodd" d="M7.114 4.91011V5.4135C7.114 5.53073 7.20364 5.62037 7.31397 5.62037L7.35535 5.62727C9.16892 5.78587 10.486 7.16501 10.486 8.90962C10.486 11.0542 8.90688 12.6678 6.81059 12.6678C4.48673 12.6678 2.59731 10.8059 2.59731 8.52347C2.59731 5.97895 4.65912 3.91713 7.20364 3.91713C9.95503 3.91713 12.1961 6.15824 12.1961 8.90962C12.1961 10.2819 11.6514 11.6403 10.7067 12.6402C10.5067 12.8195 10.555 12.7781 10.555 12.7781C10.5205 12.8195 10.4929 12.8678 10.4929 12.9229C10.4929 12.9781 10.5136 13.0333 10.5756 13.0953L10.9204 13.4677C10.9342 13.4815 10.9825 13.5022 11.0377 13.5091C11.0997 13.5091 11.148 13.4884 11.1894 13.447C11.1894 13.447 11.0928 13.5504 11.3687 13.2677C12.4789 12.1023 13.1133 10.5094 13.1133 8.90962C13.1133 5.64795 10.4584 3 7.20364 3C4.15574 3 1.68018 5.47556 1.68018 8.52347C1.68018 11.3162 3.98334 13.5849 6.81059 13.5849C9.38269 13.5849 11.3962 11.53 11.3962 8.90962C11.3962 6.68231 9.73437 4.91701 7.4381 4.71703C7.36914 4.71014 7.31397 4.71014 7.31397 4.71014C7.2657 4.71014 7.21743 4.72393 7.18295 4.75841C7.14158 4.79978 7.114 4.85495 7.114 4.91011Z" fill="white"/>
</g>
<defs>
<clipPath id="clip0">
<rect width="16" height="15.9997" fill="white" transform="translate(0.47998)"/>
</clipPath>
</defs>
</svg>
