<svg width="20" height="20" viewBox="0 0 20 20" fill="none" xmlns="http://www.w3.org/2000/svg">
<path fill-rule="evenodd" clip-rule="evenodd" d="M0 1.99993C0 0.895397 0.8954 0 1.99993 0H18.0003C19.1049 0 20.0003 0.895429 20.0003 2V17.9997C20.0003 19.1042 19.1049 19.9997 18.0003 19.9997H2.00008C0.895467 19.9997 0 19.1042 0 17.9996V1.99993Z" fill="#8089AA"/>
<g clip-path="url(#clip0)">
<path fill-rule="evenodd" clip-rule="evenodd" d="M15.5939 3.612C15.4839 3.502 15.3239 3.512 15.2139 3.612L14.7639 4.082C14.6739 4.182 14.6739 4.342 14.7639 4.452C16.4639 6.142 17.4039 8.392 17.4039 10.792C17.4039 12.142 17.1039 13.492 16.5439 14.722C16.4639 14.482 16.3939 14.262 16.3439 14.112C16.3239 14.052 16.2739 13.992 16.2139 13.962C16.1439 13.932 16.0739 13.932 16.0139 13.952L15.6239 14.082C15.4839 14.132 15.4039 14.272 15.4539 14.412L16.1139 16.412C16.1339 16.482 16.1739 16.542 16.2439 16.572C16.2839 16.592 16.3239 16.602 16.3639 16.602C16.3839 16.602 16.4139 16.602 16.4439 16.592L18.4539 15.932C18.5239 15.902 18.5739 15.862 18.6039 15.792C18.6339 15.732 18.6339 15.662 18.6139 15.602L18.4839 15.192C18.4339 15.062 18.2939 14.992 18.1439 15.032C18.0139 15.082 17.8239 15.142 17.6039 15.212C18.2439 13.822 18.5839 12.302 18.5839 10.792C18.5839 8.082 17.5139 5.532 15.5939 3.612Z" fill="white"/>
</g>
<path fill-rule="evenodd" clip-rule="evenodd" d="M14.7933 10.7907C14.7933 12.5307 14.1033 14.2607 12.8933 15.5307C12.6433 15.7607 12.7033 15.7107 12.7033 15.7107C12.6533 15.7607 12.6233 15.8307 12.6233 15.9007C12.6233 15.9707 12.6533 16.0307 12.7233 16.1207L13.1633 16.5907C13.1833 16.6107 13.2433 16.6407 13.3133 16.6407C13.3933 16.6407 13.4633 16.6107 13.5133 16.5607C13.5133 16.5607 13.3833 16.6907 13.7333 16.3307C15.1533 14.8507 15.9633 12.8207 15.9633 10.7907C15.9633 6.64074 12.5833 3.26074 8.43332 3.26074C4.55332 3.26074 1.40332 6.41074 1.40332 10.2907C1.40332 13.8407 4.33332 16.7407 7.94332 16.7407C11.2133 16.7407 13.7833 14.1207 13.7833 10.7907C13.7833 7.95074 11.6533 5.70074 8.73332 5.44074C8.64332 5.43074 8.57332 5.43074 8.57332 5.43074C8.51332 5.43074 8.45332 5.46074 8.40332 5.50074C8.35332 5.55074 8.32332 5.62074 8.32332 5.69074V6.34074C8.32332 6.48074 8.44332 6.60074 8.58332 6.60074H8.63332C10.9333 6.81074 12.6133 8.57074 12.6133 10.7907C12.6133 13.5107 10.6033 15.5707 7.94332 15.5707C4.97332 15.5707 2.56332 13.2007 2.56332 10.2907C2.56332 7.06074 5.19332 4.42074 8.43332 4.42074C11.9433 4.42074 14.7933 7.28074 14.7933 10.7907Z" fill="white"/>
<defs>
<clipPath id="clip0">
<rect width="3.93625" height="13.0696" fill="white" transform="translate(14.694 3.53223)"/>
</clipPath>
</defs>
</svg>
