<svg width="40" height="40" viewBox="0 0 40 40" fill="none" xmlns="http://www.w3.org/2000/svg">
<path d="M26.9603 30.02C25.9003 29.68 25.2803 29.28 25.1203 28.8C24.9603 28.32 25.4403 27.52 25.8603 27.02C28.5334 24.16 30.1126 20.4492 30.3203 16.54C30.3203 9.64003 26.3203 5.02002 20.3203 5.02002C14.3203 5.02002 10.3203 9.64003 10.3203 16.54C10.3767 18.4832 10.8044 20.3976 11.5803 22.18C12.3431 23.9749 13.4276 25.6151 14.7803 27.02C15.2003 27.52 15.6803 28.24 15.5203 28.8C15.3603 29.36 14.7403 29.68 13.6803 30.02C10.5203 31.06 6.32031 32.76 6.32031 35.8H7.88031C7.88031 34.24 10.0203 32.76 14.2403 31.4C14.8569 31.312 15.4391 31.062 15.9275 30.6755C16.4159 30.289 16.793 29.7799 17.0203 29.2C17.138 28.641 17.1077 28.0608 16.9323 27.517C16.7569 26.9733 16.4425 26.4849 16.0203 26.1001C13.5105 23.5012 12.0441 20.0701 11.9003 16.4601C11.7757 13.7955 12.6453 11.1796 14.3403 9.11999C15.0807 8.25681 16.0021 7.56736 17.0391 7.1007C18.0761 6.63404 19.2033 6.40168 20.3403 6.42004C21.5097 6.39543 22.6703 6.6276 23.7403 7.10009C24.7952 7.55742 25.7372 8.24005 26.5003 9.10009C28.2122 11.1582 29.0836 13.7869 28.9403 16.4601C28.8047 20.0661 27.3368 23.4937 24.8203 26.08C24.398 26.4692 24.0839 26.9612 23.9086 27.508C23.7333 28.0549 23.7029 28.6379 23.8203 29.2C24.0504 29.7761 24.4288 30.2812 24.917 30.664C25.4052 31.0468 25.9859 31.2938 26.6003 31.3799C30.8203 32.7599 32.9603 34.24 32.9603 35.8H34.4203C34.4203 32.76 30.2203 30.98 27.0603 30.02" fill="black" fill-opacity="0.85"/>
<path d="M16.1995 17.04L17.1995 16.0601L18.2195 17.04L18.9795 16.3L17.9595 15.3L18.9795 14.3201L18.2195 13.5601L17.1995 14.5601L16.1995 13.5601L15.4395 14.3201L16.4395 15.3L15.4395 16.3L16.1995 17.04Z" fill="black" fill-opacity="0.85"/>
<path d="M22.5999 17.04L23.5998 16.0601L24.6198 17.04L25.3798 16.3L24.3599 15.3L25.3798 14.3201L24.6198 13.5601L23.5998 14.5601L22.5999 13.5601L21.8398 14.3201L22.8398 15.3L21.8398 16.3L22.5999 17.04Z" fill="black" fill-opacity="0.85"/>
<path d="M17.4805 22.1L18.0204 23.0199C18.7647 22.5879 19.6099 22.3603 20.4705 22.3603C21.331 22.3603 22.1762 22.5879 22.9205 23.0199L23.4404 22.1C22.5711 21.5761 21.5754 21.2993 20.5604 21.2993C19.5455 21.2993 18.5497 21.5761 17.6804 22.1" fill="black" fill-opacity="0.85"/>
<path d="M5.32 13.9999C4.69235 13.8419 4.13038 13.4903 3.71393 12.9949C3.29747 12.4994 3.04768 11.8853 3 11.2399C3 10.1199 3.70004 7.97992 8.48003 6.41992L8.81999 7.45996C5.88 8.39996 4.10003 9.81986 4.10003 11.2399C4.13831 11.6551 4.3054 12.0479 4.57794 12.3635C4.85047 12.6791 5.21478 12.9016 5.61999 12.9999L5.32 13.9999Z" fill="black" fill-opacity="0.85"/>
<path d="M8.95921 12.8398C8.11922 12.8398 5.91923 12.8398 5.71923 11.2998C5.55923 10.2998 6.45924 8.8998 14.4792 7.2998L14.7192 8.35986C6.85923 10.0199 6.71923 11.2998 6.71923 11.2998C7.36156 11.6979 8.10355 11.9059 8.85924 11.8998L8.95921 12.8398Z" fill="black" fill-opacity="0.85"/>
<path d="M32.301 11.66L31.9609 10.64C34.9209 9.62 36.6609 8.22004 36.6609 6.80004C36.6213 6.38587 36.4535 5.99437 36.1809 5.68005C35.9094 5.36351 35.5458 5.13973 35.1409 5.04004L35.4809 4C36.1109 4.16854 36.6711 4.53273 37.0809 5.04004C37.4988 5.5337 37.7383 6.15367 37.7609 6.80004C37.7609 7.94004 37.081 10.06 32.301 11.62" fill="black" fill-opacity="0.85"/>
<path d="M22.4007 11.5201L22.2207 10.4402C33.8007 8.44018 33.9207 6.88023 33.9207 6.86023C33.2747 6.4514 32.5251 6.23613 31.7607 6.24011V5.16016C32.5607 5.16016 34.8007 5.1602 34.9607 6.70019C34.9607 7.42019 35.3206 9.30013 22.3807 11.5201" fill="black" fill-opacity="0.85"/>
</svg>
