<svg width="40" height="40" viewBox="0 0 40 40" fill="none" xmlns="http://www.w3.org/2000/svg">
<path d="M27.1799 29.8601C26.0999 29.5201 25.46 29.06 25.32 28.56C25.18 28.06 25.62 27.24 26.06 26.72C27.4229 25.2473 28.5193 23.5486 29.2999 21.7C30.077 19.8592 30.5238 17.8958 30.6199 15.9C30.6199 8.78001 26.4999 4 20.36 4C14.22 4 10.1 8.78001 10.1 15.9C10.1558 17.9013 10.5831 19.8749 11.36 21.7201C12.1428 23.5709 13.2541 25.2648 14.64 26.72C15.08 27.24 15.5799 28 15.3999 28.56C15.2199 29.12 14.62 29.5201 13.54 29.8601C10.3 30.9 6 32.66 6 35.86H7.47998C7.47998 34.24 9.65999 32.72 14 31.32C14.62 31.1919 15.2008 30.9183 15.6945 30.5219C16.1882 30.1255 16.5808 29.6177 16.8399 29.04C16.9741 28.4642 16.9502 27.8628 16.7706 27.2995C16.5911 26.7362 16.2626 26.232 15.82 25.84C13.2617 23.1193 11.7643 19.5711 11.6 15.8401C11.4741 13.0888 12.3718 10.3883 14.12 8.26C14.8972 7.39813 15.8526 6.71568 16.92 6.26C18.0036 5.78612 19.1775 5.55413 20.36 5.58007C21.5577 5.54986 22.747 5.78904 23.8399 6.28002C24.9429 6.75865 25.9213 7.48391 26.7 8.40001C28.4359 10.5339 29.3258 13.2321 29.2 15.9801C29.125 17.8178 28.7185 19.6269 28 21.32C27.2729 23.0257 26.2505 24.5897 24.9799 25.94C24.5513 26.3055 24.2247 26.7757 24.0319 27.305C23.8391 27.8343 23.7868 28.4045 23.88 28.96C24.0759 29.588 24.443 30.149 24.94 30.58C25.4381 31.0244 26.0456 31.3281 26.7 31.46C31.04 32.88 33.2399 34.3999 33.2399 35.9999H34.7399C34.7399 32.8799 30.42 31.0399 27.2 29.9999" fill="black" fill-opacity="0.85"/>
<path d="M14.7793 15.04L18.1993 13.5601L18.6393 14.5601L15.2193 16.04L14.7793 15.04Z" fill="black" fill-opacity="0.85"/>
<path d="M21.9805 14.54L22.4205 13.54L25.8605 15.04L25.4205 16.04L21.9805 14.54Z" fill="black" fill-opacity="0.85"/>
<path d="M20.339 23.54C20.1728 23.5368 20.0091 23.4996 19.8578 23.4309C19.7065 23.3621 19.5707 23.2631 19.459 23.14C19.2878 22.9573 19.1722 22.7298 19.1254 22.4838C19.0787 22.2379 19.1029 21.9837 19.1951 21.7509C19.2874 21.5182 19.4439 21.3165 19.6465 21.1694C19.849 21.0223 20.0892 20.9358 20.339 20.92C20.5033 20.9284 20.6641 20.97 20.8119 21.0422C20.9597 21.1144 21.0914 21.2157 21.1991 21.34C21.4071 21.5939 21.5207 21.9118 21.5207 22.2399C21.5207 22.5681 21.4071 22.8861 21.1991 23.14C21.0904 23.2616 20.9581 23.3598 20.8102 23.4285C20.6624 23.4973 20.502 23.5352 20.339 23.54ZM20.339 19.8601C20.0024 19.8224 19.6616 19.8565 19.339 19.96C19.0147 20.0552 18.7146 20.2188 18.459 20.44C18.1925 20.638 17.9794 20.8992 17.839 21.2C17.6859 21.4994 17.5909 21.8252 17.5591 22.16C17.5449 22.4925 17.5924 22.8247 17.6991 23.14C17.8142 23.4536 17.9835 23.7447 18.1991 23.9999C18.4331 24.2436 18.7114 24.4405 19.0191 24.58C19.3209 24.7203 19.6467 24.8017 19.9791 24.82C20.3199 24.8372 20.6606 24.7827 20.9791 24.66C21.2946 24.5425 21.5812 24.3583 21.8191 24.1199C22.0625 23.8935 22.2595 23.6218 22.399 23.32C22.5248 23.0083 22.5926 22.6762 22.599 22.34C22.6211 22.0268 22.5733 21.7125 22.459 21.42C22.3575 21.1267 22.2015 20.8552 21.9991 20.6199C21.7763 20.4004 21.5197 20.2182 21.2391 20.08C20.9604 19.9373 20.6521 19.8619 20.339 19.8601Z" fill="black" fill-opacity="0.85"/>
</svg>
