<svg width="24" height="24" viewBox="0 0 24 24" fill="none" xmlns="http://www.w3.org/2000/svg">
<path d="M11.1997 4.21012C11.5697 4.16012 11.9397 4.13012 12.3197 4.12012C12.4797 4.12012 12.5497 4.30012 12.4597 4.43012C12.2497 4.70012 12.0597 4.99012 11.8897 5.29012C11.3597 6.25012 11.0497 7.36012 11.0497 8.54012C11.0497 12.2501 14.0597 15.2601 17.7697 15.2601C17.9297 15.2601 18.0897 15.2501 18.2497 15.2401C18.5997 15.2201 18.9397 15.1601 19.2797 15.0901C19.4297 15.0601 19.5597 15.2001 19.4997 15.3401C19.3397 15.6801 19.1497 16.0101 18.9497 16.3201C17.5397 18.4501 15.1197 19.8601 12.3797 19.8601C8.03969 19.8601 4.50969 16.3301 4.50969 11.9901C4.48969 8.06012 7.40969 4.78012 11.1997 4.21012ZM12.3697 18.7201C14.3897 18.7201 16.1997 17.8301 17.4297 16.4101C13.2497 16.2301 9.89968 12.7701 9.89968 8.55012C9.89968 7.49012 10.1097 6.47012 10.4897 5.55012C7.68969 6.36012 5.64968 8.95012 5.64968 12.0001C5.64968 15.7101 8.65969 18.7201 12.3697 18.7201Z" fill="#636363" />
<path d="M20 1H23L20 4H23" stroke="#636363"  stroke-linejoin="round"/>
<path d="M18 6H20L18 8H20" stroke="#636363"  stroke-linejoin="round"/>
<path d="M15 10H17L15 12H17" stroke="#636363"  stroke-linejoin="round"/>
</svg>
