<svg width="18" height="19" viewBox="0 0 18 19" fill="none" xmlns="http://www.w3.org/2000/svg">
<g clip-path="url(#clip0_4959_371)">
<path d="M8.85875 1C7.10595 1.00124 5.39286 1.52205 3.93598 2.49662C2.47909 3.4712 1.34381 4.85578 0.673616 6.4754C0.00342022 8.09501 -0.17161 9.87695 0.170647 11.596C0.512904 13.3151 1.35709 14.8941 2.5965 16.1335C3.83592 17.3729 5.41494 18.2171 7.134 18.5594C8.85305 18.9016 10.635 18.7266 12.2546 18.0564C13.8742 17.3862 15.2588 16.2509 16.2334 14.794C17.2079 13.3371 17.7288 11.624 17.73 9.87125C17.73 7.51845 16.7954 5.26201 15.1317 3.59833C13.468 1.93465 11.2116 1 8.85875 1ZM8.85875 17.7429C7.2995 17.7429 5.77527 17.2805 4.47885 16.4141C3.18243 15.5478 2.17206 14.3164 1.57553 12.8758C0.979003 11.4352 0.823114 9.84998 1.12758 8.32074C1.43205 6.7915 2.1832 5.38691 3.28602 4.28461C4.38884 3.18232 5.79379 2.43184 7.32317 2.1281C8.85255 1.82436 10.4377 1.981 11.878 2.57821C13.3184 3.17543 14.5492 4.18638 15.415 5.48322C16.2807 6.78005 16.7424 8.3045 16.7417 9.86375C16.74 11.9539 15.909 13.958 14.431 15.436C12.953 16.914 10.9489 17.745 8.85875 17.7467V17.7429Z" fill="#00A14B"/>
<path d="M8.27648 11.2945H9.45598L9.77709 5.82178H7.94287L8.27648 11.2945Z" fill="#00A14B"/>
<path d="M9.4435 12.4302H8.27649V13.9071H9.4435V12.4302Z" fill="#00A14B"/>
</g>
<defs>
<clipPath id="clip0_4959_371">
<rect width="18" height="18" fill="white" transform="translate(0 0.638184)"/>
</clipPath>
</defs>
</svg>
