<svg xmlns="http://www.w3.org/2000/svg" width="20" height="20" viewBox="0 0 20 20">
  <g id="Group_4315" data-name="Group 4315" transform="translate(-2048 -11609)">
    <g id="Rectangle_426" data-name="Rectangle 426" transform="translate(2048 11609)" fill="#fff" stroke="#d6d6d6" stroke-miterlimit="10" stroke-width="1">
      <rect width="20" height="20" rx="2" stroke="none"/>
      <rect x="0.5" y="0.5" width="19" height="19" rx="1.5" fill="none"/>
    </g>
    <path id="Path_247" data-name="Path 247" d="M2052.35,11617.431a.251.251,0,0,0-.353.023l-1.007,1.141a.251.251,0,0,0,.022.354l5.235,4.6a.247.247,0,0,0,.33,0l9-7.876a.25.25,0,0,0,.085-.172.246.246,0,0,0-.062-.182l-1.007-1.142a.25.25,0,0,0-.187-.085.254.254,0,0,0-.165.063l-7.64,6.678a.3.3,0,0,1-.376,0Z" fill="#306f95"/>
  </g>
</svg>
