<svg width="36" height="36" viewBox="0 0 36 36" fill="none" xmlns="http://www.w3.org/2000/svg">
<path d="M18 36C27.9411 36 36 27.9411 36 18C36 8.05887 27.9411 0 18 0C8.05887 0 0 8.05887 0 18C0 27.9411 8.05887 36 18 36Z" fill="#9254DE"/>
<path d="M20.1749 25.6397C19.9199 25.6397 19.6599 25.6147 19.4049 25.5597C18.6149 25.3897 17.9199 24.9747 17.4049 24.3697C16.5749 24.7047 15.6549 24.7847 14.7699 24.5947C13.5899 24.3397 12.5799 23.6397 11.9249 22.6297C11.2699 21.6147 11.0499 20.4047 11.3049 19.2247C11.4499 18.5547 11.7449 17.9297 12.1649 17.3897L10.3399 15.3347L10.3199 15.3047C10.1849 15.1047 10.1599 14.8447 10.2649 14.6247C10.3699 14.4047 10.5799 14.2547 10.8199 14.2297L10.8549 14.2247L13.6749 14.3197C13.6749 14.3147 13.6749 14.3147 13.6749 14.3097C13.9249 13.1397 14.6199 12.1397 15.6199 11.4947C16.6249 10.8447 17.8199 10.6297 18.9899 10.8797C20.7099 11.2497 22.0449 12.6147 22.4199 14.2997C22.8349 14.2447 23.2649 14.2597 23.6749 14.3497C24.6299 14.5547 25.4499 15.1197 25.9799 15.9447C26.5099 16.7647 26.6899 17.7447 26.4849 18.6997C26.1849 20.0847 25.1449 21.1447 23.8099 21.4797C23.8699 21.8997 23.8499 22.3297 23.7599 22.7497C23.3849 24.4647 21.8649 25.6397 20.1749 25.6397Z" fill="white"/>
<path d="M24.915 35.7651L27.225 33.4551C26.235 34.0451 25.19 34.5451 24.09 34.9401L24.915 35.7651Z" fill="url(#paint0_linear_938_2012)"/>
<defs>
<linearGradient id="paint0_linear_938_2012" x1="17.2185" y1="19.5855" x2="26.1492" y2="35.0538" gradientUnits="userSpaceOnUse">
<stop stop-color="#7A5CDE"/>
<stop offset="1" stop-color="#AC84FF" stop-opacity="0"/>
</linearGradient>
</defs>
</svg>
