<svg width="36" height="36" viewBox="0 0 36 36" fill="none" xmlns="http://www.w3.org/2000/svg">
<path d="M18 36C27.9411 36 36 27.9411 36 18C36 8.05887 27.9411 0 18 0C8.05887 0 0 8.05887 0 18C0 27.9411 8.05887 36 18 36Z" fill="#FADB14"/>
<path d="M21.465 25.855V22.635C21.465 22.5 21.535 22.37 21.66 22.305C22.35 21.93 24.665 20.38 24.665 16.375C24.665 11.67 20.84 10.04 17.95 10.04C15.06 10.04 11.49 11.33 11.49 15.9L9.44003 20.315C9.34003 20.56 9.52003 20.835 9.79003 20.835H11.365V21.715C11.365 22.965 12.375 23.975 13.625 23.975H14.69C14.795 23.975 14.88 24.06 14.88 24.165V25.86C14.88 25.965 14.965 26.05 15.07 26.05H21.28C21.38 26.045 21.465 25.96 21.465 25.855Z" fill="white"/>
<path d="M16.415 14.4802C12.17 14.4802 8.24501 13.7002 8.09001 12.0052C8.06001 11.6752 8.18001 11.3452 8.45501 11.0302C9.62 9.66516 13.525 8.54516 18.17 8.24016C23.185 7.91516 28.62 8.64016 28.805 10.6402C28.835 10.9702 28.715 11.3002 28.44 11.6152C27.275 12.9802 23.375 14.1002 18.725 14.4052C17.955 14.4552 17.18 14.4802 16.415 14.4802ZM20.49 8.66016C19.76 8.66016 18.995 8.68516 18.2 8.73516C13.75 9.02516 9.9 10.1002 8.83501 11.3502C8.65501 11.5602 8.57001 11.7652 8.59001 11.9552C8.70501 13.1802 12.88 14.2802 18.695 13.9002C23.145 13.6102 26.995 12.5352 28.06 11.2852C28.24 11.0752 28.325 10.8702 28.305 10.6802C28.2 9.62516 25.075 8.66016 20.49 8.66016Z" fill="#FE8037"/>
<path d="M24.26 15.2401C22.24 15.2401 19.755 14.8851 17.395 14.2801C12.965 13.1501 9.445 11.3501 8.625 9.81009C8.425 9.43509 8.385 9.08009 8.505 8.75509C9.17 6.92009 14.61 7.11509 19.485 8.36009C23.915 9.49509 27.435 11.2901 28.25 12.8301C28.45 13.2051 28.49 13.5601 28.37 13.8851C28.035 14.8351 26.415 15.2401 24.26 15.2401ZM12.675 7.90009C10.585 7.90009 9.215 8.29009 8.98 8.92509C8.91 9.11509 8.94 9.33009 9.07 9.57509C9.81 10.9751 13.285 12.7151 17.52 13.7951C23.105 15.2251 27.475 14.9001 27.905 13.7151C27.975 13.5251 27.945 13.3101 27.815 13.0651C27.075 11.6651 23.6 9.92509 19.365 8.84509C16.785 8.18509 14.465 7.90009 12.675 7.90009Z" fill="#FE8037"/>
<path d="M23.4442 5L24.4877 5.96727L25.9093 5.68364L25.2817 6.94182L26 8.15636L24.5633 7.96727L23.5803 9L23.3233 7.62545L22 7.05091L23.2854 6.38909L23.4442 5Z" fill="#FE8037"/>
<path d="M22.2396 15.48L22.2573 16.5331L23.1334 17.1172L22.1334 17.4623L21.8502 18.48L21.2219 17.6393L20.16 17.6835L20.7706 16.8163L20.3989 15.8251L21.4078 16.1348L22.2396 15.48Z" fill="#FE8037"/>
<path d="M12.6049 9.90479L12.9614 10.5271L13.6804 10.5876L13.197 11.1193L13.3662 11.8202L12.7076 11.5302L12.0913 11.9048L12.1698 11.1858L11.62 10.7145L12.3269 10.5694L12.6049 9.90479Z" fill="#FE8037"/>
</svg>
