<svg width="19" height="18" viewBox="0 0 19 18" fill="none" xmlns="http://www.w3.org/2000/svg">
<path d="M2.12248 12.3546C3.24532 13.4677 4.69998 14.1849 6.26659 14.398C7.8332 14.6111 9.42661 14.3084 10.806 13.5357L15.1263 17.8549C15.1721 17.9009 15.2264 17.9374 15.2863 17.9623C15.3462 17.9872 15.4104 18 15.4753 18C15.5402 18 15.6044 17.9872 15.6643 17.9623C15.7241 17.9374 15.7785 17.9009 15.8242 17.8549L17.8589 15.8202C17.9049 15.7745 17.9414 15.7201 17.9663 15.6602C17.9912 15.6003 18.0041 15.5361 18.0041 15.4712C18.0041 15.4064 17.9912 15.3422 17.9663 15.2823C17.9414 15.2224 17.9049 15.168 17.8589 15.1223L13.5398 10.8019C14.2034 9.62837 14.5261 8.29283 14.4715 6.94577C14.417 5.5987 13.9873 4.29364 13.2309 3.17763C12.4746 2.06161 11.4216 1.179 10.1906 0.629229C8.95964 0.0794572 7.59959 -0.115622 6.26371 0.0659698C4.92783 0.247562 3.6692 0.798609 2.62964 1.65702C1.59008 2.51544 0.8109 3.64711 0.379892 4.92452C-0.0511153 6.20194 -0.11682 7.57434 0.190176 8.88709C0.497172 10.1998 1.16467 11.4008 2.11746 12.3546H2.12248ZM2.82037 11.6567C1.98655 10.823 1.40553 9.77042 1.14442 8.62057C0.883305 7.47072 0.95274 6.27046 1.34471 5.15838C1.73668 4.04631 2.4352 3.06779 3.35961 2.33579C4.28402 1.6038 5.39661 1.14819 6.56893 1.02158C7.74124 0.894973 8.92545 1.10252 9.98483 1.62027C11.0442 2.13802 11.9355 2.94484 12.5559 3.94758C13.1763 4.95032 13.5004 6.10808 13.4908 7.28717C13.4812 8.46626 13.1383 9.61859 12.5017 10.6111C12.4407 10.706 12.414 10.8189 12.4261 10.931C12.4382 11.0432 12.4884 11.1478 12.5683 11.2274L16.8121 15.4712L15.4753 16.808L11.2315 12.5642C11.1525 12.4846 11.0489 12.4343 10.9375 12.4216C10.8262 12.4088 10.7138 12.4343 10.6189 12.4939C9.41677 13.2595 7.99007 13.5936 6.57298 13.4415C5.1559 13.2893 3.83263 12.66 2.82037 11.6567Z" fill="white"/>
<path fill-rule="evenodd" clip-rule="evenodd" d="M7.98137 4.14264L7.45549 6.83179H6.39959C6.31677 6.83179 6.24638 6.89053 6.22981 6.97024L5.84886 8.92102L4.92133 4.14264C4.90476 4.05873 4.83437 4 4.75155 4C4.66874 4 4.59834 4.05873 4.58178 4.14264L4.06004 6.8234H3V7.17161H4.20083C4.28364 7.17161 4.35404 7.11287 4.3706 7.02897L4.75155 5.07818L5.67909 9.85237H5.68323C5.69151 9.93208 5.75362 9.99081 5.8323 9.9992C5.91925 10.0076 6.00207 9.94886 6.01863 9.86076L6.54037 7.18H7.60041C7.64596 7.18 7.69151 7.15902 7.7205 7.12965C7.74948 7.10029 7.7619 7.06673 7.76605 7.02897H7.77019L8.15114 5.07818L9.07868 9.85237C9.0911 9.93208 9.14907 9.99081 9.23188 9.9992C9.31884 10.0076 9.39752 9.94886 9.41822 9.86076L9.93996 7.18H11V6.83179H9.79503C9.71222 6.83179 9.64182 6.89053 9.6294 6.97024L9.24845 8.92102L8.31677 4.14264C8.30021 4.05873 8.22981 4 8.15114 4C8.06832 4 7.99379 4.05873 7.98137 4.14264Z" fill="white"/>
</svg>
