<svg width="24" height="24" viewBox="0 0 24 24" fill="none" xmlns="http://www.w3.org/2000/svg">
<path d="M12.798 4.212C12.432 4.158 12.06 4.128 11.676 4.128C11.52 4.128 11.442 4.314 11.538 4.434C11.748 4.704 11.94 4.992 12.108 5.298C12.642 6.264 12.948 7.368 12.948 8.55C12.948 12.258 9.93597 15.27 6.22797 15.27C6.06597 15.27 5.90997 15.264 5.74797 15.252C5.39997 15.228 5.05797 15.174 4.72197 15.102C4.57197 15.066 4.43997 15.216 4.50597 15.354C4.66797 15.696 4.85397 16.026 5.05797 16.338C6.46797 18.468 8.88597 19.878 11.628 19.878C15.966 19.878 19.5 16.344 19.5 12.006C19.506 8.058 16.59 4.782 12.798 4.212ZM11.634 18.72C9.61797 18.72 7.79997 17.826 6.56997 16.41C10.752 16.23 14.106 12.774 14.106 8.544C14.106 7.482 13.896 6.468 13.512 5.544C16.308 6.36 18.354 8.94 18.354 12C18.354 15.708 15.342 18.72 11.634 18.72Z" fill="#636363"/>
</svg>
