<svg width="12" height="12" viewBox="0 0 12 12" fill="none" xmlns="http://www.w3.org/2000/svg">
<path d="M4.08082 3.49736L5.41666 2.15569V7.74986C5.41666 7.90457 5.47812 8.05294 5.58751 8.16234C5.69691 8.27173 5.84528 8.33319 5.99999 8.33319C6.1547 8.33319 6.30307 8.27173 6.41247 8.16234C6.52187 8.05294 6.58332 7.90457 6.58332 7.74986V2.15569L7.91916 3.49736C7.97339 3.55203 8.0379 3.59543 8.10899 3.62505C8.18007 3.65466 8.25632 3.66991 8.33332 3.66991C8.41033 3.66991 8.48658 3.65466 8.55766 3.62505C8.62875 3.59543 8.69326 3.55203 8.74749 3.49736C8.80217 3.44313 8.84556 3.37861 8.87518 3.30753C8.90479 3.23644 8.92004 3.1602 8.92004 3.08319C8.92004 3.00618 8.90479 2.92994 8.87518 2.85886C8.84556 2.78777 8.80217 2.72325 8.74749 2.66903L6.41416 0.335692C6.35868 0.282584 6.29326 0.240955 6.22166 0.213191C6.07964 0.154848 5.92034 0.154848 5.77832 0.213191C5.70672 0.240955 5.6413 0.282584 5.58582 0.335692L3.25249 2.66903C3.1981 2.72341 3.15496 2.78798 3.12552 2.85905C3.09609 2.93011 3.08094 3.00627 3.08094 3.08319C3.08094 3.16011 3.09609 3.23627 3.12552 3.30734C3.15496 3.3784 3.1981 3.44297 3.25249 3.49736C3.30688 3.55175 3.37145 3.59489 3.44251 3.62433C3.51357 3.65376 3.58974 3.66891 3.66666 3.66891C3.74357 3.66891 3.81974 3.65376 3.8908 3.62433C3.96187 3.59489 4.02643 3.55175 4.08082 3.49736ZM11.25 7.16652C11.0953 7.16652 10.9469 7.22798 10.8375 7.33738C10.7281 7.44678 10.6667 7.59515 10.6667 7.74986V10.0832C10.6667 10.2379 10.6052 10.3863 10.4958 10.4957C10.3864 10.6051 10.238 10.6665 10.0833 10.6665H1.91666C1.76195 10.6665 1.61357 10.6051 1.50418 10.4957C1.39478 10.3863 1.33332 10.2379 1.33332 10.0832V7.74986C1.33332 7.59515 1.27187 7.44678 1.16247 7.33738C1.05307 7.22798 0.9047 7.16652 0.74999 7.16652C0.59528 7.16652 0.446907 7.22798 0.337511 7.33738C0.228115 7.44678 0.166656 7.59515 0.166656 7.74986V10.0832C0.166656 10.5473 0.351031 10.9924 0.67922 11.3206C1.00741 11.6488 1.45253 11.8332 1.91666 11.8332H10.0833C10.5475 11.8332 10.9926 11.6488 11.3208 11.3206C11.6489 10.9924 11.8333 10.5473 11.8333 10.0832V7.74986C11.8333 7.59515 11.7719 7.44678 11.6625 7.33738C11.5531 7.22798 11.4047 7.16652 11.25 7.16652Z" fill="black" fill-opacity="0.85"/>
</svg>
