<svg width="36" height="36" viewBox="0 0 36 36" fill="none" xmlns="http://www.w3.org/2000/svg">
<path d="M18 36C27.9411 36 36 27.9411 36 18C36 8.05887 27.9411 0 18 0C8.05887 0 0 8.05887 0 18C0 27.9411 8.05887 36 18 36Z" fill="#FAAD14"/>
<path d="M22.325 26.9297V23.7097C22.325 23.5747 22.395 23.4447 22.52 23.3797C23.21 23.0047 25.525 21.4547 25.525 17.4497C25.525 12.7447 21.7 11.1147 18.81 11.1147C15.92 11.1147 12.35 12.4047 12.35 16.9747L10.3 21.3897C10.2 21.6347 10.38 21.9097 10.65 21.9097H12.225V22.7897C12.225 24.0397 13.235 25.0497 14.485 25.0497H15.55C15.655 25.0497 15.74 25.1347 15.74 25.2397V26.9347C15.74 27.0397 15.825 27.1247 15.93 27.1247H22.14C22.24 27.1197 22.325 27.0347 22.325 26.9297Z" fill="white"/>
<path d="M20.68 20.6699C20.03 20.6699 19.5 20.1399 19.5 19.4899C19.5 18.5999 20.145 17.4599 20.68 16.6899C21.215 17.4599 21.86 18.5999 21.86 19.4899C21.86 20.1399 21.33 20.6699 20.68 20.6699Z" fill="#9CC3DB"/>
<path d="M14.32 7.32985C14.59 7.54985 14.62 7.59485 14.62 7.68985C14.62 7.78985 14.59 7.83485 14.32 8.04985C14.035 8.27985 13.99 8.69485 14.215 8.97985C14.345 9.14485 14.54 9.22985 14.73 9.22985C14.875 9.22985 15.02 9.18485 15.145 9.08485C15.46 8.82985 15.94 8.44985 15.94 7.68985C15.94 6.93485 15.46 6.54985 15.145 6.29485C14.875 6.07485 14.845 6.02985 14.845 5.93485C14.845 5.83485 14.875 5.78985 15.145 5.57485C15.43 5.34485 15.475 4.92985 15.25 4.64485C15.02 4.35985 14.605 4.31485 14.32 4.53985C14.005 4.79485 13.525 5.17485 13.525 5.93485C13.525 6.68985 14 7.07485 14.32 7.32985Z" fill="#DD752F"/>
<path d="M18.24 7.32985C18.51 7.54985 18.54 7.59485 18.54 7.68985C18.54 7.78985 18.51 7.83485 18.24 8.04985C17.955 8.27985 17.91 8.69485 18.135 8.97985C18.265 9.14485 18.46 9.22985 18.65 9.22985C18.795 9.22985 18.94 9.18485 19.065 9.08485C19.38 8.82985 19.86 8.44985 19.86 7.68985C19.86 6.93485 19.38 6.54985 19.065 6.29485C18.795 6.07485 18.765 6.02985 18.765 5.93485C18.765 5.83485 18.795 5.78985 19.065 5.57485C19.35 5.34485 19.395 4.92985 19.17 4.64485C18.94 4.35985 18.525 4.31485 18.24 4.53985C17.925 4.79485 17.445 5.17485 17.445 5.93485C17.445 6.68985 17.925 7.07485 18.24 7.32985Z" fill="#DD752F"/>
<path d="M22.1651 7.32985C22.4351 7.54985 22.4651 7.59485 22.4651 7.68985C22.4651 7.78985 22.4351 7.83485 22.1651 8.04985C21.8801 8.27985 21.8351 8.69485 22.0601 8.97985C22.1901 9.14485 22.3851 9.22985 22.5751 9.22985C22.7201 9.22985 22.8651 9.18485 22.9901 9.08485C23.3051 8.82985 23.7851 8.44985 23.7851 7.68985C23.7851 6.93485 23.3051 6.54985 22.9901 6.29485C22.7201 6.07485 22.6901 6.02985 22.6901 5.93485C22.6901 5.83485 22.7201 5.78985 22.9901 5.57485C23.2751 5.34485 23.3201 4.92985 23.0901 4.64485C22.8601 4.35985 22.4451 4.31485 22.1601 4.53985C21.8451 4.79485 21.3651 5.17485 21.3651 5.93485C21.3701 6.68985 21.8451 7.07485 22.1651 7.32985Z" fill="#DD752F"/>
</svg>
