<svg width="36" height="36" viewBox="0 0 36 36" fill="none" xmlns="http://www.w3.org/2000/svg">
<path d="M18 36C27.9411 36 36 27.9411 36 18C36 8.05887 27.9411 0 18 0C8.05887 0 0 8.05887 0 18C0 27.9411 8.05887 36 18 36Z" fill="#CF1322"/>
<path d="M27.78 22.2097L27.215 21.9147C27.075 21.8397 27.02 21.6697 27.095 21.5297L27.24 21.2497C27.65 20.4697 27.955 19.6697 28.15 18.8797C28.67 16.7797 28.46 14.7897 27.54 13.1247L27.385 12.8447C27.31 12.7047 27.36 12.5347 27.495 12.4547L28.05 12.1497C28.19 12.0747 28.36 12.1247 28.44 12.2597L28.595 12.5397C29.665 14.4747 29.915 16.7697 29.32 19.1647C29.1 20.0497 28.76 20.9397 28.305 21.8047L28.16 22.0847C28.095 22.2297 27.92 22.2847 27.78 22.2097Z" fill="#FFF1F0"/>
<path d="M21.245 11.4497C21.92 11.4497 22.58 11.6047 23.16 11.8697C24.935 12.6897 26.695 14.9047 25.815 18.4697C25.38 20.2297 24.33 21.9897 22.79 23.5497C21.475 24.8847 19.83 26.0197 18.28 26.6647L18.225 26.6897C18.155 26.7197 18.08 26.7347 18.005 26.7347C17.93 26.7347 17.855 26.7197 17.785 26.6897L17.73 26.6647C16.18 26.0197 14.535 24.8847 13.22 23.5497C11.675 21.9847 10.63 20.2297 10.195 18.4697C9.315 14.9097 11.075 12.6897 12.85 11.8697C13.43 11.5997 14.09 11.4497 14.765 11.4497C15.885 11.4497 17.05 11.8647 18.005 12.8747C18.96 11.8697 20.125 11.4497 21.245 11.4497Z" fill="white"/>
<path d="M19.18 16.3247C19.425 16.3247 19.665 16.3797 19.875 16.4797C20.52 16.7747 21.155 17.5797 20.835 18.8697C20.675 19.5097 20.3 20.1447 19.74 20.7097C19.265 21.1947 18.665 21.6047 18.105 21.8397L18.085 21.8497C18.06 21.8597 18.03 21.8647 18.005 21.8647C17.98 21.8647 17.95 21.8597 17.925 21.8497L17.905 21.8397C17.345 21.6047 16.75 21.1947 16.27 20.7097C15.71 20.1447 15.33 19.5047 15.175 18.8697C14.855 17.5797 15.495 16.7747 16.135 16.4797C16.345 16.3847 16.585 16.3247 16.83 16.3247C17.235 16.3247 17.66 16.4747 18.005 16.8397C18.35 16.4747 18.775 16.3247 19.18 16.3247Z" fill="#F5222D"/>
<path d="M8.22501 22.2099C8.08501 22.2849 7.91501 22.2299 7.84001 22.0899L7.69501 21.8099C7.24501 20.9449 6.90001 20.0549 6.68501 19.1699C6.09001 16.7699 6.34001 14.4799 7.41001 12.5449L7.56501 12.2649C7.64001 12.1249 7.81501 12.0749 7.95501 12.1549L8.51001 12.4599C8.65001 12.5349 8.70001 12.7099 8.62001 12.8499L8.46501 13.1299C7.54501 14.7949 7.33501 16.7849 7.85501 18.8849C8.05001 19.6749 8.36001 20.4749 8.76501 21.2549L8.91001 21.5349C8.98501 21.6749 8.93001 21.8449 8.79001 21.9199L8.22501 22.2099Z" fill="#FFF1F0"/>
</svg>
