<svg width="36" height="36" viewBox="0 0 36 36" fill="none" xmlns="http://www.w3.org/2000/svg">
<path d="M18 36C27.9411 36 36 27.9411 36 18C36 8.05887 27.9411 0 18 0C8.05887 0 0 8.05887 0 18C0 27.9411 8.05887 36 18 36Z" fill="#52C41A"/>
<path d="M21.59 25.6451V22.4251C21.59 22.2901 21.66 22.1601 21.785 22.0951C22.475 21.7201 24.79 20.1701 24.79 16.1651C24.79 11.4601 20.965 9.83008 18.075 9.83008C15.185 9.83008 11.61 11.1151 11.61 15.6901L9.56002 20.1051C9.46002 20.3501 9.64002 20.6251 9.91002 20.6251H11.485V21.5051C11.485 22.7551 12.495 23.7651 13.745 23.7651H14.81C14.915 23.7651 15 23.8501 15 23.9551V25.6501C15 25.7551 15.085 25.8401 15.19 25.8401H21.4C21.505 25.8301 21.59 25.7501 21.59 25.6451Z" fill="white"/>
<path d="M18.695 18.9598C18.68 18.9848 18.645 18.9848 18.635 18.9598L17.875 17.6448H16.34C16.315 17.6448 16.295 17.6148 16.31 17.5898L17.075 16.2598L16.31 14.9298C16.295 14.9048 16.315 14.8748 16.34 14.8748H17.875L18.635 13.5598C18.65 13.5348 18.685 13.5348 18.695 13.5598L19.455 14.8748H20.99C21.015 14.8748 21.035 14.9048 21.02 14.9298L20.255 16.2598L21.025 17.5898C21.04 17.6148 21.02 17.6448 20.995 17.6448H19.455L18.695 18.9598Z" fill="#CE6700"/>
</svg>
