<svg width="36" height="36" viewBox="0 0 36 36" fill="none" xmlns="http://www.w3.org/2000/svg">
<path d="M18 36C27.9411 36 36 27.9411 36 18C36 8.05887 27.9411 0 18 0C8.05887 0 0 8.05887 0 18C0 27.9411 8.05887 36 18 36Z" fill="#002766" fill-opacity="0.2"/>
<path d="M10.7415 26.0057C9.00901 24.2732 9.00901 21.4652 10.7415 19.7327L20.1465 10.3277C21.879 8.5952 24.687 8.5952 26.4195 10.3277C28.152 12.0602 28.152 14.8682 26.4195 16.6007L17.0145 26.0057C15.282 27.7382 12.474 27.7382 10.7415 26.0057Z" fill="#002766"/>
<path d="M21.717 21.3032L26.4195 16.6007C28.152 14.8682 28.152 12.0602 26.4195 10.3277C24.687 8.5952 21.879 8.5952 20.1465 10.3277L15.4485 15.0302L21.717 21.3032Z" fill="url(#paint0_linear_970_2780)"/>
<defs>
<linearGradient id="paint0_linear_970_2780" x1="19.3652" y1="11.1148" x2="25.6362" y2="17.3857" gradientUnits="userSpaceOnUse">
<stop stop-color="white"/>
<stop offset="1" stop-color="#E6E6E6"/>
</linearGradient>
</defs>
</svg>
