<svg width="24" height="24" viewBox="0 0 24 24" fill="none" xmlns="http://www.w3.org/2000/svg">
<path d="M2.20801 16.962C2.20801 17.07 2.29201 17.154 2.40001 17.154H21.6C21.69 17.154 21.792 17.052 21.792 16.962V16.194C21.792 16.086 21.708 16.002 21.6 16.002H2.40001C2.26801 16.002 2.20801 16.062 2.20801 16.194V16.962Z" fill="#636363"/>
<path d="M7.40405 15C7.40405 15.612 7.52405 16.206 7.75205 16.764C7.79405 16.86 7.90805 16.902 8.00405 16.854L8.70005 16.53C8.79605 16.488 8.83805 16.374 8.80205 16.278C8.64005 15.87 8.55605 15.444 8.55605 15C8.55605 13.098 10.1041 11.556 12.0061 11.556C13.9081 11.556 15.4501 13.104 15.4501 15C15.4501 15.444 15.3661 15.87 15.2041 16.278C15.1621 16.374 15.2101 16.488 15.3061 16.53L16.0021 16.854C16.0981 16.896 16.2121 16.86 16.2541 16.764C16.4881 16.206 16.6021 15.612 16.6021 15C16.6021 12.462 14.5381 10.404 12.0061 10.404C9.46205 10.404 7.40405 12.462 7.40405 15Z" fill="#636363"/>
<path d="M9.11996 5.73C9.01796 5.76 8.95796 5.862 8.98196 5.964L9.81596 9.084C9.84596 9.186 9.94796 9.246 10.05 9.222L10.794 9.024C10.896 8.994 10.956 8.892 10.932 8.79L10.098 5.67C10.068 5.568 9.96596 5.508 9.86396 5.532L9.11996 5.73Z" fill="#636363"/>
<path d="M4.87199 8.412C4.79999 8.49 4.79999 8.61 4.87199 8.682L7.15199 10.962C7.22399 11.034 7.34999 11.034 7.42199 10.962L7.96799 10.422C8.03999 10.35 8.03999 10.224 7.96799 10.152L5.68799 7.872C5.61599 7.794 5.48999 7.794 5.41799 7.872L4.87199 8.412Z" fill="#636363"/>
<path d="M2.53206 12.858C2.50206 12.96 2.56806 13.068 2.67006 13.092L5.79006 13.926C5.89206 13.956 6.00006 13.89 6.02406 13.788L6.22206 13.044C6.25206 12.942 6.18606 12.834 6.08406 12.81L2.96406 11.976C2.86206 11.946 2.75406 12.012 2.73006 12.114L2.53206 12.858Z" fill="#636363"/>
<path d="M17.916 12.816C17.814 12.846 17.754 12.948 17.778 13.05L17.976 13.794C18.006 13.896 18.108 13.956 18.21 13.932L21.33 13.098C21.432 13.068 21.492 12.966 21.468 12.864L21.27 12.12C21.24 12.018 21.138 11.958 21.036 11.982L17.916 12.816Z" fill="#636363"/>
<path d="M16.032 10.152C15.96 10.224 15.96 10.35 16.032 10.422L16.572 10.962C16.644 11.034 16.77 11.034 16.842 10.962L19.122 8.682C19.194 8.604 19.194 8.484 19.122 8.412L18.576 7.872C18.504 7.794 18.378 7.794 18.306 7.872L16.032 10.152Z" fill="#636363"/>
<path d="M13.0679 8.784C13.0379 8.886 13.1039 8.994 13.2059 9.018L13.9499 9.216C14.0519 9.246 14.1599 9.18 14.1839 9.078L15.0179 5.958C15.0479 5.856 14.9819 5.748 14.8799 5.724L14.1359 5.526C14.0339 5.496 13.9259 5.562 13.9019 5.664L13.0679 8.784Z" fill="#636363"/>
</svg>
