<svg width="36" height="36" viewBox="0 0 36 36" fill="none" xmlns="http://www.w3.org/2000/svg">
<path d="M18 36C27.9411 36 36 27.9411 36 18C36 8.05887 27.9411 0 18 0C8.05887 0 0 8.05887 0 18C0 27.9411 8.05887 36 18 36Z" fill="#1890FF" fill-opacity="0.2"/>
<path d="M10.745 26.0052C9.01501 24.2752 9.01501 21.4652 10.745 19.7352L20.15 10.3302C21.88 8.60021 24.69 8.60021 26.42 10.3302C28.15 12.0602 28.15 14.8702 26.42 16.6002L17.015 26.0052C15.285 27.7402 12.475 27.7402 10.745 26.0052Z" fill="#1890FF"/>
<path d="M21.72 21.3052L26.425 16.6002C28.155 14.8702 28.155 12.0602 26.425 10.3302C24.695 8.60021 21.885 8.60021 20.155 10.3302L15.45 15.0352L21.72 21.3052Z" fill="white"/>
</svg>
