<svg width="32" height="32" viewBox="0 0 33 32" fill="none" xmlns="http://www.w3.org/2000/svg">
<path d="M29.0437 6H4.23729C3.70956 6 3.2832 6.42636 3.2832 6.95409V26.0359C3.2832 26.5636 3.70956 26.99 4.23729 26.99H29.0437C29.5714 26.99 29.9977 26.5636 29.9977 26.0359V6.95409C29.9977 6.42636 29.5714 6 29.0437 6ZM27.851 9.30354V24.8433H5.42991V9.30354L4.607 8.66251L5.77875 7.15684L7.05484 8.14969H26.2291L27.5052 7.15684L28.6769 8.66251L27.851 9.30354ZM26.2291 8.1467L16.6405 15.6005L7.05186 8.1467L5.77577 7.15385L4.60402 8.65953L5.42693 9.30056L15.6118 17.2195C15.9047 17.4471 16.2651 17.5706 16.636 17.5706C17.0069 17.5706 17.3673 17.4471 17.6602 17.2195L27.851 9.30354L28.6739 8.66251L27.5022 7.15684L26.2291 8.1467Z" fill="#5D658C"/>
</svg>
