<svg width="18" height="18" viewBox="0 0 18 18" fill="none" xmlns="http://www.w3.org/2000/svg">
<g clip-path="url(#clip0_8275_108441)">
<path fill-rule="evenodd" clip-rule="evenodd" d="M1.82404 15.1065C1.97404 15.3165 2.13404 15.5165 2.31404 15.6865C2.48404 15.8665 2.68404 16.0265 2.89404 16.1765C4.73404 17.5065 7.24404 17.2965 8.86404 15.6865L15.694 8.85652C16.514 8.03652 16.994 6.94652 17.044 5.78652C17.094 4.63652 16.714 3.51652 15.984 2.63652C15.894 2.51652 15.794 2.40652 15.694 2.30652C15.594 2.20652 15.484 2.10652 15.364 2.01652C14.484 1.28652 13.364 0.906525 12.214 0.956525C11.054 1.01652 9.96404 1.49652 9.14404 2.31652L2.31404 9.14652C0.704039 10.7565 0.504039 13.2665 1.82404 15.1065ZM10.0134 3.17987L7.02339 6.16987L11.8334 10.9799L14.8234 7.98987C16.0734 6.73987 16.1634 4.77987 15.0434 3.41987L15.0168 3.38988C14.9476 3.312 14.8855 3.242 14.8234 3.17987C14.7534 3.10987 14.6734 3.03987 14.5834 2.96987C13.2234 1.83987 11.2634 1.92987 10.0134 3.17987ZM10.9816 11.8308L7.9916 14.8208C6.7416 16.0708 4.7816 16.1608 3.4216 15.0308C3.3316 14.9608 3.2516 14.8908 3.1816 14.8208C3.11947 14.7586 3.05735 14.6886 2.98823 14.6108C2.97947 14.6009 2.9706 14.5909 2.9616 14.5808C1.8416 13.2208 1.9316 11.2608 3.1816 10.0108L6.1716 7.02077L10.9816 11.8308Z" fill="white"/>
<path opacity="0.8" fill-rule="evenodd" clip-rule="evenodd" d="M7.99126 14.8205L10.9813 11.8305L6.17126 7.02051L3.18126 10.0105C1.93126 11.2605 1.84126 13.2205 2.96126 14.5805C3.04126 14.6705 3.11126 14.7505 3.18126 14.8205C3.25126 14.8905 3.33126 14.9605 3.42126 15.0305C4.78126 16.1605 6.74126 16.0705 7.99126 14.8205Z" fill="white"/>
</g>
<defs>
<clipPath id="clip0_8275_108441">
<rect width="16.092" height="16.0916" fill="white" transform="translate(0.954102 0.956055)"/>
</clipPath>
</defs>
</svg>
