<svg width="24" height="24" viewBox="0 0 24 24" fill="none" xmlns="http://www.w3.org/2000/svg">
<path d="M15.6667 8.33333H8.33335C7.96669 8.33333 7.66669 8.03333 7.66669 7.66667C7.66669 7.3 7.96669 7 8.33335 7H15.6667C16.0334 7 16.3334 7.3 16.3334 7.66667C16.3334 8.03333 16.0334 8.33333 15.6667 8.33333Z" fill="#636363"/>
<path d="M15.6667 13H8.33335C7.96669 13 7.66669 12.7 7.66669 12.3333C7.66669 11.9667 7.96669 11.6667 8.33335 11.6667H15.6667C16.0334 11.6667 16.3334 11.9667 16.3334 12.3333C16.3334 12.7 16.0334 13 15.6667 13Z" fill="#636363"/>
<path d="M14.1267 17.6667H8.20669C7.90669 17.6667 7.66669 17.3667 7.66669 17C7.66669 16.6333 7.90669 16.3333 8.20669 16.3333H14.1267C14.4267 16.3333 14.6667 16.6333 14.6667 17C14.6667 17.3667 14.4267 17.6667 14.1267 17.6667Z" fill="#636363"/>
<path d="M22.28 23.72C22.02 23.98 21.5867 23.9667 21.3067 23.6933L15.7933 18.18C15.7467 18.1333 15.7067 18.0733 15.6867 18.0067L15.3867 17.0733C15.34 16.92 15.4733 16.7867 15.6267 16.8333L16.56 17.1333C16.6267 17.1533 16.6867 17.1933 16.7333 17.24L22.2467 22.7533C22.5267 23.0267 22.54 23.46 22.28 23.72Z" fill="#636363"/>
<path d="M22.28 23.72C22.02 23.98 21.5867 23.9667 21.3067 23.6933L15.7933 18.18C15.7467 18.1333 15.7067 18.0733 15.6867 18.0067L15.3867 17.0733C15.34 16.92 15.4733 16.7867 15.6267 16.8333L16.56 17.1333C16.6267 17.1533 16.6867 17.1933 16.7333 17.24L22.2467 22.7533C22.5267 23.0267 22.54 23.46 22.28 23.72Z" fill="#636363"/>
<path d="M22.28 23.72C22.02 23.98 21.5867 23.9667 21.3067 23.6933L15.7933 18.18C15.7467 18.1333 15.7067 18.0733 15.6867 18.0067L15.3867 17.0733C15.34 16.92 15.4733 16.7867 15.6267 16.8333L16.56 17.1333C16.6267 17.1533 16.6867 17.1933 16.7333 17.24L22.2467 22.7533C22.5267 23.0267 22.54 23.46 22.28 23.72Z" fill="#636363"/>
<path d="M16.4 20.6667H7.33333C6.23333 20.6667 5.33333 19.7667 5.33333 18.6667V5.33333C5.33333 4.23333 6.23333 3.33333 7.33333 3.33333H16.6667C17.7667 3.33333 18.6667 4.23333 18.6667 5.33333V17.2733L20 18.6067V5.33333C20 3.49333 18.5067 2 16.6667 2H7.33333C5.49333 2 4 3.49333 4 5.33333V18.6667C4 20.5067 5.49333 22 7.33333 22H16.6667C16.9867 22 17.2933 21.94 17.5867 21.8533L16.4 20.6667Z" fill="#636363"/>
</svg>
