<svg width="24" height="24" viewBox="0 0 24 24" fill="none" xmlns="http://www.w3.org/2000/svg">
<path d="M7.39198 12C7.39198 14.538 9.46198 16.608 12 16.608C14.538 16.608 16.608 14.538 16.608 12C16.608 9.456 14.544 7.392 12 7.392C9.45598 7.392 7.39198 9.462 7.39198 12ZM8.54398 12C8.54398 10.092 10.092 8.544 12 8.544C13.908 8.544 15.456 10.092 15.456 12C15.456 13.908 13.908 15.456 12 15.456C10.092 15.456 8.54398 13.908 8.54398 12ZM12.384 2.808C12.492 2.808 12.576 2.892 12.576 3V6.018C12.576 6.126 12.492 6.21 12.384 6.21H11.616C11.508 6.21 11.424 6.126 11.424 6.018V3C11.424 2.892 11.508 2.808 11.616 2.808H12.384ZM5.77198 5.232C5.84398 5.16 5.96998 5.16 6.04198 5.232L8.17798 7.368C8.24998 7.44 8.24998 7.566 8.17798 7.638L7.63798 8.178C7.55998 8.256 7.43998 8.256 7.36798 8.178L5.23198 6.042C5.15998 5.964 5.15998 5.844 5.23198 5.772L5.77198 5.232ZM2.80798 11.598C2.80798 11.502 2.90398 11.406 2.99998 11.406H6.01798C6.12598 11.406 6.20998 11.49 6.20998 11.598V12.402C6.20998 12.498 6.11398 12.594 6.01798 12.594H2.99998C2.89198 12.594 2.80798 12.51 2.80798 12.402V11.598ZM7.36798 15.822C7.43998 15.75 7.56598 15.75 7.63798 15.822L8.17798 16.368C8.24998 16.44 8.24998 16.566 8.17798 16.638L6.04198 18.774C5.96998 18.846 5.84398 18.846 5.77198 18.774L5.22598 18.228C5.15398 18.156 5.15398 18.03 5.22598 17.958L7.36798 15.822ZM11.424 17.976C11.424 17.868 11.508 17.784 11.616 17.784H12.384C12.462 17.712 12.576 17.868 12.576 17.976V20.994C12.576 21.102 12.492 21.186 12.384 21.186H11.616C11.544 21.264 11.424 21.102 11.424 20.994V17.976ZM16.362 15.822C16.44 15.75 16.56 15.75 16.632 15.822L18.768 17.958C18.84 18.03 18.84 18.156 18.768 18.228L18.228 18.774C18.156 18.846 18.03 18.846 17.958 18.774L15.822 16.638C15.75 16.566 15.75 16.44 15.822 16.368L16.362 15.822ZM17.784 11.616C17.784 11.508 17.868 11.424 17.976 11.424H20.994C21.102 11.424 21.186 11.508 21.186 11.616V12.384C21.186 12.492 21.102 12.576 20.994 12.576H17.976C17.868 12.576 17.784 12.492 17.784 12.384V11.616ZM17.952 5.232C18.024 5.16 18.15 5.16 18.222 5.232L18.762 5.778C18.834 5.85 18.834 5.976 18.762 6.048L16.626 8.184C16.554 8.256 16.428 8.256 16.356 8.184L15.816 7.644C15.744 7.566 15.744 7.446 15.816 7.374L17.952 5.232Z" fill="#636363"/>
</svg>
