<svg width="32" height="32" viewBox="0 0 32 32" fill="none" xmlns="http://www.w3.org/2000/svg">
<path d="M10.5242 16.4844H17.767V18.2951H10.5242V16.4844Z" fill="#5D658C"/>
<path d="M10.5242 11.959H21.3885V13.7697H10.5242V11.959Z" fill="#5D658C"/>
<path d="M10.5242 21.0127H15.051V22.8234H10.5242V21.0127Z" fill="#5D658C"/>
<path d="M24.1071 4.71607H21.3911V3.81071C21.3911 3.33048 21.2003 2.86992 20.8607 2.53035C20.5211 2.19077 20.0606 2 19.5804 2H12.3375C11.8573 2 11.3967 2.19077 11.0571 2.53035C10.7176 2.86992 10.5268 3.33048 10.5268 3.81071V4.71607H7.81071C7.33048 4.71607 6.86992 4.90684 6.53035 5.24642C6.19077 5.58599 6 6.04655 6 6.52679V25.5393C6 26.0195 6.19077 26.4801 6.53035 26.8197C6.86992 27.1592 7.33048 27.35 7.81071 27.35H24.1071C24.5874 27.35 25.0479 27.1592 25.3875 26.8197C25.7271 26.4801 25.9179 26.0195 25.9179 25.5393V6.52679C25.9179 6.04655 25.7271 5.58599 25.3875 5.24642C25.0479 4.90684 24.5874 4.71607 24.1071 4.71607ZM12.3375 3.81071H19.5804V7.43214H12.3375V3.81071ZM24.1071 25.5393H7.81071V6.52679H10.5268V9.24286H21.3911V6.52679H24.1071V25.5393Z" fill="#5D658C"/>
</svg>
