<svg width="36" height="36" viewBox="0 0 36 36" fill="none" xmlns="http://www.w3.org/2000/svg">
<path d="M18 36C27.9411 36 36 27.9411 36 18C36 8.05887 27.9411 0 18 0C8.05887 0 0 8.05887 0 18C0 27.9411 8.05887 36 18 36Z" fill="#13C2C2"/>
<path d="M22.57 19.205C22.685 18.315 23.18 17.245 23.975 16.04C24.245 15.65 24.56 15.245 24.915 14.81C24.87 14.84 24.825 14.875 24.78 14.91C25.565 13.88 26.525 12.77 27.63 11.615C26.78 10.215 25.675 8.985 24.375 8C22.67 10.91 18.945 17.075 17.605 17.645C15.845 18.395 10.66 22.22 8.39002 22.055C7.09002 21.96 5.47002 23.045 7.94502 23.885C8.06502 23.925 8.19502 23.96 8.32002 23.985C8.99502 24.11 9.60002 24.2 10.175 24.25C10.235 24.255 10.295 24.26 10.355 24.265C10.365 24.265 10.375 24.265 10.385 24.265C10.44 24.27 10.495 24.275 10.55 24.275C10.565 24.275 10.58 24.275 10.595 24.28C10.645 24.285 10.695 24.285 10.745 24.29C10.765 24.29 10.78 24.29 10.8 24.295C10.85 24.295 10.895 24.3 10.945 24.3C10.965 24.3 10.985 24.3 11.005 24.3C11.05 24.3 11.095 24.3 11.145 24.305C11.165 24.305 11.19 24.305 11.21 24.305C11.255 24.305 11.3 24.305 11.345 24.305C11.37 24.305 11.39 24.305 11.415 24.305C11.46 24.305 11.5 24.305 11.545 24.305C11.57 24.305 11.595 24.305 11.62 24.305C11.66 24.305 11.705 24.305 11.745 24.3C11.77 24.3 11.795 24.3 11.82 24.295C11.86 24.295 11.905 24.29 11.945 24.29C11.97 24.29 12 24.285 12.025 24.285C12.065 24.285 12.105 24.28 12.15 24.275C12.175 24.275 12.205 24.27 12.23 24.27C12.27 24.265 12.31 24.265 12.35 24.26C12.38 24.26 12.405 24.255 12.435 24.25C12.475 24.245 12.515 24.24 12.555 24.24C12.585 24.235 12.615 24.235 12.64 24.23C12.68 24.225 12.72 24.22 12.76 24.215C12.79 24.21 12.82 24.21 12.85 24.205C12.89 24.2 12.93 24.195 12.97 24.19C13 24.185 13.03 24.18 13.065 24.175C13.105 24.17 13.145 24.165 13.185 24.16C13.215 24.155 13.25 24.15 13.28 24.145C13.32 24.14 13.36 24.13 13.4 24.125C13.435 24.12 13.465 24.115 13.5 24.11C13.54 24.105 13.58 24.095 13.62 24.09C13.655 24.085 13.69 24.075 13.725 24.07C13.765 24.065 13.805 24.055 13.845 24.05C13.88 24.045 13.92 24.035 13.955 24.03C13.995 24.02 14.035 24.015 14.075 24.005C14.115 23.995 14.15 23.99 14.19 23.98C14.23 23.97 14.27 23.965 14.31 23.955C14.35 23.945 14.395 23.935 14.435 23.93C14.475 23.92 14.51 23.915 14.55 23.905C14.595 23.895 14.64 23.885 14.685 23.875C14.72 23.865 14.76 23.86 14.795 23.85C14.845 23.84 14.895 23.825 14.945 23.815C14.98 23.805 15.015 23.8 15.05 23.79C15.105 23.775 15.165 23.76 15.225 23.745C15.255 23.74 15.28 23.73 15.31 23.725C15.4 23.705 15.49 23.68 15.58 23.655C15.665 23.635 15.75 23.615 15.83 23.595C15.855 23.59 15.88 23.585 15.905 23.58C15.965 23.565 16.025 23.555 16.085 23.545C16.11 23.54 16.135 23.535 16.155 23.53C16.23 23.515 16.305 23.505 16.38 23.495C16.385 23.495 16.39 23.495 16.39 23.495C16.47 23.485 16.545 23.475 16.62 23.465C16.64 23.465 16.665 23.46 16.685 23.46C16.74 23.455 16.795 23.45 16.85 23.445C16.87 23.445 16.895 23.44 16.915 23.44C16.985 23.435 17.05 23.435 17.115 23.43C17.12 23.43 17.125 23.43 17.13 23.43C17.2 23.43 17.275 23.425 17.345 23.43C17.365 23.43 17.385 23.43 17.4 23.43C17.455 23.43 17.505 23.43 17.555 23.435C17.575 23.435 17.595 23.435 17.615 23.435C17.675 23.44 17.735 23.44 17.795 23.445C17.8 23.445 17.805 23.445 17.815 23.445C17.88 23.45 17.95 23.455 18.015 23.465C18.03 23.465 18.045 23.47 18.06 23.47C18.11 23.475 18.16 23.48 18.21 23.49C18.225 23.49 18.245 23.495 18.26 23.495C18.315 23.505 18.375 23.51 18.43 23.52C18.435 23.52 18.44 23.52 18.445 23.52C18.51 23.53 18.57 23.54 18.63 23.55C18.64 23.55 18.655 23.555 18.665 23.555C18.715 23.565 18.765 23.575 18.81 23.585C18.825 23.59 18.835 23.59 18.85 23.595C18.905 23.605 18.96 23.62 19.015 23.63H19.02C19.08 23.645 19.14 23.66 19.2 23.67C19.205 23.67 19.21 23.67 19.215 23.675C19.27 23.69 19.325 23.7 19.375 23.715C19.38 23.715 19.385 23.72 19.39 23.72C19.58 23.77 19.765 23.82 19.94 23.865C19.945 23.865 19.955 23.87 19.96 23.87C20.01 23.885 20.06 23.895 20.11 23.91C20.135 23.915 20.16 23.925 20.185 23.93C20.205 23.935 20.23 23.94 20.25 23.945C20.275 23.95 20.3 23.955 20.325 23.96C20.345 23.965 20.37 23.97 20.39 23.975C20.415 23.98 20.44 23.985 20.465 23.99C20.485 23.995 20.5 24 20.52 24H20.525C20.91 24.075 21.265 24.105 21.605 24.02C22.975 23.68 23.11 22.065 22.6 20.185C22.555 19.875 22.535 19.55 22.57 19.205Z" fill="white"/>
<path opacity="0.5" d="M17.71 21.0652C19.9053 21.0652 21.685 19.2856 21.685 17.0902C21.685 14.8949 19.9053 13.1152 17.71 13.1152C15.5147 13.1152 13.735 14.8949 13.735 17.0902C13.735 19.2856 15.5147 21.0652 17.71 21.0652Z" fill="#FF3364"/>
<path opacity="0.5" d="M17.71 20.2702C19.4663 20.2702 20.89 18.8464 20.89 17.0902C20.89 15.3339 19.4663 13.9102 17.71 13.9102C15.9538 13.9102 14.53 15.3339 14.53 17.0902C14.53 18.8464 15.9538 20.2702 17.71 20.2702Z" fill="#FF3364"/>
<path opacity="0.75" d="M17.71 18.9648C16.675 18.9648 15.835 18.1248 15.835 17.0898C15.835 16.0548 16.675 15.2148 17.71 15.2148C18.745 15.2148 19.585 16.0548 19.585 17.0898C19.585 18.1248 18.745 18.9648 17.71 18.9648ZM17.71 15.7848C16.99 15.7848 16.405 16.3698 16.405 17.0898C16.405 17.8098 16.99 18.3948 17.71 18.3948C18.43 18.3948 19.015 17.8098 19.015 17.0898C19.015 16.3698 18.43 15.7848 17.71 15.7848Z" fill="#FF3364"/>
</svg>
