<svg width="36" height="36" viewBox="0 0 36 36" fill="none" xmlns="http://www.w3.org/2000/svg">
<path d="M18 36C27.9411 36 36 27.9411 36 18C36 8.05887 27.9411 0 18 0C8.05887 0 0 8.05887 0 18C0 27.9411 8.05887 36 18 36Z" fill="#BAE637"/>
<path d="M18.26 26.6151C13.535 26.6151 9.69 22.7701 9.69 18.0451C9.69 13.3201 13.535 9.4751 18.26 9.4751C22.985 9.4751 26.83 13.3201 26.83 18.0451C26.835 22.7701 22.99 26.6151 18.26 26.6151Z" fill="white"/>
<path d="M16.8 16.9147C16.8 17.4897 16.33 17.9597 15.755 17.9597C15.18 17.9597 14.71 17.4897 14.71 16.9147C14.71 16.3397 15.18 15.8697 15.755 15.8697C16.33 15.8647 16.8 16.3347 16.8 16.9147Z" fill="#BAE637"/>
<path d="M21.7888 17.1542C21.9215 16.5925 21.5737 16.0297 21.012 15.8971C20.4503 15.7644 19.8875 16.1123 19.7549 16.6739C19.6222 17.2356 19.97 17.7984 20.5317 17.9311C21.0934 18.0637 21.6562 17.7159 21.7888 17.1542Z" fill="#BAE637"/>
<path d="M18.26 22.6651C16.955 22.6651 15.73 22.1151 14.86 21.1551C14.785 21.0701 14.795 20.9351 14.885 20.8651L15.53 20.3351C15.62 20.2601 15.75 20.2751 15.83 20.3601C16.46 21.0351 17.335 21.4151 18.26 21.4151C19.185 21.4151 20.06 21.0351 20.69 20.3601C20.77 20.2751 20.9 20.2601 20.99 20.3351L21.635 20.8651C21.725 20.9401 21.735 21.0701 21.66 21.1551C20.79 22.1151 19.565 22.6651 18.26 22.6651Z" fill="#BAE637"/>
</svg>
