<svg width="24" height="24" viewBox="0 0 24 24" fill="none" xmlns="http://www.w3.org/2000/svg">
<g clip-path="url(#clip0_5559_72429)">
<path fill-rule="evenodd" clip-rule="evenodd" d="M6.07072 4.71878C6.04822 4.61378 6.11572 4.50878 6.22072 4.49378L6.78322 4.38128C6.88822 4.35878 6.99322 4.42628 7.01572 4.53128L7.18072 5.35627L7.53321 4.70378C7.58571 4.60628 7.69821 4.57628 7.79571 4.62128L8.29821 4.89878C8.39571 4.95128 8.42571 5.06378 8.37321 5.15378L7.81821 6.18877C8.20821 6.27127 8.56071 6.44377 8.8532 6.69127C9.3557 6.18877 10.0532 5.86627 10.8182 5.86627C11.7032 5.86627 12.4907 6.28627 12.9932 6.93127C13.4957 6.28627 14.2832 5.86627 15.1682 5.86627C16.5182 5.86627 17.6432 6.84877 17.8757 8.13126C18.2507 8.19126 18.5806 8.36376 18.8506 8.64126C18.8657 8.65626 18.8788 8.67126 18.8919 8.68626C18.905 8.70126 18.9181 8.71626 18.9331 8.73126C19.4956 8.36376 20.1181 8.10126 20.7256 8.10126C21.2281 8.10126 21.6706 8.28876 22.0156 8.64126C22.5556 9.19625 22.6531 9.97625 22.3081 10.8387C22.1131 11.3187 21.7756 11.8362 21.3181 12.3612C21.3031 14.3337 20.3131 16.1712 18.5281 17.5437C16.7807 18.8937 14.4632 19.6362 12.0032 19.6362C9.5357 19.6362 7.21821 18.8937 5.47072 17.5437C3.67074 16.1637 2.68824 14.3112 2.68824 12.3312V12.2562C2.50074 12.0912 2.33574 11.8962 2.20824 11.6712C1.71325 10.8312 1.80325 9.81125 2.34324 9.07625L1.24075 8.67126C1.14325 8.63376 1.09075 8.52876 1.12825 8.43126L1.32325 7.88376C1.36075 7.78626 1.46575 7.73376 1.57075 7.77126L2.26074 8.02626L1.84075 7.29876C1.78075 7.20876 1.81825 7.08876 1.90825 7.03626L2.40324 6.74377C2.49324 6.69127 2.61324 6.72127 2.66574 6.81127L3.09324 7.53876L3.21324 6.81127C3.22824 6.70627 3.33324 6.63877 3.43824 6.65377L4.00073 6.74377C4.10573 6.76627 4.18073 6.86377 4.15823 6.96877L3.97073 8.12376C4.06073 8.10876 4.15823 8.10876 4.25573 8.10876C4.50323 8.10876 4.74323 8.14626 4.96823 8.21376C5.01323 7.85376 5.14073 7.50876 5.35073 7.20126C5.51572 6.94627 5.73322 6.72877 5.97322 6.56377L5.05823 5.82877C4.97573 5.76127 4.96073 5.64127 5.02823 5.55877L5.38823 5.10878C5.45573 5.02628 5.57572 5.01128 5.65822 5.07878L6.23572 5.54377L6.07072 4.71878ZM15.283 10.589C16.153 9.7565 17.0005 9.254 17.563 9.254C17.758 9.254 17.9005 9.314 18.028 9.4415L18.0313 9.44515C18.1164 9.53773 18.332 9.77254 18.073 10.409C17.908 10.814 17.593 11.2715 17.1505 11.7515H14.293C14.533 11.384 14.8705 10.994 15.283 10.589ZM13.63 8.17999C13.975 8.26249 14.2975 8.41249 14.5825 8.61499C14.8 8.76499 14.995 8.95249 15.16 9.16249C15.415 8.96749 15.685 8.77249 15.9625 8.61499C16.21 8.46499 16.4649 8.34499 16.7274 8.25499C16.5624 7.55 15.925 7.0175 15.1675 7.0175C14.44 7.0175 13.8175 7.5125 13.63 8.17999ZM11.4109 10.655C11.5084 9.86748 12.1759 9.25249 12.9934 9.25249C13.5409 9.25249 14.0209 9.52249 14.3059 9.94248C14.0059 10.2425 13.7434 10.55 13.5259 10.85C13.2934 11.1575 13.1134 11.465 12.9784 11.75H6.2584C6.4534 11.4575 6.5734 11.12 6.6109 10.7675C6.84339 10.8425 7.08339 10.88 7.33089 10.88C7.48839 10.88 7.64589 10.865 7.80339 10.835C8.89088 10.61 9.65588 9.67248 9.70088 8.61499C9.70838 8.42749 9.70088 8.23249 9.65588 8.03749C9.63338 7.9025 9.59588 7.775 9.54338 7.655C9.83588 7.265 10.3009 7.0175 10.8184 7.0175C11.5534 7.0175 12.1684 7.5125 12.3559 8.17999C12.0109 8.26249 11.6884 8.41249 11.4034 8.61499C10.7509 9.07249 10.3084 9.81498 10.2559 10.655C10.2484 10.76 10.3309 10.85 10.4359 10.85H11.2084C11.3134 10.85 11.3959 10.76 11.4109 10.655ZM7.33452 7.28687C7.25202 7.28687 7.16952 7.29437 7.08702 7.30937C6.76452 7.37686 6.48702 7.56436 6.30703 7.83436C6.12703 8.10436 6.06703 8.43436 6.12703 8.74936C6.24703 9.31935 6.74952 9.73185 7.32702 9.73185C7.40952 9.73185 7.49202 9.72435 7.57452 9.70935C8.23451 9.57435 8.66201 8.92936 8.52701 8.26936C8.41451 7.69936 7.91202 7.28687 7.33452 7.28687ZM3.19939 11.0929C2.86189 10.5154 3.05689 9.76545 3.64188 9.42045C3.82938 9.31545 4.03938 9.25545 4.25688 9.25545C4.69188 9.25545 5.09688 9.48795 5.31438 9.86295C5.65187 10.4404 5.45687 11.1904 4.87938 11.5279C4.68438 11.6404 4.47438 11.7004 4.25688 11.7004C3.82188 11.7004 3.41689 11.4679 3.19939 11.0929ZM20.1251 12.9035H3.87273C4.25523 16.0309 7.75771 18.4909 12.0027 18.4909C16.2477 18.4909 19.7426 16.0309 20.1251 12.9035ZM20.7248 9.254C20.9198 9.254 21.0623 9.314 21.1823 9.4415C21.2723 9.5315 21.4973 9.764 21.2348 10.409C21.0698 10.814 20.7548 11.2715 20.3123 11.7515H18.6323C18.8498 11.444 19.0223 11.1365 19.1423 10.844C19.2848 10.4915 19.3523 10.154 19.3448 9.839C19.8773 9.464 20.3648 9.254 20.7248 9.254Z" fill="white" stroke="#313131" stroke-width="0.4"/>
</g>
<defs>
<clipPath id="clip0_5559_72429">
<rect width="24.0006" height="23.9999" fill="white"/>
</clipPath>
</defs>
</svg>
