<svg width="16" height="16" viewBox="0 0 16 16" fill="none" xmlns="http://www.w3.org/2000/svg">
<path d="M11.296 11.2718C10.4522 12.1161 9.28148 12.6544 7.99473 12.6544C5.42123 12.6544 3.34344 10.5752 3.34344 8C3.34344 5.43536 5.42123 3.3562 7.99473 3.3562C10.5577 3.3562 12.6355 5.43536 12.6355 8C12.646 9.27704 12.1292 10.4274 11.296 11.2718L13.6691 13.6359C15.1035 12.19 16 10.1953 16 7.98945C16 3.58839 12.414 0 8.00527 0C3.58603 0 0 3.58839 0 8C0 12.4222 3.58603 16 8.00527 16C10.2202 16 12.2241 15.1029 13.6691 13.6359L11.296 11.2718Z" fill="white"/>
</svg>
