<svg width="16" height="16" viewBox="0 0 16 16" fill="none" xmlns="http://www.w3.org/2000/svg">
<path d="M3.09 5.99999H5.5C5.63261 5.99999 5.75979 5.94731 5.85356 5.85355C5.94733 5.75978 6 5.6326 6 5.49999C6 5.36738 5.94733 5.24021 5.85356 5.14644C5.75979 5.05267 5.63261 4.99999 5.5 4.99999H4C4.70081 4.06601 5.7064 3.40677 6.84237 3.13658C7.97835 2.86639 9.17307 3.0023 10.2193 3.52074C11.2656 4.03918 12.0974 4.90745 12.5705 5.97497C13.0436 7.04249 13.1282 8.24194 12.8096 9.36529C12.4909 10.4886 11.7892 11.465 10.826 12.1252C9.86288 12.7853 8.69906 13.0875 7.53641 12.9794C6.37376 12.8713 5.28561 12.3597 4.46068 11.5333C3.63574 10.7069 3.12605 9.61783 3.02 8.45499C3.01684 8.38758 3.00006 8.32151 2.97069 8.26076C2.94131 8.2 2.89993 8.14583 2.84906 8.10149C2.79819 8.05715 2.73886 8.02357 2.67466 8.00277C2.61047 7.98197 2.54272 7.97438 2.47551 7.98046C2.4083 7.98654 2.34302 8.00616 2.28359 8.03814C2.22417 8.07013 2.17184 8.11381 2.12974 8.16655C2.08765 8.2193 2.05667 8.28002 2.03867 8.34506C2.02067 8.4101 2.01602 8.47811 2.025 8.54499C2.15076 9.92004 2.74693 11.2096 3.71295 12.1962C4.67897 13.1828 5.95572 13.8061 7.32781 13.9608C8.6999 14.1155 10.0834 13.7922 11.2448 13.0455C12.4063 12.2988 13.2746 11.1743 13.7034 9.86177C14.1322 8.54925 14.0952 7.129 13.5986 5.84061C13.102 4.55221 12.1762 3.47453 10.9774 2.78936C9.77859 2.10419 8.38015 1.85346 7.01799 2.07947C5.65582 2.30547 4.41329 2.99439 3.5 4.02999V2.99999C3.5 2.86738 3.44733 2.74021 3.35356 2.64644C3.25979 2.55267 3.13261 2.49999 3 2.49999C2.8674 2.49999 2.74022 2.55267 2.64645 2.64644C2.55268 2.74021 2.5 2.86738 2.5 2.99999V5.49999C2.5 5.6326 2.55268 5.75978 2.64645 5.85355C2.74022 5.94731 2.8674 5.99999 3 5.99999H3.09ZM7.5 4.99999C7.63261 4.99999 7.75979 5.05267 7.85356 5.14644C7.94733 5.24021 8 5.36738 8 5.49999V7.99999H9.5C9.63261 7.99999 9.75979 8.05267 9.85356 8.14644C9.94733 8.24021 10 8.36738 10 8.49999C10 8.6326 9.94733 8.75978 9.85356 8.85355C9.75979 8.94731 9.63261 8.99999 9.5 8.99999H7.5C7.3674 8.99999 7.24022 8.94731 7.14645 8.85355C7.05268 8.75978 7 8.6326 7 8.49999V5.49999C7 5.36738 7.05268 5.24021 7.14645 5.14644C7.24022 5.05267 7.3674 4.99999 7.5 4.99999V4.99999Z" fill="#1890FF"/>
</svg>
