<svg width="14" height="15" viewBox="0 0 14 15" fill="none" xmlns="http://www.w3.org/2000/svg">
<g clip-path="url(#clip0_3905:32305)">
<path fill-rule="evenodd" clip-rule="evenodd" d="M0 2.53678C0 1.61631 0.746192 0.870117 1.66667 0.870117H12.3333C13.2538 0.870117 14 1.61631 14 2.53678V13.2035C14 14.1239 13.2538 14.8701 12.3333 14.8701H1.66667C0.746192 14.8701 0 14.1239 0 13.2035V2.53678Z" fill="#1890ff"/>
<path fill-rule="evenodd" clip-rule="evenodd" d="M8.43111 3.38477C8.86111 3.38477 9.29111 3.48477 9.66111 3.64477C10.2211 3.88477 10.7011 4.30477 11.0411 4.84477C11.3811 5.38477 11.5811 6.04477 11.5811 6.78477C11.5811 7.42477 11.4311 8.11477 11.1111 8.83477C10.2811 10.6948 8.58111 12.3848 6.37111 13.3248C6.28111 13.3648 6.18111 13.3648 6.10111 13.3248C3.88111 12.3848 2.19111 10.6948 1.36111 8.83477C1.04111 8.11477 0.891113 7.42477 0.891113 6.78477C0.891113 6.04477 1.09111 5.38477 1.43111 4.84477C1.77111 4.30477 2.25111 3.88477 2.81111 3.64477C3.18111 3.48477 3.60111 3.38477 4.04111 3.38477C4.49111 3.38477 4.95111 3.48477 5.38111 3.71477C5.69111 3.88477 5.98111 4.12477 6.23111 4.42477C6.49111 4.12477 6.78111 3.88477 7.09111 3.71477C7.52111 3.48477 7.98111 3.38477 8.43111 3.38477ZM8.42496 4.07861C8.76496 4.07861 9.09496 4.15861 9.38496 4.27861C9.81496 4.46861 10.185 4.78861 10.455 5.20861C10.725 5.63861 10.885 6.16861 10.885 6.78861C10.885 7.31861 10.765 7.90861 10.485 8.54861C9.74496 10.1886 8.22496 11.7386 6.23496 12.6286C4.24496 11.7386 2.72496 10.1886 1.99496 8.54861C1.70496 7.90861 1.58496 7.31861 1.58496 6.78861C1.58496 6.16861 1.74496 5.63861 2.01496 5.20861C2.28496 4.78861 2.65496 4.46861 3.08496 4.27861C3.37496 4.15861 3.70496 4.07861 4.04496 4.07861C4.38496 4.07861 4.73496 4.15861 5.05496 4.32861C5.37496 4.50861 5.67496 4.77861 5.94496 5.19861C6.00496 5.30861 6.11496 5.36861 6.23496 5.36861C6.35496 5.36861 6.46496 5.30861 6.53496 5.19861C6.79496 4.77861 7.09496 4.50861 7.41496 4.32861C7.74496 4.15861 8.08496 4.07861 8.42496 4.07861Z" fill="white"/>
<path fill-rule="evenodd" clip-rule="evenodd" d="M13.1379 8.79512C13.3479 8.13512 13.4479 7.48512 13.4479 6.85512C13.4479 6.18512 13.3379 5.54512 13.0979 4.94512C12.8879 4.39512 12.5779 3.90512 12.1879 3.49512L11.6879 3.96512C12.0079 4.31512 12.2679 4.73512 12.4579 5.20512C12.6579 5.71512 12.7579 6.26512 12.7579 6.85512C12.7579 7.40512 12.6679 7.99512 12.4779 8.58512C11.9579 10.2151 10.8579 11.6751 9.37793 12.7251L9.77793 13.2951C11.3679 12.1551 12.5679 10.5851 13.1379 8.79512Z" fill="white"/>
</g>
<defs>
<clipPath id="clip0_3905:32305">
<rect width="14" height="14" fill="white" transform="translate(0 0.870117)"/>
</clipPath>
</defs>
</svg>
