<svg width="24" height="24" viewBox="0 0 24 24" fill="none" xmlns="http://www.w3.org/2000/svg">
<g clip-path="url(#clip0_5559_72457)">
<g clip-path="url(#clip1_5559_72457)">
<path fill-rule="evenodd" clip-rule="evenodd" d="M10.1735 15.5507H18.0635V16.7607H8.96345L8.13345 17.5907H18.4735C18.5835 17.5907 18.6935 17.5407 18.7735 17.4707C18.8435 17.3907 18.8935 17.2807 18.8935 17.1707V15.1407C18.8935 15.0307 18.8435 14.9207 18.7735 14.8407C18.6935 14.7607 18.5835 14.7207 18.4735 14.7207H11.0035L10.1735 15.5507Z" fill="white"/>
<path fill-rule="evenodd" clip-rule="evenodd" d="M12.1314 3.35277H12.1214C11.1514 3.35277 10.2714 3.65277 9.64144 4.22277C8.99144 4.78277 8.61144 5.62277 8.62144 6.59277V7.19277C7.96144 7.23277 7.36144 7.34277 6.83144 7.53277C5.87144 7.87277 5.11144 8.48277 4.61144 9.29277C4.11144 10.0928 3.85144 11.0828 3.81144 12.2028C3.79144 12.6128 3.79144 13.0228 3.79144 13.3528C3.79144 13.7528 3.80144 14.0328 3.80144 14.0328L4.63144 14.0128C4.63144 14.0128 4.63144 13.9528 4.63144 13.8328C4.62144 13.7128 4.62144 13.5528 4.62144 13.3528C4.62144 13.0328 4.63144 12.6328 4.64144 12.2328C4.67144 11.5628 4.78144 10.9628 4.97144 10.4428C5.26144 9.67277 5.72144 9.08277 6.38144 8.66277C7.04144 8.25277 7.91144 8.01277 9.03144 8.01277C9.14144 8.01277 9.25144 7.97277 9.33144 7.89277C9.41144 7.81277 9.45144 7.71277 9.45144 7.59277V6.59277C9.45144 5.83277 9.73144 5.26277 10.1914 4.84277C10.6514 4.43277 11.3214 4.18277 12.1314 4.18277H12.1414L12.4514 4.17277L12.4314 3.34277L12.1314 3.35277Z" fill="white"/>
<path fill-rule="evenodd" clip-rule="evenodd" d="M19.1065 6.61768L18.2565 7.45768C18.2365 7.94768 18.1765 8.36768 18.0665 8.72768C17.9665 9.06768 17.8265 9.33768 17.6565 9.57768C17.4065 9.91768 17.0765 10.1677 16.6265 10.3477C16.2265 10.5077 15.7165 10.5977 15.1165 10.6077L14.2765 11.4477H14.9365C15.6165 11.4477 16.2165 11.3677 16.7365 11.1877C17.1365 11.0577 17.4865 10.8677 17.7865 10.6277C18.2465 10.2577 18.5865 9.76768 18.7965 9.17768C19.0065 8.57768 19.1065 7.88768 19.1065 7.08768V6.61768Z" fill="white"/>
<path fill-rule="evenodd" clip-rule="evenodd" d="M3.92045 17.4677C3.84045 17.3877 3.80045 17.2877 3.80045 17.1777V15.1377C3.80045 15.0277 3.84045 14.9177 3.92045 14.8477C4.00045 14.7677 4.10045 14.7177 4.21045 14.7177H7.79045V14.7277H7.82045V15.7477L12.1304 11.4477H10.8504C10.3004 11.4477 9.81045 11.4977 9.41045 11.6077C9.01045 11.7177 8.69045 11.8877 8.45045 12.1177C8.29045 12.2677 8.16045 12.4577 8.06045 12.6877C7.92045 13.0077 7.85045 13.4077 7.85045 13.9277H7.01045C7.01045 13.2477 7.13045 12.6777 7.37045 12.1977C7.61045 11.7277 7.97045 11.3677 8.41045 11.1177C8.70045 10.9577 9.02045 10.8377 9.36045 10.7577C9.82045 10.6577 10.3204 10.6177 10.8504 10.6177H12.9604L20.2204 3.34766L20.8104 3.93766L3.30045 21.4477L2.71045 20.8577L5.98045 17.5877H4.21045C4.10045 17.5877 4.00045 17.5477 3.92045 17.4677ZM4.63046 15.5537H7.09046V16.4837L6.81046 16.7537H4.63046V15.5537Z" fill="white"/>
</g>
</g>
<defs>
<clipPath id="clip0_5559_72457">
<rect width="24" height="23.9996" fill="white" transform="translate(-0.000549316 -0.00195312)"/>
</clipPath>
<clipPath id="clip1_5559_72457">
<rect width="18.101" height="18.106" fill="white" transform="translate(2.71045 3.34277)"/>
</clipPath>
</defs>
</svg>
