<svg width="18" height="14" viewBox="0 0 18 14" fill="none" xmlns="http://www.w3.org/2000/svg">
<g clip-path="url(#clip0)">
<g clip-path="url(#clip1)">
<path fill-rule="evenodd" clip-rule="evenodd" d="M4.83902 7.03887H4.38902H3.93902C3.93902 7.19887 3.87902 7.32887 3.77902 7.43887C3.66902 7.53887 3.53902 7.59887 3.37902 7.59887C3.22902 7.59887 3.08902 7.53887 2.98902 7.43887C2.88902 7.32887 2.82902 7.19887 2.82902 7.03887C2.82902 6.88887 2.88902 6.74887 2.98902 6.64887C3.08902 6.54887 3.22902 6.48887 3.37902 6.48887C3.53902 6.48887 3.66902 6.54887 3.77902 6.64887C3.87902 6.74887 3.93902 6.88887 3.93902 7.03887H4.83902C4.83902 6.23887 4.18902 5.58887 3.37902 5.58887C2.57902 5.58887 1.92902 6.23887 1.92902 7.03887C1.92902 7.84887 2.57902 8.49887 3.37902 8.49887C4.18902 8.49887 4.83902 7.84887 4.83902 7.03887Z" fill="white"/>
<path fill-rule="evenodd" clip-rule="evenodd" d="M3.77904 6.64877C3.66904 6.54877 3.53904 6.48877 3.37904 6.48877C3.22904 6.48877 3.08904 6.54877 2.98904 6.64877C2.88904 6.74877 2.82904 6.88877 2.82904 7.03877C2.82904 7.19877 2.88904 7.32877 2.98904 7.43877C3.08904 7.53877 3.22904 7.59877 3.37904 7.59877C3.53904 7.59877 3.66904 7.53877 3.77904 7.43877C3.87904 7.32877 3.93904 7.19877 3.93904 7.03877C3.93904 6.88877 3.87904 6.74877 3.77904 6.64877Z" fill="white"/>
</g>
<g clip-path="url(#clip2)">
<path fill-rule="evenodd" clip-rule="evenodd" d="M0.13 13.8269C0.22 13.9069 0.33 13.9569 0.45 13.9569V13.5069V13.0569H0.9V0.946875H9.79V13.0569H0.9V13.5069H0.45V13.9569H10.24C10.35 13.9569 10.47 13.9069 10.56 13.8269C10.64 13.7369 10.69 13.6269 10.69 13.5069V0.496875C10.69 0.376875 10.64 0.266875 10.56 0.176875C10.47 0.096875 10.35 0.046875 10.24 0.046875H0.45C0.33 0.046875 0.22 0.096875 0.13 0.176875C0.05 0.266875 0 0.376875 0 0.496875V13.5069C0 13.6269 0.05 13.7369 0.13 13.8269Z" fill="white"/>
<path fill-rule="evenodd" clip-rule="evenodd" d="M0.900012 13.5066V13.0566H0.450012V13.5066H0.900012Z" fill="white"/>
</g>
<path fill-rule="evenodd" clip-rule="evenodd" d="M16.787 7.04277L14.547 9.28277L15.257 9.99277L17.857 7.40277C17.947 7.30277 17.997 7.17277 17.997 7.04277C17.997 6.91277 17.947 6.78277 17.857 6.68277L15.257 4.09277L14.547 4.80277L16.787 7.04277Z" fill="white"/>
<path fill-rule="evenodd" clip-rule="evenodd" d="M11.7682 6.53906H16.8951V7.54651H11.7682V6.53906Z" fill="white"/>
</g>
<defs>
<clipPath id="clip0">
<rect width="18" height="13.906" fill="white" transform="translate(0 0.046875)"/>
</clipPath>
<clipPath id="clip1">
<rect width="2.908" height="2.90808" fill="white" transform="translate(1.92902 5.58887)"/>
</clipPath>
<clipPath id="clip2">
<rect width="10.686" height="13.906" fill="white" transform="translate(0 0.046875)"/>
</clipPath>
</defs>
</svg>
