<svg width="17" height="9" viewBox="0 0 17 9" fill="none" xmlns="http://www.w3.org/2000/svg">
<g clip-path="url(#clip0)">
<path fill-rule="evenodd" clip-rule="evenodd" d="M4.44003 0.886873L0.74003 4.58687C-0.13997 5.45687 -0.24997 6.82687 0.47003 7.82687C0.55003 7.93687 0.64003 8.04687 0.74003 8.13687C0.830031 8.23687 0.94003 8.32687 1.05003 8.39687C2.05003 9.12687 3.41003 9.00687 4.29003 8.13687L7.99003 4.42687C8.44003 3.98687 8.70003 3.39687 8.73003 2.76687C8.75003 2.14687 8.55003 1.53687 8.15003 1.05687L8.15002 1.05686C8.10002 0.996862 8.05002 0.936868 7.99003 0.876873C7.94003 0.826873 7.88003 0.776873 7.82003 0.726873C7.34003 0.326873 6.73003 0.126873 6.11003 0.146873C5.48003 0.176873 4.89003 0.436873 4.44003 0.886873ZM4.91259 1.35032L3.29259 2.98032L5.90259 5.58032L7.52259 3.96032C8.20259 3.28032 8.25259 2.22032 7.64259 1.48032C7.60259 1.43032 7.56259 1.39032 7.52259 1.35032L7.52259 1.35031C7.48259 1.31031 7.44259 1.27032 7.39259 1.24032C6.65259 0.630316 5.59259 0.680316 4.91259 1.35032ZM5.43576 6.04634L3.81576 7.66634C3.13576 8.34634 2.07576 8.39634 1.33576 7.78634C1.28576 7.74634 1.24576 7.70634 1.20576 7.66634C1.17263 7.63321 1.14635 7.60007 1.11557 7.56125C1.10919 7.55321 1.10263 7.54492 1.09576 7.53634C0.485762 6.79634 0.535762 5.73634 1.20576 5.05634L2.83576 3.43634L5.43576 6.04634Z" fill="#5D658C"/>
<g clip-path="url(#clip1)">
<path fill-rule="evenodd" clip-rule="evenodd" d="M11.5555 1.23687C11.6055 1.27687 11.6455 1.31687 11.6855 1.35687C11.7255 1.39687 11.7655 1.43687 11.8055 1.48687C12.4155 2.21687 12.3655 3.28687 11.6855 3.95687L10.0655 5.58687L8.76552 4.28687C8.65552 4.46687 8.51552 4.64687 8.36552 4.79687L9.60552 6.04687L7.98552 7.66687C7.30552 8.34687 6.24552 8.39687 5.50552 7.78687C5.47552 7.76687 5.45552 7.74687 5.43552 7.72687L4.96552 8.19687C5.04552 8.26687 5.12552 8.33687 5.21552 8.39687C6.21552 9.12687 7.57552 9.00687 8.45552 8.13687L12.1555 4.42687C12.6055 3.98687 12.8655 3.39687 12.8955 2.76687C12.9155 2.14687 12.7155 1.53687 12.3155 1.05687C12.2655 0.996873 12.2155 0.936873 12.1555 0.876873C12.1055 0.826873 12.0455 0.776873 11.9855 0.726873C11.5055 0.326873 10.8955 0.126873 10.2755 0.146873C9.66551 0.176873 9.08552 0.426873 8.64552 0.846873C8.78552 1.03687 8.90552 1.22687 8.99552 1.43687L9.07552 1.35687C9.75552 0.676873 10.8255 0.626873 11.5555 1.23687Z" fill="#D5D6D9"/>
<path opacity="0.5" fill-rule="evenodd" clip-rule="evenodd" d="M9.60756 6.0398L8.35756 4.7998L5.43756 7.7198C5.45756 7.7398 5.47756 7.7598 5.49756 7.7798C6.23756 8.3898 7.30756 8.3398 7.97756 7.6698L9.60756 6.0398Z" fill="#D5D6D9"/>
</g>
<g clip-path="url(#clip2)">
<path fill-rule="evenodd" clip-rule="evenodd" d="M16.2426 0.876873C16.1926 0.826873 16.1326 0.776873 16.0726 0.726873C15.5926 0.326873 14.9826 0.126873 14.3626 0.146873C13.7526 0.176873 13.1726 0.426873 12.7326 0.846873C12.8726 1.03687 12.9926 1.22687 13.0826 1.43687L13.1626 1.35687C13.8426 0.676873 14.9126 0.626873 15.6426 1.23687C15.6926 1.27687 15.7326 1.31687 15.7726 1.35687C15.8126 1.39687 15.8526 1.43687 15.8926 1.48687C16.5026 2.21687 16.4526 3.28687 15.7726 3.95687L14.1526 5.58687L12.8526 4.28687C12.7426 4.46687 12.6026 4.64687 12.4526 4.79687L13.6926 6.04687L12.0726 7.66687C11.3926 8.34687 10.3326 8.39687 9.59255 7.78687C9.56255 7.76687 9.54255 7.74687 9.52255 7.72687L9.05255 8.19687C9.13255 8.26687 9.21255 8.33687 9.30255 8.39687C10.3026 9.12687 11.6626 9.00687 12.5426 8.13687L16.2426 4.42687C16.6926 3.98687 16.9526 3.39687 16.9826 2.76687C17.0026 2.14687 16.8026 1.53687 16.4026 1.05687C16.3526 0.996873 16.3026 0.936873 16.2426 0.876873Z" fill="#5D658C"/>
<path opacity="0.5" fill-rule="evenodd" clip-rule="evenodd" d="M13.6946 6.0398L12.4446 4.7998L9.5246 7.7198C9.5446 7.7398 9.5646 7.7598 9.5846 7.7798C10.3246 8.3898 11.3946 8.3398 12.0646 7.6698L13.6946 6.0398Z" fill="#5D658C"/>
</g>
<path opacity="0.5" fill-rule="evenodd" clip-rule="evenodd" d="M3.81576 7.66555L5.43576 6.04555L2.83576 3.43555L1.20576 5.05555C0.535758 5.73555 0.485758 6.79555 1.09576 7.53555C1.13576 7.58555 1.16576 7.62555 1.20576 7.66555C1.24576 7.70555 1.28576 7.74555 1.33576 7.78555C2.07576 8.39555 3.13576 8.34555 3.81576 7.66555Z" fill="#5D658C"/>
</g>
<defs>
<clipPath id="clip0">
<rect width="16.9811" height="8.72873" fill="white" transform="translate(0 0.146484)"/>
</clipPath>
<clipPath id="clip1">
<rect width="7.92856" height="8.72873" fill="white" transform="translate(4.96552 0.146484)"/>
</clipPath>
<clipPath id="clip2">
<rect width="7.92856" height="8.72873" fill="white" transform="translate(9.05255 0.146484)"/>
</clipPath>
</defs>
</svg>
