<svg width="33" height="33" viewBox="0 0 33 33" fill="none" xmlns="http://www.w3.org/2000/svg">
<path fill-rule="evenodd" clip-rule="evenodd" d="M8.45668 6.67647C8.42668 6.53647 8.51668 6.39647 8.65668 6.37647L9.40668 6.22647C9.54668 6.19647 9.68668 6.28647 9.71668 6.42647L9.93668 7.52647L10.4067 6.65647C10.4767 6.52647 10.6267 6.48647 10.7567 6.54647L11.4267 6.91647C11.5567 6.98647 11.5967 7.13647 11.5267 7.25647L10.7867 8.63647C11.3067 8.74647 11.7767 8.97647 12.1667 9.30647C12.8367 8.63647 13.7667 8.20647 14.7867 8.20647C15.9667 8.20647 17.0167 8.76647 17.6867 9.62647C18.3567 8.76647 19.4067 8.20647 20.5867 8.20647C22.3867 8.20647 23.8867 9.51647 24.1967 11.2265C24.6967 11.3065 25.1367 11.5365 25.4967 11.9065C25.5167 11.9265 25.5342 11.9465 25.5517 11.9665C25.5692 11.9865 25.5867 12.0065 25.6067 12.0265C26.3567 11.5365 27.1867 11.1865 27.9967 11.1865C28.6667 11.1865 29.2567 11.4365 29.7167 11.9065C30.4367 12.6465 30.5667 13.6865 30.1067 14.8365C29.8467 15.4765 29.3967 16.1665 28.7867 16.8665C28.7667 19.4965 27.4467 21.9465 25.0667 23.7765C22.7367 25.5765 19.6467 26.5665 16.3667 26.5665C13.0767 26.5665 9.98668 25.5765 7.65668 23.7765C5.25668 21.9365 3.94668 19.4665 3.94668 16.8265V16.7265C3.69668 16.5065 3.47668 16.2465 3.30668 15.9465C2.64668 14.8265 2.76668 13.4665 3.48668 12.4865L2.01668 11.9465C1.88668 11.8965 1.81668 11.7565 1.86668 11.6265L2.12668 10.8965C2.17668 10.7665 2.31668 10.6965 2.45668 10.7465L3.37668 11.0865L2.81668 10.1165C2.73668 9.99647 2.78668 9.83647 2.90668 9.76647L3.56668 9.37647C3.68668 9.30647 3.84668 9.34647 3.91668 9.46647L4.48668 10.4365L4.64668 9.46647C4.66668 9.32647 4.80668 9.23647 4.94668 9.25647L5.69668 9.37647C5.83668 9.40647 5.93668 9.53647 5.90668 9.67647L5.65668 11.2165C5.77668 11.1965 5.90668 11.1965 6.03668 11.1965C6.36668 11.1965 6.68668 11.2465 6.98668 11.3365C7.04668 10.8565 7.21668 10.3965 7.49668 9.98647C7.71668 9.64647 8.00668 9.35647 8.32668 9.13647L7.10668 8.15647C6.99668 8.06647 6.97668 7.90647 7.06668 7.79647L7.54668 7.19647C7.63668 7.08647 7.79668 7.06647 7.90668 7.15647L8.67668 7.77647L8.45668 6.67647ZM20.74 14.5036C21.9 13.3936 23.03 12.7236 23.78 12.7236C24.04 12.7236 24.23 12.8036 24.4 12.9736L24.4045 12.9784C24.5178 13.1019 24.8054 13.4149 24.46 14.2636C24.24 14.8036 23.82 15.4136 23.23 16.0536H19.42C19.74 15.5636 20.19 15.0436 20.74 14.5036ZM18.536 11.2916C18.996 11.4016 19.426 11.6016 19.806 11.8716C20.096 12.0716 20.356 12.3216 20.576 12.6016C20.916 12.3416 21.276 12.0816 21.646 11.8716C21.976 11.6716 22.316 11.5116 22.666 11.3916C22.446 10.4516 21.596 9.74162 20.586 9.74162C19.616 9.74162 18.786 10.4016 18.536 11.2916ZM15.5769 14.5916C15.7069 13.5416 16.5969 12.7216 17.6869 12.7216C18.4169 12.7216 19.0569 13.0816 19.4369 13.6416C19.0369 14.0416 18.6869 14.4516 18.3969 14.8516C18.0869 15.2616 17.8469 15.6716 17.6669 16.0516H8.70686C8.96686 15.6616 9.12686 15.2116 9.17686 14.7416C9.48686 14.8416 9.80686 14.8916 10.1369 14.8916C10.3469 14.8916 10.5569 14.8716 10.7669 14.8316C12.2169 14.5316 13.2369 13.2816 13.2969 11.8716C13.3069 11.6216 13.2969 11.3616 13.2369 11.1016C13.2069 10.9216 13.1569 10.7516 13.0869 10.5916C13.4769 10.0716 14.0969 9.74162 14.7869 9.74162C15.7669 9.74162 16.5869 10.4016 16.8369 11.2916C16.3769 11.4016 15.9469 11.6016 15.5669 11.8716C14.6969 12.4816 14.1069 13.4716 14.0369 14.5916C14.0269 14.7316 14.1369 14.8516 14.2769 14.8516H14.7869H15.3069C15.4469 14.8516 15.5569 14.7316 15.5769 14.5916ZM10.1418 10.1005C10.0318 10.1005 9.92178 10.1105 9.81178 10.1305C9.38178 10.2205 9.01178 10.4705 8.77178 10.8305C8.53178 11.1905 8.45178 11.6305 8.53178 12.0505C8.69178 12.8105 9.36178 13.3605 10.1318 13.3605C10.2418 13.3605 10.3518 13.3505 10.4618 13.3305C11.3418 13.1505 11.9118 12.2905 11.7318 11.4105C11.5818 10.6505 10.9118 10.1005 10.1418 10.1005ZM4.62824 15.1755C4.17824 14.4055 4.43824 13.4055 5.21824 12.9455C5.46824 12.8055 5.74824 12.7255 6.03824 12.7255C6.61824 12.7255 7.15824 13.0355 7.44824 13.5355C7.89824 14.3055 7.63824 15.3055 6.86824 15.7555C6.60824 15.9055 6.32824 15.9855 6.03824 15.9855C5.45824 15.9855 4.91824 15.6755 4.62824 15.1755ZM27.196 17.5895H5.52595C6.03595 21.7595 10.706 25.0395 16.366 25.0395C22.026 25.0395 26.686 21.7595 27.196 17.5895ZM27.9959 12.7236C28.2559 12.7236 28.4459 12.8036 28.6059 12.9736C28.7259 13.0936 29.0259 13.4036 28.6759 14.2636C28.4559 14.8036 28.0359 15.4136 27.4459 16.0536H25.2059C25.4959 15.6436 25.7259 15.2336 25.8859 14.8436C26.0759 14.3736 26.1659 13.9236 26.1559 13.5036C26.8659 13.0036 27.5159 12.7236 27.9959 12.7236Z" fill="#5D658C"/>
</svg>
