<svg width="13" height="22" viewBox="0 0 13 22" fill="none" xmlns="http://www.w3.org/2000/svg">
<path fill-rule="evenodd" clip-rule="evenodd" d="M2.09502 19.6162L2.10502 19.5963L4.48502 13.5262V11.8962L3.62502 12.9862C3.31502 13.3663 2.87502 13.5562 2.42502 13.5562C2.09502 13.5562 1.75502 13.4462 1.46502 13.2262C1.09502 12.9262 0.89502 12.4762 0.89502 12.0262C0.89502 11.6962 1.00502 11.3562 1.22502 11.0763L3.62502 8.07625C5.23502 6.28625 5.43502 5.99625 5.31502 5.46625L5.30502 5.47625V5.44625C5.28502 5.40625 5.26502 5.36625 5.21502 5.31625V5.30625C4.95502 5.04625 4.74502 4.72625 4.58502 4.36625C4.43502 3.99625 4.33502 3.58625 4.33502 3.15625C4.33502 2.63625 4.44502 2.15625 4.66502 1.75625C4.88502 1.35625 5.21502 1.03625 5.62502 0.84625C5.89502 0.71625 6.20502 0.65625 6.52502 0.65625C6.83502 0.65625 7.14502 0.71625 7.41502 0.84625C7.68502 0.96625 7.92502 1.15625 8.12502 1.38625C8.50502 1.83625 8.69502 2.45625 8.69502 3.15625C8.69502 3.86625 8.43502 4.53625 8.05502 5.03625C8.05502 5.03899 8.05427 5.04324 8.05317 5.0494V5.04941L8.05317 5.04941L8.05317 5.04942C8.05028 5.06574 8.04502 5.09547 8.04502 5.14625C8.04502 5.21625 8.05502 5.31625 8.08502 5.39625C8.10968 5.47024 8.14111 5.53072 8.16262 5.57212L8.17502 5.59625C9.29502 7.11625 10.795 9.44625 10.825 9.49625L11.935 11.1962C12.105 11.4462 12.195 11.7463 12.195 12.0363C12.195 12.5262 11.945 13.0162 11.505 13.3162C11.245 13.4862 10.955 13.5662 10.665 13.5662C10.165 13.5662 9.67502 13.3263 9.38502 12.8763L9.05502 12.3763V12.3663L8.74502 11.8862C8.73502 12.1362 8.71502 12.3663 8.68502 12.5763L10.535 17.6562L11.275 19.7463V19.7663C11.335 19.9463 11.365 20.1462 11.365 20.3363C11.365 20.6362 11.295 20.9363 11.125 21.1963C10.955 21.4563 10.695 21.6662 10.375 21.7862C10.185 21.8562 9.99502 21.8962 9.79502 21.8962C9.46502 21.8962 9.12502 21.7862 8.85502 21.5562C8.58502 21.3363 8.37502 21.0162 8.23502 20.6162H8.22502L7.89502 19.7463L6.89502 16.9762C6.13502 18.5562 5.12502 20.6562 5.11502 20.6963C4.96502 21.0163 4.75502 21.2762 4.48502 21.4662C4.22502 21.6663 3.90502 21.7763 3.57502 21.7763C3.39502 21.7763 3.22502 21.7463 3.05502 21.6863C2.72502 21.5763 2.45502 21.3463 2.27502 21.0763C2.09502 20.8062 2.00502 20.4862 2.00502 20.1663C2.00502 19.9762 2.03502 19.7962 2.09502 19.6162ZM2.87595 12.3892C2.76595 12.5392 2.59595 12.6092 2.42595 12.6092C2.29595 12.6092 2.16595 12.5692 2.06595 12.4792C1.91595 12.3692 1.84595 12.1992 1.84595 12.0292C1.84595 11.8992 1.88595 11.7792 1.97595 11.6692L2.58595 10.8992L4.71595 8.15919C4.52595 9.29919 4.56595 10.2792 4.56595 10.2792L4.37595 10.5092L2.87595 12.3892ZM9.11407 20.2713L9.12407 20.2913C9.22407 20.5713 9.34407 20.7313 9.45407 20.8213C9.57407 20.9113 9.66407 20.9413 9.79407 20.9413C9.86407 20.9413 9.95407 20.9313 10.0441 20.9013C10.1841 20.8413 10.2641 20.7713 10.3241 20.6813C10.3841 20.5913 10.4141 20.4713 10.4141 20.3313C10.4141 20.2513 10.4041 20.1513 10.3741 20.0513L8.37407 14.3513L8.28407 14.0913C8.15065 14.4153 8.00513 14.6909 7.8757 14.936C7.80141 15.0767 7.73242 15.2073 7.67407 15.3313C7.64907 15.3813 7.61408 15.4563 7.57035 15.55L7.57032 15.5501C7.52657 15.6438 7.47407 15.7563 7.41407 15.8813L9.11407 20.2713ZM4.24606 20.2874C4.15606 20.4774 4.04606 20.6174 3.92606 20.6974C3.80606 20.7874 3.69606 20.8174 3.56606 20.8174C3.50606 20.8174 3.43606 20.8074 3.36606 20.7874C3.23606 20.7474 3.14606 20.6674 3.06606 20.5574C2.99606 20.4474 2.95606 20.3074 2.95606 20.1574C2.95606 20.0874 2.96606 20.0074 2.99606 19.9274L5.40606 13.7874C5.42606 13.7374 5.43606 13.6774 5.43606 13.6174V10.1274C5.43606 9.93605 5.43124 9.73743 5.42634 9.53514C5.42125 9.32521 5.41606 9.11132 5.41606 8.89743C5.41606 8.48743 5.43606 8.07743 5.49606 7.71743C5.55606 7.37743 5.65606 7.09743 5.79606 6.86743L5.80606 6.84743C5.81106 6.84243 5.81356 6.83743 5.81606 6.83243C5.81856 6.82743 5.82106 6.82243 5.82606 6.81743C5.94606 6.62743 6.05606 6.42743 6.14606 6.22743C6.22606 6.01743 6.27606 5.80743 6.27606 5.56743C6.27606 5.40743 6.24606 5.24743 6.18606 5.08743C6.12606 4.92743 6.02606 4.77743 5.89606 4.65743V4.64743C5.72606 4.47743 5.57606 4.25743 5.46606 3.98743C5.35606 3.73743 5.28606 3.43743 5.28606 3.14743C5.28606 2.63743 5.43606 2.24743 5.64606 1.99743C5.75606 1.86743 5.87606 1.77743 6.01606 1.70743C6.15606 1.64743 6.32606 1.60743 6.51606 1.60743C6.71606 1.60743 6.87606 1.64743 7.01606 1.70743C7.23606 1.80743 7.40606 1.96743 7.53606 2.20743C7.66606 2.44743 7.74606 2.76743 7.74606 3.14743C7.74606 3.63743 7.55606 4.12743 7.29606 4.46743V4.47743C7.29606 4.47743 7.28606 4.48743 7.27606 4.48743C7.13606 4.70743 7.08606 4.93743 7.08606 5.14743C7.08606 5.34743 7.12606 5.52743 7.17606 5.69743C7.23606 5.85743 7.30606 6.00743 7.39606 6.14743H7.40606C7.95606 6.89743 8.60606 7.86743 9.12606 8.64743C9.29291 8.89129 9.44329 9.12279 9.57191 9.3208C9.64371 9.43134 9.70874 9.53145 9.76606 9.61743C9.7871 9.64899 9.80745 9.67917 9.82674 9.70778C9.88081 9.78796 9.92658 9.85584 9.95606 9.90743L10.0261 10.0074V10.0174L11.1461 11.7174C11.2061 11.8174 11.2361 11.9274 11.2361 12.0374C11.2361 12.2274 11.1461 12.4074 10.9761 12.5174C10.8761 12.5874 10.7761 12.6174 10.6661 12.6174C10.4761 12.6074 10.2861 12.5274 10.1761 12.3574L9.61606 11.4974L7.59606 8.33743L6.79606 8.84743L7.80606 10.4274V11.5474C7.80606 12.4574 7.65606 13.0774 7.46606 13.5774C7.33554 13.9278 7.18143 14.2215 7.02642 14.5169C6.95577 14.6516 6.88494 14.7866 6.81606 14.9274C6.65606 15.2674 6.01606 16.6074 5.41606 17.8574L5.35165 17.9927C5.0748 18.5742 4.81027 19.1297 4.60606 19.5474C4.39606 19.9874 4.25606 20.2874 4.25606 20.2874H4.24606Z" fill="black" fill-opacity="0.85"/>
</svg>
