<svg width="33" height="33" viewBox="0 0 33 33" fill="none" xmlns="http://www.w3.org/2000/svg">
<path fill-rule="evenodd" clip-rule="evenodd" d="M16.3551 5.87695C22.1451 5.87695 26.8551 10.577 26.8551 16.357C26.8551 22.127 22.1451 26.827 16.3551 26.827C10.5651 26.827 5.86511 22.127 5.86511 16.357C5.86511 10.577 10.5651 5.87695 16.3551 5.87695ZM25.311 16.3548C25.311 21.2748 21.301 25.2948 16.361 25.2948C11.421 25.2948 7.401 21.2748 7.401 16.3548C7.401 11.4248 11.421 7.41479 16.361 7.41479C21.301 7.41479 25.311 11.4248 25.311 16.3548ZM9.62007 16.3634C10.3001 17.2234 11.3301 17.7334 12.4401 17.7334C13.5401 17.7334 14.5801 17.2234 15.2601 16.3634C15.3501 16.2534 15.3001 16.1034 15.1901 16.0234L14.3401 15.4434C14.2301 15.3734 14.0701 15.4034 13.9701 15.5134C13.5901 15.9434 13.0301 16.2034 12.4401 16.2034C11.8401 16.2034 11.2801 15.9434 10.9001 15.5134C10.8001 15.4034 10.6501 15.3734 10.5301 15.4434L9.68007 16.0234C9.57007 16.1034 9.53007 16.2534 9.62007 16.3634ZM21.8204 15.5134C21.9104 15.4034 22.0704 15.3734 22.1804 15.4434L23.0304 16.0234C23.1504 16.1034 23.1804 16.2534 23.1004 16.3634C22.4204 17.2234 21.3904 17.7334 20.2804 17.7334C19.1704 17.7334 18.1304 17.2234 17.4604 16.3634C17.3704 16.2534 17.4104 16.1034 17.5204 16.0234L18.3704 15.4434C18.4904 15.3734 18.6404 15.4034 18.7304 15.5134C19.1204 15.9434 19.6804 16.2034 20.2804 16.2034C20.8704 16.2034 21.4304 15.9434 21.8204 15.5134Z" fill="#5D658C"/>
</svg>
