<svg width="33" height="32" viewBox="0 0 33 32" fill="none" xmlns="http://www.w3.org/2000/svg">
<path d="M29.973 21.6347H5.15496C4.67921 21.6347 4.20347 21.3572 4.00524 20.9211C3.76737 20.4453 3.88631 19.8903 4.24311 19.5335L7.57333 16.2033C7.93014 15.8465 8.52482 15.7672 8.92127 16.0447C9.47631 16.4411 9.5556 17.234 9.07985 17.6701L7.73191 19.0181C7.61297 19.137 7.61297 19.2956 7.73191 19.4145L8.52482 20.2074C8.64375 20.3264 8.80233 20.3264 8.92127 20.2074L10.2692 18.8595C10.3089 18.8199 10.3485 18.7802 10.3881 18.7009C10.9432 18.9388 11.5775 19.0974 12.1722 19.137H12.2118C12.6876 19.137 13.084 18.7406 13.0444 18.2252C13.0047 17.7891 12.6479 17.5116 12.2118 17.4719C11.7757 17.4323 11.3793 17.353 10.9828 17.1547C11.0621 16.3618 10.7846 15.5689 10.1899 14.9743C9.83311 14.6174 9.43666 14.4192 9.00056 14.3003C8.92127 13.0316 9.51595 11.8423 10.626 11.1683C11.4189 10.6926 12.3308 10.5736 13.203 10.7718C14.0752 10.9701 14.8284 11.5251 15.3042 12.318C15.8989 13.2695 15.9781 14.4589 15.5024 15.4896C15.2645 16.005 15.0267 16.7187 15.3438 17.353C15.5024 17.6701 15.8196 17.908 16.216 17.9873C16.2953 17.9873 16.3746 18.0269 16.4539 18.0269C17.0882 18.0269 17.6036 17.5512 18.119 17.0755C18.8326 16.4015 19.7445 15.5689 21.2906 15.5689H29.8937C30.0523 15.5689 30.1712 15.45 30.1712 15.2914V14.1813C30.1712 14.0228 30.0523 13.9038 29.8937 13.9038H21.3699C19.3877 13.9038 18.1586 14.8553 17.3261 15.6086C17.7622 14.221 17.564 12.7145 16.8107 11.4458C16.0971 10.2961 14.987 9.46355 13.6787 9.14638C12.3704 8.82922 10.9828 9.02745 9.83311 9.74106C8.20765 10.7322 7.29581 12.5162 7.41475 14.3796C7.05794 14.4985 6.70113 14.7364 6.42361 15.0139L3.17269 18.2648C2.30049 19.137 1.98333 20.485 2.49872 21.595C2.97446 22.6258 3.9656 23.2998 5.11531 23.2998H29.973C30.1315 23.2998 30.2505 23.1809 30.2505 23.0223V21.9122C30.2505 21.7536 30.1315 21.6347 29.973 21.6347Z" fill="#5D658C"/>
</svg>
