<svg width="24" height="24" viewBox="0 0 24 24" fill="none" xmlns="http://www.w3.org/2000/svg">
<path fill-rule="evenodd" clip-rule="evenodd" d="M16.123 10.7983C15.513 10.0283 14.733 9.53832 13.963 9.23832H13.953C13.803 9.18832 13.703 9.10832 13.653 9.04832C13.623 9.01832 13.613 8.98832 13.603 8.96832L13.593 8.94832C13.953 8.60832 14.253 8.17832 14.473 7.67832C14.693 7.17832 14.823 6.61832 14.823 6.03832C14.823 5.11832 14.563 4.30832 14.063 3.70832C13.823 3.41832 13.513 3.17832 13.163 3.01832C12.813 2.85832 12.413 2.77832 12.003 2.77832C11.583 2.77832 11.193 2.85832 10.843 3.01832C10.313 3.25832 9.88299 3.67832 9.60299 4.19832C9.32299 4.71832 9.17299 5.33832 9.17299 6.03832C9.17299 6.61832 9.31299 7.17832 9.53299 7.67832C9.74299 8.17832 10.053 8.60832 10.403 8.94832V8.96832C10.383 9.02832 10.273 9.15832 10.043 9.23832L10.033 9.24832V9.23832C9.27299 9.53832 8.48299 10.0283 7.88299 10.7983C7.32299 11.4983 6.95299 12.4383 6.89299 13.5983C6.88299 13.6383 6.87299 13.6783 6.87299 13.7083V13.8883V21.4283H7.82299V13.8883C7.82299 12.7883 8.15299 11.9883 8.62299 11.3883C9.10299 10.7783 9.74299 10.3783 10.373 10.1283C10.383 10.1283 10.393 10.1183 10.393 10.1183C10.663 10.0183 10.903 9.86832 11.063 9.67832C11.243 9.46832 11.353 9.21832 11.363 8.94832C11.363 8.69832 11.253 8.44832 11.063 8.26832C10.813 8.02832 10.573 7.68832 10.403 7.29832C10.233 6.90832 10.133 6.47832 10.133 6.03832C10.133 5.28832 10.343 4.70832 10.663 4.32832C10.823 4.13832 11.013 3.98832 11.233 3.88832C11.453 3.78832 11.713 3.72832 12.003 3.72832C12.293 3.72832 12.543 3.78832 12.763 3.88832C13.093 4.03832 13.363 4.28832 13.553 4.64832C13.753 5.00832 13.873 5.47832 13.873 6.03832C13.873 6.47832 13.773 6.90832 13.603 7.29832C13.433 7.68832 13.193 8.02832 12.933 8.26832C12.743 8.44832 12.643 8.69832 12.643 8.94832C12.643 9.21832 12.753 9.46832 12.933 9.67832C13.103 9.86832 13.343 10.0283 13.623 10.1283C14.263 10.3783 14.903 10.7783 15.373 11.3883C15.853 11.9883 16.173 12.7883 16.173 13.8883V21.4283H17.123V13.8883V13.7083C17.123 13.6683 17.113 13.6383 17.103 13.5983C17.053 12.4383 16.683 11.4983 16.123 10.7983Z" fill="white"/>
</svg>
