<svg width="32" height="32" viewBox="0 0 32 32" fill="none" xmlns="http://www.w3.org/2000/svg">
<g clip-path="url(#clip0_4843_32958)">
<path d="M17.7496 3.22369C17.6533 3.1916 17.3164 3.09534 16.8511 3.01512C16.2735 2.90281 15.712 3.43226 16.081 4.07403C16.3377 4.52327 16.434 4.79602 16.5784 5.14899C16.6265 5.2613 16.6746 5.38965 16.7228 5.50196C17.4287 7.50748 17.2201 9.81783 16.065 11.8233C14.8937 13.8289 12.9363 15.1926 10.8025 15.5616C10.2088 15.6579 10.0163 15.706 9.2141 15.7221C8.5242 15.7221 8.28354 16.3638 8.68464 16.8933C8.94135 17.2463 9.39059 17.6474 9.48685 17.7276C10.979 18.9309 12.824 19.5887 14.7814 19.5887C19.4342 19.5887 23.2206 15.8023 23.2206 11.1495C23.2206 7.53956 20.9905 4.44304 17.7496 3.22369ZM14.7814 18.3694C13.161 18.3694 11.6047 17.8239 10.3372 16.8452C13.0968 16.5885 15.6638 14.9359 17.1078 12.433C18.5678 9.9141 18.7283 6.97802 17.6052 4.47513C20.2685 5.59822 22.0173 8.19737 22.0173 11.1335C22.0173 15.1284 18.7604 18.3694 14.7814 18.3694Z" fill="black" fill-opacity="0.85"/>
<path d="M13.4497 29.0066H12.2304L11.717 27.4984H8.73277L8.21935 29.0066H7L9.75959 21.4658H10.6902L13.4497 29.0066ZM9.06969 26.5197H11.3961L10.2249 23.1665L9.06969 26.5197Z" fill="black" fill-opacity="0.85"/>
<path d="M13.498 21.4658H14.6853L16.418 26.969L18.1508 21.4658H19.3381L16.8512 29.0066H15.9688L13.498 21.4658Z" fill="black" fill-opacity="0.85"/>
<path d="M25.8679 23.7278H24.7287C24.5362 22.9095 23.9907 22.4282 23.1404 22.4282C22.6911 22.4282 22.3061 22.5886 22.0173 22.8774C21.6483 23.2785 21.568 23.7278 21.568 25.2359C21.568 26.728 21.6483 27.1773 22.0173 27.5944C22.3061 27.8832 22.6911 28.0436 23.1404 28.0436C23.6377 28.0436 24.087 27.8672 24.3758 27.5142C24.6485 27.1933 24.7448 26.8082 24.7448 26.3269V25.9098H23.1404V24.9311H25.9V26.0863C25.9 27.0649 25.7235 27.6746 25.2261 28.2201C24.6646 28.8138 23.9426 29.0705 23.1564 29.0705C22.3382 29.0705 21.6964 28.7977 21.2151 28.3003C20.477 27.5623 20.4449 26.8082 20.4449 25.2359C20.4449 23.6636 20.477 22.9095 21.2151 22.1715C21.6964 21.6902 22.3382 21.4014 23.1564 21.4014C24.7287 21.4014 25.6753 22.4603 25.8679 23.7278Z" fill="black" fill-opacity="0.85"/>
</g>
<defs>
<clipPath id="clip0_4843_32958">
<rect width="32" height="32.0002" fill="white"/>
</clipPath>
</defs>
</svg>
