<svg xmlns="http://www.w3.org/2000/svg" viewBox="0 0 9.02 15.38"><defs><style>.cls-1{fill:#666;}</style></defs><g id="Layer_2" data-name="Layer 2"><g id="Layer_1-2" data-name="Layer 1"><path class="cls-1" d="M9,15.38H8.31v-3.8c0-2.3-.09-3.35-2.24-4.27a1.13,1.13,0,0,1-.76-.75,1.06,1.06,0,0,1,.35-.94,3.52,3.52,0,0,0,.92-2,3,3,0,0,0-.64-2.26A1.84,1.84,0,0,0,4.51.71a1.81,1.81,0,0,0-1.43.61,3,3,0,0,0-.64,2.26,3.57,3.57,0,0,0,.93,2.05A1,1,0,0,1,3,7.31C.8,8.27.71,9.31.71,11.58v3.8H0v-3.8C0,9.2.12,7.79,2.67,6.66a.45.45,0,0,0,.27-.25.38.38,0,0,0-.11-.32,4.34,4.34,0,0,1-1.1-2.44A3.75,3.75,0,0,1,2.55.85a2.55,2.55,0,0,1,2-.85,2.51,2.51,0,0,1,2,.85,3.71,3.71,0,0,1,.82,2.8A4.1,4.1,0,0,1,6.18,6.1C6,6.25,6,6.36,6,6.41s.1.15.33.25C9,7.8,9,9.38,9,11.58Z"/><path class="cls-1" d="M4.51,13.85a.23.23,0,0,1-.21-.13l-.39-.78-.82.28a.24.24,0,0,1-.23-.06.2.2,0,0,1-.06-.23l.28-.83-.78-.39a.22.22,0,0,1,0-.4l.78-.39-.28-.83a.2.2,0,0,1,.06-.23.24.24,0,0,1,.23-.06l.82.28L4.3,9.3a.24.24,0,0,1,.41,0l.39.78.83-.28a.24.24,0,0,1,.23.06.22.22,0,0,1,0,.23l-.27.83.78.39a.23.23,0,0,1,0,.4l-.78.39.27.83a.22.22,0,0,1,0,.23.24.24,0,0,1-.23.06l-.83-.28-.39.78a.23.23,0,0,1-.2.13M4,12.44a.22.22,0,0,1,.2.12l.28.55.27-.55a.23.23,0,0,1,.28-.11l.58.19-.19-.58a.21.21,0,0,1,.11-.27l.55-.28-.55-.27A.23.23,0,0,1,5.45,11l.19-.58-.58.19a.23.23,0,0,1-.28-.11l-.27-.55-.28.55a.22.22,0,0,1-.27.11l-.59-.19.2.58a.24.24,0,0,1-.12.28l-.54.27.54.28a.22.22,0,0,1,.12.27l-.2.58L4,12.45H4"/></g></g></svg>