<svg width="32" height="32" viewBox="0 0 32 32" fill="none" xmlns="http://www.w3.org/2000/svg">
<path d="M6.80788 28.5646C7.18645 27.4668 7.18645 26.6339 7.18645 26.0471V21.8828H10.7072V29.5868C10.7072 30.0221 10.6883 30.5521 9.89325 30.5521H8.62503L8.43574 29.3786H9.38218C9.59039 29.3786 9.62825 29.3407 9.62825 29.1514V27.6561H8.18967C8.11396 28.2618 7.86788 29.6057 7.12967 30.5332L6.14538 29.795C6.27788 29.6057 6.41038 29.4164 6.61859 28.9811H4.99073V30.5332H3.89287V28.9811H2V27.9589H3.89287V27.3911H2.30286V23.7946H3.89287V23.3025H2.09464V22.2803H3.89287V21.6557H4.99073V22.2803H6.80788V23.3025H4.99073V23.7946H6.59966V27.3911H4.99073V27.9589H6.80788V28.5646ZM3.30608 24.6464V25.1953H5.59645V24.6464H3.30608ZM3.30608 25.9714V26.5393H5.59645V25.9714H3.30608ZM8.28432 26.0471C8.28432 26.3121 8.28432 26.35 8.28432 26.6528H9.62825V25.3468H8.28432V26.0471ZM8.28432 24.3057H9.62825V23.0185H8.28432V24.3057Z" fill="black"/>
<path d="M12.3161 21.9774H20.5122V23.0753H16.9915V26.3121H20.8151V27.4289H16.9915V30.59H15.7801V27.4289H11.9943V26.3121H15.799V23.0753H12.3161V21.9774ZM13.8304 23.3025C14.2468 24.0596 14.5497 24.9492 14.7958 25.7443L13.66 26.1039C13.5465 25.6875 13.2436 24.6275 12.7704 23.6621L13.8304 23.3025ZM20.039 23.6432C19.7172 24.6085 19.4144 25.4035 18.9601 26.1607L17.8622 25.7632C18.4301 24.7978 18.8086 23.4728 18.8465 23.3214L20.039 23.6432Z" fill="black"/>
<path d="M25.6987 25.2711C25.5094 25.5171 25.4148 25.6496 25.2255 25.8389L24.3737 25.025C24.4873 24.9114 24.5251 24.8736 24.5441 24.8357H23.9573V27.4857C24.298 27.3721 24.5441 27.2775 24.9416 27.1261L25.0173 28.1861C24.033 28.6593 22.3105 29.265 21.7426 29.4543L21.5912 28.2239C21.9887 28.1293 22.2726 28.0536 22.8215 27.8832V24.8546H21.7615V23.7378H22.8215V21.6935H23.9573V23.7378H24.828V24.495C25.7744 23.2457 25.9826 22.0721 26.0584 21.6178L27.1941 21.7693C27.1373 22.0532 27.0994 22.2235 26.948 22.7725H30.5255C30.5255 24.0786 30.5255 27.0314 30.2984 28.7161C30.1848 29.4922 30.0334 30.5711 28.4812 30.5711H26.9669L26.7776 29.3597H28.1784C28.7841 29.3597 29.0112 29.2461 29.1059 28.6593C29.3141 27.3154 29.3519 25.29 29.3519 23.9082H26.4937C26.3991 24.1353 26.2287 24.4761 25.9258 24.9493H28.5191V26.0093H25.6798V25.2711H25.6987ZM28.803 27.8454C27.6673 28.3754 26.2098 28.9054 25.3012 29.1704L25.093 27.9779C26.9101 27.5236 28.1784 27.0125 28.6516 26.8232L28.803 27.8454Z" fill="black"/>
<path d="M13.5051 2.00002L12.0607 2.38702L13.1482 6.44589L14.5926 6.05889L13.5051 2.00002Z" fill="black"/>
<path d="M19.013 2.00943L17.925 6.0683L19.3694 6.45545L20.4574 2.39658L19.013 2.00943Z" fill="black"/>
<path d="M25.2231 5.15353L22.2517 8.12488L23.3091 9.18225L26.2804 6.2109L25.2231 5.15353Z" fill="black"/>
<path d="M29.0302 10.9731L24.9713 12.0606L25.3583 13.5049L29.4172 12.4174L29.0302 10.9731Z" fill="black"/>
<path d="M7.29672 5.14142L6.2392 6.19879L9.21055 9.17056L10.2681 8.11319L7.29672 5.14142Z" fill="black"/>
<path d="M3.48197 10.9699L3.09497 12.4143L7.15384 13.5018L7.54084 12.0574L3.48197 10.9699Z" fill="black"/>
<path d="M23.484 17.1507C23.6733 16.4882 23.7869 15.7878 23.7869 15.0685C23.7869 10.9231 20.4176 7.55383 16.2722 7.55383C12.1268 7.55383 8.75752 10.9231 8.75752 15.0685C8.75752 15.7878 8.87109 16.4882 9.06038 17.1507H2.17035V18.646H30.3362V17.1507H23.484ZM10.234 15.0496C10.234 11.7181 12.9408 9.01134 16.2722 9.01134C19.6036 9.01134 22.3104 11.7181 22.3104 15.0496C22.3104 15.7878 22.1779 16.4882 21.9319 17.1317H10.5936C10.3665 16.4882 10.234 15.7878 10.234 15.0496Z" fill="black"/>
</svg>
