<svg width="24" height="21" viewBox="0 0 24 21" fill="none" xmlns="http://www.w3.org/2000/svg">
<path d="M20.7534 20.2417C20.6716 20.2419 20.5906 20.2256 20.5153 20.1938L16.0381 18.2829C14.714 18.5844 13.3596 18.7333 12.0015 18.7266C8.63437 18.7266 5.72172 17.915 3.57743 16.3798C1.2368 14.6993 0 12.2814 0 9.3749C0 6.46844 1.2368 4.04123 3.57743 2.35919C5.72327 0.813193 8.63746 0 12.0015 0C15.3656 0 18.2798 0.816285 20.4241 2.36073C22.7632 4.04277 24 6.46844 24 9.3749C24 12.1283 22.8869 14.4489 20.7751 16.1108L21.344 19.5352C21.3583 19.6222 21.3536 19.7113 21.3301 19.7963C21.3065 19.8813 21.2648 19.9601 21.2077 20.0273C21.1506 20.0946 21.0796 20.1486 20.9995 20.1856C20.9195 20.2226 20.8323 20.2417 20.7441 20.2417H20.7534ZM16.1 17.0368C16.1819 17.037 16.2629 17.0538 16.3381 17.0863L19.9727 18.6323L19.5243 15.9423C19.507 15.8308 19.5204 15.7168 19.5632 15.6124C19.6059 15.508 19.6765 15.4173 19.7671 15.3502C21.7475 13.9124 22.7941 11.8439 22.7941 9.36872C22.7941 4.41226 18.5597 1.20897 12.0093 1.20897C5.4589 1.20897 1.2167 4.41845 1.2167 9.3749C1.2167 14.3314 5.44808 17.5115 12.0015 17.5115C13.3302 17.5182 14.6548 17.3651 15.9469 17.0554C15.9944 17.0431 16.0432 17.0368 16.0922 17.0368H16.1Z" fill="#8A8A8E"/>
</svg>
