<svg width="40" height="23" viewBox="0 0 40 23" fill="none" xmlns="http://www.w3.org/2000/svg">
<path d="M0.0799463 20.0497C0.389946 18.9697 1.11995 18.4597 2.11995 18.2297C2.86995 18.0597 3.62995 17.8397 4.33995 17.5397C5.50995 17.0497 5.72995 16.3797 5.15995 15.1797C4.43995 13.6397 3.83995 12.0597 3.84995 10.2997C3.86995 7.36966 5.99995 5.61966 8.65995 6.37966C10.1199 6.79966 10.9599 7.84966 11.2099 9.40966C11.5399 11.5397 10.8499 13.4497 9.84995 15.1997C9.63995 15.5697 8.75995 15.4897 7.94995 15.6697C8.42995 14.4897 8.86995 13.6297 9.10995 12.7197C9.36995 11.7497 9.59995 10.7097 9.53995 9.71966C9.46995 8.50966 8.53995 7.89966 7.33995 7.98966C6.23995 8.06966 5.58995 8.77965 5.51995 9.98966C5.42995 11.5197 5.97995 12.8697 6.54995 14.2197C6.79995 14.7997 7.02995 15.4297 7.08995 16.0497C7.20995 17.2497 6.67995 18.2197 5.69995 18.7497C4.84995 19.2197 3.91995 19.5297 2.99995 19.8097C1.75995 20.1897 1.74995 20.1497 1.72995 21.5097C1.72995 21.6797 1.72995 21.8597 1.72995 22.1597C1.14995 22.1597 0.609946 22.1597 0.0699463 22.1597C0.0799463 21.4697 0.0799463 20.7597 0.0799463 20.0497Z" fill="#5397EA"/>
<path d="M29.95 22.1398C29.37 22.1398 28.88 22.1398 28.29 22.1398C28.29 21.5598 28.31 21.0098 28.29 20.4598C28.25 19.2998 27.98 18.9598 26.94 18.6598C25.9 18.3598 24.84 18.1298 23.83 17.7298C21.17 16.6698 20.54 14.6898 21.71 11.9598C22.38 10.3898 22.95 8.71981 23.23 7.03981C23.73 4.00981 21.6 2.02981 18.93 2.84981C17.53 3.27981 16.75 4.38981 16.69 6.07981C16.62 8.05981 17.17 9.90981 18.09 11.5598C19.65 14.3498 18.99 16.9298 15.49 18.0098C14.75 18.2398 14 18.4298 13.25 18.6298C11.97 18.9598 11.73 19.2698 11.71 20.7098C11.7 21.1498 11.71 21.5898 11.71 22.1698C11.42 22.1698 11.15 22.1698 10.89 22.1698C10.64 22.1698 10.4 22.1698 9.97998 22.1698C10.07 21.0398 10.08 19.9498 10.26 18.8998C10.42 17.9898 11.1 17.4598 11.91 17.1998C12.7 16.9398 13.51 16.7498 14.31 16.5198C14.74 16.3998 15.16 16.2698 15.57 16.0998C17.3 15.3798 17.6 14.4998 16.76 12.7498C15.78 10.6998 15 8.59981 15.02 6.25981C15.06 1.96981 19.03 -0.490193 22.56 1.56981C24.32 2.58981 25.34 4.81981 24.87 7.27981C24.52 9.13981 23.9 10.9598 23.22 12.7098C22.49 14.5698 22.7 15.4298 24.5 16.1098C25.48 16.4898 26.52 16.7098 27.53 17.0098C29.29 17.5198 29.9 18.3298 29.95 20.2898C29.97 20.8698 29.95 21.4598 29.95 22.1398Z" fill="#5397EA"/>
<path d="M39.92 22.1397C39.34 22.1397 38.85 22.1397 38.37 22.1397C38.33 22.0597 38.28 22.0197 38.28 21.9697C38.19 20.1697 38.19 20.1797 36.51 19.6997C35.85 19.5097 35.18 19.2897 34.57 18.9597C32.96 18.0897 32.48 16.4697 33.21 14.6997C33.61 13.7297 33.99 12.7497 34.3 11.7497C34.45 11.2597 34.48 10.6997 34.48 10.1797C34.46 8.83965 33.8 8.07965 32.65 7.99965C31.39 7.90965 30.5 8.57965 30.41 9.90965C30.36 10.7097 30.52 11.5497 30.75 12.3197C31.06 13.3497 31.52 14.3397 31.91 15.3397C30.71 15.8197 30.28 15.6397 29.76 14.5097C29.04 12.9497 28.55 11.3397 28.77 9.56965C29.02 7.46965 30.5 6.16965 32.59 6.21965C34.55 6.26965 35.95 7.64965 36.12 9.69965C36.28 11.5697 35.72 13.2497 34.97 14.8797C34.22 16.5097 34.46 17.1497 36.07 17.7097C36.65 17.9097 37.24 18.0597 37.83 18.2197C39.49 18.6697 39.91 19.2297 39.92 21.0697C39.92 21.3997 39.92 21.7197 39.92 22.1397Z" fill="#5397EA"/>
</svg>
