<svg width="33" height="32" viewBox="0 0 33 32" fill="none" xmlns="http://www.w3.org/2000/svg">
<path d="M21.5585 27.395H11.0913C10.5772 27.395 10.063 27.1747 9.73244 26.8074C9.36517 26.4401 9.21826 25.926 9.25498 25.4118L10.1364 11.1617C10.2099 10.2068 11.0179 9.43555 12.0095 9.43555H20.6771C21.632 9.43555 22.44 10.2068 22.5502 11.1617L23.3949 25.3751C23.4316 25.8892 23.248 26.4034 22.9174 26.7707C22.5502 27.1747 22.0727 27.395 21.5585 27.395ZM11.9728 10.9781C11.8259 10.9781 11.7157 11.0883 11.7157 11.2352L10.8342 25.4852C10.8342 25.5954 10.871 25.6689 10.9077 25.6689C10.9444 25.7056 11.0179 25.7423 11.0913 25.7423H21.5585C21.6687 25.7423 21.7422 25.7056 21.7422 25.6689C21.7789 25.6322 21.8156 25.5587 21.8156 25.4852L20.9342 11.2352C20.9342 11.0883 20.824 10.9781 20.6771 10.9781H11.9728Z" fill="#5D658C"/>
<path d="M14.9845 6.86501C15.4308 6.86501 15.7925 6.50326 15.7925 6.05702C15.7925 5.61077 15.4308 5.24902 14.9845 5.24902C14.5383 5.24902 14.1765 5.61077 14.1765 6.05702C14.1765 6.50326 14.5383 6.86501 14.9845 6.86501Z" fill="#5D658C"/>
<path d="M17.6654 6.86501C18.1117 6.86501 18.4734 6.50326 18.4734 6.05702C18.4734 5.61077 18.1117 5.24902 17.6654 5.24902C17.2192 5.24902 16.8574 5.61077 16.8574 6.05702C16.8574 6.50326 17.2192 6.86501 17.6654 6.86501Z" fill="#5D658C"/>
<path d="M21.9626 10.9414H10.6506C10.5037 10.9414 10.3936 10.8312 10.3936 10.6843V7.34216C10.3936 5.43235 12.9277 4 16.3066 4C19.6855 4 22.2196 5.43235 22.2196 7.34216V10.6843C22.2196 10.8312 22.1095 10.9414 21.9626 10.9414ZM11.9361 9.39887H20.6771V7.34216C20.6771 6.60762 18.9877 5.54253 16.3066 5.54253C13.6255 5.54253 11.9361 6.60762 11.9361 7.34216V9.39887Z" fill="#5D658C"/>
</svg>
