<svg width="24" height="25" viewBox="0 0 24 25" fill="none" xmlns="http://www.w3.org/2000/svg">
<g clip-path="url(#clip0)">
<path fill-rule="evenodd" clip-rule="evenodd" d="M8.36806 21.7436H9.30806V13.6336C9.30806 13.4436 9.19806 13.2736 9.01806 13.2036C8.83806 13.1336 8.63806 13.1736 8.50806 13.3036L4.52806 17.2836C4.37806 17.4336 4.17806 17.5136 3.97806 17.5136C3.77806 17.5136 3.57806 17.4336 3.42806 17.2836C3.26806 17.1236 3.19806 16.9236 3.19806 16.7236C3.19806 16.5236 3.26806 16.3236 3.42806 16.1736L8.12806 11.4736L8.13806 11.4636C8.82806 10.7436 9.61806 10.2336 10.2981 9.99359C10.5981 9.88359 10.8381 9.72359 11.0181 9.52359C11.1981 9.31359 11.3081 9.06359 11.3181 8.78359C11.3181 8.53359 11.2081 8.27359 11.0181 8.10359C10.7481 7.84359 10.4981 7.49359 10.3281 7.09359C10.1481 6.68359 10.0481 6.23359 10.0481 5.77359C10.0481 5.00359 10.2581 4.39359 10.5981 3.99359C10.7681 3.79359 10.9681 3.64359 11.1981 3.53359C11.4281 3.43359 11.6981 3.37359 11.9981 3.37359C12.2981 3.37359 12.5681 3.43359 12.7981 3.53359C13.1481 3.69359 13.4281 3.95359 13.6281 4.33359C13.8381 4.70359 13.9581 5.19359 13.9581 5.77359C13.9581 6.23359 13.8481 6.68359 13.6781 7.09359C13.4981 7.49359 13.2481 7.84359 12.9781 8.10359C12.7881 8.28359 12.6881 8.53359 12.6881 8.78359C12.6881 9.06359 12.7981 9.31359 12.9781 9.52359C13.1581 9.72359 13.4081 9.88359 13.6981 9.99359C14.3881 10.2336 15.1781 10.7436 15.8681 11.4636V11.4736L20.5781 16.1736C20.7281 16.3236 20.8081 16.5236 20.8081 16.7236C20.8081 16.9236 20.7281 17.1236 20.5781 17.2836C20.4281 17.4336 20.2281 17.5136 20.0181 17.5136C19.8181 17.5136 19.6281 17.4336 19.4681 17.2836L15.4881 13.3036C15.3581 13.1736 15.1581 13.1336 14.9781 13.2036C14.8081 13.2736 14.6981 13.4436 14.6981 13.6336V21.7436H15.6281V14.7636L18.8081 17.9436C19.1481 18.2736 19.5881 18.4436 20.0181 18.4436C20.4581 18.4436 20.9081 18.2736 21.2381 17.9436C21.5681 17.6036 21.7381 17.1636 21.7381 16.7236C21.7381 16.2936 21.5781 15.8636 21.2581 15.5336L21.2481 15.5236L21.2381 15.5136L16.5381 10.8036C15.7481 9.99359 14.8681 9.40359 14.0081 9.10359C13.8481 9.05359 13.7481 8.97359 13.6881 8.90359C13.6281 8.83359 13.6181 8.79359 13.6181 8.78359H13.6281V8.77359C13.9981 8.42359 14.3081 7.97359 14.5281 7.46359C14.7581 6.95359 14.8881 6.37359 14.8881 5.77359C14.8881 4.83359 14.6281 3.99359 14.1181 3.39359C13.8581 3.09359 13.5481 2.84359 13.1881 2.68359C12.8281 2.51359 12.4281 2.43359 11.9981 2.43359C11.5781 2.43359 11.1681 2.51359 10.8081 2.68359C10.2681 2.93359 9.83806 3.35359 9.54806 3.88359C9.25806 4.42359 9.10806 5.06359 9.10806 5.77359C9.10806 6.37359 9.24806 6.95359 9.46806 7.46359C9.69806 7.97359 10.0081 8.43359 10.3781 8.78359C10.3781 8.79359 10.3681 8.83359 10.3081 8.90359C10.2581 8.97359 10.1481 9.05359 9.98806 9.10359C9.13806 9.40359 8.24806 9.99359 7.46806 10.8036L2.75806 15.5136L2.74806 15.5236L2.73806 15.5336C2.41806 15.8636 2.25806 16.2936 2.25806 16.7236C2.25806 17.1636 2.42806 17.6036 2.75806 17.9436C3.09806 18.2736 3.53806 18.4436 3.97806 18.4436C4.41806 18.4436 4.85806 18.2736 5.18806 17.9436L8.36806 14.7636V21.7436Z" fill="black" fill-opacity="0.85"/>
</g>
<defs>
<clipPath id="clip0">
<rect width="24" height="24" fill="white" transform="translate(0 0.0878906)"/>
</clipPath>
</defs>
</svg>
