<svg width="17" height="22" viewBox="0 0 17 22" fill="none" xmlns="http://www.w3.org/2000/svg">
<path d="M5.3795 17.3711C5.35378 17.3196 5.32806 17.2553 5.28948 17.2168C5.2509 17.1653 5.21232 17.1139 5.17374 17.0753C5.13516 17.0367 5.08372 16.9982 5.03229 16.9596C5.03229 16.9596 5.03229 16.9596 5.01943 16.9596V5.07715H4.0035V16.9467C4.0035 16.9467 4.0035 16.9467 3.99064 16.9467C3.93921 16.9853 3.88777 17.0239 3.84919 17.0625C3.81061 17.101 3.77203 17.1525 3.73345 17.2039C3.69487 17.2553 3.66915 17.3068 3.64343 17.3582C3.61771 17.4097 3.60485 17.474 3.59199 17.5383C3.57913 17.6026 3.57913 17.654 3.57913 17.7183C3.57913 17.9626 3.68201 18.207 3.84919 18.3741C3.88777 18.4127 3.93921 18.4513 3.99064 18.4899C4.04208 18.5285 4.09352 18.5542 4.14496 18.5799C4.1964 18.6056 4.2607 18.6185 4.325 18.6313C4.3893 18.6442 4.44074 18.6442 4.50504 18.6442C4.56933 18.6442 4.62077 18.6313 4.68507 18.6313C4.74937 18.6185 4.80081 18.6056 4.85225 18.5799C4.90369 18.5542 4.96799 18.5285 5.00657 18.4899C5.058 18.4513 5.10944 18.4127 5.14802 18.3741C5.3152 18.207 5.41808 17.9626 5.41808 17.7183C5.41808 17.654 5.40522 17.6026 5.40522 17.5383C5.41808 17.4868 5.40522 17.4225 5.3795 17.3711Z" fill="black" fill-opacity="0.85"/>
<path d="M16.799 1.60449H10.7806V2.62041H16.799V1.60449Z" fill="black" fill-opacity="0.85"/>
<path d="M16.7861 5.96387H13.5583V6.97979H16.7861V5.96387Z" fill="black" fill-opacity="0.85"/>
<path d="M16.7861 10.3369H13.5583V11.3528H16.7861V10.3369Z" fill="black" fill-opacity="0.85"/>
<path d="M16.7861 14.6963H13.5583V15.7122H16.7861V14.6963Z" fill="black" fill-opacity="0.85"/>
<path d="M16.7861 19.0557H13.5583V20.0716H16.7861V19.0557Z" fill="black" fill-opacity="0.85"/>
<path d="M6.96127 14.7216V2.81347C6.96127 1.47606 5.86819 0.370117 4.51791 0.370117C3.16764 0.370117 2.07456 1.4632 2.07456 2.81347V14.7216C1.23867 15.4289 0.75 16.4705 0.75 17.6022C0.75 19.6855 2.44749 21.3701 4.51791 21.3701C6.60119 21.3701 8.28582 19.6726 8.28582 17.6022C8.29868 16.4705 7.81001 15.4289 6.96127 14.7216ZM4.51791 20.3671C3.00046 20.3671 1.75306 19.1325 1.75306 17.6022C1.75306 16.6249 2.25459 15.7375 3.09048 15.236V2.81347C3.09048 2.02903 3.73347 1.38604 4.51791 1.38604C5.30236 1.38604 5.94535 2.02903 5.94535 2.81347V15.2489C6.76837 15.7504 7.28276 16.6377 7.28276 17.6151C7.28276 19.1325 6.04822 20.3671 4.51791 20.3671Z" fill="black" fill-opacity="0.85"/>
</svg>
