<svg width="33" height="33" viewBox="0 0 33 33" fill="none" xmlns="http://www.w3.org/2000/svg">
<path fill-rule="evenodd" clip-rule="evenodd" d="M12.465 10.9582V3.95824C12.465 3.81824 12.355 3.69824 12.215 3.69824H7.735C7.595 3.69824 7.475 3.81824 7.475 3.95824V10.9582C5.805 11.8682 4.755 13.6082 4.755 15.5382V28.7582C4.755 28.8982 4.865 29.0082 5.015 29.0082H14.935C15.075 29.0082 15.185 28.8982 15.185 28.7582V15.5382C15.185 13.6082 14.135 11.8682 12.465 10.9582ZM13.6511 24.3833H6.29114V27.4733H13.6511V24.3833ZM8.77114 12.0464C8.92114 11.9864 9.01114 11.8464 9.01114 11.6964V8.77637H10.9311V11.6964C10.9311 11.8464 11.0211 11.9864 11.1611 12.0464L11.4011 12.1464C12.7711 12.7264 13.6511 14.0564 13.6511 15.5364V16.6964H6.29114V15.5364C6.29114 14.0564 7.17114 12.7264 8.54114 12.1464L8.77114 12.0464ZM9.01208 5.23145V7.24145H10.9321V5.23145H9.01208ZM6.29114 22.8505V18.2305H13.6511V22.8505H6.29114Z" fill="#5D658C"/>
<path fill-rule="evenodd" clip-rule="evenodd" d="M27.1061 29.0099H19.1661C19.0261 29.0099 18.9161 28.8899 18.9161 28.7499V27.7299C18.9161 27.5899 19.0261 27.4799 19.1661 27.4799H22.3661V24.3099C20.1061 23.9399 18.3761 21.9799 18.3761 19.6199V15.6399C18.3761 15.4899 18.4861 15.3799 18.6361 15.3799H27.6461C27.7861 15.3799 27.8961 15.4899 27.8961 15.6399V19.6199C27.8961 21.9799 26.1661 23.9399 23.9061 24.3099V27.4799H27.1061C27.2461 27.4799 27.3661 27.5899 27.3661 27.7299V28.7499C27.3661 28.8899 27.2461 29.0099 27.1061 29.0099ZM23.142 22.8428C21.362 22.8428 19.912 21.3928 19.912 19.6228V16.9128H26.362V19.6228C26.362 21.3928 24.922 22.8428 23.142 22.8428Z" fill="#5D658C"/>
<g clip-path="url(#clip0)">
<path fill-rule="evenodd" clip-rule="evenodd" d="M3.31542 31.5983L31.6054 3.36828L30.4654 2.23828L2.18542 30.4683L3.31542 31.5983Z" fill="white"/>
<path fill-rule="evenodd" clip-rule="evenodd" d="M2.18383 30.4694L30.4738 2.23937L29.3438 1.10938L1.05383 29.3394L2.18383 30.4694Z" fill="#5D658C"/>
</g>
<defs>
<clipPath id="clip0">
<rect width="30.5481" height="30.4878" fill="white" transform="translate(1.05383 1.10938)"/>
</clipPath>
</defs>
</svg>
