<svg width="18" height="18" viewBox="0 0 18 18" fill="none" xmlns="http://www.w3.org/2000/svg">
<path fill-rule="evenodd" clip-rule="evenodd" d="M1.72443 8.46967C2.01814 8.17678 2.49434 8.17678 2.78805 8.46967L5.7964 11.4697C6.09011 11.7626 6.09011 12.2374 5.7964 12.5303C5.50269 12.8232 5.0265 12.8232 4.73279 12.5303L1.72443 9.53033C1.43072 9.23744 1.43072 8.76256 1.72443 8.46967Z" fill="#1890FF"/>
<path fill-rule="evenodd" clip-rule="evenodd" d="M6.98908 9.21967C7.28279 8.92678 7.75899 8.92678 8.05269 9.21967L10.309 11.4697C10.6027 11.7626 10.6027 12.2374 10.309 12.5303C10.0153 12.8232 9.53905 12.8232 9.24535 12.5303L6.98908 10.2803C6.69537 9.98744 6.69537 9.51256 6.98908 9.21967Z" fill="#1890FF"/>
<path fill-rule="evenodd" clip-rule="evenodd" d="M11.8132 5.46967C12.1069 5.76256 12.1069 6.23744 11.8132 6.53033L5.79647 12.5303C5.50276 12.8232 5.02656 12.8232 4.73285 12.5303C4.43915 12.2374 4.43915 11.7626 4.73285 11.4697L10.7496 5.46967C11.0433 5.17678 11.5195 5.17678 11.8132 5.46967Z" fill="#1890FF"/>
<path fill-rule="evenodd" clip-rule="evenodd" d="M16.3256 5.46967C16.6193 5.76256 16.6193 6.23744 16.3256 6.53033L10.3089 12.5303C10.0152 12.8232 9.53902 12.8232 9.24531 12.5303C8.9516 12.2374 8.9516 11.7626 9.24531 11.4697L15.262 5.46967C15.5557 5.17678 16.0319 5.17678 16.3256 5.46967Z" fill="#1890FF"/>
</svg>
