<svg width="8" height="12" viewBox="0 0 8 12" fill="none" xmlns="http://www.w3.org/2000/svg">
<path d="M7.52653 5.60637L0.482783 0.104809C0.464378 0.0903191 0.442258 0.081314 0.418965 0.0788282C0.395672 0.0763424 0.372151 0.0804768 0.351102 0.0907565C0.330053 0.101036 0.31233 0.117045 0.299969 0.136943C0.287608 0.156841 0.28111 0.179822 0.281221 0.203247V1.41106C0.281221 1.48762 0.317158 1.56106 0.376533 1.60793L6.00153 6.00012L0.376533 10.3923C0.315596 10.4392 0.281221 10.5126 0.281221 10.5892V11.797C0.281221 11.9017 0.401533 11.9595 0.482783 11.8954L7.52653 6.39387C7.5864 6.34717 7.63483 6.28744 7.66814 6.21921C7.70145 6.15098 7.71877 6.07605 7.71877 6.00012C7.71877 5.92419 7.70145 5.84927 7.66814 5.78104C7.63483 5.71281 7.5864 5.65307 7.52653 5.60637Z" fill="black" fill-opacity="0.85"/>
</svg>
