<svg xmlns="http://www.w3.org/2000/svg" viewBox="0 0 11.44 12.78"><defs><style>.cls-1{fill:#666;}</style></defs><g id="Layer_2" data-name="Layer 2"><g id="Layer_1-2" data-name="Layer 1"><path class="cls-1" d="M8.43,10.39c-.43-.14-.68-.32-.74-.52s.12-.53.3-.74A7,7,0,0,0,9.8,4.78C9.8,1.92,8.16,0,5.72,0S1.64,1.92,1.64,4.78A6.64,6.64,0,0,0,3.45,9.13c.17.21.37.51.3.74s-.31.38-.74.52c-1.29.42-3,1.13-3,2.39H.6c0-.65.87-1.26,2.59-1.83.64-.2,1-.51,1.13-.91a1.41,1.41,0,0,0-.4-1.29,6.29,6.29,0,0,1-1.68-4,4.68,4.68,0,0,1,1-3.05A3.19,3.19,0,0,1,5.72.6,3.2,3.2,0,0,1,8.24,1.73a4.68,4.68,0,0,1,1,3.05,6.29,6.29,0,0,1-1.68,4A1.41,1.41,0,0,0,7.12,10,1.5,1.5,0,0,0,8.24,11c1.73.57,2.6,1.18,2.6,1.83h.6c0-1.26-1.72-2-3-2.39"/><rect class="cls-1" x="3.53" y="4.11" width="1.49" height="0.44" transform="translate(-1.38 2.08) rotate(-23.6)"/><rect class="cls-1" x="6.92" y="3.58" width="0.44" height="1.49" transform="translate(0.32 9.15) rotate(-66.44)"/><path class="cls-1" d="M5.71,6.37a1,1,0,1,0,.9,1,.94.94,0,0,0-.9-1m0,1.48a.5.5,0,0,1-.48-.52.51.51,0,0,1,.48-.53.5.5,0,0,1,.47.53.49.49,0,0,1-.47.52"/></g></g></svg>