<svg width="17" height="9" viewBox="0 0 17 9" fill="none" xmlns="http://www.w3.org/2000/svg">
<g clip-path="url(#clip0)">
<path fill-rule="evenodd" clip-rule="evenodd" d="M1.04995 8.39638C2.04995 9.11638 3.40995 9.00638 4.28995 8.13638L7.98995 4.42638C8.43995 3.98638 8.69995 3.39638 8.72995 2.76638C8.74995 2.14638 8.54995 1.53638 8.14995 1.05638C8.09995 0.996379 8.04995 0.936379 7.98995 0.876379C7.93995 0.826379 7.87995 0.77638 7.81995 0.72638C7.33995 0.32638 6.72995 0.11638 6.10995 0.14638C5.47995 0.17638 4.88995 0.436379 4.43995 0.876379L0.739953 4.58638C-0.130047 5.45638 -0.250047 6.82638 0.469953 7.82638C0.549953 7.93638 0.639953 8.04638 0.739953 8.13638C0.829953 8.23638 0.939953 8.32638 1.04995 8.39638ZM4.9122 1.34998L3.2922 2.97998L5.90219 5.57998L7.5222 3.95998C8.2022 3.27998 8.2522 2.21998 7.6422 1.47998C7.6022 1.42998 7.5622 1.38998 7.5222 1.34998C7.4822 1.30998 7.4422 1.26998 7.3922 1.23998C6.65219 0.629977 5.5922 0.679977 4.9122 1.34998ZM5.43585 6.046L3.81585 7.66601C3.13585 8.346 2.07585 8.396 1.33585 7.78601C1.28585 7.746 1.24585 7.70601 1.20585 7.66601C1.17272 7.63287 1.14644 7.59973 1.11566 7.56091C1.10929 7.55287 1.10272 7.54458 1.09585 7.53601C0.485854 6.796 0.535854 5.736 1.20585 5.05601L2.83585 3.436L5.43585 6.046Z" fill="#D5D6D9"/>
<g clip-path="url(#clip1)">
<path fill-rule="evenodd" clip-rule="evenodd" d="M10.2752 0.14638C9.66521 0.17638 9.08521 0.42638 8.64521 0.84638C8.78521 1.03638 8.90521 1.22638 8.99521 1.43638L9.08521 1.35638C9.75521 0.67638 10.8252 0.626379 11.5552 1.23638C11.6052 1.27638 11.6452 1.31638 11.6852 1.35638C11.7252 1.38638 11.7652 1.43638 11.8052 1.48638C12.4152 2.21638 12.3652 3.28638 11.6852 3.95638L10.0652 5.58638L8.77521 4.28638C8.65521 4.46638 8.51521 4.64638 8.36521 4.79638L9.60521 6.04638L7.98521 7.66638C7.30521 8.34638 6.24521 8.39638 5.50521 7.78638C5.47521 7.76638 5.45521 7.74638 5.43521 7.72638L4.96521 8.19638C5.04521 8.26638 5.12521 8.33638 5.21521 8.39638C6.21521 9.11638 7.57521 9.00638 8.45521 8.13638L12.1552 4.42638C12.6052 3.98638 12.8652 3.39638 12.8952 2.76638C12.9152 2.14638 12.7152 1.53638 12.3152 1.05638C12.2652 0.996379 12.2152 0.936379 12.1652 0.876379C12.1052 0.826379 12.0452 0.77638 11.9852 0.72638C11.5052 0.32638 10.8952 0.11638 10.2752 0.14638Z" fill="#5D658C"/>
<path opacity="0.5" fill-rule="evenodd" clip-rule="evenodd" d="M9.60726 6.0398L8.35726 4.7998L5.43726 7.7198C5.45726 7.7398 5.47726 7.7598 5.49726 7.7798C6.23726 8.3898 7.30726 8.3398 7.97726 7.6698L9.60726 6.0398Z" fill="#5D658C"/>
</g>
<g clip-path="url(#clip2)">
<path fill-rule="evenodd" clip-rule="evenodd" d="M16.2422 4.42638C16.6922 3.98638 16.9522 3.39638 16.9822 2.76638C17.0022 2.14638 16.8022 1.53638 16.4022 1.05638C16.3522 0.996379 16.3022 0.936379 16.2422 0.876379C16.1922 0.826379 16.1322 0.77638 16.0722 0.72638C15.5922 0.32638 14.9822 0.11638 14.3622 0.14638C13.7522 0.17638 13.1722 0.42638 12.7322 0.84638C12.8722 1.03638 12.9922 1.22638 13.0822 1.43638L13.1722 1.35638C13.8422 0.67638 14.9122 0.626379 15.6422 1.23638C15.6922 1.27638 15.7322 1.31638 15.7722 1.35638C15.8122 1.38638 15.8522 1.43638 15.8922 1.48638C16.5022 2.21638 16.4522 3.28638 15.7722 3.95638L14.1522 5.58638L12.8522 4.28638C12.7422 4.46638 12.6022 4.64638 12.4522 4.79638L13.6922 6.04638L12.0722 7.66638C11.3922 8.34638 10.3322 8.39638 9.59225 7.78638C9.56225 7.76638 9.54225 7.74638 9.52225 7.72638L9.05225 8.19638C9.13225 8.26638 9.21225 8.33638 9.30225 8.39638C10.3022 9.11638 11.6622 9.00638 12.5422 8.13638L16.2422 4.42638Z" fill="#5D658C"/>
<path opacity="0.5" fill-rule="evenodd" clip-rule="evenodd" d="M13.6943 6.0398L12.4443 4.7998L9.52429 7.7198C9.54429 7.7398 9.56429 7.7598 9.58429 7.7798C10.3243 8.3898 11.3943 8.3398 12.0643 7.6698L13.6943 6.0398Z" fill="#5D658C"/>
</g>
<path opacity="0.5" fill-rule="evenodd" clip-rule="evenodd" d="M3.81594 7.66652L5.43594 6.04652L2.83594 3.43652L1.20594 5.05652C0.535941 5.73652 0.485941 6.79652 1.09594 7.53652C1.13594 7.58652 1.16594 7.62652 1.20594 7.66652C1.24594 7.70652 1.28594 7.74652 1.33594 7.78652C2.07594 8.39652 3.13594 8.34652 3.81594 7.66652Z" fill="#D5D6D9"/>
</g>
<defs>
<clipPath id="clip0">
<rect width="16.9816" height="8.7282" fill="white" transform="translate(0 0.146484)"/>
</clipPath>
<clipPath id="clip1">
<rect width="7.92937" height="8.7282" fill="white" transform="translate(4.96521 0.146484)"/>
</clipPath>
<clipPath id="clip2">
<rect width="7.92937" height="8.7282" fill="white" transform="translate(9.05225 0.146484)"/>
</clipPath>
</defs>
</svg>
