<svg width="32" height="32" viewBox="0 0 32 32" fill="none" xmlns="http://www.w3.org/2000/svg">
<path d="M13.7946 18.0361C13.7624 18.757 13.7516 19.4726 13.6817 20.1882C13.6743 20.5069 13.5512 20.8121 13.3354 21.0467C13.1196 21.2813 12.8258 21.4294 12.5088 21.4633C11.361 21.6893 10.215 21.8973 9.07075 22.0874C8.91488 22.135 8.75083 22.1495 8.58903 22.1301C8.42724 22.1107 8.27126 22.0578 8.13104 21.9748C7.99083 21.8918 7.86944 21.7805 7.77464 21.6479C7.67983 21.5154 7.61368 21.3646 7.5804 21.205C7.0908 19.86 6.59043 18.5149 6.17615 17.1483C5.92579 16.2665 5.94264 15.3303 6.22457 14.4582C6.40845 13.7827 6.78335 13.1746 7.30429 12.707C7.82523 12.2393 8.47007 11.9319 9.1614 11.8217C9.85273 11.7115 10.5612 11.8032 11.2017 12.0857C11.8422 12.3682 12.3876 12.8295 12.7724 13.4144C13.4843 14.4926 13.8435 15.7655 13.8 17.0568C13.8 17.3904 13.8 17.7294 13.8 18.063L13.7946 18.0361ZM8.78021 21.0598C9.95849 20.8499 11.0884 20.6616 12.2128 20.4411C12.2875 20.4129 12.3542 20.3668 12.4067 20.3067C12.4593 20.2466 12.4962 20.1745 12.5141 20.0967C12.5464 18.8054 12.6002 17.5034 12.541 16.2121C12.5144 15.2851 12.151 14.3995 11.5188 13.7211C11.2482 13.4108 10.9015 13.1763 10.5129 13.0406C10.1242 12.9049 9.70698 12.8726 9.30209 12.947C8.8972 13.0213 8.51863 13.1998 8.20356 13.4647C7.8885 13.7297 7.64778 14.072 7.50508 14.4582C7.28455 15.0562 7.19822 15.6954 7.25221 16.3305C7.39747 18.0038 8.2368 19.478 8.76945 21.0598H8.78021Z" fill="black"/>
<path d="M14.4832 25.2994C14.4832 27.8819 12.6862 29.3292 10.6579 28.7642C10.1893 28.6368 9.76324 28.3866 9.42369 28.0395C9.08414 27.6924 8.8434 27.2609 8.72633 26.7897C8.51895 26.044 8.38382 25.2801 8.32281 24.5085C8.29688 24.3625 8.30137 24.2128 8.33601 24.0687C8.37064 23.9246 8.43466 23.7892 8.52407 23.671C8.61348 23.5528 8.72634 23.4544 8.85558 23.3818C8.98482 23.3093 9.12765 23.2642 9.27512 23.2494C10.4749 23.0073 11.6855 22.8083 12.8961 22.6307C13.1399 22.5736 13.3964 22.6143 13.6106 22.744C13.8248 22.8737 13.9797 23.0822 14.0421 23.3248C14.2465 24.0995 14.3918 24.8958 14.4832 25.2994ZM9.37735 24.2932C9.54707 25.1282 9.76443 25.9527 10.0284 26.7628C10.1569 27.0976 10.4035 27.3738 10.7217 27.5393C11.0398 27.7048 11.4075 27.7482 11.7554 27.6613C12.0996 27.6303 12.4254 27.4922 12.687 27.2664C12.9486 27.0405 13.1327 26.7383 13.2135 26.4023C13.4664 25.4715 13.1489 24.6053 12.9337 23.6799L9.37735 24.2932Z" fill="black"/>
<path d="M25.1577 10.5468C24.878 11.2032 24.6197 11.8758 24.3076 12.5214C24.1885 12.8179 23.9656 13.061 23.6806 13.2055C23.3956 13.35 23.0677 13.3861 22.7581 13.3069C21.6067 13.1168 20.4607 12.9106 19.3201 12.6882C19.1593 12.6766 19.0026 12.6319 18.8598 12.557C18.717 12.4821 18.5911 12.3785 18.4901 12.2528C18.3892 12.1271 18.3152 11.9819 18.2728 11.8263C18.2305 11.6707 18.2207 11.508 18.2441 11.3485C18.2441 9.91194 18.2441 8.48078 18.3463 7.04424C18.4136 6.12077 18.7587 5.23926 19.3363 4.51552C19.7449 3.94745 20.3085 3.50912 20.9596 3.25292C21.6108 2.99672 22.322 2.9335 23.0081 3.07085C23.6943 3.20819 24.3263 3.54027 24.8287 4.02737C25.3311 4.51447 25.6825 5.13596 25.841 5.81754C26.1301 7.07449 26.0229 8.39011 25.5343 9.58374C25.4214 9.90118 25.303 10.2132 25.1846 10.5307L25.1577 10.5468ZM19.4116 11.6229C20.5845 11.8381 21.709 12.0533 22.8388 12.2362C22.9188 12.2374 22.9977 12.2182 23.0683 12.1806C23.1388 12.1429 23.1987 12.088 23.2423 12.021C23.7266 10.8212 24.2269 9.62679 24.6251 8.3947C24.9166 7.51581 24.8842 6.56161 24.5336 5.70456C24.3884 5.31928 24.1454 4.97842 23.8285 4.71551C23.5116 4.45259 23.1318 4.27666 22.7263 4.20501C22.3208 4.13336 21.9037 4.16846 21.5159 4.30686C21.1281 4.44526 20.783 4.68218 20.5145 4.99435C20.0987 5.47771 19.7955 6.0474 19.6268 6.66225C19.1748 8.28172 19.46 9.94961 19.4116 11.6229Z" fill="black"/>
<path d="M23.2802 17.5895C22.3816 20.0107 20.1919 20.737 18.4917 19.5049C18.0979 19.2213 17.7863 18.8384 17.5887 18.3951C17.3912 17.9518 17.3148 17.464 17.3672 16.9816C17.4368 16.2099 17.5772 15.4462 17.7869 14.7003C17.8131 14.554 17.8694 14.4147 17.9522 14.2913C18.035 14.1678 18.1424 14.0628 18.2678 13.983C18.3932 13.9031 18.5337 13.8501 18.6806 13.8272C18.8275 13.8044 18.9775 13.8122 19.1212 13.8502C20.3264 14.0439 21.5262 14.2807 22.726 14.5335C22.9746 14.5646 23.2012 14.6918 23.3571 14.8879C23.513 15.0841 23.5858 15.3335 23.5599 15.5827C23.4792 16.3843 23.3393 17.1753 23.2802 17.5895ZM18.8522 14.851C18.7127 15.6896 18.6229 16.5358 18.5832 17.3851C18.5851 17.7434 18.7189 18.0885 18.959 18.3545C19.1992 18.6205 19.5289 18.7887 19.8852 18.827C20.2197 18.9205 20.5753 18.9058 20.9009 18.785C21.2266 18.6642 21.5057 18.4435 21.6983 18.1545C22.2364 17.369 22.2364 16.4489 22.3816 15.5074L18.8522 14.851Z" fill="black"/>
</svg>
