<svg width="15" height="15" viewBox="0 0 15 15" fill="none" xmlns="http://www.w3.org/2000/svg">
<path d="M1.65109 9.61069C2.52455 10.4766 3.65614 11.0345 4.87482 11.2003C6.09349 11.3661 7.33301 11.1306 8.40601 10.5295L11.7669 13.8894C11.8024 13.9252 11.8447 13.9536 11.8913 13.9729C11.9379 13.9923 11.9879 14.0023 12.0383 14.0023C12.0888 14.0023 12.1387 13.9923 12.1853 13.9729C12.2319 13.9536 12.2742 13.9252 12.3098 13.8894L13.8925 12.3066C13.9283 12.271 13.9567 12.2287 13.9761 12.1822C13.9955 12.1356 14.0055 12.0856 14.0055 12.0352C14.0055 11.9847 13.9955 11.9348 13.9761 11.8882C13.9567 11.8416 13.9283 11.7993 13.8925 11.7637L10.5327 8.40286C11.0489 7.48996 11.2999 6.45104 11.2575 5.40315C11.215 4.35526 10.8808 3.34005 10.2924 2.47189C9.70405 1.60374 8.88493 0.917151 7.92734 0.489481C6.96976 0.0618102 5.91177 -0.0899432 4.87257 0.0513183C3.83338 0.19258 2.85429 0.621242 2.04561 1.28901C1.23693 1.95677 0.630803 2.83711 0.29552 3.83082C-0.0397629 4.82452 -0.0908749 5.89212 0.147939 6.91332C0.386753 7.93451 0.906002 8.86872 1.64719 9.61069H1.65109ZM2.19399 9.0678C1.54535 8.41925 1.09337 7.60047 0.89025 6.70599C0.687128 5.81151 0.741142 4.87782 1.04606 4.01274C1.35098 3.14765 1.89436 2.38645 2.61346 1.81702C3.33256 1.2476 4.19806 0.893184 5.11 0.794694C6.02195 0.696204 6.94316 0.85766 7.76725 1.26042C8.59135 1.66318 9.28473 2.29081 9.76732 3.07084C10.2499 3.85088 10.502 4.75151 10.4946 5.66873C10.4871 6.58595 10.2204 7.48235 9.72516 8.25444C9.67767 8.32823 9.65691 8.41606 9.66632 8.5033C9.67574 8.59054 9.71477 8.67191 9.77691 8.73386L13.0782 12.0352L12.0383 13.0751L8.73702 9.77376C8.67562 9.71187 8.59497 9.67274 8.50836 9.6628C8.42176 9.65287 8.33435 9.67271 8.26052 9.71908C7.32536 10.3146 6.21552 10.5745 5.11316 10.4562C4.0108 10.3379 2.98143 9.84827 2.19399 9.0678Z" fill="#798093"/>
<path d="M2.92734 8.33552C3.46242 8.87039 4.14409 9.2346 4.88615 9.38209C5.62821 9.52958 6.39734 9.45373 7.09629 9.16413C7.79525 8.87453 8.39264 8.38419 8.81294 7.7551C9.23324 7.12601 9.45757 6.38642 9.45757 5.62984C9.45757 4.87327 9.23324 4.13368 8.81294 3.50459C8.39264 2.8755 7.79525 2.38516 7.09629 2.09556C6.39734 1.80596 5.62821 1.73011 4.88615 1.8776C4.14409 2.02509 3.46242 2.38929 2.92734 2.92416C2.21099 3.64241 1.80872 4.61543 1.80872 5.62984C1.80872 6.64426 2.21099 7.61727 2.92734 8.33552ZM3.47023 7.79165C3.0425 7.36398 2.75119 6.81906 2.63315 6.22583C2.51512 5.63259 2.57565 5.01767 2.80711 4.45884C3.03856 3.9 3.43053 3.42236 3.93346 3.0863C4.43638 2.75024 5.02766 2.57088 5.63253 2.57088C6.23739 2.57088 6.82868 2.75024 7.3316 3.0863C7.83452 3.42236 8.22649 3.9 8.45795 4.45884C8.6894 5.01767 8.74993 5.63259 8.6319 6.22583C8.51386 6.81906 8.22256 7.36398 7.79482 7.79165C7.22094 8.36436 6.44329 8.686 5.63253 8.686C4.82176 8.686 4.04412 8.36436 3.47023 7.79165Z" fill="#798093"/>
</svg>
