<svg xmlns="http://www.w3.org/2000/svg" viewBox="0 0 9.82 8.92"><defs><style>.cls-1{opacity:0.5;}.cls-2{fill:#d34c83;}.cls-3{fill:#fff;}</style></defs><g id="Layer_2" data-name="Layer 2"><g id="Layer_1-2" data-name="Layer 1"><path class="cls-2" d="M5.67,9.84A1.29,1.29,0,0,1,4.59,9.1L1.28,3.37a1.26,1.26,0,0,1-.09-1.3A1.26,1.26,0,0,1,2.36,1.5H9a1.27,1.27,0,0,1,1.17.57,1.26,1.26,0,0,1-.09,1.3L6.75,9.1a1.3,1.3,0,0,1-1.08.74" transform="translate(-0.76 -1.21)"/><path class="cls-3" d="M9,1.79c.91,0,1.28.65.82,1.44L6.5,9a1,1,0,0,1-.83.59A1,1,0,0,1,4.84,9L1.54,3.23c-.46-.79-.09-1.44.82-1.44H9m0-.58H2.36a1.58,1.58,0,0,0-1.43.71A1.6,1.6,0,0,0,1,3.52L4.34,9.25a1.57,1.57,0,0,0,1.33.88A1.57,1.57,0,0,0,7,9.25l3.31-5.73a1.6,1.6,0,0,0,.1-1.6A1.59,1.59,0,0,0,9,1.21" transform="translate(-0.76 -1.21)"/></g></g></svg>
