<svg width="26" height="25" viewBox="0 0 26 25" fill="none" xmlns="http://www.w3.org/2000/svg">
<g clip-path="url(#clip0)">
<path fill-rule="evenodd" clip-rule="evenodd" d="M12.8828 0.203125C6.19282 0.203125 0.762817 5.63312 0.762817 12.3231C0.762817 19.0231 6.19282 24.4431 12.8828 24.4431C19.5828 24.4431 25.0028 19.0231 25.0028 12.3231C25.0028 5.63312 19.5828 0.203125 12.8828 0.203125Z" fill="#FACA79"/>
<path fill-rule="evenodd" clip-rule="evenodd" d="M12.889 1.81934C7.07903 1.81934 2.37903 6.51934 2.37903 12.3293C2.37903 18.1293 7.07903 22.8293 12.889 22.8293C18.689 22.8293 23.389 18.1293 23.389 12.3293C23.389 6.51934 18.689 1.81934 12.889 1.81934Z" fill="#FACA79"/>
<path fill-rule="evenodd" clip-rule="evenodd" d="M8.86763 8.41699C8.08763 8.41699 7.44763 9.05699 7.44763 9.83699C7.44763 10.627 8.08763 11.267 8.86763 11.267C9.65763 11.267 10.2976 10.627 10.2976 9.83699C10.2976 9.05699 9.65763 8.41699 8.86763 8.41699Z" fill="#3D3D3D"/>
<path fill-rule="evenodd" clip-rule="evenodd" d="M16.894 8.41699C16.114 8.41699 15.474 9.05699 15.474 9.83699C15.474 10.627 16.114 11.267 16.894 11.267C17.684 11.267 18.324 10.627 18.324 9.83699C18.324 9.05699 17.684 8.41699 16.894 8.41699Z" fill="#3D3D3D"/>
<path fill-rule="evenodd" clip-rule="evenodd" d="M7.63147 16.0582C7.63147 15.7812 7.85603 15.5566 8.13304 15.5566H17.635C17.912 15.5566 18.1365 15.7812 18.1365 16.0582V16.6712C18.1365 16.9482 17.912 17.1728 17.635 17.1728H8.13304C7.85603 17.1728 7.63147 16.9482 7.63147 16.6712V16.0582Z" fill="#3D3D3D"/>
</g>
<defs>
<clipPath id="clip0">
<rect width="24.2424" height="24.2424" fill="white" transform="translate(0.762817 0.203125)"/>
</clipPath>
</defs>
</svg>
