<svg width="11" height="20" viewBox="0 0 11 20" fill="none" xmlns="http://www.w3.org/2000/svg">
<path d="M5.50642 1.13769C6.67445 1.13769 7.43174 2.08145 7.43174 3.54234C7.43174 4.3956 7.04667 5.32644 6.45624 5.88235C6.1867 6.14092 6.07118 6.50291 6.14819 6.87783C6.25088 7.35617 6.63594 7.75695 7.18786 7.9638C7.18786 7.9638 7.18786 7.9638 7.2007 7.9638C8.20187 8.35165 9.87048 9.38591 9.87048 11.9198V19.9871H11V11.7518C11 11.7259 11 11.7001 11 11.6742C10.8845 8.54557 8.63827 7.31739 7.63711 6.92954C7.62427 6.92954 7.61144 6.91661 7.5986 6.91661C7.39323 6.83904 7.18786 6.78733 7.27771 6.6839C8.07351 5.89528 8.56126 4.70588 8.56126 3.55527C8.56126 1.46089 7.30338 0 5.50642 0C3.69662 0 2.43874 1.46089 2.43874 3.54234C2.43874 4.70588 2.92649 5.89528 3.72229 6.67098C3.81214 6.7744 3.60677 6.83904 3.4014 6.90369C3.38856 6.90369 3.37573 6.91661 3.36289 6.91661C2.36173 7.31739 0.128355 8.54557 0 11.6742C0 11.7001 0 11.7259 0 11.7518V20H1.12952V11.9328C1.12952 9.38591 2.79813 8.35165 3.7993 7.97673C3.7993 7.97673 3.7993 7.97673 3.81214 7.97673C4.36406 7.76988 4.76196 7.3691 4.85181 6.89076C4.92882 6.51584 4.82614 6.15385 4.54376 5.89528C3.95333 5.32644 3.56826 4.40853 3.56826 3.55527C3.5811 2.08145 4.32555 1.13769 5.50642 1.13769Z" fill="white"/>
</svg>
