<svg width="16" height="16" viewBox="0 0 16 16" fill="none" xmlns="http://www.w3.org/2000/svg">
<path d="M7.86945 0C6.3124 0.00109768 4.79061 0.463751 3.49643 1.32949C2.20224 2.19523 1.19374 3.42519 0.59839 4.86393C0.00303826 6.30267 -0.152445 7.88561 0.15159 9.41269C0.455626 10.9398 1.20553 12.3425 2.30654 13.4435C3.40754 14.5445 4.81022 15.2944 6.33731 15.5984C7.86439 15.9024 9.44733 15.747 10.8861 15.1516C12.3248 14.5563 13.5548 13.5478 14.4205 12.2536C15.2862 10.9594 15.7489 9.4376 15.75 7.88055C15.75 5.7905 14.9197 3.78605 13.4418 2.30816C11.964 0.83027 9.9595 0 7.86945 0ZM7.86945 14.8731C6.48433 14.8731 5.13032 14.4624 3.97868 13.6928C2.82703 12.9232 1.9295 11.8293 1.39958 10.5496C0.869673 9.26981 0.731193 7.86166 1.00166 6.5032C1.27213 5.14474 1.93939 3.897 2.91905 2.9178C3.89871 1.93861 5.14677 1.27194 6.50536 1.00212C7.86394 0.732297 9.27204 0.871447 10.5515 1.40197C11.831 1.93249 12.9245 2.83054 13.6935 3.98255C14.4626 5.13456 14.8727 6.48877 14.872 7.87389C14.8706 9.73064 14.1323 11.5109 12.8194 12.8238C11.5065 14.1368 9.7262 14.875 7.86945 14.8765V14.8731Z" fill="white"/>
<path d="M7.3522 9.14472H8.39998L8.68523 4.2832H7.05585L7.3522 9.14472Z" fill="white"/>
<path d="M8.38891 10.1538H7.35223V11.4658H8.38891V10.1538Z" fill="white"/>
</svg>
