<svg width="20" height="16" viewBox="0 0 20 16" fill="none" xmlns="http://www.w3.org/2000/svg">
<path fill-rule="evenodd" clip-rule="evenodd" d="M12.3821 1.07633L11.1121 7.48633H8.56205C8.36205 7.48633 8.19205 7.62633 8.15205 7.81633L7.23205 12.4663L4.99205 1.07633C4.95205 0.876328 4.78205 0.736328 4.58205 0.736328C4.38205 0.736328 4.21205 0.876328 4.17205 1.07633L2.91205 7.46633H0.352051V8.29633H3.25205C3.45205 8.29633 3.62205 8.15633 3.66205 7.95633L4.58205 3.30633L6.82205 14.6863H6.83205C6.85205 14.8763 7.00205 15.0163 7.19205 15.0363C7.40205 15.0563 7.60205 14.9163 7.64205 14.7063L8.90205 8.31633H11.4621C11.5721 8.31633 11.6821 8.26633 11.7521 8.19633C11.8221 8.12633 11.8521 8.04633 11.8621 7.95633H11.8721L12.7921 3.30633L15.0321 14.6863C15.0621 14.8763 15.2021 15.0163 15.4021 15.0363C15.6121 15.0563 15.8021 14.9163 15.8521 14.7063L17.1121 8.31633H19.6721V7.48633H16.7621C16.562 7.48633 16.3921 7.62633 16.3621 7.81633L15.4421 12.4663L13.1921 1.07633C13.1521 0.876328 12.982 0.736328 12.7921 0.736328C12.5921 0.736328 12.4121 0.876328 12.3821 1.07633Z" fill="black" fill-opacity="0.85"/>
</svg>
