<svg width="18" height="28" viewBox="0 0 18 28" fill="none" xmlns="http://www.w3.org/2000/svg">
<path d="M17.4903 11.6056C17.4757 11.591 17.4757 11.591 17.4903 11.6056L13.0927 7.20798C12.3937 6.4799 11.6074 5.95568 10.7628 5.64989C10.69 5.62077 10.6463 5.59165 10.6755 5.56252C11.2725 4.89269 11.622 3.94619 11.622 3.02881C11.622 1.22317 10.5735 0 9.00089 0C7.42824 0 6.36524 1.22317 6.36524 3.04337C6.36524 3.96075 6.72928 4.90725 7.31175 5.57708C7.34087 5.60621 7.29718 5.64989 7.22438 5.66445C6.3798 5.95569 5.59348 6.4799 4.89452 7.22254L0.526051 11.591C0.526051 11.591 0.526051 11.591 0.51149 11.6056C-0.172904 12.3045 -0.172904 13.4258 0.526051 14.1247C1.22501 14.8237 2.36081 14.8237 3.0452 14.1247L4.41399 12.7559L5.89927 11.0814L5.70997 23.4587C5.70997 23.4733 5.70997 23.4878 5.70997 23.4878C5.70997 23.7791 5.76822 24.0412 5.87015 24.2741H2.73941C2.41906 24.2741 2.17151 24.5363 2.17151 24.8421V27.2593H3.32187V25.4245H14.5343V27.2593H15.6847V24.8421C15.6847 24.5217 15.4225 24.2741 15.1168 24.2741H12.1171C12.219 24.0412 12.2772 24.0266 12.2772 23.4878C12.2772 23.4733 12.2772 23.4587 12.2772 23.4587L12.0879 11.0814L13.5732 12.7559L14.942 14.1247C15.641 14.8237 16.7768 14.8237 17.4612 14.1247C18.1747 13.4258 18.1747 12.29 17.4903 11.6056ZM16.6603 13.3093C16.4127 13.5568 16.005 13.5568 15.7575 13.3093L12.3209 9.87275C11.8113 9.34853 11.0978 9.65433 11.0978 10.3533L11.1269 23.5024C11.1269 23.5169 11.1269 23.5169 11.1269 23.5315C11.1123 23.9684 10.792 24.2741 10.3551 24.2741C9.88914 24.2741 9.56879 23.9538 9.56879 23.5024V14.8237H8.40386V23.5024C8.40386 23.9538 8.08351 24.2741 7.61754 24.2741C7.16613 24.2741 6.84578 23.9684 6.84578 23.5315C6.84578 23.5169 6.84578 23.5169 6.84578 23.5024L6.8749 10.3533C6.8749 9.65433 6.17594 9.33397 5.65173 9.87275L2.24432 13.3093C1.99677 13.5568 1.58905 13.5568 1.3415 13.3093C1.09395 13.0617 1.09395 12.654 1.3415 12.4065C1.3415 12.4065 1.3415 12.4065 1.35606 12.3919L5.72453 8.00887C6.307 7.39728 6.94771 6.975 7.61754 6.74201C8.12719 6.56727 8.47667 6.20323 8.56404 5.76638C8.63685 5.43147 8.53492 5.08199 8.28737 4.84901C7.8214 4.41216 7.51561 3.68408 7.51561 3.01425C7.51561 1.86388 8.08351 1.15036 9.00089 1.15036C9.91827 1.15036 10.4862 1.86388 10.4862 3.01425C10.4862 3.68408 10.1804 4.41216 9.7144 4.84901C9.46686 5.08199 9.36493 5.43147 9.43774 5.76638C9.52511 6.20323 9.88914 6.56727 10.3842 6.74201C11.0541 6.975 11.6948 7.41184 12.2772 8.00887L16.6603 12.3919C16.6603 12.3919 16.6603 12.3919 16.6748 12.4065C16.9078 12.654 16.9224 13.0617 16.6603 13.3093Z" fill="black" fill-opacity="0.85"/>
</svg>
