<svg width="16" height="17" viewBox="0 0 16 17" fill="none" xmlns="http://www.w3.org/2000/svg">
<path d="M13.66 8.02441H14.1C14.1 7.58441 14.05 7.15441 13.96 6.73441L13.53 6.82441L13.75 7.20441L15.63 6.12441C15.73 6.06441 15.81 5.96441 15.84 5.85441C15.87 5.74441 15.85 5.62441 15.8 5.51441L14.07 2.51441C13.95 2.30441 13.68 2.23441 13.47 2.35441L11.59 3.44441L11.81 3.82441L12.11 3.49441C11.48 2.92441 10.72 2.47441 9.89 2.20441L9.75 2.62441H10.19V0.464414C10.19 0.344414 10.14 0.234414 10.06 0.154414C9.96 0.0744142 9.85 0.0244141 9.73 0.0244141H6.26C6.14 0.0244141 6.03 0.0744142 5.95 0.154414C5.87 0.234414 5.82 0.354414 5.82 0.464414V2.63441H6.26L6.12 2.21441C5.29 2.48441 4.54 2.92441 3.91 3.50441L4.21 3.83441L4.43 3.45441L2.54 2.36441C2.33 2.23441 2.06 2.31441 1.94 2.52441L0.210003 5.52441C0.0900035 5.73441 0.160003 6.00441 0.370003 6.12441L2.25 7.20441L2.47 6.82441L2.04 6.73441C1.94 7.15441 1.89 7.58441 1.89 8.02441C1.89 8.46441 1.94 8.89441 2.03 9.31441L2.46 9.22441L2.24 8.84441L0.360004 9.92441C0.150004 10.0444 0.0800033 10.3144 0.200003 10.5244L1.93 13.5244C2.05 13.7344 2.32 13.8044 2.53 13.6844L4.41 12.5944L4.2 12.2144L3.9 12.5444C4.53 13.1144 5.29 13.5644 6.12 13.8344L6.26 13.4144H5.82V15.5844C5.82 15.7044 5.87 15.8144 5.95 15.8944C6.03 15.9744 6.15 16.0244 6.26 16.0244H9.73C9.97 16.0244 10.17 15.8244 10.17 15.5844V13.4144H9.73L9.87 13.8344C10.71 13.5644 11.46 13.1144 12.09 12.5444L11.79 12.2144L11.57 12.5944L13.45 13.6844C13.55 13.7444 13.67 13.7544 13.79 13.7244C13.9 13.6944 14 13.6244 14.06 13.5144L15.79 10.5144C15.91 10.3044 15.84 10.0344 15.63 9.91441L13.75 8.83441L13.53 9.21441L13.96 9.30441C14.05 8.89441 14.1 8.46441 14.1 8.01441H13.21C13.21 8.39441 13.17 8.75441 13.09 9.11441C13.05 9.30441 13.13 9.49441 13.3 9.59441L14.79 10.4544L13.5 12.6944L12 11.8244C11.83 11.7244 11.62 11.7544 11.48 11.8844C10.94 12.3744 10.29 12.7544 9.58 12.9844C9.4 13.0444 9.27 13.2144 9.27 13.4044V15.1244H6.69V13.4044C6.69 13.2144 6.57 13.0444 6.38 12.9844C5.67 12.7544 5.02 12.3744 4.48 11.8844C4.34 11.7544 4.13 11.7344 3.96 11.8244L2.46 12.6844L1.17 10.4444L2.66 9.58441C2.83 9.48441 2.91 9.29441 2.87 9.10441C2.79 8.74441 2.75 8.38441 2.75 8.00441C2.75 7.62441 2.79 7.25441 2.87 6.90441C2.91 6.71441 2.83 6.52441 2.66 6.42441L1.19 5.58441L2.48 3.34441L3.98 4.20441C4.15 4.30441 4.36 4.27441 4.5 4.14441C5.05 3.65441 5.69 3.27441 6.4 3.04441C6.58 2.98441 6.71 2.81441 6.71 2.62441V0.914414H9.29V2.63441C9.29 2.82441 9.41 2.99441 9.6 3.05441C10.31 3.28441 10.96 3.66441 11.5 4.15441C11.64 4.28441 11.85 4.30441 12.02 4.21441L13.52 3.35441L14.81 5.59441L13.32 6.45441C13.15 6.55441 13.07 6.74441 13.11 6.93441C13.19 7.29441 13.23 7.65441 13.23 8.03441H13.66" fill="white"/>
<path d="M9.99998 8.02446H10.44C10.44 6.67446 9.33998 5.57446 7.98998 5.57446C6.63998 5.57446 5.53998 6.67446 5.53998 8.02446C5.53998 9.37446 6.63998 10.4745 7.98998 10.4745C9.33998 10.4745 10.44 9.38446 10.44 8.02446H9.54998C9.54998 8.45446 9.37998 8.84446 9.08998 9.12446C8.80998 9.40446 8.41998 9.58446 7.98998 9.58446C7.55998 9.58446 7.16998 9.41446 6.88998 9.12446C6.60998 8.84446 6.42998 8.45446 6.42998 8.02446C6.42998 7.59446 6.59998 7.20446 6.88998 6.92446C7.16998 6.64446 7.55998 6.46446 7.98998 6.46446C8.41998 6.46446 8.80998 6.63446 9.08998 6.92446C9.36998 7.20446 9.54998 7.59446 9.54998 8.02446H9.99998Z" fill="white"/>
</svg>
