<svg width="18" height="17" viewBox="0 0 18 17" fill="none" xmlns="http://www.w3.org/2000/svg">
<path fill-rule="evenodd" clip-rule="evenodd" d="M0.37207 6.25369C0.37207 7.27369 0.60207 8.39369 1.10207 9.56369C1.72207 11.0237 2.75207 12.4637 4.08207 13.7437C5.40207 15.0137 7.01207 16.1137 8.82207 16.8837C8.93207 16.9337 9.07207 16.9337 9.18207 16.8837C10.9921 16.1137 12.6021 15.0137 13.9321 13.7437C15.2521 12.4637 16.2821 11.0237 16.9121 9.56369C17.4021 8.39369 17.6321 7.27369 17.6321 6.25369C17.6321 5.05369 17.3221 3.98369 16.7821 3.12369C16.2521 2.25369 15.4821 1.58369 14.5821 1.20369C13.9721 0.943691 13.3021 0.783691 12.5921 0.783691C11.8821 0.783691 11.1421 0.943691 10.4421 1.32369C9.92207 1.60369 9.43207 2.01369 9.00207 2.55369C8.57207 2.01369 8.08207 1.60369 7.56207 1.32369C6.86207 0.943691 6.12207 0.783691 5.41207 0.783691C4.71207 0.783691 4.03207 0.943691 3.43207 1.20369C2.53207 1.58369 1.76207 2.25369 1.22207 3.12369C0.68207 3.98369 0.37207 5.05369 0.37207 6.25369ZM2.01908 3.6107C1.56908 4.3307 1.30908 5.2207 1.30908 6.2507C1.30908 7.1407 1.49908 8.1307 1.95908 9.1907C2.52908 10.5207 3.48908 11.8707 4.72908 13.0707C5.91908 14.2207 7.37908 15.2207 8.99908 15.9307C10.6191 15.2207 12.0791 14.2207 13.2791 13.0707C14.5191 11.8707 15.4791 10.5207 16.0491 9.1907C16.4991 8.1307 16.6991 7.1407 16.6991 6.2507C16.6991 5.2207 16.4291 4.3307 15.9891 3.6107C15.5491 2.9007 14.9291 2.3707 14.2091 2.0607C13.7191 1.8507 13.1591 1.7207 12.5891 1.7207C12.0191 1.7207 11.4391 1.8507 10.8891 2.1407C10.3491 2.4407 9.83908 2.9007 9.39908 3.6107C9.31908 3.7507 9.16908 3.8307 8.99908 3.8307C8.83908 3.8307 8.68909 3.7507 8.60908 3.6107C8.16908 2.9007 7.65908 2.4407 7.10908 2.1407C6.56908 1.8507 5.98908 1.7207 5.40908 1.7207C4.84908 1.7207 4.28908 1.8507 3.79908 2.0607C3.07908 2.3707 2.45908 2.9007 2.01908 3.6107ZM7.00611 13.571V12.751H11.0861V13.571H7.00611ZM7.00611 9.02197H11.0861V9.84197H7.00611V9.02197ZM7.00611 6.11395V5.29395H11.0861V6.11395H7.00611ZM7.00611 10.8867V11.7167H9.32611V10.8867H7.00611ZM7.00611 7.98771V7.15771H9.32611V7.98771H7.00611Z" fill="black" fill-opacity="0.85"/>
</svg>
