<svg width="24" height="24" viewBox="0 0 24 24" fill="none" xmlns="http://www.w3.org/2000/svg">
<g clip-path="url(#clip0_5559_72433)">
<path fill-rule="evenodd" clip-rule="evenodd" d="M11.9981 4.11963C16.3405 4.11963 19.873 7.64461 19.873 11.9796C19.873 16.3071 16.3405 19.832 11.9981 19.832C7.65559 19.832 4.13062 16.3071 4.13062 11.9796C4.13062 7.64461 7.65559 4.11963 11.9981 4.11963ZM18.715 11.9778C18.715 15.6677 15.7075 18.6827 12.0026 18.6827C8.29758 18.6827 5.28259 15.6677 5.28259 11.9778C5.28259 8.28028 8.29758 5.27279 12.0026 5.27279C15.7075 5.27279 18.715 8.28028 18.715 11.9778ZM6.94695 11.9842C7.45694 12.6292 8.22944 13.0117 9.06193 13.0117C9.88693 13.0117 10.6669 12.6292 11.1769 11.9842C11.2444 11.9017 11.2069 11.7892 11.1244 11.7292L10.4869 11.2942C10.4044 11.2417 10.2844 11.2642 10.2094 11.3467C9.92443 11.6692 9.50443 11.8642 9.06193 11.8642C8.61194 11.8642 8.19194 11.6692 7.90694 11.3467C7.83194 11.2642 7.71944 11.2417 7.62944 11.2942L6.99195 11.7292C6.90945 11.7892 6.87945 11.9017 6.94695 11.9842ZM16.0969 11.3467C16.1644 11.2642 16.2844 11.2417 16.3668 11.2942L17.0043 11.7292C17.0943 11.7892 17.1168 11.9017 17.0568 11.9842C16.5468 12.6292 15.7744 13.0117 14.9419 13.0117C14.1094 13.0117 13.3294 12.6292 12.8269 11.9842C12.7594 11.9017 12.7894 11.7892 12.8719 11.7292L13.5094 11.2942C13.5994 11.2417 13.7119 11.2642 13.7794 11.3467C14.0719 11.6692 14.4919 11.8642 14.9419 11.8642C15.3844 11.8642 15.8044 11.6692 16.0969 11.3467Z" fill="white"/>
<path d="M7.0254 11.9221L7.02539 11.9221C7.51673 12.5435 8.26052 12.9117 9.06193 12.9117C9.856 12.9117 10.6072 12.5434 11.0985 11.9221L11.0995 11.9208L11.0995 11.9208C11.1113 11.9064 11.1144 11.8907 11.1098 11.872C11.1047 11.8514 11.09 11.8281 11.0666 11.8108L10.4322 11.3779C10.3981 11.3571 10.3321 11.3609 10.2839 11.4134C10.2837 11.4136 10.2836 11.4138 10.2834 11.4139L10.2094 11.3467C9.92443 11.6692 9.50443 11.8642 9.06193 11.8642C8.61194 11.8642 8.19194 11.6692 7.90694 11.3467L7.0254 11.9221ZM7.0254 11.9221L7.02434 11.9208C7.01081 11.9043 7.00743 11.8866 7.01118 11.8682C7.01519 11.8486 7.02802 11.827 7.04975 11.8108L7.6824 11.3791C7.72588 11.3553 7.78584 11.3625 7.83253 11.4135L7.0254 11.9221ZM16.1709 11.4138L16.171 11.4139L16.1742 11.41C16.2128 11.3628 16.2767 11.3562 16.3121 11.3779L16.948 11.8118L16.9489 11.8124C16.9949 11.8431 16.9997 11.8912 16.9769 11.924C16.4856 12.5443 15.7425 12.9117 14.9419 12.9117C14.14 12.9117 13.3892 12.5432 12.9058 11.9227L12.9058 11.9227L12.9043 11.9208C12.8907 11.9043 12.8874 11.8866 12.8911 11.8682C12.8951 11.8486 12.9079 11.827 12.9297 11.8108L13.5623 11.3791C13.6072 11.3545 13.6646 11.3643 13.702 11.41L13.7019 11.4101L13.7053 11.4138C14.0162 11.7566 14.4628 11.9642 14.9419 11.9642C15.4137 11.9642 15.8602 11.7564 16.1709 11.4138ZM11.9981 4.21963C16.2855 4.21963 19.773 7.70002 19.773 11.9796C19.773 16.2516 16.2856 19.732 11.9981 19.732C7.7107 19.732 4.23062 16.2517 4.23062 11.9796C4.23062 7.6999 7.71076 4.21963 11.9981 4.21963ZM12.0026 18.7827C15.7628 18.7827 18.815 15.723 18.815 11.9778C18.815 8.22498 15.7627 5.17279 12.0026 5.17279C8.24257 5.17279 5.18259 8.22483 5.18259 11.9778C5.18259 15.7231 8.24249 18.7827 12.0026 18.7827Z" stroke="black" stroke-opacity="0.8" stroke-width="0.2"/>
</g>
<defs>
<clipPath id="clip0_5559_72433">
<rect width="24.0006" height="23.9999" fill="white" transform="translate(0.000549316)"/>
</clipPath>
</defs>
</svg>
