<svg width="20" height="20" viewBox="0 0 20 20" fill="none" xmlns="http://www.w3.org/2000/svg">
<path fill-rule="evenodd" clip-rule="evenodd" d="M0 1.99993C0 0.895397 0.8954 0 1.99993 0H18.0003C19.1049 0 20.0003 0.895429 20.0003 2V17.9997C20.0003 19.1042 19.1049 19.9997 18.0003 19.9997H2.00008C0.895467 19.9997 0 19.1042 0 17.9996V1.99993Z" fill="#8089AA"/>
<path fill-rule="evenodd" clip-rule="evenodd" d="M13.9213 18.1752C14.4913 18.1752 14.9613 17.7052 14.9613 17.1352V12.0952C14.9613 10.2452 13.9413 8.5752 12.3413 7.7152C13.0113 7.0752 13.4113 6.1752 13.4113 5.2352C13.4113 3.3552 11.8813 1.8252 10.0013 1.8252C8.12128 1.8252 6.59128 3.3552 6.59128 5.2352C6.59128 6.1852 6.99128 7.0752 7.67128 7.7152C6.06129 8.5752 5.04128 10.2452 5.04128 12.0952V17.1352C5.04128 17.7052 5.51128 18.1752 6.08128 18.1752H13.9213ZM13.7834 12.0942V16.9942H6.22341V12.0942C6.22341 10.5642 7.13341 9.20415 8.54341 8.60415C8.83341 8.48415 9.04341 8.20415 9.08341 7.88415C9.08341 7.87023 9.08557 7.8563 9.08788 7.84138C9.09054 7.82415 9.09341 7.80559 9.09341 7.78415C9.09341 7.49415 8.94341 7.22415 8.70341 7.04415C8.12341 6.62415 7.77341 5.95415 7.77341 5.23415C7.77341 4.00415 8.77341 3.00415 10.0034 3.00415C11.2334 3.00415 12.2334 4.00415 12.2334 5.23415C12.2334 5.95415 11.8834 6.62415 11.2934 7.04415C11.0234 7.24415 10.8834 7.56415 10.9234 7.88415C10.9534 8.20415 11.1634 8.48415 11.4534 8.60415C12.8734 9.19415 13.7834 10.5642 13.7834 12.0942ZM3.39079 11.9119H2.60079C2.49079 11.9119 2.40079 11.8219 2.41079 11.7219C2.46079 9.78186 3.27079 7.98186 4.61079 6.67186C4.69079 6.60186 4.81079 6.60186 4.89079 6.68186L5.45079 7.24186C5.52079 7.31186 5.52079 7.44186 5.45079 7.51186C4.32079 8.60186 3.64079 10.1019 3.59079 11.7219C3.58079 11.8219 3.50079 11.9119 3.39079 11.9119ZM15.1063 6.68186C15.1863 6.60186 15.3163 6.60186 15.3863 6.67186C16.7263 7.98186 17.5363 9.78186 17.5863 11.7219C17.5963 11.8219 17.5063 11.9119 17.3963 11.9119H16.6063C16.4963 11.9119 16.4163 11.8219 16.4063 11.7219C16.3563 10.1019 15.6763 8.60186 14.5463 7.51186C14.4763 7.44186 14.4763 7.31186 14.5463 7.24186L15.1063 6.68186Z" fill="white"/>
</svg>
