<svg width="18" height="17" viewBox="0 0 18 17" fill="none" xmlns="http://www.w3.org/2000/svg">
<g clip-path="url(#clip0_5028_56862)">
<path fill-rule="evenodd" clip-rule="evenodd" d="M1.82434 14.9766C1.97434 15.1866 2.13434 15.3866 2.31434 15.5566C2.48434 15.7366 2.68434 15.8966 2.89434 16.0466C4.73434 17.3766 7.24434 17.1666 8.86434 15.5566L15.6943 8.72664C16.5143 7.90664 16.9943 6.81664 17.0443 5.65664C17.0943 4.50664 16.7143 3.38664 15.9843 2.50664C15.8943 2.38664 15.7943 2.27664 15.6943 2.17664C15.5943 2.07664 15.4843 1.97664 15.3643 1.88664C14.4843 1.15664 13.3643 0.776642 12.2143 0.826642C11.0543 0.886642 9.96434 1.36664 9.14434 2.18664L2.31434 9.01664C0.704345 10.6266 0.504344 13.1366 1.82434 14.9766ZM10.0137 3.04999L7.02369 6.03999L11.8337 10.85L14.8237 7.85999C16.0737 6.60999 16.1637 4.64999 15.0437 3.28999L15.0171 3.26C14.9479 3.18212 14.8858 3.11211 14.8237 3.04999C14.7537 2.97999 14.6737 2.90999 14.5837 2.83999C13.2237 1.70999 11.2637 1.79999 10.0137 3.04999ZM10.9819 11.7009L7.9919 14.6909C6.7419 15.9409 4.7819 16.0309 3.4219 14.9009C3.3319 14.8309 3.2519 14.7609 3.1819 14.6909C3.11978 14.6288 3.05765 14.5588 2.98854 14.4809C2.97978 14.471 2.9709 14.461 2.9619 14.4509C1.8419 13.0909 1.9319 11.1309 3.1819 9.88089L6.1719 6.89089L10.9819 11.7009Z" fill="#5D658C"/>
<path opacity="0.5" fill-rule="evenodd" clip-rule="evenodd" d="M7.9919 14.6906L10.9819 11.7006L6.1719 6.89062L3.1819 9.88063C1.9319 11.1306 1.8419 13.0906 2.9619 14.4506C3.0419 14.5406 3.1119 14.6206 3.1819 14.6906C3.2519 14.7606 3.3319 14.8306 3.4219 14.9006C4.7819 16.0306 6.7419 15.9406 7.9919 14.6906Z" fill="#5D658C"/>
</g>
<defs>
<clipPath id="clip0_5028_56862">
<rect width="16.092" height="16.0916" fill="white" transform="translate(0.954346 0.826172)"/>
</clipPath>
</defs>
</svg>
