<svg width="10" height="15" viewBox="0 0 10 15" fill="none" xmlns="http://www.w3.org/2000/svg">
<path fill-rule="evenodd" clip-rule="evenodd" d="M5.41389 10.2384C5.41389 10.5284 5.43389 10.8384 5.49389 11.2384H3.93389C4.01389 10.7984 4.01389 10.6584 4.01389 10.0584C4.01389 9.11836 4.20389 8.52836 4.67389 7.89836C5.03389 7.40836 5.21389 7.26836 6.26389 6.53836C6.91389 6.08836 7.22389 5.83836 7.49389 5.56836C7.90389 5.13836 8.12389 4.60836 8.12389 4.06836C8.12389 2.71836 6.93389 1.77836 5.21389 1.77836C4.04389 1.77836 3.12389 2.17836 2.53389 2.91836C2.22389 3.30836 2.07389 3.65836 1.88389 4.40836L0.363892 4.17836C0.743892 2.85836 1.10389 2.24836 1.84389 1.62836C2.67389 0.928359 3.84389 0.568359 5.27389 0.568359C7.76389 0.568359 9.58389 1.97836 9.58389 3.90836C9.58389 4.58836 9.44389 5.14836 9.15389 5.65836C8.82389 6.19836 8.50389 6.52836 7.51389 7.22836C6.44389 7.96836 6.13389 8.21836 5.88389 8.57836C5.56389 9.03836 5.41389 9.53836 5.41389 10.2384ZM3.8468 14.6324V12.9324H5.5968V14.6324H3.8468Z" fill="#5D658C"/>
<path d="M5.49389 11.2384V11.4202H5.70502L5.6737 11.2114L5.49389 11.2384ZM3.93389 11.2384L3.75501 11.2058L3.71603 11.4202H3.93389V11.2384ZM4.67389 7.89836L4.81963 8.00708L4.82042 8.00601L4.67389 7.89836ZM6.26389 6.53836L6.1604 6.38887L6.1601 6.38907L6.26389 6.53836ZM7.49389 5.56836L7.62249 5.69696L7.62548 5.69383L7.49389 5.56836ZM2.53389 2.91836L2.39173 2.80501L2.39156 2.80522L2.53389 2.91836ZM1.88389 4.40836L1.85669 4.58813L2.01966 4.61279L2.06014 4.45301L1.88389 4.40836ZM0.363892 4.17836L0.189169 4.12806L0.131859 4.32714L0.336689 4.35813L0.363892 4.17836ZM1.84389 1.62836L1.96066 1.76773L1.96111 1.76735L1.84389 1.62836ZM9.15389 5.65836L9.30911 5.75322L9.31194 5.74823L9.15389 5.65836ZM7.51389 7.22836L7.61732 7.37791L7.61886 7.37682L7.51389 7.22836ZM5.88389 8.57836L6.03315 8.68219L6.03323 8.68207L5.88389 8.57836ZM3.8468 12.9324V12.7506H3.66498V12.9324H3.8468ZM3.8468 14.6324H3.66498V14.8142H3.8468V14.6324ZM5.5968 12.9324H5.77862V12.7506H5.5968V12.9324ZM5.5968 14.6324V14.8142H5.77862V14.6324H5.5968ZM5.6737 11.2114C5.61497 10.8199 5.59571 10.5189 5.59571 10.2384H5.23207C5.23207 10.5378 5.25281 10.8568 5.31409 11.2653L5.6737 11.2114ZM3.93389 11.4202H5.49389V11.0565H3.93389V11.4202ZM3.83207 10.0584C3.83207 10.6558 3.83198 10.7825 3.75501 11.2058L4.11278 11.2709C4.1958 10.8143 4.19571 10.6609 4.19571 10.0584H3.83207ZM4.52816 7.78964C4.03167 8.45515 3.83207 9.08463 3.83207 10.0584H4.19571C4.19571 9.15209 4.37612 8.60157 4.81962 8.00708L4.52816 7.78964ZM6.1601 6.38907C5.63746 6.75244 5.3219 6.97532 5.09259 7.16965C4.85725 7.36909 4.71281 7.5383 4.52737 7.79071L4.82042 8.00601C4.99497 7.76842 5.12053 7.62263 5.32769 7.44707C5.54089 7.26639 5.84032 7.05428 6.36768 6.68764L6.1601 6.38907ZM7.36533 5.43979C7.10681 5.69831 6.80726 5.94105 6.1604 6.38887L6.36738 6.68785C7.02053 6.23567 7.34098 5.9784 7.62246 5.69692L7.36533 5.43979ZM7.94207 4.06836C7.94207 4.55761 7.74295 5.04367 7.3623 5.44289L7.62548 5.69383C8.06483 5.23305 8.30571 4.65911 8.30571 4.06836H7.94207ZM5.21389 1.96018C6.0422 1.96018 6.72744 2.18656 7.20138 2.55993C7.67232 2.93094 7.94207 3.45182 7.94207 4.06836H8.30571C8.30571 3.3349 7.98046 2.71078 7.42641 2.27429C6.87534 1.84016 6.10558 1.59654 5.21389 1.59654V1.96018ZM2.67605 3.03171C3.22442 2.34393 4.08667 1.96018 5.21389 1.96018V1.59654C4.00111 1.59654 3.02336 2.01279 2.39173 2.80501L2.67605 3.03171ZM2.06014 4.45301C2.24719 3.71465 2.38904 3.39279 2.67622 3.03149L2.39156 2.80522C2.05875 3.22392 1.90059 3.60207 1.70764 4.36371L2.06014 4.45301ZM0.336689 4.35813L1.85669 4.58813L1.91109 4.22859L0.391094 3.99859L0.336689 4.35813ZM1.72712 1.48899C1.34423 1.8098 1.05428 2.13289 0.811769 2.54937C0.570894 2.96305 0.38096 3.46184 0.189169 4.12806L0.538614 4.22866C0.726823 3.57488 0.90689 3.10867 1.12601 2.73235C1.3435 2.35883 1.60355 2.06692 1.96066 1.76773L1.72712 1.48899ZM5.27389 0.386541C3.81504 0.386541 2.59881 0.753836 1.72667 1.48937L1.96111 1.76735C2.74898 1.10288 3.87275 0.750178 5.27389 0.750178V0.386541ZM9.76571 3.90836C9.76571 1.83753 7.81844 0.386541 5.27389 0.386541V0.750178C7.70934 0.750178 9.40207 2.11919 9.40207 3.90836H9.76571ZM9.31194 5.74823C9.61951 5.20734 9.76571 4.61558 9.76571 3.90836H9.40207C9.40207 4.56114 9.26827 5.08938 8.99584 5.56849L9.31194 5.74823ZM7.61886 7.37682C8.61799 6.67036 8.96056 6.32339 9.30903 5.75317L8.99875 5.56355C8.68722 6.07333 8.3898 6.38636 7.40892 7.0799L7.61886 7.37682ZM6.03323 8.68207C6.26097 8.35412 6.54105 8.12223 7.61731 7.3779L7.41047 7.07882C6.34674 7.81449 6.00681 8.0826 5.73455 8.47465L6.03323 8.68207ZM5.59571 10.2384C5.59571 9.56905 5.73775 9.10683 6.03315 8.68219L5.73464 8.47453C5.39004 8.96989 5.23207 9.50767 5.23207 10.2384H5.59571ZM3.66498 12.9324V14.6324H4.02862V12.9324H3.66498ZM5.5968 12.7506H3.8468V13.1142H5.5968V12.7506ZM5.77862 14.6324V12.9324H5.41498V14.6324H5.77862ZM3.8468 14.8142H5.5968V14.4506H3.8468V14.8142Z" fill="#DDDEE0"/>
</svg>
