<svg width="20" height="12" viewBox="0 0 20 12" fill="none" xmlns="http://www.w3.org/2000/svg">
<path fill-rule="evenodd" clip-rule="evenodd" d="M4.75 4C5.441 4 6 3.441 6 2.75C6 2.059 5.441 1.5 4.75 1.5C4.58583 1.49993 4.42325 1.53222 4.27157 1.59502C4.11988 1.65781 3.98206 1.74988 3.86597 1.86597C3.74988 1.98206 3.65781 2.11988 3.59502 2.27157C3.53222 2.42325 3.49993 2.58583 3.5 2.75C3.5 3.441 4.059 4 4.75 4ZM4.75 5C5.993 5 7 3.993 7 2.75C7 1.507 5.993 0.5 4.75 0.5C4.45451 0.499934 4.1619 0.558088 3.88888 0.671137C3.61587 0.784187 3.36781 0.949918 3.15886 1.15886C2.94992 1.36781 2.78419 1.61587 2.67114 1.88888C2.55809 2.1619 2.49993 2.45451 2.5 2.75C2.5 3.993 3.507 5 4.75 5Z" fill="white"/>
<path fill-rule="evenodd" clip-rule="evenodd" d="M1.256 8.2405C1.047 8.4515 1 8.609 1 8.727V11H9V8.727C9 8.609 8.953 8.4515 8.744 8.2405C8.5255 8.0205 8.18 7.7985 7.7255 7.6C6.81 7.2 5.6975 7 5 7C4.3025 7 3.189 7.2 2.275 7.6C1.82 7.7985 1.4745 8.021 1.256 8.2405ZM5 6C3.331 6 0 6.9135 0 8.727V12H10V8.727C10 6.914 6.6685 6 5 6Z" fill="white"/>
<path fill-rule="evenodd" clip-rule="evenodd" d="M15.25 4C15.941 4 16.5 3.441 16.5 2.75C16.5 2.059 15.941 1.5 15.25 1.5C15.0858 1.49993 14.9233 1.53222 14.7716 1.59502C14.6199 1.65781 14.4821 1.74988 14.366 1.86597C14.2499 1.98206 14.1578 2.11988 14.095 2.27157C14.0322 2.42325 13.9999 2.58583 14 2.75C14 3.441 14.559 4 15.25 4ZM15.25 5C16.493 5 17.5 3.993 17.5 2.75C17.5 1.507 16.493 0.5 15.25 0.5C14.9545 0.499934 14.6619 0.558088 14.3889 0.671137C14.1159 0.784187 13.8678 0.949918 13.6589 1.15886C13.4499 1.36781 13.2842 1.61587 13.1711 1.88888C13.0581 2.1619 12.9999 2.45451 13 2.75C13 3.993 14.007 5 15.25 5Z" fill="white"/>
<path fill-rule="evenodd" clip-rule="evenodd" d="M10 3C10.2652 3 10.5196 2.89464 10.7071 2.70711C10.8946 2.51957 11 2.26522 11 2C11 1.73478 10.8946 1.48043 10.7071 1.29289C10.5196 1.10536 10.2652 1 10 1C9.73478 1 9.48043 1.10536 9.29289 1.29289C9.10536 1.48043 9 1.73478 9 2C9 2.26522 9.10536 2.51957 9.29289 2.70711C9.48043 2.89464 9.73478 3 10 3ZM10 4C11.105 4 12 3.105 12 2C12 0.895 11.105 0 10 0C8.895 0 8 0.895 8 2C8 3.105 8.895 4 10 4Z" fill="white"/>
<path fill-rule="evenodd" clip-rule="evenodd" d="M11.256 8.2405C11.047 8.4515 11 8.609 11 8.727V11H19V8.727C19 8.609 18.953 8.4515 18.744 8.2405C18.5255 8.0205 18.18 7.7985 17.7255 7.6C16.81 7.2 15.6975 7 15 7C14.3025 7 13.189 7.2 12.275 7.6C11.82 7.7985 11.4745 8.021 11.256 8.2405ZM15 6C13.3315 6 10 6.9135 10 8.727V12H20V8.727C20 6.914 16.6685 6 15 6Z" fill="white"/>
<path fill-rule="evenodd" clip-rule="evenodd" d="M9.99998 6C8.34498 6 7.18599 6.7715 6.85349 7.1035L6.14648 6.3965C6.64748 5.895 8.05448 5 9.99998 5C11.945 5 13.3525 5.895 13.8535 6.3965L13.1465 7.1035C12.814 6.771 11.6545 6 9.99998 6Z" fill="white"/>
</svg>
