<svg width="32" height="32" viewBox="0 0 32 32" fill="none" xmlns="http://www.w3.org/2000/svg">
<g clip-path="url(#clip0_4843_32995)">
<path d="M24.4903 13.6056C24.4757 13.591 24.4757 13.591 24.4903 13.6056L20.0927 9.20798C19.3937 8.4799 18.6074 7.95569 17.7628 7.64989C17.69 7.62077 17.6463 7.59165 17.6755 7.56252C18.2725 6.89269 18.622 5.94619 18.622 5.02881C18.622 3.22317 17.5735 2 16.0009 2C14.4282 2 13.3652 3.22317 13.3652 5.04337C13.3652 5.96075 13.7293 6.90725 14.3117 7.57708C14.3409 7.60621 14.2972 7.64989 14.2244 7.66445C13.3798 7.95569 12.5935 8.4799 11.8945 9.22254L7.52605 13.591C7.52605 13.591 7.52605 13.591 7.51149 13.6056C6.8271 14.3045 6.8271 15.4258 7.52605 16.1247C8.22501 16.8237 9.36081 16.8237 10.0452 16.1247L11.414 14.7559L12.8993 13.0814L12.71 25.4587C12.71 25.4733 12.71 25.4878 12.71 25.4878C12.71 25.7791 12.7682 26.0412 12.8701 26.2741H9.73941C9.41906 26.2741 9.17151 26.5363 9.17151 26.8421V29.2593H10.3219V27.4245H21.5343V29.2593H22.6847V26.8421C22.6847 26.5217 22.4225 26.2741 22.1167 26.2741H19.1171C19.219 26.0412 19.2772 26.0266 19.2772 25.4878C19.2772 25.4733 19.2772 25.4587 19.2772 25.4587L19.0879 13.0814L20.5732 14.7559L21.942 16.1247C22.641 16.8237 23.7768 16.8237 24.4612 16.1247C25.1747 15.4258 25.1747 14.29 24.4903 13.6056ZM23.6603 15.3093C23.4127 15.5568 23.005 15.5568 22.7575 15.3093L19.3209 11.8727C18.8113 11.3485 18.0978 11.6543 18.0978 12.3533L18.1269 25.5024C18.1269 25.5169 18.1269 25.5169 18.1269 25.5315C18.1123 25.9684 17.792 26.2741 17.3551 26.2741C16.8891 26.2741 16.5688 25.9538 16.5688 25.5024V16.8237H15.4039V25.5024C15.4039 25.9538 15.0835 26.2741 14.6175 26.2741C14.1661 26.2741 13.8458 25.9684 13.8458 25.5315C13.8458 25.5169 13.8458 25.5169 13.8458 25.5024L13.8749 12.3533C13.8749 11.6543 13.1759 11.334 12.6517 11.8727L9.24432 15.3093C8.99677 15.5568 8.58905 15.5568 8.3415 15.3093C8.09395 15.0617 8.09395 14.654 8.3415 14.4065C8.3415 14.4065 8.3415 14.4065 8.35606 14.3919L12.7245 10.0089C13.307 9.39728 13.9477 8.975 14.6175 8.74201C15.1272 8.56727 15.4767 8.20323 15.564 7.76638C15.6368 7.43147 15.5349 7.08199 15.2874 6.84901C14.8214 6.41216 14.5156 5.68408 14.5156 5.01425C14.5156 3.86388 15.0835 3.15036 16.0009 3.15036C16.9183 3.15036 17.4862 3.86388 17.4862 5.01425C17.4862 5.68408 17.1804 6.41216 16.7144 6.84901C16.4669 7.08199 16.3649 7.43147 16.4377 7.76638C16.5251 8.20323 16.8891 8.56727 17.3842 8.74201C18.0541 8.975 18.6948 9.41184 19.2772 10.0089L23.6603 14.3919C23.6603 14.3919 23.6603 14.3919 23.6748 14.4065C23.9078 14.654 23.9224 15.0617 23.6603 15.3093Z" fill="black" fill-opacity="0.85"/>
</g>
<defs>
<clipPath id="clip0_4843_32995">
<rect width="32" height="32" fill="white"/>
</clipPath>
</defs>
</svg>
