<svg width="24" height="24" viewBox="0 0 24 24" fill="none" xmlns="http://www.w3.org/2000/svg">
<path d="M11.5064 3.13769C12.6744 3.13769 13.4317 4.08145 13.4317 5.54234C13.4317 6.3956 13.0467 7.32644 12.4562 7.88235C12.1867 8.14092 12.0712 8.50291 12.1482 8.87783C12.2509 9.35617 12.6359 9.75695 13.1879 9.9638C13.1879 9.9638 13.1879 9.9638 13.2007 9.9638C14.2019 10.3516 15.8705 11.3859 15.8705 13.9198V21.9871H17V13.7518C17 13.7259 17 13.7001 17 13.6742C16.8845 10.5456 14.6383 9.31739 13.6371 8.92954C13.6243 8.92954 13.6114 8.91661 13.5986 8.91661C13.3932 8.83904 13.1879 8.78733 13.2777 8.6839C14.0735 7.89528 14.5613 6.70588 14.5613 5.55527C14.5613 3.46089 13.3034 2 11.5064 2C9.69662 2 8.43874 3.46089 8.43874 5.54234C8.43874 6.70588 8.92649 7.89528 9.72229 8.67098C9.81214 8.7744 9.60677 8.83904 9.4014 8.90369C9.38856 8.90369 9.37573 8.91661 9.36289 8.91661C8.36173 9.31739 6.12835 10.5456 6 13.6742C6 13.7001 6 13.7259 6 13.7518V22H7.12952V13.9328C7.12952 11.3859 8.79813 10.3516 9.7993 9.97673C9.7993 9.97673 9.7993 9.97673 9.81214 9.97673C10.3641 9.76988 10.762 9.3691 10.8518 8.89076C10.9288 8.51584 10.8261 8.15385 10.5438 7.89528C9.95333 7.32644 9.56826 6.40853 9.56826 5.55527C9.5811 4.08145 10.3256 3.13769 11.5064 3.13769Z" fill="#5397EA"/>
</svg>
