<svg width="32" height="32" viewBox="0 0 32 32" fill="none" xmlns="http://www.w3.org/2000/svg">
<g clip-path="url(#clip0_4931_26082)">
<path d="M23.5336 24.6214C23.2491 24.103 22.7725 23.7169 22.2064 23.5461L19.5174 22.4725L18.5031 18.5206L20.8249 17.0601C21.0641 16.902 21.2687 16.6971 21.4264 16.4576C21.584 16.2182 21.6914 15.9492 21.742 15.667C21.8566 15.1068 21.7554 14.524 21.4588 14.0352C21.4374 14.0039 19.3561 10.7699 17.856 8.72648C17.7045 8.51242 17.4773 8.20285 17.6518 7.98055C18.2144 7.23216 18.5225 6.32332 18.5311 5.38711C18.5311 3.36176 17.3538 2 15.6001 2C13.8464 2 12.6675 3.35847 12.6675 5.38382C12.6675 7.03045 13.4908 7.93445 13.7658 8.30329L13.825 8.38233C13.859 8.43738 13.8824 8.49823 13.8942 8.56182C13.9485 8.89114 13.9041 9.18424 13.6077 9.67823C13.1675 10.3751 12.9083 11.1709 12.8535 11.9934C11.2398 12.6949 10.2189 13.1082 10.2008 13.1131H10.1827C9.72881 13.305 9.35568 13.6486 9.12713 14.0852C8.89858 14.5218 8.82881 15.0242 8.92975 15.5065C9.03069 15.9889 9.29607 16.4212 9.68051 16.7295C10.0649 17.0378 10.5446 17.203 11.0373 17.1967C11.3246 17.1965 11.6088 17.1371 11.8721 17.0222L12.8305 16.6254V18.6688L8.28084 27.1292C7.70946 28.2407 8.03385 29.5003 9.03665 30.0585C9.37519 30.2485 9.75664 30.3488 10.1448 30.35C10.3681 30.35 10.5901 30.3167 10.8035 30.2512C11.092 30.1646 11.3604 30.0214 11.5931 29.83C11.8258 29.6386 12.018 29.4029 12.1587 29.1364L15.2263 23.6845C15.4698 24.4622 15.8914 25.1724 16.4577 25.7584C17.024 26.3444 17.7193 26.7901 18.4883 27.06L20.8808 27.8982L20.9154 27.9097C21.1211 27.9684 21.3339 27.9983 21.5477 27.9986C21.9429 27.9978 22.3311 27.8941 22.674 27.6976C23.0168 27.5011 23.3026 27.2187 23.503 26.8781C23.7035 26.5375 23.8117 26.1506 23.8171 25.7554C23.8224 25.3603 23.7247 24.9706 23.5336 24.6247V24.6214ZM11.2662 15.8663C11.0901 15.9123 10.9042 15.9042 10.7327 15.8432C10.5785 15.7858 10.4451 15.6836 10.3496 15.5497C10.2541 15.4158 10.2008 15.2564 10.1967 15.092C10.1927 14.9276 10.2379 14.7657 10.3267 14.6272C10.4155 14.4888 10.5437 14.3801 10.6948 14.3151C11.062 14.1208 12.8585 13.2629 12.8585 13.2629L12.8354 15.3311C12.3219 15.5364 11.7981 15.715 11.2662 15.8663ZM11.0225 28.5124C11.0225 28.5124 11.0225 28.5255 11.011 28.5338C10.9504 28.6486 10.8675 28.7501 10.7671 28.8324C10.6667 28.9147 10.5509 28.9761 10.4264 29.0129C10.3007 29.0514 10.1685 29.0636 10.038 29.0489C9.9074 29.0342 9.78124 28.9928 9.66731 28.9273C9.21119 28.6721 9.22601 28.1238 9.4269 27.7319L14.049 19.1381C14.0987 19.0437 14.1247 18.9386 14.1247 18.8318V14.8964C14.1247 14.6412 14.1247 14.3695 14.1132 14.0912C14.0852 12.7739 14.0589 11.2804 14.6599 10.383C15.1539 9.64365 15.2609 9.09038 15.2313 8.60957C15.2181 8.49859 15.1977 8.38858 15.1703 8.28024C15.122 8.05428 15.0309 7.83965 14.9019 7.64794L14.8213 7.53596L14.7241 7.41247C14.2345 6.85271 13.9678 6.13242 13.9749 5.38876C13.9749 4.89477 14.0918 3.30907 15.6001 3.30907C17.1084 3.30907 17.2253 4.89971 17.2253 5.38876C17.2156 6.03741 17.0018 6.66652 16.6144 7.18688C16.2686 7.63641 16.0332 8.40374 16.7923 9.47569C18.2742 11.4961 20.349 14.7054 20.3654 14.7334C20.4848 14.9406 20.5224 15.1849 20.4708 15.4184C20.4575 15.5382 20.4196 15.654 20.3596 15.7585C20.2995 15.8631 20.2185 15.9541 20.1217 16.026L17.8165 17.4635C17.6327 17.5716 17.4142 17.6042 17.2069 17.5544C16.9996 17.5047 16.8197 17.3764 16.705 17.1967C16.649 17.1095 16.611 17.012 16.5932 16.91C16.5754 16.8079 16.5781 16.7033 16.6013 16.6023C16.6477 16.3979 16.7732 16.2203 16.9503 16.1083L18.1376 15.3591C18.2822 15.267 18.3844 15.1215 18.4221 14.9543C18.4597 14.7871 18.4297 14.6118 18.3385 14.4666L16.7676 11.9769L15.6808 12.6685L16.9042 14.6066L16.2653 15.01C15.9692 15.1971 15.7249 15.4558 15.5553 15.7623C15.3856 16.0687 15.296 16.413 15.2947 16.7633C15.2934 17.1136 15.3804 17.4586 15.5478 17.7664C15.7151 18.0741 15.9574 18.3346 16.2522 18.5239C16.3829 18.6061 16.5314 18.6557 16.6852 18.6688C16.4755 18.8737 16.3018 19.1126 16.1715 19.3752L11.0225 28.5124ZM22.4847 25.9897C22.4114 26.235 22.2459 26.4422 22.0229 26.5678C21.7999 26.6935 21.5369 26.7276 21.2892 26.6632L18.9164 25.8317C18.2584 25.6027 17.6731 25.203 17.2203 24.6736C16.7675 24.1441 16.4635 23.5039 16.3394 22.8183L16.1863 21.9654L17.4921 19.2386L18.3516 23.1098C18.3776 23.2082 18.4261 23.2993 18.4932 23.3759C18.5604 23.4525 18.6444 23.5124 18.7386 23.5511L21.7601 24.7564L21.8211 24.7778C21.9447 24.813 22.0601 24.8723 22.1607 24.9523C22.2613 25.0322 22.3451 25.1313 22.4073 25.2438C22.5301 25.4726 22.5579 25.7406 22.4847 25.9897Z" fill="black" fill-opacity="0.85"/>
</g>
<defs>
<clipPath id="clip0_4931_26082">
<rect width="32.0009" height="32" fill="white"/>
</clipPath>
</defs>
</svg>
