<svg width="33" height="32" viewBox="0 0 33 32" fill="none" xmlns="http://www.w3.org/2000/svg">
<g clip-path="url(#clip0_5394_78452)">
<g clip-path="url(#clip1_5394_78452)">
<g clip-path="url(#clip2_5394_78452)">
<path fill-rule="evenodd" clip-rule="evenodd" d="M26.2152 25.0546V20.5146C26.2152 20.3746 26.0952 20.2646 25.9552 20.2646H5.60521C5.45521 20.2646 5.34521 20.3746 5.34521 20.5146V25.0546C5.34521 25.1946 5.45521 25.3146 5.60521 25.3146H25.9552C26.0952 25.3146 26.2152 25.1946 26.2152 25.0546ZM24.6751 21.7976H19.7751V23.7776H24.6751V21.7976ZM18.2413 23.7776H6.88135V21.7976H18.2413V23.7776Z" fill="#5D658C"/>
</g>
<g clip-path="url(#clip3_5394_78452)">
<path fill-rule="evenodd" clip-rule="evenodd" d="M12.5346 12.647H15.8446C16.6646 12.647 17.3246 13.307 17.3246 14.117C17.3246 14.937 16.6646 15.597 15.8446 15.597H8.35459C6.78459 15.597 5.48459 16.817 5.35459 18.357C5.34459 18.497 5.46459 18.607 5.60459 18.607H6.62459C6.76459 18.607 6.87459 18.487 6.90459 18.347C7.02459 17.657 7.63459 17.127 8.35459 17.127H15.8446C17.5146 17.127 18.8646 15.777 18.8646 14.117C18.8646 12.467 17.5146 11.107 15.8446 11.107H12.5346C11.7146 11.107 11.0546 10.447 11.0546 9.63695C11.0546 8.81695 11.7146 8.15695 12.5346 8.15695H25.9946C26.1346 8.15695 26.2546 8.04695 26.2546 7.90695V6.87695C26.2546 6.73695 26.1346 6.62695 25.9946 6.62695H12.5346C10.8646 6.62695 9.51459 7.97695 9.51459 9.63695C9.51459 11.297 10.8646 12.647 12.5346 12.647Z" fill="#5D658C"/>
</g>
</g>
</g>
<defs>
<clipPath id="clip0_5394_78452">
<rect width="32.0009" height="32" fill="white" transform="translate(0.183105)"/>
</clipPath>
<clipPath id="clip1_5394_78452">
<rect width="20.9089" height="18.6858" fill="white" transform="translate(5.34521 6.62695)"/>
</clipPath>
<clipPath id="clip2_5394_78452">
<rect width="20.8679" height="5.04785" fill="white" transform="translate(5.34521 20.2646)"/>
</clipPath>
<clipPath id="clip3_5394_78452">
<rect width="20.8998" height="11.981" fill="white" transform="translate(5.35449 6.62695)"/>
</clipPath>
</defs>
</svg>
