<svg width="30" height="17" viewBox="0 0 30 17" fill="none" xmlns="http://www.w3.org/2000/svg">
<g clip-path="url(#clip0)">
<path fill-rule="evenodd" clip-rule="evenodd" d="M15.0041 5.85742C19.1041 5.85742 22.4341 9.18742 22.4341 13.2874C22.4341 14.0974 22.3041 14.8774 22.0641 15.6074H29.0541V16.7174H0.954102V15.6074H7.9441C7.7041 14.8774 7.5741 14.0974 7.5741 13.2874C7.5741 9.18742 10.9041 5.85742 15.0041 5.85742ZM20.8861 15.6074H9.1261C8.8461 14.8874 8.6861 14.1074 8.6861 13.2874C8.6861 11.5374 9.3961 9.96741 10.5361 8.81741C11.6861 7.67741 13.2561 6.96741 15.0061 6.96741C16.7561 6.96741 18.3261 7.67741 19.4761 8.81741C20.6161 9.96741 21.3261 11.5374 21.3261 13.2874C21.3261 14.1074 21.1661 14.8874 20.8861 15.6074Z" fill="#333333"/>
<path fill-rule="evenodd" clip-rule="evenodd" d="M10.9463 0.391113L12.0184 0.103807L13.1213 4.21924L12.0491 4.50655L10.9463 0.391113Z" fill="#333333"/>
<path fill-rule="evenodd" clip-rule="evenodd" d="M16.8892 4.21924L17.9925 0.103939L19.0643 0.391289L17.961 4.50659L16.8892 4.21924Z" fill="#333333"/>
<path fill-rule="evenodd" clip-rule="evenodd" d="M21.2246 6.39014L24.2376 3.37813L25.0223 4.1631L22.0093 7.17511L21.2246 6.39014Z" fill="#333333"/>
<path fill-rule="evenodd" clip-rule="evenodd" d="M23.894 10.439L28.0094 9.33638L28.2966 10.4084L24.1813 11.511L23.894 10.439Z" fill="#333333"/>
<path fill-rule="evenodd" clip-rule="evenodd" d="M4.98779 4.16309L5.77257 3.37832L8.78524 6.39102L8.00046 7.17579L4.98779 4.16309Z" fill="#333333"/>
<path fill-rule="evenodd" clip-rule="evenodd" d="M1.71387 10.4082L2.00112 9.33627L6.11664 10.4391L5.82939 11.511L1.71387 10.4082Z" fill="#333333"/>
</g>
<defs>
<clipPath id="clip0">
<rect width="28.103" height="16.3273" fill="white" transform="translate(0.954102 0.391113)"/>
</clipPath>
</defs>
</svg>
