<svg width="33" height="32" viewBox="0 0 33 32" fill="none" xmlns="http://www.w3.org/2000/svg">
<path d="M16.7364 5C11.5972 5 7.29632 8.75416 6.45801 13.6747C6.89539 13.4924 7.33276 13.4195 7.84304 13.4195H8.06173C8.97293 9.48312 12.5084 6.53081 16.7364 6.53081C21.6569 6.53081 25.6297 10.5401 25.6297 15.4242C25.6297 20.3447 21.6204 24.3175 16.7364 24.3175C13.7841 24.3175 11.1963 22.8961 9.5561 20.6727C9.08228 20.9279 8.53555 21.0736 7.98883 21.0736C9.84769 23.9166 13.0916 25.8483 16.7364 25.8483C22.4952 25.8483 27.1606 21.183 27.1606 15.4242C27.1606 9.66536 22.4952 5 16.7364 5Z" fill="#5D658C"/>
<path d="M18.5222 16.19C18.3764 16.19 18.2671 16.0807 18.2671 15.9349V14.9143C18.2671 14.7685 18.3764 14.6592 18.5222 14.6592H22.7502C22.896 14.6592 23.0054 14.7685 23.0054 14.9143V15.9349C23.0054 16.0807 22.896 16.19 22.7502 16.19H18.5222Z" fill="#5D658C"/>
<path d="M14.2578 12.6904H7.84296C5.32803 12.6904 3.25049 14.7315 3.25049 17.2829C3.25049 19.7978 5.29159 21.8754 7.84296 21.8754C10.0663 21.8754 11.9252 20.3081 12.3261 18.1941H14.2943C15.7887 18.1941 17.0279 16.9549 17.0279 15.4605C17.0279 13.9297 15.7887 12.6904 14.2578 12.6904ZM7.69717 20.3081C5.94765 20.2352 4.59907 18.7044 4.81776 16.882C5 15.3511 6.38503 14.2213 7.91585 14.2213H14.2214C14.8775 14.2213 15.4606 14.6951 15.4971 15.3511C15.5335 16.0437 14.9868 16.6268 14.2943 16.6268H11.1233C10.9775 16.6268 10.8682 16.7726 10.8682 16.9184C10.9411 17.5745 10.8317 18.267 10.285 18.996C9.62892 19.7978 8.71771 20.3446 7.69717 20.3081Z" fill="#5D658C"/>
</svg>
