<svg xmlns="http://www.w3.org/2000/svg" viewBox="0 0 8.5 8.5"><defs><style>.cls-1{opacity:0.5;}.cls-2{fill:#a4a5a4;}.cls-3{fill:#fff;}</style></defs><g id="Layer_2" data-name="Layer 2"><g id="Layer_1-2" data-name="Layer 1"><rect class="cls-2" x="0.17" y="0.17" width="8.16" height="8.16" rx="0.85"/><path class="cls-3" d="M8.9,1.76a.68.68,0,0,1,.68.68V8.9a.68.68,0,0,1-.68.68H2.44a.67.67,0,0,1-.68-.68V2.44a.67.67,0,0,1,.68-.68H8.9m0-.34H2.44a1,1,0,0,0-1,1V8.9a1,1,0,0,0,1,1H8.9a1,1,0,0,0,1-1V2.44a1,1,0,0,0-1-1" transform="translate(-1.42 -1.42)"/></g></g></svg>
