<svg width="20" height="21" viewBox="0 0 20 21" fill="none" xmlns="http://www.w3.org/2000/svg">
<path fill-rule="evenodd" clip-rule="evenodd" d="M6.03696 14.3045C5.44696 14.2545 4.89696 14.1045 4.40696 13.8545C3.79696 13.5545 3.27696 13.1045 2.86696 12.5545C2.04696 11.4545 1.63696 9.94447 1.63696 8.23447V4.29447C1.63696 3.20447 2.51696 2.33447 3.59696 2.33447C4.67696 2.33447 5.54696 3.20447 5.54696 4.29447C5.54696 5.37447 4.67696 6.24447 3.59696 6.24447C3.21696 6.24447 2.85696 6.13447 2.56696 5.95447V8.23447C2.55696 9.40447 2.77696 10.4345 3.16696 11.2545C3.55696 12.0745 4.10696 12.6745 4.81696 13.0245C5.29696 13.2645 5.84696 13.3945 6.47696 13.3945C7.11696 13.3945 7.66696 13.2645 8.13696 13.0245C8.60696 12.7945 9.01696 12.4445 9.34696 12.0045C10.017 11.1145 10.397 9.80447 10.397 8.23447V5.95447C10.097 6.13447 9.74696 6.24447 9.36696 6.24447C8.28696 6.24447 7.40696 5.37447 7.40696 4.29447C7.40696 3.20447 8.28696 2.33447 9.36696 2.33447C10.447 2.33447 11.317 3.20447 11.317 4.29447V8.23447C11.317 9.51447 11.087 10.6845 10.627 11.6545C10.167 12.6245 9.46696 13.3945 8.54696 13.8545C8.07696 14.0945 7.53696 14.2445 6.96696 14.2945C7.06696 15.4645 7.58696 16.5145 8.36696 17.3045C9.24696 18.1845 10.467 18.7345 11.807 18.7345C13.157 18.7345 14.367 18.1845 15.257 17.3045C16.097 16.4545 16.627 15.3045 16.677 14.0245C15.387 13.8045 14.417 12.6845 14.417 11.3445C14.417 9.83447 15.637 8.61447 17.147 8.61447C18.647 8.61447 19.867 9.83447 19.867 11.3445C19.867 12.6945 18.887 13.8145 17.597 14.0345C17.507 17.1545 14.957 19.6545 11.807 19.6545C8.75696 19.6545 6.25696 17.2945 6.03696 14.3045ZM8.63301 3.55928C8.82301 3.36928 9.07301 3.25928 9.36301 3.25928C9.65301 3.25928 9.90301 3.36928 10.093 3.55928C10.283 3.74928 10.393 4.00928 10.393 4.28928C10.393 4.57928 10.283 4.82928 10.093 5.01928C9.90301 5.20928 9.65301 5.31928 9.36301 5.31928C9.07301 5.31928 8.82301 5.20928 8.63301 5.01928C8.44301 4.82928 8.33301 4.57928 8.33301 4.28928C8.33301 4.00928 8.44301 3.74928 8.63301 3.55928ZM2.56201 4.28928C2.56201 4.57928 2.67201 4.82928 2.86201 5.01928C3.05201 5.20928 3.30201 5.31928 3.59201 5.31928C3.88201 5.31928 4.13201 5.20928 4.32201 5.01928C4.51201 4.82928 4.62201 4.57928 4.62201 4.28928C4.62201 4.00928 4.51201 3.74928 4.32201 3.55928C4.13201 3.36928 3.88201 3.25928 3.59201 3.25928C3.30201 3.25928 3.05201 3.36928 2.86201 3.55928C2.67201 3.74928 2.56201 4.00928 2.56201 4.28928ZM18.9411 11.3405C18.9411 11.8405 18.7411 12.2905 18.4211 12.6205C18.0911 12.9405 17.6411 13.1505 17.1411 13.1505C16.6411 13.1505 16.1911 12.9405 15.8711 12.6205C15.5411 12.2905 15.3411 11.8405 15.3411 11.3405C15.3411 10.8405 15.5411 10.4005 15.8711 10.0705C16.1911 9.74053 16.6411 9.54053 17.1411 9.54053C17.6411 9.54053 18.0911 9.74053 18.4211 10.0705C18.7411 10.4005 18.9411 10.8405 18.9411 11.3405Z" fill="#666666"/>
</svg>
