<svg width="14" height="14" viewBox="0 0 14 14" fill="none" xmlns="http://www.w3.org/2000/svg">
<path d="M0.330017 1.31215V12.4221C0.330017 13.0321 0.830017 13.5321 1.44002 13.5321H12.55C13.16 13.5321 13.66 13.0321 13.66 12.4221V1.31215C13.66 0.702148 13.16 0.202148 12.55 0.202148H1.44002C0.830017 0.202148 0.330017 0.702148 0.330017 1.31215Z" fill="#1890ff"/>
<path d="M1.98002 10.0419L2.94002 9.04191C3.03002 8.95191 3.03002 8.81191 2.94002 8.72191L2.14002 7.87191L2.94002 7.03191C3.03002 6.94191 3.03002 6.80191 2.94002 6.71191L2.14002 5.87191L2.94002 5.03191C3.03002 4.94191 3.03002 4.80191 2.94002 4.71191L1.98002 3.71191L1.65002 4.02191L2.45002 4.86191L1.65002 5.70191C1.56002 5.79191 1.56002 5.93191 1.65002 6.02191L2.45002 6.87191L1.65002 7.71191C1.56002 7.80191 1.56002 7.94191 1.65002 8.03191L2.45002 8.87191L1.65002 9.71191L1.98002 10.0419Z" fill="white"/>
<path d="M12.02 3.70215L11.06 4.70215C10.97 4.79215 10.97 4.93215 11.06 5.02215L11.86 5.87215L11.06 6.71215C10.97 6.80215 10.97 6.94215 11.06 7.03215L11.86 7.87215L11.06 8.71215C10.97 8.80215 10.97 8.94215 11.06 9.03215L12.02 10.0321L12.35 9.71215L11.55 8.87215L12.35 8.03215C12.44 7.94215 12.44 7.80215 12.35 7.71215L11.55 6.87215L12.35 6.03215C12.44 5.94215 12.44 5.80215 12.35 5.71215L11.55 4.87215L12.35 4.03215L12.02 3.70215Z" fill="white"/>
<path d="M9.74002 4.94254C9.55002 4.63254 9.27002 4.39254 8.95002 4.25254C8.74002 4.16254 8.49002 4.10254 8.24002 4.10254C7.98002 4.10254 7.72002 4.16254 7.47002 4.29254C7.30002 4.39254 7.14002 4.53254 7.00002 4.69254C6.86002 4.53254 6.70002 4.38254 6.54002 4.29254C6.29002 4.16254 6.02002 4.10254 5.76002 4.10254C5.51002 4.10254 5.26002 4.16254 5.05002 4.25254C4.73002 4.39254 4.45002 4.63254 4.26002 4.94254C4.07002 5.25254 3.96002 5.63254 3.96002 6.06254C3.96002 6.42254 4.04002 6.82254 4.22002 7.23254C4.44002 7.75254 4.80002 8.25254 5.26002 8.70254C5.72002 9.14254 6.29002 9.53254 6.92002 9.80254C6.98002 9.82254 7.04002 9.82254 7.10002 9.80254C7.73002 9.53254 8.29002 9.15254 8.76002 8.70254C9.22002 8.26254 9.58002 7.75254 9.80002 7.23254C9.98002 6.82254 10.06 6.43254 10.06 6.06254C10.05 5.63254 9.94002 5.25254 9.74002 4.94254ZM9.37002 7.04254C9.18002 7.49254 8.85002 7.95254 8.43002 8.35254C8.03002 8.74254 7.54002 9.07254 7.00002 9.32254C6.46002 9.07254 5.97002 8.74254 5.57002 8.36254C5.15002 7.95254 4.83002 7.49254 4.63002 7.04254C4.48002 6.68254 4.42002 6.35254 4.42002 6.06254C4.42002 5.72254 4.51002 5.42254 4.65002 5.19254C4.79002 4.95254 5.00002 4.78254 5.23002 4.67254C5.39002 4.60254 5.57002 4.56254 5.76002 4.56254C5.95002 4.56254 6.14002 4.60254 6.31002 4.70254C6.49002 4.80254 6.65002 4.95254 6.80002 5.18254C6.85002 5.25254 6.92002 5.29254 7.00002 5.29254C7.08002 5.29254 7.15002 5.25254 7.20002 5.18254C7.34002 4.95254 7.51002 4.80254 7.69002 4.70254C7.87002 4.60254 8.06002 4.56254 8.24002 4.56254C8.42002 4.56254 8.61002 4.60254 8.77002 4.67254C9.01002 4.77254 9.21002 4.95254 9.35002 5.18254C9.50002 5.41254 9.58002 5.71254 9.58002 6.05254C9.58002 6.35254 9.52002 6.68254 9.37002 7.04254Z" fill="white"/>
</svg>
