<svg width="24" height="24" viewBox="0 0 24 24" fill="none" xmlns="http://www.w3.org/2000/svg">
<g clip-path="url(#clip0_5559_72471)">
<path d="M22.2952 7.41067L22.2951 7.41073L22.2979 7.41355C22.8538 7.96945 22.9477 8.75264 22.5725 9.67644C22.37 10.168 22.0211 10.7216 21.5234 11.2779L21.4979 11.3063V11.3445C21.4979 13.4428 20.4494 15.4012 18.5433 16.8675C16.6655 18.3052 14.1975 19.0997 11.5492 19.0997C8.90098 19.0997 6.43303 18.3052 4.55525 16.8675C2.64948 15.4015 1.60055 13.4136 1.60055 11.3149V10.8999C1.60055 10.8366 1.6447 10.7924 1.70804 10.7924H12.5867H12.6511L12.6778 10.7338C12.8221 10.4163 13.0253 10.0964 13.2604 9.77303C13.4925 9.45397 13.7837 9.13312 14.1067 8.80991C14.2814 8.66408 14.4417 8.51159 14.5889 8.37153L14.6009 8.36014C14.7537 8.21479 14.8908 8.08509 15.0195 7.98498C15.2832 7.77988 15.5758 7.57508 15.8677 7.3998C16.1325 7.25278 16.4219 7.10853 16.6793 7.02272C16.9388 6.93621 17.4825 6.82316 17.8751 6.87816C18.2723 6.96382 18.6088 7.13329 18.8891 7.41355L18.9335 7.45802L18.978 7.50248L19.0353 7.55976L19.1032 7.51561C19.689 7.13483 20.3513 6.85 20.9754 6.85C21.4831 6.85 21.9597 7.04725 22.2952 7.41067ZM18.2227 9.27708L18.2229 9.27638C18.3615 8.92214 18.3737 8.66418 18.3311 8.47673C18.2882 8.28792 18.1924 8.18293 18.1412 8.13175C18.0598 8.05034 17.9749 7.98997 17.8787 7.95058C17.7825 7.91123 17.6801 7.89497 17.5666 7.89497C17.2439 7.89497 16.8475 8.03868 16.4192 8.2904C15.9886 8.54347 15.5157 8.91168 15.0374 9.37496C14.5867 9.79575 14.2266 10.246 13.957 10.6355L13.8483 10.7924H14.0392H17.122H17.1651L17.1947 10.7611C17.7035 10.2224 18.0384 9.73759 18.2227 9.27708ZM2.8048 11.8077H2.69177L2.70555 11.9199C3.12908 15.3687 6.98584 18.0547 11.5789 18.0547C16.1711 18.0547 20.0293 15.3987 20.4227 11.919L20.4353 11.8077H20.3233H2.8048ZM21.6315 9.27709L21.6323 9.27505C21.7701 8.90745 21.7827 8.6495 21.7398 8.46512C21.6963 8.27821 21.5987 8.18036 21.5501 8.13175C21.4687 8.05034 21.3838 7.98997 21.2875 7.95058C21.1913 7.91123 21.089 7.89497 20.9754 7.89497C20.5596 7.89497 20.0052 8.11605 19.434 8.53695L19.389 8.57009L19.3937 8.62576C19.4214 8.9581 19.3393 9.29582 19.1942 9.67382C19.0461 9.97016 18.8722 10.3168 18.6418 10.6336L18.5263 10.7924H18.7226H20.5308H20.5739L20.6035 10.7611C21.1123 10.2224 21.4473 9.73759 21.6315 9.27709Z" fill="white" stroke="#313131" stroke-width="0.2"/>
</g>
<defs>
<clipPath id="clip0_5559_72471">
<rect width="24.0006" height="23.9999" fill="white" transform="translate(0.000549316)"/>
</clipPath>
</defs>
</svg>
