<svg xmlns="http://www.w3.org/2000/svg" viewBox="0 0 9.82 8.92"><defs><style>.cls-1{opacity:0.5;}.cls-2{fill:#923b69;}.cls-3{fill:#fff;}</style></defs><g id="Layer_2" data-name="Layer 2"><g id="Layer_1-2" data-name="Layer 1"><path class="cls-2" d="M2.36,9.84a1.26,1.26,0,0,1-1.17-.57A1.26,1.26,0,0,1,1.28,8L4.59,2.24A1.27,1.27,0,0,1,5.67,1.5a1.28,1.28,0,0,1,1.08.74L10.06,8a1.28,1.28,0,0,1,.09,1.3A1.26,1.26,0,0,1,9,9.84Z" transform="translate(-0.76 -1.21)"/><path class="cls-3" d="M5.67,1.79a1,1,0,0,1,.83.6L9.8,8.11c.46.79.09,1.44-.82,1.44H2.36c-.91,0-1.28-.65-.82-1.44l3.3-5.72a1,1,0,0,1,.83-.6m0-.58a1.57,1.57,0,0,0-1.33.88L1,7.82a1.6,1.6,0,0,0-.1,1.6,1.58,1.58,0,0,0,1.43.71H9a1.59,1.59,0,0,0,1.43-.71,1.6,1.6,0,0,0-.1-1.6L7,2.09a1.57,1.57,0,0,0-1.33-.88" transform="translate(-0.76 -1.21)"/></g></g></svg>
