<svg width="17" height="9" viewBox="0 0 17 9" fill="none" xmlns="http://www.w3.org/2000/svg">
<g clip-path="url(#clip0)">
<path fill-rule="evenodd" clip-rule="evenodd" d="M0.739953 4.58638C-0.130047 5.45638 -0.250047 6.81638 0.469953 7.82638C0.549953 7.93638 0.639953 8.04638 0.739953 8.13638C0.829953 8.23638 0.939953 8.31638 1.04995 8.39638C2.04995 9.11638 3.40995 9.00638 4.28995 8.13638L7.98995 4.42638C8.43995 3.98638 8.69995 3.39638 8.72995 2.76638C8.74995 2.14638 8.54995 1.53638 8.14995 1.05638C8.09995 0.996379 8.04995 0.936379 7.98995 0.876379C7.93995 0.826379 7.87995 0.77638 7.81995 0.72638C7.33995 0.32638 6.72995 0.11638 6.10995 0.14638C5.47995 0.17638 4.88995 0.436379 4.43995 0.876379L0.739953 4.58638ZM4.91197 1.34924L3.29197 2.97924L5.90197 5.57924L7.52197 3.95924C8.20197 3.27924 8.25197 2.21924 7.64197 1.47924C7.60197 1.42924 7.56197 1.38924 7.52197 1.34924C7.48197 1.30924 7.44197 1.26924 7.39197 1.23924C6.65197 0.629236 5.59197 0.679236 4.91197 1.34924ZM5.43585 6.0458L3.81585 7.6658C3.13585 8.3458 2.07585 8.3958 1.33585 7.7858C1.28585 7.7458 1.24585 7.7058 1.20585 7.6658C1.17271 7.63266 1.14644 7.59953 1.11566 7.56071C1.10928 7.55266 1.10271 7.54438 1.09585 7.5358C0.485848 6.7958 0.535848 5.7358 1.20585 5.0558L2.83585 3.4358L5.43585 6.0458Z" fill="#5D658C"/>
<g clip-path="url(#clip1)">
<path fill-rule="evenodd" clip-rule="evenodd" d="M8.77497 4.28638C8.65497 4.46638 8.51497 4.64638 8.36497 4.79638L9.60497 6.04638L7.98497 7.66638C7.30497 8.34638 6.24497 8.39638 5.50497 7.78638C5.47497 7.76638 5.45497 7.74638 5.43497 7.72638L4.96497 8.19638C5.04497 8.26638 5.12497 8.33638 5.21497 8.39638C6.21497 9.11638 7.58497 9.00638 8.45497 8.13638L12.155 4.42638C12.605 3.98638 12.865 3.39638 12.895 2.76638C12.915 2.14638 12.715 1.53638 12.325 1.05638C12.265 0.996382 12.215 0.936382 12.165 0.876382C12.105 0.826382 12.045 0.776382 11.985 0.716382C11.505 0.326382 10.895 0.116382 10.275 0.146382C9.66497 0.176382 9.08497 0.426382 8.64497 0.846382C8.78497 1.03638 8.90497 1.22638 8.99497 1.43638L9.08497 1.35638C9.75497 0.676382 10.825 0.626382 11.565 1.23638C11.605 1.27638 11.645 1.31638 11.685 1.35638C11.725 1.38638 11.765 1.43638 11.805 1.48638C12.415 2.21638 12.365 3.28638 11.685 3.95638L10.065 5.58638L8.77497 4.28638Z" fill="#D5D6D9"/>
<path opacity="0.5" fill-rule="evenodd" clip-rule="evenodd" d="M9.60701 6.03883L8.35701 4.79883L5.43701 7.71883C5.45701 7.73883 5.47701 7.75883 5.50701 7.77883C6.23701 8.38883 7.30701 8.33883 7.98701 7.66883L9.60701 6.03883Z" fill="#D5D6D9"/>
</g>
<g clip-path="url(#clip2)">
<path fill-rule="evenodd" clip-rule="evenodd" d="M16.243 0.876382C16.193 0.826382 16.133 0.776382 16.073 0.716382C15.593 0.326382 14.983 0.116382 14.363 0.146382C13.753 0.176382 13.173 0.426382 12.733 0.846382C12.873 1.03638 12.993 1.22638 13.083 1.43638L13.163 1.35638C13.843 0.676382 14.913 0.626382 15.643 1.23638C15.693 1.27638 15.733 1.31638 15.773 1.35638C15.813 1.38638 15.853 1.43638 15.893 1.48638C16.503 2.21638 16.453 3.28638 15.773 3.95638L14.153 5.58638L12.853 4.28638C12.743 4.46638 12.603 4.64638 12.453 4.79638L13.693 6.04638L12.073 7.66638C11.393 8.34638 10.323 8.39638 9.59298 7.78638C9.56298 7.76638 9.54298 7.74638 9.52298 7.72638L9.05298 8.19638C9.13298 8.26638 9.21298 8.33638 9.30298 8.39638C10.303 9.11638 11.663 9.00638 12.543 8.13638L16.243 4.42638C16.693 3.98638 16.953 3.39638 16.983 2.76638C17.003 2.14638 16.803 1.53638 16.403 1.05638C16.353 0.996382 16.303 0.936382 16.243 0.876382Z" fill="#D5D6D9"/>
<path opacity="0.5" fill-rule="evenodd" clip-rule="evenodd" d="M13.694 6.03883L12.444 4.79883L9.52405 7.71883C9.54405 7.73883 9.56405 7.75883 9.58405 7.77883C10.324 8.38883 11.394 8.33883 12.064 7.66883L13.694 6.03883Z" fill="#D5D6D9"/>
</g>
<path opacity="0.5" fill-rule="evenodd" clip-rule="evenodd" d="M3.81594 7.66555L5.43594 6.04555L2.83594 3.43555L1.20594 5.05555C0.535941 5.73555 0.485941 6.79555 1.09594 7.53555C1.13594 7.58555 1.16594 7.62555 1.20594 7.66555C1.24594 7.70555 1.28594 7.74555 1.33594 7.78555C2.07594 8.39555 3.13594 8.34555 3.81594 7.66555Z" fill="#5D658C"/>
</g>
<defs>
<clipPath id="clip0">
<rect width="16.9814" height="8.728" fill="white" transform="translate(0 0.146484)"/>
</clipPath>
<clipPath id="clip1">
<rect width="7.92939" height="8.728" fill="white" transform="translate(4.96497 0.146484)"/>
</clipPath>
<clipPath id="clip2">
<rect width="7.9284" height="8.728" fill="white" transform="translate(9.05298 0.146484)"/>
</clipPath>
</defs>
</svg>
