<svg width="18" height="19" viewBox="0 0 18 19" fill="none" xmlns="http://www.w3.org/2000/svg">
<path fill-rule="evenodd" clip-rule="evenodd" d="M6 12.512L5.957 12.4275C5.851 12.2165 5.7205 11.956 5.5 12.0065C2.798 12.6215 0 14.397 0 16.285V19H18V16.285C18 14.397 15.202 12.6215 12.5 12.0065C12.2485 11.949 11.9885 12.295 11.875 12.5115H6V12.512ZM9.8425 13.512H5.3965L5.1895 13.1185C4.1345 13.4225 3.1085 13.9055 2.326 14.4765C1.365 15.1775 1 15.8335 1 16.285V18H17V16.285C17 15.8335 16.635 15.1775 15.674 14.4765C14.864 13.8855 13.794 13.3895 12.7015 13.088L12.4785 13.512H9.8425Z" fill="white"/>
<path fill-rule="evenodd" clip-rule="evenodd" d="M5 16.5075C5.269 16.5075 5.5 16.2875 5.5 16C5.5 15.713 5.269 15.4925 5 15.4925C4.731 15.4925 4.5 15.7125 4.5 16C4.5 16.287 4.731 16.5075 5 16.5075ZM5 17.5C5.39782 17.5 5.77936 17.342 6.06066 17.0607C6.34196 16.7794 6.5 16.3978 6.5 16C6.5 15.6022 6.34196 15.2206 6.06066 14.9393C5.77936 14.658 5.39782 14.5 5 14.5C4.60218 14.5 4.22064 14.658 3.93934 14.9393C3.65804 15.2206 3.5 15.6022 3.5 16C3.5 16.3978 3.65804 16.7794 3.93934 17.0607C4.22064 17.342 4.60218 17.5 5 17.5Z" fill="white"/>
<path fill-rule="evenodd" clip-rule="evenodd" d="M12.053 14.7765C12.0945 14.6935 12.1583 14.6236 12.2372 14.5748C12.3162 14.5259 12.4072 14.5 12.5 14.5H14.5C14.5928 14.5 14.6838 14.5259 14.7628 14.5748C14.8417 14.6236 14.9055 14.6935 14.947 14.7765L15.447 15.7765C15.4818 15.8459 15.4999 15.9224 15.5 16V17C15.5 17.1326 15.4473 17.2598 15.3536 17.3536C15.2598 17.4473 15.1326 17.5 15 17.5H14V16.5H14.5V16.118L14.191 15.5H12.809L12.5 16.118V16.5H13V17.5H12C11.8674 17.5 11.7402 17.4473 11.6464 17.3536C11.5527 17.2598 11.5 17.1326 11.5 17V16C11.5001 15.9224 11.5182 15.8459 11.553 15.7765L12.053 14.7765Z" fill="white"/>
<path fill-rule="evenodd" clip-rule="evenodd" d="M14.16 14.718C14.1025 14.9145 14.02 15.14 13.9 15.3L13.1 14.7C13.0995 14.701 13.0995 14.701 13.1 14.7C13.1025 14.696 13.1145 14.676 13.132 14.6335C13.1581 14.5698 13.1806 14.5047 13.1995 14.4385C13.2465 14.277 13.2885 14.078 13.317 13.87C13.345 13.6761 13.3567 13.4803 13.352 13.2845C13.345 13.0985 13.317 13.002 13.303 12.9735L14.197 12.5265C14.308 12.7475 14.3425 13.016 14.351 13.2465C14.3581 13.5001 14.3437 13.7538 14.308 14.005C14.2735 14.255 14.222 14.504 14.1595 14.718H14.16Z" fill="white"/>
<path fill-rule="evenodd" clip-rule="evenodd" d="M4.194 14.718C4.251 14.9145 4.334 15.14 4.454 15.3L5.254 14.7C5.254 14.701 5.254 14.701 5.254 14.7C5.24166 14.6786 5.23081 14.6564 5.2215 14.6335C5.19537 14.5698 5.17283 14.5047 5.154 14.4385C5.10127 14.252 5.062 14.0621 5.0365 13.87C5.00849 13.6761 4.99678 13.4803 5.0015 13.2845C5.0085 13.0985 5.0365 13.002 5.051 12.9735L4.156 12.5265C4.046 12.7475 4.011 13.016 4.0025 13.2465C3.99539 13.5001 4.00977 13.7538 4.0455 14.005C4.08 14.255 4.1315 14.504 4.194 14.718Z" fill="white"/>
<path fill-rule="evenodd" clip-rule="evenodd" d="M5.31099 2.72197L5.32449 2.66247L5.35199 2.54297C5.40449 2.31997 5.49049 1.99197 5.66799 1.66897C5.84899 1.33997 6.12949 1.00647 6.56949 0.786966C7.00799 0.568466 7.55749 0.486966 8.23699 0.576966C8.98699 0.676966 10.4935 0.924966 11.8245 1.60197C13.163 2.28297 14.417 3.45447 14.417 5.40547C14.417 6.41347 14.027 7.49497 13.649 8.19997C13.4675 8.53897 13.252 8.86297 13.036 9.03747C12.9613 9.09982 12.8757 9.14779 12.7835 9.17897C12.7055 9.20494 12.6229 9.21414 12.5412 9.20595C12.4594 9.19776 12.3803 9.17238 12.309 9.13147C12.1786 9.05333 12.0823 8.92916 12.039 8.78347C12.0117 8.69148 11.9986 8.59589 12 8.49997C12 7.67197 11.885 7.09397 11.778 6.73497C11.7571 6.66472 11.7339 6.59519 11.7085 6.52647C11.3211 6.53739 10.9337 6.50908 10.552 6.44197C9.69349 6.29697 8.53099 5.93547 7.16199 5.09697C7.13199 5.16397 7.10199 5.23947 7.07199 5.32347C6.97399 5.60097 6.89349 5.93047 6.82399 6.27847C6.76249 6.58497 6.71199 6.89347 6.66399 7.18247L6.64549 7.29647C6.59399 7.60647 6.54249 7.91097 6.48249 8.13147C6.34249 8.64297 6.19849 8.95647 6.05799 9.15297C5.99486 9.24516 5.91619 9.32569 5.82549 9.39097C5.76601 9.43217 5.70012 9.46325 5.63049 9.48297C5.61481 9.48697 5.59896 9.4903 5.58299 9.49297L5.57549 9.49397L5.57149 9.49497H5.56999C5.56899 9.49497 5.56799 9.49497 5.49999 8.99997L5.56799 9.49497L5.29149 9.53347L5.11399 9.31797L5.49999 8.99997L5.11399 9.31797L5.11349 9.31697L5.11249 9.31597L5.10999 9.31247L5.10149 9.30247C5.0587 9.24921 5.01752 9.19468 4.97799 9.13897C4.87003 8.98922 4.76827 8.83509 4.67299 8.67697C4.43799 8.28797 4.15449 7.73397 3.97299 7.08747C3.79199 6.44097 3.70899 5.68297 3.89899 4.90097C4.08399 4.13997 4.52049 3.39097 5.31099 2.72197ZM5.46449 8.05047C5.27599 7.72247 5.06999 7.29547 4.93649 6.81797C4.78699 6.28497 4.73199 5.70797 4.87099 5.13747C5.00599 4.58247 5.33249 3.99897 6.00399 3.44597C6.12499 3.36397 6.17999 3.25397 6.19499 3.22447V3.22397C6.22125 3.16991 6.24234 3.11349 6.25799 3.05547C6.27399 2.99847 6.29149 2.92047 6.30799 2.85047L6.32549 2.77197C6.37299 2.57047 6.43449 2.35097 6.54449 2.15047C6.65149 1.95647 6.79799 1.79047 7.01599 1.68197C7.23499 1.57247 7.57399 1.49747 8.10499 1.56847C8.83149 1.66497 10.198 1.89647 11.371 2.49347C12.536 3.08597 13.417 3.98297 13.417 5.40547C13.417 6.06047 13.197 6.80547 12.932 7.39297C12.882 7.00997 12.81 6.69697 12.736 6.44897C12.6844 6.27172 12.6201 6.09843 12.5435 5.93047C12.5146 5.86822 12.4829 5.80732 12.4485 5.74797L12.44 5.73447L12.437 5.72947L12.4355 5.72697L12.435 5.72597C12.4345 5.72547 12.4345 5.72497 12.014 5.99597L12.434 5.72497L12.2495 5.43847L11.9185 5.50497L11.9115 5.50647L11.863 5.51297C11.7886 5.52126 11.7138 5.52626 11.639 5.52797C11.3307 5.53392 11.0226 5.50981 10.719 5.45597C9.91249 5.31997 8.72749 4.94947 7.28799 3.99097L6.93799 3.75747L6.64849 4.06247C6.40999 4.31347 6.24799 4.65597 6.12949 4.98947C6.00849 5.33197 5.91699 5.71447 5.84349 6.08147C5.77849 6.40647 5.72449 6.73297 5.67749 7.02147L5.65849 7.13347C5.60499 7.45897 5.56149 7.70747 5.51749 7.86847C5.49949 7.93447 5.48199 7.99547 5.46449 8.05047ZM13.0005 8.51697V8.51547V8.51697ZM12.407 8.26047C12.4045 8.26247 12.404 8.26247 12.407 8.26047V8.26047Z" fill="white"/>
<path fill-rule="evenodd" clip-rule="evenodd" d="M6.04499 8.52295L5.49999 9.24995L5.27899 9.47095C5.5927 10.2638 6.15143 10.9356 6.87374 11.3886C7.59605 11.8416 8.44418 12.0521 9.29447 11.9893C10.1448 11.9265 10.9528 11.5938 11.6007 11.0396C12.2487 10.4854 12.7026 9.73873 12.8965 8.90845L12.5 8.74995L11.9465 8.56545C11.8136 9.25362 11.444 9.87356 10.9019 10.3178C10.3597 10.7619 9.67919 11.0024 8.97832 10.9973C8.27746 10.9923 7.60047 10.7421 7.06477 10.2901C6.52908 9.83816 6.16847 9.21296 6.04549 8.52295H6.04499Z" fill="white"/>
</svg>
