<svg width="26" height="25" viewBox="0 0 26 25" fill="none" xmlns="http://www.w3.org/2000/svg">
<g clip-path="url(#clip0)">
<path fill-rule="evenodd" clip-rule="evenodd" d="M12.8828 0.203125C6.19282 0.203125 0.762817 5.63312 0.762817 12.3231C0.762817 19.0231 6.19282 24.4431 12.8828 24.4431C19.5828 24.4431 25.0028 19.0231 25.0028 12.3231C25.0028 5.63312 19.5828 0.203125 12.8828 0.203125Z" fill="#FACA79"/>
<path fill-rule="evenodd" clip-rule="evenodd" d="M12.889 1.81934C7.07903 1.81934 2.37903 6.51934 2.37903 12.3293C2.37903 18.1293 7.07903 22.8293 12.889 22.8293C18.689 22.8293 23.389 18.1293 23.389 12.3293C23.389 6.51934 18.689 1.81934 12.889 1.81934Z" fill="#FACA79"/>
<path fill-rule="evenodd" clip-rule="evenodd" d="M8.86763 8.41699C8.08763 8.41699 7.44763 9.05699 7.44763 9.83699C7.44763 10.627 8.08763 11.267 8.86763 11.267C9.65763 11.267 10.2976 10.627 10.2976 9.83699C10.2976 9.05699 9.65763 8.41699 8.86763 8.41699Z" fill="#3D3D3D"/>
<path fill-rule="evenodd" clip-rule="evenodd" d="M16.894 8.41699C16.114 8.41699 15.474 9.05699 15.474 9.83699C15.474 10.627 16.114 11.267 16.894 11.267C17.684 11.267 18.324 10.627 18.324 9.83699C18.324 9.05699 17.684 8.41699 16.894 8.41699Z" fill="#3D3D3D"/>
<path fill-rule="evenodd" clip-rule="evenodd" d="M17.2998 14.3203H8.46981C8.17981 14.3203 7.94981 14.5803 7.97981 14.8703C8.24981 17.3303 10.3498 19.2503 12.8798 19.2503C15.4198 19.2503 17.5098 17.3303 17.7898 14.8703C17.8198 14.5803 17.5898 14.3203 17.2998 14.3203Z" fill="#3D3D3D"/>
</g>
<defs>
<clipPath id="clip0">
<rect width="24.2424" height="24.2424" fill="white" transform="translate(0.762817 0.203125)"/>
</clipPath>
</defs>
</svg>
