<svg width="12" height="15" viewBox="0 0 12 15" fill="none" xmlns="http://www.w3.org/2000/svg">
<path d="M10 5.33342H11.3333C11.5101 5.33342 11.6797 5.40365 11.8047 5.52868C11.9298 5.6537 12 5.82327 12 6.00008V14.0001C12 14.1769 11.9298 14.3465 11.8047 14.4715C11.6797 14.5965 11.5101 14.6667 11.3333 14.6667H0.666667C0.489856 14.6667 0.320286 14.5965 0.195262 14.4715C0.0702379 14.3465 0 14.1769 0 14.0001V6.00008C0 5.82327 0.0702379 5.6537 0.195262 5.52868C0.320286 5.40365 0.489856 5.33342 0.666667 5.33342H2V4.66675C2 3.60588 2.42143 2.58847 3.17157 1.83832C3.92172 1.08818 4.93913 0.666748 6 0.666748C7.06087 0.666748 8.07828 1.08818 8.82843 1.83832C9.57857 2.58847 10 3.60588 10 4.66675V5.33342ZM1.33333 6.66675V13.3334H10.6667V6.66675H1.33333ZM5.33333 9.33342H6.66667V10.6667H5.33333V9.33342ZM2.66667 9.33342H4V10.6667H2.66667V9.33342ZM8 9.33342H9.33333V10.6667H8V9.33342ZM8.66667 5.33342V4.66675C8.66667 3.9595 8.38572 3.28123 7.88562 2.78113C7.38552 2.28103 6.70724 2.00008 6 2.00008C5.29276 2.00008 4.61448 2.28103 4.11438 2.78113C3.61428 3.28123 3.33333 3.9595 3.33333 4.66675V5.33342H8.66667Z" fill="#1551A0"/>
</svg>
