<svg width="25" height="24" viewBox="0 0 25 24" fill="none" xmlns="http://www.w3.org/2000/svg">
<g clip-path="url(#clip0_5559_72448)">
<path fill-rule="evenodd" clip-rule="evenodd" d="M9.10467 7.93081V2.68084C9.10467 2.57584 9.02217 2.48584 8.91717 2.48584H5.55719C5.45219 2.48584 5.36219 2.57584 5.36219 2.68084V7.93081C4.1097 8.6133 3.3222 9.9183 3.3222 11.3658V21.2807C3.3222 21.3857 3.4047 21.4682 3.5172 21.4682H10.9572C11.0622 21.4682 11.1447 21.3857 11.1447 21.2807V11.3658C11.1447 9.9183 10.3572 8.6133 9.10467 7.93081ZM9.99421 17.9994H4.47425V20.3169H9.99421V17.9994ZM6.33423 8.7466C6.44673 8.7016 6.51423 8.5966 6.51423 8.4841V6.29412H7.95423V8.4841C7.95423 8.5966 8.02173 8.7016 8.12672 8.7466L8.30672 8.8216C9.33422 9.2566 9.99421 10.2541 9.99421 11.3641V12.2341H4.47425V11.3641C4.47425 10.2541 5.13424 9.2566 6.16174 8.8216L6.33423 8.7466ZM6.51488 3.63571V5.1432H7.95487V3.63571H6.51488ZM4.47425 16.85V13.385H9.99421V16.85H4.47425Z" fill="white"/>
<path fill-rule="evenodd" clip-rule="evenodd" d="M20.0852 21.469H14.1303C14.0253 21.469 13.9428 21.379 13.9428 21.274V20.509C13.9428 20.404 14.0253 20.3215 14.1303 20.3215H16.5303V17.944C14.8353 17.6665 13.5378 16.1966 13.5378 14.4266V11.4416C13.5378 11.3291 13.6203 11.2466 13.7328 11.2466H20.4902C20.5952 11.2466 20.6777 11.3291 20.6777 11.4416V14.4266C20.6777 16.1966 19.3802 17.6665 17.6853 17.944V20.3215H20.0852C20.1902 20.3215 20.2802 20.404 20.2802 20.509V21.274C20.2802 21.379 20.1902 21.469 20.0852 21.469ZM17.1121 16.8439C15.7771 16.8439 14.6896 15.7565 14.6896 14.429V12.3965H19.5271V14.429C19.5271 15.7565 18.4471 16.8439 17.1121 16.8439Z" fill="white"/>
<path d="M9.00467 7.93081V7.9902L9.05682 8.01862C10.2774 8.68374 11.0447 9.9552 11.0447 11.3658V21.2807C11.0447 21.3305 11.0069 21.3682 10.9572 21.3682H3.5172C3.45733 21.3682 3.4222 21.3279 3.4222 21.2807V11.3658C3.4222 9.9552 4.18943 8.68374 5.41004 8.01862L5.46219 7.9902V7.93081V2.68084C5.46219 2.63107 5.50742 2.58584 5.55719 2.58584H8.91717C8.96192 2.58584 9.00467 2.6259 9.00467 2.68084V7.93081ZM10.0942 17.9994V17.8994H9.99421H4.47425H4.37425V17.9994V20.3169V20.4169H4.47425H9.99421H10.0942V20.3169V17.9994ZM6.2971 8.65376L6.29708 8.65371L6.29436 8.6549L6.12275 8.72952C6.1226 8.72958 6.12246 8.72964 6.12231 8.7297C5.05814 9.18043 4.37425 10.214 4.37425 11.3641V12.2341V12.3341H4.47425H9.99421H10.0942V12.2341V11.3641C10.0942 10.2139 9.41013 9.18015 8.34571 8.72951L8.34519 8.7293L8.16612 8.65469C8.16598 8.65463 8.16585 8.65457 8.16572 8.65452C8.09836 8.62546 8.05423 8.55717 8.05423 8.4841V6.29412V6.19412H7.95423H6.51423H6.41423V6.29412V8.4841C6.41423 8.55611 6.37126 8.62409 6.2971 8.65376ZM6.51488 3.53571H6.41488V3.63571V5.1432V5.2432H6.51488H7.95487H8.05487V5.1432V3.63571V3.53571H7.95487H6.51488ZM4.37425 16.85V16.95H4.47425H9.99421H10.0942V16.85V13.385V13.285H9.99421H4.47425H4.37425V13.385V16.85ZM16.5303 20.4215H16.6303V20.3215V17.944V17.8591L16.5464 17.8454C14.8987 17.5756 13.6378 16.1465 13.6378 14.4266V11.4416C13.6378 11.3843 13.6755 11.3466 13.7328 11.3466H20.4902C20.5374 11.3466 20.5777 11.3817 20.5777 11.4416V14.4266C20.5777 16.1465 19.3168 17.5756 17.6691 17.8454L17.5853 17.8591V17.944V20.3215V20.4215H17.6853H20.0852C20.1402 20.4215 20.1802 20.4643 20.1802 20.509V21.274C20.1802 21.3238 20.135 21.369 20.0852 21.369H14.1303C14.0855 21.369 14.0428 21.329 14.0428 21.274V20.509C14.0428 20.4593 14.0805 20.4215 14.1303 20.4215H16.5303ZM14.6896 12.2965H14.5896V12.3965V14.429C14.5896 15.8119 15.7221 16.9439 17.1121 16.9439C18.5025 16.9439 19.6271 15.8115 19.6271 14.429V12.3965V12.2965H19.5271H14.6896Z" stroke="black" stroke-opacity="0.8" stroke-width="0.2"/>
<path fill-rule="evenodd" clip-rule="evenodd" d="M1.99948 23L22.9995 2L22.4995 1.5L1.49948 22.5L1.99948 23Z" fill="#313131"/>
<path fill-rule="evenodd" clip-rule="evenodd" d="M1.49945 22.5L22.4995 1.5L21.9995 1L0.999451 22L1.49945 22.5Z" fill="white"/>
</g>
<defs>
<clipPath id="clip0_5559_72448">
<rect width="24.0006" height="23.9999" fill="white" transform="translate(0.00164795)"/>
</clipPath>
</defs>
</svg>
