<svg width="14" height="12" viewBox="0 0 14 12" fill="none" xmlns="http://www.w3.org/2000/svg">
<path d="M13.5 0.370117H0.5C0.223437 0.370117 0 0.593555 0 0.870117V10.8701C0 11.1467 0.223437 11.3701 0.5 11.3701H13.5C13.7766 11.3701 14 11.1467 14 10.8701V0.870117C14 0.593555 13.7766 0.370117 13.5 0.370117ZM12.875 2.10137V10.2451H1.125V2.10137L0.69375 1.76543L1.30781 0.976367L1.97656 1.49668H12.025L12.6938 0.976367L13.3078 1.76543L12.875 2.10137ZM12.025 1.49512L7 5.40137L1.975 1.49512L1.30625 0.974805L0.692188 1.76387L1.12344 2.0998L6.46094 6.2498C6.61444 6.36906 6.80328 6.43379 6.99766 6.43379C7.19203 6.43379 7.38088 6.36906 7.53438 6.2498L12.875 2.10137L13.3062 1.76543L12.6922 0.976367L12.025 1.49512Z" fill="#FF7474" fill-opacity="0.85"/>
</svg>
