<svg width="16" height="17" viewBox="0 0 16 17" fill="none" xmlns="http://www.w3.org/2000/svg">
<path d="M7.86945 0.870117C6.3124 0.871215 4.79061 1.33387 3.49643 2.19961C2.20224 3.06534 1.19374 4.29531 0.59839 5.73405C0.00303826 7.17279 -0.152445 8.75573 0.15159 10.2828C0.455626 11.8099 1.20553 13.2126 2.30654 14.3136C3.40754 15.4146 4.81022 16.1645 6.33731 16.4685C7.86439 16.7726 9.44733 16.6171 10.8861 16.0217C12.3248 15.4264 13.5548 14.4179 14.4205 13.1237C15.2862 11.8295 15.7489 10.3077 15.75 8.75067C15.75 6.66061 14.9197 4.65617 13.4418 3.17828C11.964 1.70039 9.9595 0.870117 7.86945 0.870117ZM7.86945 15.7433C6.48433 15.7433 5.13032 15.3325 3.97868 14.5629C2.82703 13.7933 1.9295 12.6994 1.39958 11.4197C0.869673 10.1399 0.731193 8.73177 1.00166 7.37331C1.27213 6.01485 1.93939 4.76712 2.91905 3.78792C3.89871 2.80872 5.14677 2.14205 6.50536 1.87223C7.86394 1.60241 9.27204 1.74156 10.5515 2.27208C11.831 2.8026 12.9245 3.70066 13.6935 4.85267C14.4626 6.00468 14.8727 7.35888 14.872 8.74401C14.8706 10.6008 14.1323 12.381 12.8194 13.694C11.5065 15.0069 9.7262 15.7451 7.86945 15.7466V15.7433Z" fill="black" fill-opacity="0.85"/>
<path d="M7.35223 10.0148H8.40001L8.68526 5.15332H7.05588L7.35223 10.0148Z" fill="black" fill-opacity="0.85"/>
<path d="M8.38888 11.0234H7.3522V12.3354H8.38888V11.0234Z" fill="black" fill-opacity="0.85"/>
</svg>
