<svg width="24" height="25" viewBox="0 0 24 25" fill="none" xmlns="http://www.w3.org/2000/svg">
<path d="M7.39 12.8697C7.39 15.4097 9.46 17.4797 12 17.4797C14.54 17.4797 16.61 15.4097 16.61 12.8697C16.61 10.3297 14.54 8.25969 12 8.25969C9.46 8.25969 7.39 10.3297 7.39 12.8697ZM8.54 12.8697C8.54 10.9597 10.09 9.40969 12 9.40969C13.91 9.40969 15.46 10.9597 15.46 12.8697C15.46 14.7797 13.91 16.3297 12 16.3297C10.09 16.3297 8.54 14.7797 8.54 12.8697ZM12.38 3.67969C12.49 3.67969 12.57 3.76969 12.57 3.86969V6.88969C12.57 6.99969 12.48 7.07969 12.38 7.07969H11.61C11.5 7.07969 11.42 6.98969 11.42 6.88969V3.86969C11.42 3.75969 11.51 3.67969 11.61 3.67969H12.38ZM5.77 6.09969C5.84 6.02969 5.97 6.02969 6.04 6.09969L8.18 8.23969C8.25 8.30969 8.25 8.43969 8.18 8.50969L7.64 9.04969C7.56 9.12969 7.44 9.12969 7.37 9.04969L5.23 6.90969C5.16 6.82969 5.16 6.70969 5.23 6.63969L5.77 6.09969ZM2.81 12.4697C2.81 12.3797 2.91 12.2797 3 12.2797H6.02C6.13 12.2797 6.21 12.3697 6.21 12.4697V13.2697C6.21 13.3597 6.11 13.4597 6.02 13.4597H3C2.89 13.4597 2.81 13.3697 2.81 13.2697V12.4697ZM7.37 16.6897C7.44 16.6197 7.57 16.6197 7.64 16.6897L8.18 17.2297C8.25 17.2997 8.25 17.4297 8.18 17.4997L6.04 19.6397C5.97 19.7097 5.84 19.7097 5.77 19.6397L5.23 19.0997C5.16 19.0197 5.16 18.8997 5.23 18.8297L7.37 16.6897ZM11.42 18.8497C11.42 18.7397 11.51 18.6597 11.61 18.6597H12.38C12.46 18.5897 12.57 18.7497 12.57 18.8497V21.8697C12.57 21.9797 12.48 22.0597 12.38 22.0597H11.61C11.54 22.1397 11.42 21.9697 11.42 21.8697V18.8497ZM16.36 16.6897C16.44 16.6197 16.56 16.6197 16.63 16.6897L18.77 18.8297C18.84 18.8997 18.84 19.0297 18.77 19.0997L18.23 19.6397C18.16 19.7097 18.03 19.7097 17.96 19.6397L15.82 17.4997C15.75 17.4297 15.75 17.2997 15.82 17.2297L16.36 16.6897ZM17.78 12.4897C17.78 12.3797 17.87 12.2997 17.97 12.2997H20.99C21.1 12.2997 21.18 12.3897 21.18 12.4897V13.2597C21.18 13.3697 21.09 13.4497 20.99 13.4497H17.97C17.86 13.4497 17.78 13.3597 17.78 13.2597V12.4897ZM17.95 6.09969C18.02 6.02969 18.15 6.02969 18.22 6.09969L18.76 6.63969C18.83 6.70969 18.83 6.83969 18.76 6.90969L16.62 9.04969C16.55 9.11969 16.42 9.11969 16.35 9.04969L15.81 8.50969C15.74 8.42969 15.74 8.30969 15.81 8.23969L17.95 6.09969Z" fill="black" fill-opacity="0.85"/>
</svg>
