<svg width="21" height="21" viewBox="0 0 21 21" fill="none" xmlns="http://www.w3.org/2000/svg">
<g clip-path="url(#clip0)">
<g clip-path="url(#clip1)">
<path fill-rule="evenodd" clip-rule="evenodd" d="M0.682739 2.23528C0.682739 1.13075 1.57814 0.235352 2.68267 0.235352H18.6831C19.7876 0.235352 20.683 1.13078 20.683 2.23535V18.235C20.683 19.3396 19.7876 20.235 18.683 20.235H2.68282C1.57821 20.235 0.682739 19.3396 0.682739 18.2349V2.23528Z" fill="#8089AA"/>
<path fill-rule="evenodd" clip-rule="evenodd" d="M8.8765 16.5038C10.1665 15.9738 11.5365 15.0338 12.6165 13.9338C13.8965 12.6338 14.7665 11.1838 15.1265 9.72376C15.8565 6.77376 14.4065 4.93376 12.9265 4.25376C11.6565 3.66376 9.9165 3.74376 8.6565 5.09376C7.3865 3.74376 5.6565 3.66376 4.3865 4.25376C2.9165 4.93376 1.4465 6.77376 2.1765 9.72376C2.5465 11.1838 3.4065 12.6338 4.6865 13.9338C5.7765 15.0338 7.1365 15.9738 8.4365 16.5038L8.4765 16.5238C8.5865 16.5738 8.7165 16.5738 8.8365 16.5238L8.8765 16.5038ZM15.6184 4.1068L15.5684 4.8968C15.5584 4.9968 15.6384 5.0968 15.7484 5.1068C15.9984 5.1468 16.2484 5.2168 16.4884 5.3268C17.5584 5.8168 18.5984 7.1868 18.0384 9.4368C17.3884 12.0468 14.8884 14.3468 12.6784 15.3368C12.5684 15.3768 12.5184 15.4968 12.5584 15.5968L12.8684 16.3268C12.9084 16.4368 13.0184 16.4768 13.1184 16.4368C14.3484 15.8968 15.6284 14.9868 16.6784 13.9368C17.9584 12.6368 18.8284 11.1868 19.1884 9.7168C19.9184 6.7768 18.4584 4.9268 16.9884 4.2568C16.6084 4.0768 16.2284 3.9768 15.8184 3.9268C15.7184 3.9168 15.6284 3.9968 15.6184 4.1068ZM14.1349 8.23735C14.1349 8.59735 14.0949 9.00735 13.9849 9.43735C13.3349 12.0373 10.8549 14.3173 8.65493 15.3173C6.45493 14.3173 3.96493 12.0373 3.33493 9.43735C3.22493 9.00735 3.17493 8.59735 3.17493 8.23735C3.17493 6.68735 4.02493 5.71735 4.87493 5.32735C5.79493 4.90735 7.20493 4.91735 8.16493 6.36735L8.55493 6.94735C8.59493 7.02735 8.71493 7.02735 8.76493 6.94735L9.14493 6.36735C10.1049 4.91735 11.5149 4.90735 12.4349 5.32735C13.2849 5.71735 14.1349 6.68735 14.1349 8.23735Z" fill="white"/>
</g>
</g>
<defs>
<clipPath id="clip0">
<rect width="20.0003" height="19.9997" fill="white" transform="translate(0.682739 0.235352)"/>
</clipPath>
<clipPath id="clip1">
<rect width="20.0003" height="19.9997" fill="white" transform="translate(0.682739 0.235352)"/>
</clipPath>
</defs>
</svg>
