<svg width="32" height="32" viewBox="0 0 32 32" fill="none" xmlns="http://www.w3.org/2000/svg">
<path d="M2.66666 11.992C2.66596 10.9416 2.87246 9.9014 3.27435 8.93093C3.67623 7.96045 4.26561 7.07879 5.00872 6.33642C5.75184 5.59405 6.63409 5.00555 7.60497 4.60464C8.57584 4.20372 9.61627 3.99826 10.6667 4.00001H21.3333C25.7507 4.00001 29.3333 7.59335 29.3333 11.992V28H10.6667C6.24933 28 2.66666 24.4067 2.66666 20.008L2.66666 11.992ZM26.6667 25.3333V11.992C26.6631 10.5793 26.0998 9.22566 25.1002 8.2275C24.1005 7.22934 22.746 6.66808 21.3333 6.66668L10.6667 6.66668C9.96646 6.66492 9.2728 6.80141 8.62546 7.06831C7.97811 7.33522 7.38983 7.72728 6.89434 8.22203C6.39885 8.71678 6.0059 9.30447 5.73802 9.95141C5.47015 10.5984 5.33262 11.2918 5.33333 11.992L5.33333 20.008C5.33685 21.4207 5.90014 22.7744 6.8998 23.7725C7.89946 24.7707 9.25399 25.3319 10.6667 25.3333H26.6667ZM18.6667 14.6667H21.3333V17.3333H18.6667V14.6667ZM10.6667 14.6667H13.3333V17.3333H10.6667V14.6667Z" fill="white"/>
<path d="M2.66666 11.992C2.66596 10.9416 2.87246 9.9014 3.27435 8.93093C3.67623 7.96045 4.26561 7.07879 5.00872 6.33642C5.75184 5.59405 6.63409 5.00555 7.60497 4.60464C8.57584 4.20372 9.61627 3.99826 10.6667 4.00001H21.3333C25.7507 4.00001 29.3333 7.59335 29.3333 11.992V28H10.6667C6.24933 28 2.66666 24.4067 2.66666 20.008L2.66666 11.992ZM26.6667 25.3333V11.992C26.6631 10.5793 26.0998 9.22566 25.1002 8.2275C24.1005 7.22934 22.746 6.66808 21.3333 6.66668L10.6667 6.66668C9.96646 6.66492 9.2728 6.80141 8.62546 7.06831C7.97811 7.33522 7.38983 7.72728 6.89434 8.22203C6.39885 8.71678 6.0059 9.30447 5.73802 9.95141C5.47015 10.5984 5.33262 11.2918 5.33333 11.992L5.33333 20.008C5.33685 21.4207 5.90014 22.7744 6.8998 23.7725C7.89946 24.7707 9.25399 25.3319 10.6667 25.3333H26.6667ZM18.6667 14.6667H21.3333V17.3333H18.6667V14.6667ZM10.6667 14.6667H13.3333V17.3333H10.6667V14.6667Z" fill="url(#paint0_linear_6004_82276)"/>
<defs>
<linearGradient id="paint0_linear_6004_82276" x1="16" y1="4" x2="16" y2="28" gradientUnits="userSpaceOnUse">
<stop stop-color="white"/>
<stop offset="1" stop-color="white" stop-opacity="0"/>
</linearGradient>
</defs>
</svg>
