<svg width="32" height="32" viewBox="0 0 32 32" fill="none" xmlns="http://www.w3.org/2000/svg">
<path d="M12.5226 30.5249H11.089L10.477 28.7419H6.97516L6.36318 30.5249H4.93146L8.18401 21.6475H9.26819L12.5226 30.5249ZM7.36048 27.5954H10.0917L8.72043 23.6553L7.36048 27.5954Z" fill="black"/>
<path d="M12.5774 21.6494H13.9732L16.0188 28.1186L18.055 21.6494H19.4508L16.5213 30.5269H15.4881L12.5774 21.6494Z" fill="black"/>
<path d="M27.144 24.3101H25.7992C25.5744 23.3374 24.9265 22.7764 23.9292 22.7764C23.6837 22.7694 23.4394 22.8135 23.2118 22.9058C22.9842 22.9981 22.7783 23.1367 22.6071 23.3128C22.1708 23.7869 22.0839 24.3233 22.0839 26.08C22.0839 27.8366 22.1708 28.373 22.6071 28.8471C22.7783 29.0232 22.9842 29.1618 23.2118 29.2541C23.4394 29.3465 23.6837 29.3905 23.9292 29.3835C24.2032 29.3931 24.4758 29.3422 24.7278 29.2344C24.9799 29.1267 25.2051 28.9648 25.3874 28.7602C25.7104 28.3824 25.8237 27.9367 25.8237 27.3644V26.8657H23.9349V25.7192H27.1761V27.0773C27.1761 28.237 26.9627 28.9472 26.3772 29.5818C26.0638 29.9123 25.6844 30.1731 25.2636 30.3472C24.8429 30.5213 24.3901 30.6048 23.9349 30.5923C23.5124 30.6075 23.0913 30.5363 22.6974 30.383C22.3034 30.2297 21.9449 29.9976 21.6438 29.7008C20.7844 28.8282 20.7466 27.9423 20.7466 26.0856C20.7466 24.2289 20.7844 23.3431 21.6438 22.4704C21.9448 22.1722 22.3038 21.9387 22.6984 21.7844C23.0931 21.6301 23.5152 21.5583 23.9387 21.5732C25.7992 21.5732 26.9079 22.7991 27.144 24.3101Z" fill="black"/>
<path d="M13.3008 1.99954L11.8668 2.38379L12.9515 6.43227L14.3856 6.04802L13.3008 1.99954Z" fill="black"/>
<path d="M18.8009 2.00054L17.7155 6.04883L19.1512 6.43381L20.2367 2.38552L18.8009 2.00054Z" fill="black"/>
<path d="M24.9947 5.13396L22.031 8.09766L23.0821 9.14877L26.0458 6.18508L24.9947 5.13396Z" fill="black"/>
<path d="M28.7945 10.9435L24.746 12.0283L25.1303 13.4623L29.1788 12.3776L28.7945 10.9435Z" fill="black"/>
<path d="M7.10696 5.1315L6.05585 6.18262L9.01954 9.14631L10.0707 8.0952L7.10696 5.1315Z" fill="black"/>
<path d="M3.30643 10.9459L2.92218 12.3799L6.97249 13.4652L7.35673 12.0311L3.30643 10.9459Z" fill="black"/>
<path d="M23.2606 17.1045C23.5852 15.9859 23.6451 14.8071 23.4356 13.6614C23.2261 12.5157 22.7529 11.4344 22.0534 10.5031C21.3539 9.57176 20.4474 8.81595 19.4054 8.29542C18.3635 7.77489 17.2147 7.50391 16.05 7.50391C14.8853 7.50391 13.7365 7.77489 12.6946 8.29542C11.6526 8.81595 10.7461 9.57176 10.0466 10.5031C9.34712 11.4344 8.87392 12.5157 8.6644 13.6614C8.45489 14.8071 8.51481 15.9859 8.83942 17.1045H2V18.591H30.1V17.1045H23.2606ZM10.0388 15.0268C10.0247 14.2272 10.1699 13.4328 10.4661 12.6899C10.7623 11.947 11.2035 11.2706 11.764 10.7001C12.3245 10.1296 12.993 9.67652 13.7305 9.3672C14.468 9.05789 15.2597 8.89858 16.0594 8.89858C16.8592 8.89858 17.6509 9.05789 18.3884 9.3672C19.1259 9.67652 19.7944 10.1296 20.3549 10.7001C20.9153 11.2706 21.3566 11.947 21.6528 12.6899C21.949 13.4328 22.0942 14.2272 22.0801 15.0268C22.0789 15.7363 21.9509 16.4399 21.7023 17.1045H10.4034C10.1553 16.4379 10.0287 15.7323 10.0294 15.0211L10.0388 15.0268Z" fill="black"/>
</svg>
