<svg width="25" height="24" viewBox="0 0 25 24" fill="none" xmlns="http://www.w3.org/2000/svg">
<g clip-path="url(#clip0_5559_72475)">
<path d="M12.3656 3.75C8.5112 3.75 5.2797 5.98942 4.65098 9.67978C4.97901 9.5431 5.6173 9.51762 6 9.51762C6.6834 6.56533 9.1946 4.8981 12.3656 4.8981C16.0559 4.8981 19.0356 7.90506 19.0356 11.5681C19.0356 15.2584 16.0286 18.2381 12.3656 18.2381C10.1514 18.2381 8.6258 17.6281 7.39568 15.9606C7.04031 16.1519 6.53815 16.3032 6.10183 16.3828C7.49597 18.515 9.63198 19.3862 12.3656 19.3862C16.6847 19.3862 20.1837 15.8872 20.1837 11.5681C20.1837 7.249 16.6847 3.75 12.3656 3.75Z" fill="white"/>
<path d="M13.7047 12.1419C13.5954 12.1419 13.5134 12.0599 13.5134 11.9506V11.1852C13.5134 11.0758 13.5954 10.9938 13.7047 10.9938H16.8757C16.985 10.9938 17.067 11.0758 17.067 11.1852V11.9506C17.067 12.0599 16.985 12.1419 16.8757 12.1419H13.7047Z" fill="white"/>
<path d="M10.5067 9.51762H5.69555C3.80937 9.51762 2.25122 11.0484 2.25122 12.9619C2.25122 14.8481 3.78203 16.4063 5.69555 16.4063C7.36305 16.4063 8.75718 15.2308 9.05788 13.6453H10.534C11.6548 13.6453 12.5842 12.7159 12.5842 11.5951C12.5842 10.447 11.6548 9.51762 10.5067 9.51762ZM5.58621 15.2308C4.27408 15.1762 3.26265 14.0281 3.42667 12.6613C3.56335 11.5131 4.60211 10.6657 5.75022 10.6657H10.4793C10.9714 10.6657 11.4088 11.0211 11.4361 11.5131C11.4634 12.0325 11.0534 12.4699 10.534 12.4699H8.15579C8.04645 12.4699 7.96444 12.5792 7.96444 12.6886C8.01911 13.1806 7.9371 13.7 7.52706 14.2467C7.03502 14.8481 6.35162 15.2582 5.58621 15.2308Z" fill="white"/>
<path d="M2.35122 12.9619C2.35122 11.5211 3.26118 10.3036 4.524 9.82967L4.52192 9.84189L4.68532 9.7738C4.80682 9.73519 4.93124 9.70335 5.05812 9.67872C5.1393 9.66585 5.22567 9.65538 5.31439 9.647C5.55859 9.62394 5.81047 9.61762 6 9.61762H6.0795H10.5067C11.5996 9.61762 12.4842 10.5023 12.4842 11.5951C12.4842 12.6607 11.5996 13.5453 10.534 13.5453H9.05788H8.97506L8.95963 13.6267C8.77611 14.5943 8.1727 15.4049 7.34715 15.8731C7.00496 16.0571 6.51596 16.2053 6.08714 16.2838C5.95869 16.2986 5.82801 16.3063 5.69555 16.3063C3.83778 16.3063 2.35122 14.7934 2.35122 12.9619ZM5.02331 9.48173C4.93778 9.49539 4.85534 9.51196 4.77951 9.53212C5.46513 5.99748 8.60708 3.85 12.3656 3.85C16.6294 3.85 20.0837 7.30423 20.0837 11.5681C20.0837 15.8319 16.6294 19.2862 12.3656 19.2862C9.71297 19.2862 7.64551 18.4605 6.27369 16.4597C6.66341 16.3962 7.03185 16.2695 7.36764 16.0902C7.97839 16.898 8.66428 17.4574 9.47097 17.816C10.2997 18.1844 11.2497 18.3381 12.3656 18.3381C16.0836 18.3381 19.1356 15.3139 19.1356 11.5681C19.1356 7.8501 16.1114 4.7981 12.3656 4.7981C9.18548 4.7981 6.64269 6.45955 5.92099 9.41762H5.69555C5.46605 9.41762 5.24128 9.43964 5.02331 9.48173ZM5.58205 15.3308L5.58264 15.3308C6.38813 15.3595 7.099 14.9278 7.60446 14.3101L7.60453 14.3101L7.60706 14.3067C8.03239 13.7396 8.12023 13.1962 8.06453 12.6839C8.06566 12.6547 8.07735 12.6245 8.09593 12.6023C8.11506 12.5793 8.13647 12.5699 8.15579 12.5699H10.534C11.1115 12.5699 11.5663 12.0837 11.536 11.5079L11.536 11.5076C11.5052 10.9544 11.0159 10.5657 10.4793 10.5657H5.75022C4.55584 10.5657 3.47054 11.4468 3.32737 12.6494C3.15643 14.0743 4.21197 15.2737 5.58205 15.3308ZM13.7047 12.0419C13.6506 12.0419 13.6134 12.0047 13.6134 11.9506V11.1852C13.6134 11.131 13.6506 11.0938 13.7047 11.0938H16.8757C16.9298 11.0938 16.967 11.131 16.967 11.1852V11.9506C16.967 12.0047 16.9298 12.0419 16.8757 12.0419H13.7047Z" stroke="black" stroke-opacity="0.8" stroke-width="0.2"/>
</g>
<defs>
<clipPath id="clip0_5559_72475">
<rect width="24.0006" height="23.9999" fill="white" transform="translate(0.00109863)"/>
</clipPath>
</defs>
</svg>
