<svg width="12" height="14" viewBox="0 0 12 14" fill="none" xmlns="http://www.w3.org/2000/svg">
<path d="M11.4141 10.9312C11.1193 10.2331 10.6916 9.59891 10.1547 9.06406C9.61942 8.52767 8.98535 8.10001 8.28749 7.80469C8.28124 7.80156 8.27499 7.8 8.26874 7.79688C9.24218 7.09375 9.87499 5.94844 9.87499 4.65625C9.87499 2.51562 8.14062 0.78125 5.99999 0.78125C3.85937 0.78125 2.12499 2.51562 2.12499 4.65625C2.12499 5.94844 2.75781 7.09375 3.73124 7.79844C3.72499 7.80156 3.71874 7.80312 3.71249 7.80625C3.01249 8.10156 2.38437 8.525 1.84531 9.06563C1.30891 9.60089 0.88125 10.235 0.585931 10.9328C0.295809 11.616 0.13934 12.3485 0.124993 13.0906C0.124576 13.1073 0.127501 13.1239 0.133596 13.1394C0.139691 13.1549 0.148832 13.1691 0.160481 13.181C0.172131 13.193 0.186052 13.2025 0.201425 13.2089C0.216798 13.2154 0.233312 13.2188 0.249993 13.2188H1.18749C1.25624 13.2188 1.31093 13.1641 1.31249 13.0969C1.34374 11.8906 1.82812 10.7609 2.68437 9.90469C3.57031 9.01875 4.74687 8.53125 5.99999 8.53125C7.25312 8.53125 8.42968 9.01875 9.31562 9.90469C10.1719 10.7609 10.6562 11.8906 10.6875 13.0969C10.6891 13.1656 10.7437 13.2188 10.8125 13.2188H11.75C11.7667 13.2188 11.7832 13.2154 11.7986 13.2089C11.8139 13.2025 11.8279 13.193 11.8395 13.181C11.8512 13.1691 11.8603 13.1549 11.8664 13.1394C11.8725 13.1239 11.8754 13.1073 11.875 13.0906C11.8594 12.3438 11.7047 11.6172 11.4141 10.9312ZM5.99999 7.34375C5.28281 7.34375 4.60781 7.06406 4.09999 6.55625C3.59218 6.04844 3.31249 5.37344 3.31249 4.65625C3.31249 3.93906 3.59218 3.26406 4.09999 2.75625C4.60781 2.24844 5.28281 1.96875 5.99999 1.96875C6.71718 1.96875 7.39218 2.24844 7.89999 2.75625C8.40781 3.26406 8.68749 3.93906 8.68749 4.65625C8.68749 5.37344 8.40781 6.04844 7.89999 6.55625C7.39218 7.06406 6.71718 7.34375 5.99999 7.34375Z" fill="#1551A0"/>
</svg>
