<svg width="26" height="25" viewBox="0 0 26 25" fill="none" xmlns="http://www.w3.org/2000/svg">
<g clip-path="url(#clip0)">
<path fill-rule="evenodd" clip-rule="evenodd" d="M12.8828 0.203125C6.19282 0.203125 0.762817 5.63312 0.762817 12.3231C0.762817 19.0231 6.19282 24.4431 12.8828 24.4431C19.5828 24.4431 25.0028 19.0231 25.0028 12.3231C25.0028 5.63312 19.5828 0.203125 12.8828 0.203125Z" fill="#FACA79"/>
<path fill-rule="evenodd" clip-rule="evenodd" d="M12.889 1.81934C7.07903 1.81934 2.37903 6.51934 2.37903 12.3293C2.37903 18.1293 7.07903 22.8293 12.889 22.8293C18.689 22.8293 23.389 18.1293 23.389 12.3293C23.389 6.51934 18.689 1.81934 12.889 1.81934Z" fill="#FACA79"/>
<path fill-rule="evenodd" clip-rule="evenodd" d="M8.86763 8.41699C8.08763 8.41699 7.44763 9.05699 7.44763 9.83699C7.44763 10.627 8.08763 11.267 8.86763 11.267C9.65763 11.267 10.2976 10.627 10.2976 9.83699C10.2976 9.05699 9.65763 8.41699 8.86763 8.41699Z" fill="#3D3D3D"/>
<path fill-rule="evenodd" clip-rule="evenodd" d="M16.894 8.41699C16.114 8.41699 15.474 9.05699 15.474 9.83699C15.474 10.627 16.114 11.267 16.894 11.267C17.684 11.267 18.324 10.627 18.324 9.83699C18.324 9.05699 17.684 8.41699 16.894 8.41699Z" fill="#3D3D3D"/>
<path fill-rule="evenodd" clip-rule="evenodd" d="M18.5979 16.0232C18.778 15.7932 18.6979 15.4832 18.4679 15.3232C18.0379 15.0432 17.4879 15.0632 17.0779 15.3532C15.8679 16.2132 14.408 16.6932 12.878 16.6932C11.358 16.6932 9.89795 16.2132 8.68795 15.3632C8.27795 15.0632 7.71795 15.0432 7.29795 15.3232C7.06795 15.4832 6.98795 15.7932 7.16795 16.0232C8.53795 17.7732 10.628 18.8132 12.878 18.8132C15.128 18.8132 17.228 17.7732 18.5979 16.0232Z" fill="#3D3D3D"/>
</g>
<defs>
<clipPath id="clip0">
<rect width="24.2424" height="24.2424" fill="white" transform="translate(0.762817 0.203125)"/>
</clipPath>
</defs>
</svg>
