<svg width="25" height="24" viewBox="0 0 25 24" fill="none" xmlns="http://www.w3.org/2000/svg">
<g clip-path="url(#clip0_5559_72437)">
<g clip-path="url(#clip1_5559_72437)">
<path fill-rule="evenodd" clip-rule="evenodd" d="M16.839 21.6068C16.9657 21.6068 17.1039 21.5492 17.1846 21.4455C17.2768 21.3533 17.3228 21.2151 17.3113 21.0768L16.4127 10.5356L15.5257 11.4227L16.309 20.639H7.79546L7.9337 19.0031L6.88535 20.063L6.79318 21.0768C6.78166 21.2151 6.82774 21.3533 6.91991 21.4455C7.01207 21.5492 7.13879 21.6068 7.27704 21.6068H16.839Z" fill="white"/>
<path fill-rule="evenodd" clip-rule="evenodd" d="M7.11982 17.3544L1.2905 23.1722L1.9702 23.8519L22.1424 3.6797L21.4627 3L16.2094 8.25331L16.1864 7.93073L16.1848 7.90531C16.1712 7.68597 16.1204 6.86706 15.668 5.99531C15.4145 5.51145 15.0113 5.00455 14.4238 4.62438C13.8247 4.2442 13.0413 4.00228 12.0506 4.00228C11.0713 4.00228 10.2764 4.2442 9.68887 4.62438C9.23958 4.91239 8.90549 5.26952 8.65204 5.62665C8.28338 6.17963 8.11058 6.75565 8.01841 7.19343C7.93777 7.5736 7.92625 7.85009 7.92625 7.93073L7.11982 17.3544ZM12.7613 5.53107C12.7613 5.34674 12.8305 5.18546 12.9457 5.04721C12.6807 5.00113 12.3927 4.96657 12.0586 4.96657C11.7245 4.96657 11.425 5.00113 11.1715 5.05873C11.2752 5.18546 11.3558 5.34674 11.3558 5.53107C11.3558 5.93428 11.0218 6.26838 10.6185 6.26838C10.2614 6.26838 9.96187 6.00341 9.89275 5.66931C9.6393 5.8882 9.44346 6.14165 9.30521 6.40662C9.09784 6.78679 8.99416 7.19001 8.93656 7.47802H15.1691C15.1691 7.46767 15.1668 7.45498 15.1642 7.44102L15.1642 7.44101C15.1611 7.42391 15.1576 7.40488 15.1576 7.38586C15.0769 7.02872 14.9387 6.57943 14.6622 6.16469C14.5355 5.99189 14.3857 5.81908 14.2129 5.66931C14.1438 6.00341 13.8558 6.26838 13.4871 6.26838C13.0839 6.26838 12.7613 5.93428 12.7613 5.53107ZM15.2647 8.44069L15.3223 9.14344L8.16816 16.2976L8.84786 8.44069H15.2647Z" fill="white"/>
</g>
</g>
<defs>
<clipPath id="clip0_5559_72437">
<rect width="24.0006" height="23.9999" fill="white" transform="translate(0.00109863)"/>
</clipPath>
<clipPath id="clip1_5559_72437">
<rect width="24" height="23.9998" fill="white" transform="translate(-0.000549316 -0.00195312)"/>
</clipPath>
</defs>
</svg>
