<svg width="14" height="12" viewBox="0 0 14 12" fill="none" xmlns="http://www.w3.org/2000/svg">
<g clip-path="url(#clip0)">
<path fill-rule="evenodd" clip-rule="evenodd" d="M3.91401 6.60855C3.97155 6.55031 3.97155 6.45501 3.91401 6.39677L2.0832 4.54368C2.02566 4.48544 1.9315 4.48544 1.87396 4.54368L0.0431548 6.39677C-0.0143849 6.45501 -0.0143849 6.55031 0.0431548 6.60855L0.461625 7.02681C0.513934 7.08505 0.60809 7.08505 0.66563 7.02681L1.50257 6.17969C1.65427 8.44045 3.13984 10.4524 5.33158 11.1989C7.85286 12.0619 10.6252 11.0189 11.98 8.72106C12.0219 8.65224 11.9957 8.56223 11.9225 8.51987L11.4151 8.22867C11.3419 8.19161 11.2529 8.21808 11.2111 8.28691C10.0655 10.2088 7.73255 11.0771 5.61405 10.3571C3.75708 9.72173 2.5069 8.02219 2.38136 6.10557L3.29153 7.02681C3.34907 7.08505 3.438 7.08505 3.49554 7.02681L3.91401 6.60855Z" fill="black" fill-opacity="0.85"/>
<path fill-rule="evenodd" clip-rule="evenodd" d="M13.9568 5.60323C14.0144 5.54499 14.0144 5.44969 13.9568 5.39145L13.5384 4.97319C13.4808 4.91495 13.3919 4.91495 13.3344 4.97319L12.4975 5.82031C12.3405 3.55955 10.8602 1.54762 8.6685 0.801095C6.14726 -0.0619135 3.37493 0.981109 2.02015 3.27894C1.97831 3.35306 2.00446 3.43777 2.07246 3.48013L2.58508 3.77133C2.65831 3.80839 2.74723 3.78721 2.78908 3.71309C3.93463 1.79117 6.26756 0.917575 8.38604 1.64293C10.243 2.27827 11.4931 3.97781 11.6187 5.89443L10.7085 4.97319C10.651 4.91495 10.5568 4.91495 10.5045 4.97319L10.0861 5.39145C10.0285 5.44969 10.0285 5.54499 10.0861 5.60323L11.9168 7.45632C11.9744 7.51456 12.0685 7.51456 12.1261 7.45632L13.9568 5.60323Z" fill="black" fill-opacity="0.85"/>
</g>
<defs>
<clipPath id="clip0">
<rect width="14" height="11" fill="white" transform="translate(0 0.5)"/>
</clipPath>
</defs>
</svg>
