<svg width="26" height="26" viewBox="0 0 26 26" fill="none" xmlns="http://www.w3.org/2000/svg">
<path fill-rule="evenodd" clip-rule="evenodd" d="M0.0109863 19.1879C0.0109863 19.7679 0.230986 20.3579 0.680986 20.8079C1.13099 21.2479 1.72099 21.4779 2.30099 21.4779C2.89099 21.4779 3.48099 21.2579 3.92099 20.8079L8.16099 16.5679V25.8679H9.41099V15.0579C9.41099 14.8079 9.26099 14.5779 9.02099 14.4879C8.79099 14.3879 8.52099 14.4379 8.34099 14.6179L3.04099 19.9279C2.83099 20.1279 2.57099 20.2279 2.30099 20.2279C2.03099 20.2279 1.77099 20.1279 1.56099 19.9179C1.36099 19.7179 1.26099 19.4579 1.26099 19.1879C1.26099 18.9179 1.36099 18.6479 1.56099 18.4479L7.84099 12.1779V12.1679C8.76099 11.2079 9.82099 10.5179 10.731 10.1979C11.131 10.0679 11.451 9.84793 11.691 9.57793C11.931 9.30793 12.081 8.96793 12.081 8.58793C12.091 8.26793 11.941 7.91793 11.691 7.68793C11.331 7.34793 11.001 6.87793 10.771 6.33793C10.531 5.79793 10.391 5.19793 10.391 4.57793C10.391 3.54793 10.681 2.74793 11.131 2.20793C11.361 1.93793 11.621 1.73793 11.931 1.59793C12.241 1.45793 12.591 1.37793 13.001 1.37793C13.401 1.37793 13.761 1.45793 14.061 1.59793C14.531 1.80793 14.901 2.15793 15.171 2.65793C15.441 3.15793 15.611 3.80793 15.611 4.57793C15.611 5.19793 15.471 5.79793 15.231 6.33793C15.001 6.87793 14.671 7.34793 14.311 7.68793H14.301C14.051 7.91793 13.911 8.26793 13.911 8.58793C13.921 8.96793 14.071 9.30793 14.311 9.57793C14.551 9.84793 14.871 10.0679 15.261 10.1979C16.181 10.5179 17.231 11.2079 18.151 12.1679L18.161 12.1779L24.431 18.4479C24.641 18.6479 24.741 18.9179 24.741 19.1879C24.741 19.4579 24.641 19.7179 24.441 19.9179C24.231 20.1279 23.971 20.2279 23.701 20.2279C23.431 20.2279 23.161 20.1279 22.961 19.9279L17.661 14.6179C17.481 14.4379 17.211 14.3879 16.981 14.4879C16.741 14.5779 16.591 14.8079 16.591 15.0579V25.8679H17.841V16.5679L22.081 20.8079C22.521 21.2579 23.111 21.4779 23.701 21.4779C24.281 21.4779 24.871 21.2479 25.321 20.8079C25.761 20.3579 25.991 19.7679 25.991 19.1879C25.991 18.6079 25.771 18.0279 25.341 17.5879H25.331L25.311 17.5579L19.041 11.2879C18.001 10.2079 16.821 9.42793 15.681 9.02793C15.471 8.94793 15.321 8.84793 15.251 8.75793C15.171 8.66793 15.161 8.60793 15.161 8.59793L15.171 8.58793C15.661 8.11793 16.071 7.51793 16.371 6.83793C16.671 6.15793 16.851 5.38793 16.851 4.57793C16.851 3.31793 16.501 2.21793 15.821 1.40793C15.481 1.00793 15.061 0.67793 14.581 0.45793C14.101 0.23793 13.571 0.12793 13.001 0.12793C12.431 0.12793 11.891 0.23793 11.411 0.45793C10.691 0.78793 10.111 1.35793 9.73099 2.06793C9.34099 2.77793 9.14099 3.63793 9.14099 4.57793C9.14099 5.38793 9.32099 6.15793 9.62099 6.83793C9.92099 7.51793 10.341 8.11793 10.831 8.58793L10.841 8.59793C10.841 8.60793 10.831 8.66793 10.751 8.75793C10.671 8.84793 10.531 8.94793 10.321 9.02793C9.18099 9.42793 8.00099 10.2079 6.95099 11.2879L0.680986 17.5679L0.660986 17.5879C0.230986 18.0379 0.0109863 18.6079 0.0109863 19.1879Z" fill="black" fill-opacity="0.85"/>
</svg>
