<svg width="33" height="32" viewBox="0 0 33 32" fill="none" xmlns="http://www.w3.org/2000/svg">
<path fill-rule="evenodd" clip-rule="evenodd" d="M7.05764 7.05746C7.30769 6.80749 7.64678 6.66706 8.00035 6.66706C8.35392 6.66706 8.69301 6.80749 8.94306 7.05746L16.0007 14.1151L23.0584 7.05746C23.1814 6.93011 23.3285 6.82853 23.4912 6.75865C23.6539 6.68876 23.8289 6.65198 24.0059 6.65044C24.183 6.6489 24.3585 6.68264 24.5224 6.74968C24.6863 6.81673 24.8352 6.91574 24.9604 7.04093C25.0856 7.16613 25.1846 7.31501 25.2516 7.47888C25.3187 7.64275 25.3524 7.81833 25.3509 7.99537C25.3493 8.17242 25.3125 8.34739 25.2426 8.51007C25.1728 8.67275 25.0712 8.81988 24.9438 8.94289L17.8862 16.0006L24.9438 23.0582C25.1867 23.3097 25.3211 23.6465 25.3181 23.9961C25.315 24.3458 25.1748 24.6802 24.9276 24.9274C24.6804 25.1746 24.3459 25.3149 23.9963 25.3179C23.6467 25.3209 23.3099 25.1865 23.0584 24.9437L16.0007 17.886L8.94306 24.9437C8.69158 25.1865 8.35476 25.3209 8.00515 25.3179C7.65554 25.3149 7.3211 25.1746 7.07388 24.9274C6.82666 24.6802 6.68642 24.3458 6.68339 23.9961C6.68035 23.6465 6.81475 23.3097 7.05764 23.0582L14.1153 16.0006L7.05764 8.94289C6.80766 8.69284 6.66724 8.35374 6.66724 8.00017C6.66724 7.6466 6.80766 7.30751 7.05764 7.05746Z" fill="white"/>
</svg>
