<svg width="25" height="24" viewBox="0 0 25 24" fill="none" xmlns="http://www.w3.org/2000/svg">
<g clip-path="url(#clip0_5559_72519)">
<path d="M19.4325 20C19.3678 20.0002 19.3037 19.9873 19.2441 19.9621L15.6996 18.4517C14.6513 18.69 13.5791 18.8077 12.504 18.8024C9.83829 18.8024 7.53244 18.1608 5.83488 16.9474C3.98188 15.619 3.00275 13.7078 3.00275 11.4104C3.00275 9.11296 3.98188 7.19438 5.83488 5.86481C7.53367 4.64279 9.84074 4 12.504 4C15.1672 4 17.4743 4.64523 19.1718 5.86603C21.0236 7.1956 22.0027 9.11296 22.0027 11.4104C22.0027 13.5868 21.1215 15.4211 19.4497 16.7347L19.9001 19.4415C19.9114 19.5103 19.9077 19.5807 19.889 19.6479C19.8704 19.7151 19.8373 19.7774 19.7922 19.8306C19.747 19.8837 19.6907 19.9264 19.6274 19.9556C19.564 19.9849 19.495 20 19.4252 20H19.4325ZM15.7486 17.4667C15.8134 17.4669 15.8775 17.4802 15.937 17.5058L18.8145 18.7279L18.4595 16.6015C18.4458 16.5134 18.4564 16.4233 18.4903 16.3408C18.5241 16.2583 18.5799 16.1866 18.6517 16.1335C20.2195 14.997 21.0481 13.3619 21.0481 11.4055C21.0481 7.48766 17.6958 4.95563 12.5101 4.95563C7.32438 4.95563 3.96597 7.49255 3.96597 11.4104C3.96597 15.3282 7.31581 17.8419 12.504 17.8419C13.5558 17.8472 14.6045 17.7262 15.6274 17.4814C15.665 17.4716 15.7036 17.4667 15.7424 17.4667H15.7486Z" fill="white"/>
</g>
<defs>
<clipPath id="clip0_5559_72519">
<rect width="24.0006" height="23.9999" fill="white" transform="translate(0.00274658)"/>
</clipPath>
</defs>
</svg>
