<svg width="24" height="25" viewBox="0 0 24 25" fill="none" xmlns="http://www.w3.org/2000/svg">
<path d="M2.20999 17.8301C2.20999 17.9401 2.29999 18.0201 2.39999 18.0201H21.6C21.69 18.0201 21.79 17.9201 21.79 17.8301V17.0601C21.79 16.9501 21.7 16.8701 21.6 16.8701H2.39999C2.26999 16.8701 2.20999 16.9301 2.20999 17.0601V17.8301Z" fill="black" fill-opacity="0.85"/>
<path d="M7.39999 15.8705C7.39999 16.4805 7.51999 17.0705 7.74999 17.6305C7.78999 17.7305 7.89999 17.7705 7.99999 17.7205L8.69999 17.4005C8.79999 17.3605 8.83999 17.2405 8.79999 17.1505C8.63999 16.7405 8.54999 16.3105 8.54999 15.8705C8.54999 13.9705 10.1 12.4205 12 12.4205C13.9 12.4205 15.45 13.9705 15.45 15.8705C15.45 16.3105 15.37 16.7405 15.21 17.1505C15.17 17.2505 15.21 17.3605 15.31 17.4005L16.01 17.7205C16.11 17.7605 16.22 17.7305 16.26 17.6305C16.49 17.0705 16.61 16.4805 16.61 15.8705C16.61 13.3305 14.55 11.2705 12.01 11.2705C9.45999 11.2705 7.39999 13.3305 7.39999 15.8705Z" fill="black" fill-opacity="0.85"/>
<path d="M9.12 6.60032C9.02 6.63032 8.96 6.73032 8.98 6.83032L9.82 9.95032C9.85 10.0503 9.95 10.1103 10.06 10.0903L10.8 9.89032C10.9 9.86032 10.96 9.76032 10.94 9.65032L10.1 6.54032C10.07 6.44032 9.97 6.38032 9.86 6.40032L9.12 6.60032Z" fill="black" fill-opacity="0.85"/>
<path d="M4.87 9.27969C4.8 9.35969 4.8 9.47969 4.87 9.54969L7.15001 11.8297C7.22001 11.8997 7.35001 11.8997 7.42001 11.8297L7.96001 11.2897C8.03 11.2197 8.03 11.0897 7.96001 11.0197L5.68 8.73969C5.61 8.65969 5.48 8.65969 5.41 8.73969L4.87 9.27969Z" fill="black" fill-opacity="0.85"/>
<path d="M2.53 13.7302C2.5 13.8302 2.56 13.9402 2.67 13.9702L5.79 14.8102C5.89 14.8402 6.00001 14.7802 6.03 14.6702L6.23 13.9302C6.26 13.8302 6.2 13.7202 6.09 13.7002L2.97 12.8602C2.87 12.8302 2.76 12.8902 2.73 13.0002L2.53 13.7302Z" fill="black" fill-opacity="0.85"/>
<path d="M17.92 13.6905C17.82 13.7205 17.76 13.8205 17.78 13.9305L17.98 14.6705C18.01 14.7705 18.11 14.8305 18.22 14.8105L21.34 13.9705C21.44 13.9405 21.5 13.8405 21.48 13.7305L21.28 12.9905C21.25 12.8905 21.15 12.8305 21.04 12.8505L17.92 13.6905Z" fill="black" fill-opacity="0.85"/>
<path d="M16.03 11.0197C15.96 11.0897 15.96 11.2197 16.03 11.2897L16.57 11.8297C16.64 11.8997 16.77 11.8997 16.84 11.8297L19.12 9.54969C19.19 9.46969 19.19 9.34969 19.12 9.27969L18.58 8.73969C18.51 8.65969 18.38 8.65969 18.31 8.73969L16.03 11.0197Z" fill="black" fill-opacity="0.85"/>
<path d="M13.07 9.66027C13.04 9.76027 13.1 9.87027 13.21 9.90027L13.95 10.1003C14.05 10.1303 14.16 10.0703 14.19 9.96027L15.03 6.84027C15.06 6.74027 15 6.63027 14.89 6.60027L14.15 6.40027C14.05 6.37027 13.94 6.43027 13.91 6.54027L13.07 9.66027Z" fill="black" fill-opacity="0.85"/>
</svg>
