<svg width="33" height="33" viewBox="0 0 33 33" fill="none" xmlns="http://www.w3.org/2000/svg">
<mask id="mask0" style="mask-type:alpha" maskUnits="userSpaceOnUse" x="0" y="0" width="33" height="33">
<path fill-rule="evenodd" clip-rule="evenodd" d="M0.360229 0.383789H32.3612V32.3221H0.360229V0.383789Z" fill="white"/>
</mask>
<g mask="url(#mask0)">
</g>
<g clip-path="url(#clip0)">
<path fill-rule="evenodd" clip-rule="evenodd" d="M18.604 19.1773L20.214 21.8973H23.074H23.084C23.664 21.8973 24.204 22.1273 24.624 22.5373C25.034 22.9473 25.254 23.4873 25.254 24.0773C25.264 24.6573 25.034 25.1973 24.624 25.6073C24.214 26.0273 23.664 26.2473 23.084 26.2473L19.454 26.2573C18.394 26.2573 17.394 25.6873 16.854 24.7773L16.704 24.5173L14.904 29.5973C14.584 30.4873 13.744 31.0473 12.844 31.0473C12.604 31.0473 12.364 31.0073 12.124 30.9173C11.574 30.7273 11.134 30.3273 10.874 29.8073C10.624 29.2773 10.594 28.6873 10.794 28.1373L13.594 20.2673V16.8573L11.524 16.8473C10.384 16.8473 9.45398 15.9273 9.45398 14.7873C9.45398 14.2373 9.67398 13.7173 10.064 13.3273C10.454 12.9373 10.974 12.7173 11.524 12.7173H13.594V11.2573C13.594 10.2773 13.864 9.69727 14.044 9.31727L14.054 9.29727C13.154 8.59727 12.624 7.53727 12.624 6.37727C12.624 5.39727 13.014 4.47727 13.704 3.77727C14.404 3.07727 15.334 2.69727 16.314 2.69727C17.304 2.69727 18.234 3.07727 18.924 3.77727C19.624 4.47727 20.014 5.39727 20.014 6.38727C20.014 7.43727 19.564 8.42727 18.794 9.11727L22.444 12.7673C22.834 13.1573 23.054 13.6773 23.054 14.2273C23.054 14.7773 22.834 15.2973 22.444 15.6873L20.084 18.0373C19.734 18.3873 19.284 18.5973 18.794 18.6373L18.604 19.1773ZM23.7241 24.0693C23.7241 24.2493 23.6541 24.4093 23.5341 24.5293C23.4141 24.6493 23.2541 24.7193 23.0741 24.7193H19.4541C18.9341 24.7193 18.4441 24.4393 18.1841 23.9993L17.3741 22.6393L17.9341 21.0593L19.2141 23.2093C19.2941 23.3493 19.4441 23.4293 19.5941 23.4293H23.0741C23.2541 23.4293 23.4141 23.4993 23.5341 23.6193C23.6541 23.7393 23.7241 23.8993 23.7241 24.0693ZM15.0425 20.7705L12.2425 28.6505C12.1825 28.8105 12.1925 28.9905 12.2625 29.1405C12.3425 29.3005 12.4725 29.4205 12.6325 29.4705C12.9625 29.5905 13.3325 29.4205 13.4525 29.0805L17.3225 18.1905C17.2925 18.1655 17.265 18.1405 17.2375 18.1155C17.21 18.0905 17.1825 18.0655 17.1525 18.0405C16.7625 17.6405 16.5425 17.1305 16.5525 16.5705C16.5525 16.0205 16.7625 15.5005 17.1525 15.1105L18.0525 14.2205L16.9225 13.0905C16.8225 12.9905 16.8225 12.8305 16.9225 12.7305L17.6425 12.0105C17.7425 11.9105 17.9025 11.9105 18.0025 12.0105L20.0425 14.0405C20.1425 14.1405 20.1425 14.3005 20.0425 14.4005L18.2425 16.2005C18.1425 16.3005 18.0825 16.4305 18.0825 16.5705C18.0825 16.7205 18.1425 16.8505 18.2425 16.9505C18.3425 17.0505 18.4725 17.1105 18.6225 17.1105C18.7625 17.1105 18.8925 17.0505 18.9925 16.9505L21.3625 14.6005C21.4625 14.5005 21.5125 14.3705 21.5125 14.2205C21.5125 14.1705 21.5025 14.1205 21.4925 14.0705C21.4485 13.9206 21.3345 13.8174 21.2191 13.7129C21.2035 13.6988 21.188 13.6847 21.1725 13.6705C20.5754 13.0651 18.6441 11.1392 17.8995 10.3967L17.8994 10.3966L17.6125 10.1105C17.2325 9.73047 17.1325 9.62047 17.0825 9.54047C16.9925 9.39047 16.9525 9.22047 16.9625 9.05047C16.9825 8.71047 17.1725 8.39047 17.4725 8.20047C18.1025 7.80047 18.4725 7.12047 18.4725 6.38047C18.4725 5.81047 18.2525 5.27047 17.8425 4.86047C17.4325 4.45047 16.8925 4.23047 16.3225 4.23047H16.3125C15.7425 4.23047 15.2025 4.45047 14.7925 4.86047C14.3825 5.27047 14.1625 5.81047 14.1625 6.38047C14.1625 7.12047 14.5325 7.80047 15.1625 8.20047C15.4825 8.40047 15.6725 8.75047 15.6725 9.12047C15.6725 9.45692 15.5452 9.73461 15.436 9.97293L15.4325 9.98047L15.4177 10.0122C15.2808 10.3047 15.1225 10.6429 15.1225 11.2605V20.2705C15.1225 20.4405 15.1025 20.6105 15.0425 20.7705ZM13.5901 15.3202H11.5201C11.2301 15.3202 10.9901 15.0802 10.9901 14.7802C10.9901 14.6402 11.0501 14.5102 11.1501 14.4102C11.2501 14.3102 11.3801 14.2502 11.5201 14.2502H13.5901V15.3202Z" fill="#5D658C"/>
</g>
<defs>
<clipPath id="clip0">
<rect width="15.8049" height="28.3472" fill="white" transform="translate(9.45398 2.69727)"/>
</clipPath>
</defs>
</svg>
