<svg width="25" height="24" viewBox="0 0 25 24" fill="none" xmlns="http://www.w3.org/2000/svg">
<g clip-path="url(#clip0_5559_72499)">
<g clip-path="url(#clip1_5559_72499)">
<g clip-path="url(#clip2_5559_72499)">
<mask id="path-1-inside-1_5559_72499" fill="white">
<path fill-rule="evenodd" clip-rule="evenodd" d="M19.5267 18.7912V15.3862C19.5267 15.2812 19.4367 15.1987 19.3317 15.1987H4.0693C3.9568 15.1987 3.8743 15.2812 3.8743 15.3862V18.7912C3.8743 18.8962 3.9568 18.9862 4.0693 18.9862H19.3317C19.4367 18.9862 19.5267 18.8962 19.5267 18.7912ZM18.3714 16.3486H14.6964V17.8336H18.3714V16.3486ZM13.5463 17.8336H5.02634V16.3486H13.5463V17.8336Z"/>
</mask>
<path fill-rule="evenodd" clip-rule="evenodd" d="M19.5267 18.7912V15.3862C19.5267 15.2812 19.4367 15.1987 19.3317 15.1987H4.0693C3.9568 15.1987 3.8743 15.2812 3.8743 15.3862V18.7912C3.8743 18.8962 3.9568 18.9862 4.0693 18.9862H19.3317C19.4367 18.9862 19.5267 18.8962 19.5267 18.7912ZM18.3714 16.3486H14.6964V17.8336H18.3714V16.3486ZM13.5463 17.8336H5.02634V16.3486H13.5463V17.8336Z" fill="white"/>
<path d="M14.6964 16.3486V16.1486H14.4964V16.3486H14.6964ZM18.3714 16.3486H18.5714V16.1486H18.3714V16.3486ZM14.6964 17.8336H14.4964V18.0336H14.6964V17.8336ZM18.3714 17.8336V18.0336H18.5714V17.8336H18.3714ZM5.02634 17.8336H4.82634V18.0336H5.02634V17.8336ZM13.5463 17.8336V18.0336H13.7463V17.8336H13.5463ZM5.02634 16.3486V16.1486H4.82634V16.3486H5.02634ZM13.5463 16.3486H13.7463V16.1486H13.5463V16.3486ZM19.3267 15.3862V18.7912H19.7267V15.3862H19.3267ZM19.3317 15.3987C19.3317 15.3987 19.3317 15.3987 19.3316 15.3987C19.3316 15.3987 19.3316 15.3987 19.3316 15.3987C19.3315 15.3987 19.3315 15.3987 19.3315 15.3987C19.3314 15.3986 19.3313 15.3985 19.331 15.3983C19.3306 15.3979 19.3295 15.3967 19.3285 15.3944C19.3274 15.3919 19.3267 15.3889 19.3267 15.3862H19.7267C19.7267 15.1607 19.5368 14.9987 19.3317 14.9987V15.3987ZM4.0693 15.3987H19.3317V14.9987H4.0693V15.3987ZM4.0743 15.3862C4.0743 15.3862 4.0743 15.3867 4.07413 15.3875C4.07397 15.3883 4.07369 15.3893 4.07322 15.3904C4.07225 15.3927 4.07079 15.3948 4.06908 15.3965C4.06737 15.3981 4.06591 15.3989 4.06533 15.3991C4.06469 15.3993 4.06578 15.3987 4.0693 15.3987V14.9987C3.85154 14.9987 3.6743 15.1656 3.6743 15.3862H4.0743ZM4.0743 18.7912V15.3862H3.6743V18.7912H4.0743ZM4.0693 18.7862C4.06816 18.7862 4.06868 18.786 4.07004 18.7866C4.07125 18.7871 4.07223 18.7879 4.0729 18.7886C4.07353 18.7892 4.07387 18.7898 4.07406 18.7902C4.07416 18.7905 4.07422 18.7907 4.07426 18.7909C4.0743 18.7911 4.0743 18.7912 4.0743 18.7912H3.6743C3.6743 19.0016 3.84135 19.1862 4.0693 19.1862V18.7862ZM19.3317 18.7862H4.0693V19.1862H19.3317V18.7862ZM19.3267 18.7912C19.3267 18.7858 19.3288 18.785 19.3272 18.7867C19.3255 18.7883 19.3263 18.7862 19.3317 18.7862V19.1862C19.5472 19.1862 19.7267 19.0067 19.7267 18.7912H19.3267ZM14.6964 16.5486H18.3714V16.1486H14.6964V16.5486ZM14.8964 17.8336V16.3486H14.4964V17.8336H14.8964ZM18.3714 17.6336H14.6964V18.0336H18.3714V17.6336ZM18.1714 16.3486V17.8336H18.5714V16.3486H18.1714ZM5.02634 18.0336H13.5463V17.6336H5.02634V18.0336ZM4.82634 16.3486V17.8336H5.22634V16.3486H4.82634ZM13.5463 16.1486H5.02634V16.5486H13.5463V16.1486ZM13.7463 17.8336V16.3486H13.3463V17.8336H13.7463Z" fill="black" fill-opacity="0.8" mask="url(#path-1-inside-1_5559_72499)"/>
</g>
<g clip-path="url(#clip3_5559_72499)">
<path fill-rule="evenodd" clip-rule="evenodd" d="M9.26611 9.48519H11.7486C12.3636 9.48519 12.8586 9.98019 12.8586 10.5877C12.8586 11.2027 12.3636 11.6977 11.7486 11.6977H6.13113C4.95364 11.6977 3.97864 12.6127 3.88114 13.7677C3.87364 13.8727 3.96364 13.9552 4.06864 13.9552H4.83364C4.93864 13.9552 5.02114 13.8652 5.04364 13.7602C5.13364 13.2427 5.59113 12.8452 6.13113 12.8452H11.7486C13.0011 12.8452 14.0136 11.8327 14.0136 10.5877C14.0136 9.35019 13.0011 8.3302 11.7486 8.3302H9.26611C8.65112 8.3302 8.15612 7.8352 8.15612 7.2277C8.15612 6.61271 8.65112 6.11771 9.26611 6.11771H19.3611C19.4661 6.11771 19.5561 6.03521 19.5561 5.93021V5.15771C19.5561 5.05271 19.4661 4.97021 19.3611 4.97021H9.26611C8.01362 4.97021 7.00113 5.98271 7.00113 7.2277C7.00113 8.47269 8.01362 9.48519 9.26611 9.48519Z" fill="white"/>
<path d="M11.7486 9.38519H9.26611C8.06863 9.38519 7.10113 8.41725 7.10113 7.2277C7.10113 6.03815 8.06863 5.07021 9.26611 5.07021H19.3611C19.416 5.07021 19.4561 5.11297 19.4561 5.15771V5.93021C19.4561 5.97495 19.416 6.01771 19.3611 6.01771H9.26611C8.59589 6.01771 8.05612 6.55748 8.05612 7.2277C8.05612 7.89087 8.59633 8.4302 9.26611 8.4302H11.7486C12.9459 8.4302 13.9136 9.40542 13.9136 10.5877C13.9136 11.7772 12.9461 12.7452 11.7486 12.7452H6.13113C5.54241 12.7452 5.04456 13.1774 4.94549 13.7409C4.92894 13.8151 4.87623 13.8552 4.83364 13.8552H4.06864C4.01205 13.8552 3.97849 13.8129 3.98086 13.7753C4.07442 12.6718 5.0065 11.7977 6.13113 11.7977H11.7486C12.4188 11.7977 12.9586 11.2579 12.9586 10.5877C12.9586 9.92452 12.4184 9.38519 11.7486 9.38519Z" stroke="black" stroke-opacity="0.8" stroke-width="0.2"/>
</g>
</g>
</g>
<defs>
<clipPath id="clip0_5559_72499">
<rect width="24.0006" height="23.9999" fill="white" transform="translate(0.00274658)"/>
</clipPath>
<clipPath id="clip1_5559_72499">
<rect width="15.6816" height="14.0143" fill="white" transform="translate(3.8743 4.97021)"/>
</clipPath>
<clipPath id="clip2_5559_72499">
<rect width="15.6508" height="3.78587" fill="white" transform="translate(3.87421 15.1987)"/>
</clipPath>
<clipPath id="clip3_5559_72499">
<rect width="15.6747" height="8.98567" fill="white" transform="translate(3.88116 4.97021)"/>
</clipPath>
</defs>
</svg>
