<svg width="26" height="25" viewBox="0 0 26 25" fill="none" xmlns="http://www.w3.org/2000/svg">
<g clip-path="url(#clip0)">
<path fill-rule="evenodd" clip-rule="evenodd" d="M12.8828 0.203125C6.19282 0.203125 0.762817 5.63312 0.762817 12.3231C0.762817 19.0231 6.19282 24.4431 12.8828 24.4431C19.5828 24.4431 25.0028 19.0231 25.0028 12.3231C25.0028 5.63312 19.5828 0.203125 12.8828 0.203125Z" fill="#FACA79"/>
<path fill-rule="evenodd" clip-rule="evenodd" d="M12.889 1.81934C7.07903 1.81934 2.37903 6.51934 2.37903 12.3293C2.37903 18.1293 7.07903 22.8293 12.889 22.8293C18.689 22.8293 23.389 18.1293 23.389 12.3293C23.389 6.51934 18.689 1.81934 12.889 1.81934Z" fill="#FACA79"/>
<path fill-rule="evenodd" clip-rule="evenodd" d="M18.4095 9.28008C18.4795 9.20008 18.4695 9.08008 18.3895 9.02008C17.6995 8.53008 16.8395 8.38008 16.0295 8.62008C15.2295 8.86008 14.5795 9.46008 14.2695 10.2301C14.2295 10.3301 14.2895 10.4401 14.3895 10.4701H14.3995C14.5795 10.5301 14.7695 10.4601 14.8895 10.3101C15.2395 9.87008 15.7095 9.55008 16.2595 9.38008C16.8095 9.22008 17.3795 9.24008 17.9095 9.42008C18.0895 9.48008 18.2895 9.43008 18.4095 9.28008Z" fill="#474747"/>
<path fill-rule="evenodd" clip-rule="evenodd" d="M8.86763 8.41699C8.08763 8.41699 7.44763 9.05699 7.44763 9.83699C7.44763 10.627 8.08763 11.267 8.86763 11.267C9.65763 11.267 10.2976 10.627 10.2976 9.83699C10.2976 9.05699 9.65763 8.41699 8.86763 8.41699Z" fill="#474747"/>
<path fill-rule="evenodd" clip-rule="evenodd" d="M18.0092 10.5544C18.1592 10.6644 18.3692 10.6844 18.5292 10.5744C18.6192 10.5144 18.6492 10.4044 18.5892 10.3144C18.0792 9.6444 17.3092 9.2444 16.4692 9.2244C15.6292 9.2044 14.8292 9.5744 14.2992 10.2244C14.2292 10.3044 14.2592 10.4244 14.3392 10.4844C14.4992 10.5944 14.7092 10.5944 14.8692 10.4844C15.3292 10.1744 15.8792 10.0044 16.4492 10.0144C17.0192 10.0344 17.5592 10.2244 18.0092 10.5544Z" fill="#474747"/>
<path fill-rule="evenodd" clip-rule="evenodd" d="M19.2058 13.5118L14.5558 13.8018C13.4358 13.8618 12.3258 13.8618 11.2158 13.8018L6.55582 13.5118C6.24582 13.4918 6.00582 13.7518 6.02582 14.0618C6.32582 17.5918 9.28582 20.3618 12.8858 20.3618C16.4858 20.3618 19.4458 17.5918 19.7358 14.0618C19.7658 13.7518 19.5158 13.4918 19.2058 13.5118Z" fill="#474747"/>
</g>
<defs>
<clipPath id="clip0">
<rect width="24.2424" height="24.2424" fill="white" transform="translate(0.762817 0.203125)"/>
</clipPath>
</defs>
</svg>
