<svg width="129" height="25" viewBox="0 0 129 25" fill="none" xmlns="http://www.w3.org/2000/svg">
<path d="M46.55 0.6C51.15 0.6 54.89 4.33 54.89 8.93L54.9 24.41H49.66V8.81C49.66 6.78 48.01 5.12 45.96 5.12H43.94V24.41H38.7V5.12H32.99V24.41H27.75V0.75C29.49 0.65 31.24 0.59 32.99 0.59L46.55 0.6ZM17.66 17.61C16.35 18.94 14.52 19.76 12.51 19.76C8.49 19.76 5.24 16.51 5.24 12.49C5.24 8.49 8.49 5.23 12.51 5.23C16.51 5.23 19.76 8.48 19.76 12.49C19.76 14.49 18.96 16.29 17.66 17.61L21.37 21.31C23.62 19.05 25.01 15.94 25.01 12.49C25.01 5.6 19.4 0 12.51 0C5.6 0 0 5.6 0 12.5C0 19.41 5.6 25 12.51 25C15.98 25 19.11 23.59 21.37 21.31L17.66 17.61ZM98.72 17.63C97.41 18.95 95.59 19.76 93.58 19.76C89.57 19.76 86.32 16.51 86.32 12.49C86.32 8.48 89.57 5.23 93.58 5.23C97.59 5.23 100.85 8.48 100.85 12.49C100.85 14.51 100.03 16.33 98.72 17.63L102.39 21.38C104.67 19.12 106.09 15.97 106.09 12.5C106.09 5.6 100.49 0 93.59 0C86.69 0 81.09 5.6 81.09 12.5C81.09 19.41 86.69 25 93.59 25C97.03 25 100.14 23.62 102.39 21.38L98.72 17.63ZM73.94 24.41H80.37L71.55 12.5L71.73 16.39C75.9 16.39 79.29 13 79.29 8.81C79.29 4.27 75.61 0.6 71.07 0.6H64.17C62.41 0.6 60.67 0.65 58.93 0.76V24.41H64.17V5.12L70.36 5.11C72.39 5.11 74.05 6.77 74.05 8.8C74.05 10.84 72.4 12.49 70.36 12.49H65.83L73.94 24.41ZM113.83 0.6C112.07 0.6 110.32 0.65 108.59 0.76V24.41H113.83V5.11H119.67C121.7 5.11 123.36 6.77 123.36 8.8V24.4H128.59V8.93C128.59 4.33 124.86 0.6 120.26 0.6H113.83Z" fill="#005EB8"/>
</svg>
