<svg width="33" height="33" viewBox="0 0 33 33" fill="none" xmlns="http://www.w3.org/2000/svg">
<g clip-path="url(#clip0)">
<g clip-path="url(#clip1)">
<path fill-rule="evenodd" clip-rule="evenodd" d="M26.323 25.4394V20.8994C26.323 20.7594 26.203 20.6494 26.063 20.6494H5.713C5.563 20.6494 5.453 20.7594 5.453 20.8994V25.4394C5.453 25.5794 5.563 25.6994 5.713 25.6994H26.063C26.203 25.6994 26.323 25.5794 26.323 25.4394ZM24.7829 22.1824H19.8829V24.1624H24.7829V22.1824ZM18.3491 24.1624H6.98914V22.1824H18.3491V24.1624Z" fill="#5D658C"/>
</g>
<g clip-path="url(#clip2)">
<path fill-rule="evenodd" clip-rule="evenodd" d="M12.6421 13.0317H15.9521C16.7721 13.0317 17.4321 13.6917 17.4321 14.5017C17.4321 15.3217 16.7721 15.9817 15.9521 15.9817H8.46213C6.89213 15.9817 5.59213 17.2017 5.46213 18.7417C5.45213 18.8817 5.57213 18.9917 5.71213 18.9917H6.73213C6.87213 18.9917 6.98213 18.8717 7.01213 18.7317C7.13213 18.0417 7.74213 17.5117 8.46213 17.5117H15.9521C17.6221 17.5117 18.9721 16.1617 18.9721 14.5017C18.9721 12.8517 17.6221 11.4917 15.9521 11.4917H12.6421C11.8221 11.4917 11.1621 10.8317 11.1621 10.0217C11.1621 9.20172 11.8221 8.54172 12.6421 8.54172H26.1021C26.2421 8.54172 26.3621 8.43172 26.3621 8.29172V7.26172C26.3621 7.12172 26.2421 7.01172 26.1021 7.01172H12.6421C10.9721 7.01172 9.62213 8.36172 9.62213 10.0217C9.62213 11.6817 10.9721 13.0317 12.6421 13.0317Z" fill="#5D658C"/>
</g>
</g>
<g clip-path="url(#clip3)">
<path fill-rule="evenodd" clip-rule="evenodd" d="M3.2788 31.5983L31.5688 3.36828L30.4388 2.23828L2.1488 30.4683L3.2788 31.5983Z" fill="white"/>
<path fill-rule="evenodd" clip-rule="evenodd" d="M2.14746 30.4694L30.4375 2.23937L29.2975 1.10938L1.01746 29.3394L2.14746 30.4694Z" fill="#5D658C"/>
</g>
<defs>
<clipPath id="clip0">
<rect width="20.9089" height="18.6858" fill="white" transform="translate(5.453 7.01172)"/>
</clipPath>
<clipPath id="clip1">
<rect width="20.8679" height="5.04785" fill="white" transform="translate(5.453 20.6494)"/>
</clipPath>
<clipPath id="clip2">
<rect width="20.8998" height="11.981" fill="white" transform="translate(5.46216 7.01172)"/>
</clipPath>
<clipPath id="clip3">
<rect width="30.5479" height="30.488" fill="white" transform="translate(1.01746 1.10938)"/>
</clipPath>
</defs>
</svg>
