<svg width="20" height="22" viewBox="0 0 20 22" fill="none" xmlns="http://www.w3.org/2000/svg">
<path fill-rule="evenodd" clip-rule="evenodd" d="M3.51295 16.4017L3.71295 16.3817L3.70295 16.3617C6.32295 15.9117 8.78295 14.3017 10.283 11.7217C11.173 10.1717 11.593 8.50173 11.593 6.87173C11.593 5.80173 11.403 4.75173 11.053 3.77173C11.044 3.74786 11.0359 3.72576 11.0282 3.70466C11.0101 3.65503 10.994 3.61084 10.973 3.56173C10.953 3.51673 10.9355 3.46923 10.918 3.42173C10.9005 3.37423 10.883 3.32673 10.863 3.28173C10.693 2.85173 10.543 2.48173 10.183 1.98173C9.72295 1.34173 10.483 0.581729 11.143 0.761729C11.5013 0.855572 11.8596 0.963971 12.0813 1.03104C12.1195 1.04259 12.1536 1.05292 12.183 1.06173C13.893 1.68173 15.383 2.72173 16.543 4.07173C18.103 5.89173 19.043 8.25173 19.043 10.8317C19.043 16.5817 14.383 21.2317 8.64295 21.2317C6.02295 21.2317 3.64295 20.2517 1.81295 18.6517C1.64295 18.4917 1.37295 18.2217 1.10295 17.9417C0.612955 17.4517 0.872955 16.4917 1.67295 16.5017H2.19295H2.23295H2.29295C2.66295 16.4917 2.93295 16.4717 3.24295 16.4417C3.28795 16.4317 3.33295 16.4267 3.37795 16.4217C3.42295 16.4167 3.46795 16.4117 3.51295 16.4017ZM2.31204 17.6136C5.82204 17.5836 9.28205 15.6536 11.242 12.2736C12.232 10.5636 12.702 8.69364 12.702 6.87364C12.702 5.15364 12.272 3.47364 11.462 1.99364C13.122 2.52364 14.592 3.50364 15.702 4.79364C17.092 6.42364 17.932 8.52364 17.932 10.8336C17.932 13.4036 16.892 15.7236 15.212 17.4036C13.532 19.0836 11.212 20.1236 8.64204 20.1236C6.19204 20.1236 3.97204 19.1636 2.31204 17.6136Z" fill="#5c658a" fill-opacity="0.85"/>
</svg>
