<svg width="24" height="24" viewBox="0 0 24 24" fill="none" xmlns="http://www.w3.org/2000/svg">
<g clip-path="url(#clip0_5559_72468)">
<path d="M6.55972 11.9521L6.55894 11.9516C6.21703 11.7122 5.71751 11.7841 5.41993 12.0817L2.92229 14.5793C2.6271 14.8745 2.52627 15.3359 2.72433 15.7338C2.89125 16.0991 3.28542 16.326 3.67688 16.326H22.2903C22.354 16.326 22.3984 16.3704 22.3984 16.4341V17.2666C22.3984 17.3303 22.354 17.3748 22.2903 17.3748H3.64714C2.82601 17.3748 2.11688 16.894 1.7755 16.1543L1.77541 16.1541C1.40878 15.3644 1.6325 14.3977 2.26089 13.7693L4.69907 11.3311C4.89833 11.1319 5.15303 10.963 5.40333 10.8795L5.47641 10.8552L5.4715 10.7783C5.38465 9.41765 6.05035 8.11507 7.23753 7.39118L7.23821 7.39076C8.07669 6.87032 9.08972 6.72512 10.0461 6.95697C11.0002 7.18827 11.811 7.79554 12.3332 8.63625C12.8839 9.56433 13.0278 10.6645 12.7098 11.6764L12.5995 12.0274L12.8723 11.7806C13.4901 11.2216 14.3884 10.5279 15.838 10.5279H22.2308C22.2945 10.5279 22.3389 10.5723 22.3389 10.636V11.4685C22.3389 11.5322 22.2945 11.5767 22.2308 11.5767H15.7786C14.5771 11.5767 13.868 12.2269 13.3316 12.7335C13.1371 12.913 12.9502 13.0852 12.7541 13.2135C12.5592 13.3411 12.3627 13.4202 12.151 13.4202C12.1358 13.4202 12.1182 13.4163 12.0861 13.4083L12.0824 13.4074C12.0575 13.4011 12.022 13.3922 11.9839 13.3907C11.7179 13.3351 11.5107 13.1756 11.4079 12.97C11.1928 12.5397 11.3503 12.0445 11.5282 11.6591C11.8991 10.8556 11.8374 9.92829 11.374 9.18627C11.0037 8.56958 10.4165 8.13625 9.73501 7.98136C9.05741 7.82736 8.34691 7.91954 7.7287 8.29046L7.72825 8.29073C6.86303 8.81605 6.39953 9.7439 6.46126 10.7314L6.46572 10.8028L6.53475 10.8217C6.84822 10.9072 7.12921 11.0482 7.38237 11.3014C7.80745 11.7265 8.00469 12.2916 7.94825 12.8561L7.94139 12.9246L8.00303 12.9555C8.31566 13.1118 8.6266 13.1731 8.96045 13.2035C9.25205 13.23 9.46967 13.4104 9.49426 13.6772C9.519 14.0039 9.26925 14.2527 8.9695 14.2527H8.94313C8.51006 14.2234 8.04667 14.1075 7.64114 13.9337L7.55447 13.8966L7.5123 13.9809C7.48994 14.0257 7.4695 14.0462 7.44183 14.0739L6.43088 15.0848C6.40235 15.1134 6.37487 15.1224 6.35292 15.1224C6.33098 15.1224 6.3035 15.1134 6.27496 15.0848L5.68029 14.4901C5.65176 14.4616 5.64268 14.4341 5.64268 14.4122C5.64268 14.3902 5.65176 14.3628 5.68029 14.3342L6.68975 13.3248C7.09727 12.9492 7.02059 12.2813 6.55972 11.9521Z" fill="white" stroke="#313131" stroke-width="0.2"/>
</g>
<defs>
<clipPath id="clip0_5559_72468">
<rect width="24.0006" height="23.9999" fill="white"/>
</clipPath>
</defs>
</svg>
