<svg width="12" height="12" viewBox="0 0 12 12" fill="none" xmlns="http://www.w3.org/2000/svg">
<path d="M6.71838 0.623901H5.78088C5.69755 0.623901 5.65588 0.665568 5.65588 0.748901V5.65515H1C0.916667 5.65515 0.875 5.69682 0.875 5.78015V6.71765C0.875 6.80099 0.916667 6.84265 1 6.84265H5.65588V11.7489C5.65588 11.8322 5.69755 11.8739 5.78088 11.8739H6.71838C6.80172 11.8739 6.84338 11.8322 6.84338 11.7489V6.84265H11.5C11.5833 6.84265 11.625 6.80099 11.625 6.71765V5.78015C11.625 5.69682 11.5833 5.65515 11.5 5.65515H6.84338V0.748901C6.84338 0.665568 6.80172 0.623901 6.71838 0.623901Z" fill="white"/>
</svg>
