<svg width="32" height="32" viewBox="0 0 32 32" fill="none" xmlns="http://www.w3.org/2000/svg">
<path fill-rule="evenodd" clip-rule="evenodd" d="M6.948 7.56047C6.948 7.34047 7.058 7.15047 7.238 7.03047C7.718 6.72047 8.258 6.52047 8.808 6.40047C9.348 6.28047 9.908 6.23047 10.438 6.23047C10.778 6.23047 11.088 6.25047 11.398 6.28047C12.5151 6.40102 13.419 6.60553 14.2811 6.80057C14.4918 6.84822 14.6999 6.89531 14.908 6.94047C15.968 7.17047 17.048 7.35047 18.588 7.36047C21.258 7.35047 22.978 6.93047 24.238 6.50047C24.428 6.43047 24.638 6.46047 24.808 6.58047C24.968 6.69047 25.068 6.88047 25.068 7.09047V19.3405C25.068 19.6105 24.898 19.8405 24.648 19.9305C23.288 20.4005 21.388 20.8605 18.588 20.8605C16.948 20.8605 15.738 20.6505 14.638 20.4105C14.3739 20.3553 14.1167 20.2977 13.8604 20.2404C13.049 20.0589 12.2459 19.8793 11.258 19.7805C10.998 19.7505 10.728 19.7305 10.438 19.7305C9.988 19.7305 9.518 19.7705 9.078 19.8705C8.758 19.9405 8.458 20.0405 8.198 20.1705V28.5505H6.948V19.8105V7.56047ZM18.596 19.6085C17.046 19.6085 15.966 19.4185 14.906 19.1885C14.664 19.1383 14.4219 19.0849 14.1759 19.0307C13.3447 18.8474 12.4686 18.6543 11.396 18.5385C11.096 18.5085 10.776 18.4885 10.436 18.4885C9.91601 18.4885 9.35601 18.5285 8.80601 18.6485C8.60601 18.6985 8.39601 18.7585 8.19601 18.8285V8.37852V7.91852C8.46601 7.78852 8.75601 7.68852 9.07601 7.61852C9.51601 7.51852 9.98601 7.47852 10.436 7.47852C10.726 7.47852 11.006 7.49852 11.256 7.51852C12.2906 7.62993 13.1225 7.81734 13.9785 8.01019C14.1981 8.05967 14.4194 8.10951 14.646 8.15852C15.736 8.39852 16.946 8.60852 18.596 8.60852C20.866 8.60852 22.536 8.29852 23.816 7.93852V18.8885C22.596 19.2685 20.976 19.6085 18.596 19.6085Z" fill="black" fill-opacity="0.85"/>
</svg>
