<svg width="24" height="25" viewBox="0 0 24 25" fill="none" xmlns="http://www.w3.org/2000/svg">
<path d="M12.8 5.08023C12.43 5.03023 12.06 5.00023 11.68 4.99023C11.52 4.99023 11.45 5.17024 11.54 5.30024C11.75 5.57024 11.94 5.86024 12.11 6.16024C12.64 7.12024 12.95 8.23024 12.95 9.41024C12.95 13.1202 9.93999 16.1302 6.22999 16.1302C6.06999 16.1302 5.90999 16.1202 5.74999 16.1102C5.39999 16.0902 5.05999 16.0302 4.71999 15.9602C4.56999 15.9302 4.43999 16.0702 4.49999 16.2102C4.65999 16.5502 4.84999 16.8802 5.04999 17.1902C6.45999 19.3202 8.87999 20.7302 11.62 20.7302C15.96 20.7302 19.49 17.2002 19.49 12.8602C19.51 8.93024 16.59 5.65023 12.8 5.08023ZM11.63 19.5902C9.60999 19.5902 7.79999 18.7002 6.56999 17.2802C10.75 17.1002 14.1 13.6402 14.1 9.42023C14.1 8.36023 13.89 7.34023 13.51 6.42023C16.31 7.23023 18.35 9.82024 18.35 12.8702C18.35 16.5802 15.34 19.5902 11.63 19.5902Z" fill="black" fill-opacity="0.85"/>
</svg>
