<svg width="12" height="12" viewBox="0 0 12 12" fill="none" xmlns="http://www.w3.org/2000/svg">
<path fill-rule="evenodd" clip-rule="evenodd" d="M1.1385 3.13261C1.33089 2.95938 1.62727 2.97492 1.8005 3.16731L5.99834 7.82948L10.1962 3.16731C10.3694 2.97492 10.6658 2.95938 10.8582 3.13261C11.0506 3.30584 11.0661 3.60223 10.8929 3.79462L6.42809 8.75327C6.40265 8.80377 6.36758 8.8505 6.32303 8.89062C6.23044 8.97398 6.11378 9.01363 5.99834 9.01089C5.8829 9.01363 5.76624 8.97398 5.67365 8.89062C5.6291 8.8505 5.59403 8.80377 5.56859 8.75327L1.1038 3.79462C0.930576 3.60223 0.94611 3.30584 1.1385 3.13261Z" fill="white"/>
</svg>
