<svg xmlns="http://www.w3.org/2000/svg" viewBox="0 0 9.02 15.38"><defs><style>.cls-1{fill:#666;}</style></defs><g id="Layer_2" data-name="Layer 2"><g id="Layer_1-2" data-name="Layer 1"><path class="cls-1" d="M2.77,13.32,2,13a.28.28,0,0,1-.12-.12.23.23,0,0,1,0-.18l.17-.4-.48-.35a.21.21,0,0,1-.09-.15.21.21,0,0,1,0-.17l.33-.45-.23-.49a.22.22,0,0,1,.09-.29l.71-.44.24.38-.54.34.2.43a.21.21,0,0,1,0,.23L2,11.69l.44.32a.24.24,0,0,1,.08.28l-.16.36L3,12.9Z"/><path class="cls-1" d="M6.25,13.32l-.18-.42.58-.25-.15-.36A.22.22,0,0,1,6.57,12L7,11.69l-.27-.38a.23.23,0,0,1,0-.23l.21-.43-.55-.34.24-.38.72.44a.22.22,0,0,1,.08.29l-.23.49.33.45a.26.26,0,0,1,0,.17.26.26,0,0,1-.09.15L7,12.27l.18.4a.28.28,0,0,1,0,.18A.2.2,0,0,1,7,13Z"/><path class="cls-1" d="M4.51,13.18a.35.35,0,0,1-.14,0A3,3,0,0,1,3,11.8a1.22,1.22,0,0,1,.52-1.7,1.1,1.1,0,0,1,1,.06,1.1,1.1,0,0,1,1-.06,1.22,1.22,0,0,1,.51,1.7,2.86,2.86,0,0,1-1.41,1.35.31.31,0,0,1-.13,0m-.07-.44h0m.13,0h0M4,10.45a.62.62,0,0,0-.29.07c-.32.13-.51.56-.28,1.11a2.43,2.43,0,0,0,1.13,1.08,2.35,2.35,0,0,0,1.12-1.08c.24-.55,0-1-.27-1.11a.64.64,0,0,0-.71.09.23.23,0,0,1-.29,0A.63.63,0,0,0,4,10.45"/><path class="cls-1" d="M9,15.38H8.31v-3.8c0-2.3-.09-3.35-2.24-4.27a1.13,1.13,0,0,1-.76-.75,1.06,1.06,0,0,1,.35-.94,3.52,3.52,0,0,0,.92-2,3,3,0,0,0-.65-2.26A1.8,1.8,0,0,0,4.51.71a1.81,1.81,0,0,0-1.43.61,3,3,0,0,0-.64,2.26,3.57,3.57,0,0,0,.93,2.05,1.09,1.09,0,0,1,.26.93A1.08,1.08,0,0,1,3,7.31C.8,8.27.71,9.31.71,11.58v3.8H0v-3.8C0,9.2.12,7.79,2.67,6.66a.45.45,0,0,0,.27-.25.38.38,0,0,0-.11-.32,4.27,4.27,0,0,1-1.1-2.44A3.75,3.75,0,0,1,2.55.85a2.55,2.55,0,0,1,2-.85,2.51,2.51,0,0,1,2,.85,3.71,3.71,0,0,1,.82,2.8A4.1,4.1,0,0,1,6.18,6.1C6,6.25,6,6.36,6,6.41s.1.15.33.25C9,7.8,9,9.38,9,11.58Z"/></g></g></svg>