<svg width="18" height="18" viewBox="0 0 18 18" fill="none" xmlns="http://www.w3.org/2000/svg">
<path fill-rule="evenodd" clip-rule="evenodd" d="M1 3C1 1.89543 1.89543 1 3 1H15C16.1046 1 17 1.89543 17 3V15C17 16.1046 16.1046 17 15 17H3C1.89543 17 1 16.1046 1 15V3Z" fill="white" stroke="#979797" stroke-opacity="0.15"/>
<path fill-rule="evenodd" clip-rule="evenodd" d="M4 10C4.55 10 5 9.55 5 9C5 8.45 4.55 8 4 8C3.45 8 3 8.45 3 9C3 9.55 3.45 10 4 10Z" fill="black" fill-opacity="0.45"/>
<path fill-rule="evenodd" clip-rule="evenodd" d="M9 10C9.55 10 10 9.55 10 9C10 8.45 9.55 8 9 8C8.45 8 8 8.45 8 9C8 9.55 8.45 10 9 10Z" fill="black" fill-opacity="0.45"/>
<path fill-rule="evenodd" clip-rule="evenodd" d="M14 10C14.55 10 15 9.55 15 9C15 8.45 14.55 8 14 8C13.45 8 13 8.45 13 9C13 9.55 13.45 10 14 10Z" fill="black" fill-opacity="0.45"/>
</svg>
