<svg width="32" height="32" viewBox="0 0 32 32" fill="none" xmlns="http://www.w3.org/2000/svg">
<path fill-rule="evenodd" clip-rule="evenodd" d="M25.151 20.2636C23.391 19.9536 22.051 18.4236 22.051 16.5836C22.051 14.5136 23.731 12.8436 25.791 12.8336C27.861 12.8436 29.541 14.5136 29.541 16.5836C29.541 18.4336 28.191 19.9636 26.421 20.2636C26.301 24.5436 22.791 27.9736 18.481 27.9736C14.301 27.9736 10.871 24.7436 10.561 20.6336C9.75101 20.5636 9.00101 20.3636 8.33101 20.0236C7.49101 19.6036 6.78101 18.9936 6.22101 18.2436C5.09101 16.7236 4.53101 14.6636 4.53101 12.3136V6.90363C4.53101 5.42363 5.73101 4.22363 7.21101 4.22363C8.69101 4.22363 9.89101 5.42363 9.90101 6.90363C9.89101 8.39363 8.69101 9.59363 7.21101 9.59363C6.69101 9.59363 6.21101 9.44363 5.80101 9.18363V12.3136C5.80101 13.9236 6.09101 15.3436 6.62101 16.4636C7.16101 17.5836 7.92101 18.4036 8.90101 18.8936C9.55101 19.2136 10.301 19.3936 11.171 19.3936C12.041 19.3936 12.791 19.2136 13.441 18.8936C14.091 18.5636 14.651 18.0936 15.101 17.4836C16.021 16.2636 16.541 14.4636 16.541 12.3136V9.18363C16.131 9.43363 15.651 9.59363 15.131 9.59363C13.641 9.59363 12.441 8.39363 12.441 6.90363C12.441 5.42363 13.651 4.22363 15.131 4.22363C16.611 4.22363 17.811 5.42363 17.811 6.90363V12.3136C17.811 14.0736 17.491 15.6736 16.861 17.0036C16.231 18.3336 15.271 19.3936 14.011 20.0236C13.361 20.3536 12.631 20.5536 11.831 20.6336C11.981 22.2336 12.681 23.6736 13.761 24.7536C14.971 25.9636 16.641 26.7036 18.481 26.7136C20.331 26.7036 21.991 25.9636 23.201 24.7536C24.361 23.5936 25.091 22.0136 25.151 20.2636ZM16.133 5.90158C16.383 6.16158 16.543 6.51158 16.543 6.91158C16.543 7.30158 16.383 7.65158 16.133 7.91158C15.873 8.16158 15.523 8.32158 15.123 8.32158C14.733 8.32158 14.383 8.16158 14.123 7.91158C13.873 7.65158 13.713 7.30158 13.713 6.91158C13.713 6.51158 13.873 6.16158 14.123 5.90158C14.383 5.65158 14.733 5.49158 15.123 5.49158C15.523 5.49158 15.873 5.65158 16.133 5.90158ZM8.62901 6.91158C8.62901 6.51158 8.46901 6.16158 8.20901 5.90158C7.95901 5.65158 7.60901 5.49158 7.20901 5.49158C6.81901 5.49158 6.46901 5.65158 6.20901 5.90158C5.95901 6.16158 5.79901 6.51158 5.79901 6.91158C5.79901 7.30158 5.95901 7.65158 6.20901 7.91158C6.46901 8.16158 6.81901 8.32158 7.20901 8.32158C7.60901 8.32158 7.95901 8.16158 8.20901 7.91158C8.46901 7.65158 8.62901 7.30158 8.62901 6.91158ZM27.544 14.8266C27.994 15.2766 28.264 15.8966 28.274 16.5766C28.264 17.2666 27.994 17.8766 27.544 18.3266C27.094 18.7766 26.484 19.0566 25.794 19.0566C25.114 19.0566 24.494 18.7766 24.044 18.3266C23.604 17.8766 23.324 17.2666 23.324 16.5766C23.324 15.8966 23.604 15.2766 24.044 14.8266C24.494 14.3866 25.114 14.1066 25.794 14.1066C26.484 14.1066 27.094 14.3866 27.544 14.8266Z" fill="black" fill-opacity="0.85"/>
</svg>
