<svg width="78" height="16" viewBox="0 0 78 16" fill="none" xmlns="http://www.w3.org/2000/svg">
<path d="M28.24 0.394414C31.03 0.394414 33.3 2.65441 33.3 5.44441V14.8344H30.12V5.36441C30.12 4.13441 29.12 3.12441 27.88 3.12441H26.65V14.8244H23.47V3.13441H20V14.8344H16.82V0.484414C17.87 0.424414 18.93 0.384414 20 0.384414L28.24 0.394414ZM10.71 10.7044C9.91 11.5044 8.8 12.0144 7.58 12.0144C5.14 12.0144 3.17 10.0444 3.17 7.60441C3.17 5.17441 5.14 3.20441 7.58 3.20441C10.01 3.20441 11.98 5.17441 11.98 7.60441C11.99 8.81441 11.5 9.90441 10.71 10.7044L12.96 12.9444C14.32 11.5744 15.17 9.68441 15.17 7.59441C15.17 3.42441 11.77 0.0244141 7.59 0.0244141C3.4 0.0244141 0 3.42441 0 7.60441C0 11.7944 3.4 15.1844 7.59 15.1844C9.69 15.1844 11.59 14.3344 12.96 12.9444L10.71 10.7044ZM59.88 10.7144C59.08 11.5144 57.98 12.0044 56.76 12.0044C54.33 12.0044 52.36 10.0344 52.36 7.59441C52.36 5.16441 54.33 3.19441 56.76 3.19441C59.19 3.19441 61.17 5.16441 61.17 7.59441C61.17 8.82441 60.68 9.92441 59.88 10.7144L62.1 12.9844C63.48 11.6144 64.34 9.70441 64.34 7.59441C64.35 3.42441 60.96 0.0244141 56.77 0.0244141C52.58 0.0244141 49.19 3.42441 49.19 7.60441C49.19 11.7944 52.59 15.1844 56.77 15.1844C58.85 15.1844 60.74 14.3444 62.11 12.9944L59.88 10.7144ZM44.86 14.8244H48.76L43.4 7.60441L43.51 9.96441C46.04 9.96441 48.1 7.90441 48.1 5.37441C48.1 2.62441 45.87 0.394414 43.12 0.394414H38.94C37.87 0.394414 36.82 0.424414 35.76 0.494414V14.8244H38.94V3.13441H42.7C43.93 3.13441 44.94 4.14441 44.94 5.37441C44.94 6.61441 43.94 7.61441 42.7 7.61441H39.95L44.86 14.8244ZM69.05 0.384414C67.98 0.384414 66.92 0.414414 65.87 0.484414V14.8244H69.05V3.12441H72.59C73.82 3.12441 74.83 4.13441 74.83 5.36441V14.8244H78V5.44441C78 2.65441 75.74 0.394414 72.94 0.394414H69.05V0.384414Z" fill="#003153"/>
</svg>
