<svg xmlns="http://www.w3.org/2000/svg" viewBox="0 0 14.17 13.2"><defs><style>.cls-1{fill:#666;}</style></defs><g id="Layer_2" data-name="Layer 2"><g id="Layer_1-2" data-name="Layer 1"><path class="cls-1" d="M9.8,10.8c-.43-.14-.69-.31-.75-.51s.13-.53.3-.74A7,7,0,0,0,11.17,5.2C11.17,2.34,9.53.42,7.09.42S3,2.34,3,5.2A6.61,6.61,0,0,0,4.82,9.55c.17.21.36.51.3.74s-.32.37-.75.51c-1.29.43-3,1.14-3,2.4H2c0-.65.88-1.26,2.6-1.83a1.54,1.54,0,0,0,1.13-.91,1.45,1.45,0,0,0-.41-1.29,6.34,6.34,0,0,1-1.68-4,4.66,4.66,0,0,1,1-3.05A3.17,3.17,0,0,1,7.09,1,3.17,3.17,0,0,1,9.6,2.15a4.61,4.61,0,0,1,1,3.05,6.34,6.34,0,0,1-1.68,4,1.45,1.45,0,0,0-.41,1.29,1.54,1.54,0,0,0,1.13.91c1.72.57,2.6,1.18,2.6,1.83h.59c0-1.26-1.71-2-3-2.4"/><polygon class="cls-1" points="5.38 5.41 5.79 5 6.2 5.41 6.51 5.1 6.1 4.69 6.51 4.28 6.2 3.97 5.79 4.38 5.38 3.97 5.07 4.28 5.48 4.69 5.07 5.1 5.38 5.41"/><polygon class="cls-1" points="7.99 5.41 8.4 5 8.81 5.41 9.12 5.1 8.71 4.69 9.12 4.28 8.81 3.97 8.4 4.38 7.99 3.97 7.68 4.28 8.09 4.69 7.68 5.1 7.99 5.41"/><path class="cls-1" d="M5.9,7.51l.22.38a1.91,1.91,0,0,1,1-.27,2,2,0,0,1,1,.27l.21-.38a2.26,2.26,0,0,0-2.35,0"/><path class="cls-1" d="M.94,4.15A1.27,1.27,0,0,1,0,3c0-.46.28-1.35,2.23-2l.14.43C1.17,1.82.45,2.41.45,3a.84.84,0,0,0,.62.73Z"/><path class="cls-1" d="M2.45,3.67c-.34,0-1.24,0-1.32-.64-.06-.42.3-1,3.57-1.69l.1.44C1.6,2.47,1.58,3,1.58,3s.33.24.87.25Z"/><path class="cls-1" d="M11.94,3.18l-.14-.43c1.21-.42,1.92-1,1.92-1.59A.83.83,0,0,0,13.1.43L13.24,0a1.27,1.27,0,0,1,.93,1.16c0,.47-.28,1.35-2.23,2"/><path class="cls-1" d="M7.91,3.12l-.08-.45c4.72-.82,4.77-1.48,4.77-1.49s-.34-.24-.88-.25V.48c.33,0,1.24,0,1.31.64,0,.3.14,1.08-5.13,2"/></g></g></svg>