<svg width="13" height="13" viewBox="0 0 13 13" fill="none" xmlns="http://www.w3.org/2000/svg">
<path d="M12 1.125H9.375V0.125C9.375 0.05625 9.31875 0 9.25 0H8.375C8.30625 0 8.25 0.05625 8.25 0.125V1.125H4.25V0.125C4.25 0.05625 4.19375 0 4.125 0H3.25C3.18125 0 3.125 0.05625 3.125 0.125V1.125H0.5C0.223438 1.125 0 1.34844 0 1.625V12C0 12.2766 0.223438 12.5 0.5 12.5H12C12.2766 12.5 12.5 12.2766 12.5 12V1.625C12.5 1.34844 12.2766 1.125 12 1.125ZM11.375 11.375H1.125V5.4375H11.375V11.375ZM1.125 4.375V2.25H3.125V3C3.125 3.06875 3.18125 3.125 3.25 3.125H4.125C4.19375 3.125 4.25 3.06875 4.25 3V2.25H8.25V3C8.25 3.06875 8.30625 3.125 8.375 3.125H9.25C9.31875 3.125 9.375 3.06875 9.375 3V2.25H11.375V4.375H1.125Z" fill="black" fill-opacity="0.85"/>
</svg>
