<svg width="8" height="14" viewBox="0 0 8 14" fill="none" xmlns="http://www.w3.org/2000/svg">
<path d="M0.233275 7.14253C0.157756 7.07239 0.0979409 6.98705 0.0577636 6.89213C0.0175862 6.79722 -0.00204277 6.69487 0.000167847 6.59183C0.00237799 6.48878 0.0263772 6.38737 0.0705876 6.29426C0.114798 6.20116 0.178218 6.11846 0.256676 6.05162L6.83439 0L7.26688 0.468799L0.691586 6.52042C0.675463 6.52947 0.66204 6.54265 0.652698 6.5586C0.643356 6.57456 0.638432 6.59271 0.638432 6.6112C0.638432 6.62968 0.643356 6.64784 0.652698 6.66379C0.66204 6.67975 0.675463 6.69292 0.691586 6.70197L7.18135 12.8101L6.74644 13.27L0.233275 7.14253Z" fill="#ffffff"/>
</svg>
