<svg width="25" height="24" viewBox="0 0 25 24" fill="none" xmlns="http://www.w3.org/2000/svg">
<g clip-path="url(#clip0_5559_72478)">
<path d="M15.9782 20.5467H8.12785C7.74222 20.5467 7.35659 20.3814 7.10868 20.106C6.83323 19.8305 6.72305 19.4449 6.7506 19.0593L7.41168 8.37177C7.46677 7.65559 8.07276 7.07715 8.81648 7.07715H15.3171C16.0333 7.07715 16.6393 7.65559 16.7219 8.37177L17.3555 19.0317C17.383 19.4173 17.2453 19.803 16.9974 20.0784C16.7219 20.3814 16.3638 20.5467 15.9782 20.5467ZM8.78893 8.23404C8.67875 8.23404 8.59612 8.31668 8.59612 8.42686L7.93503 19.1144C7.93503 19.197 7.96258 19.2521 7.99012 19.2521C8.01767 19.2796 8.07276 19.3072 8.12785 19.3072H15.9782C16.0608 19.3072 16.1159 19.2796 16.1159 19.2521C16.1435 19.2245 16.171 19.1694 16.171 19.1144L15.5099 8.42686C15.5099 8.31668 15.4273 8.23404 15.3171 8.23404H8.78893Z" fill="white"/>
<path d="M7.18301 20.0391L7.18311 20.039L7.17939 20.0353C6.92851 19.7844 6.82441 19.4294 6.85035 19.0664L6.8504 19.0654L7.51138 8.37944C7.5114 8.37919 7.51142 8.37895 7.51144 8.3787C7.56292 7.71444 8.1258 7.17715 8.81648 7.17715H15.3171C15.9777 7.17715 16.5438 7.71212 16.6223 8.38051L17.2556 19.0376L17.2557 19.0388C17.2813 19.3969 17.1531 19.7558 16.9232 20.0114C16.6653 20.295 16.3335 20.4467 15.9782 20.4467H8.12785C7.76883 20.4467 7.41082 20.2922 7.18301 20.0391ZM7.83522 19.1082L7.83503 19.1082V19.1144C7.83503 19.1656 7.84342 19.2141 7.86033 19.2536C7.86869 19.2731 7.88096 19.2947 7.89918 19.3129C7.90923 19.3229 7.92318 19.3339 7.94078 19.3417C7.9874 19.3783 8.05642 19.4072 8.12785 19.4072H15.9782C16.0295 19.4072 16.078 19.3988 16.1174 19.3819C16.1369 19.3735 16.1585 19.3612 16.1767 19.343C16.1868 19.333 16.1977 19.319 16.2055 19.3014C16.2421 19.2548 16.271 19.1858 16.271 19.1144H16.2712L16.2708 19.1082L15.6099 8.42348C15.6082 8.25972 15.4814 8.13404 15.3171 8.13404H8.78893C8.62465 8.13404 8.49785 8.25972 8.49613 8.42348L7.83522 19.1082Z" stroke="black" stroke-opacity="0.8" stroke-width="0.2"/>
<path d="M11.0476 5.149C11.3822 5.149 11.6535 4.87768 11.6535 4.543C11.6535 4.20832 11.3822 3.93701 11.0476 3.93701C10.7129 3.93701 10.4416 4.20832 10.4416 4.543C10.4416 4.87768 10.7129 5.149 11.0476 5.149Z" fill="white"/>
<path d="M13.0583 5.149C13.3929 5.149 13.6643 4.87768 13.6643 4.543C13.6643 4.20832 13.3929 3.93701 13.0583 3.93701C12.7236 3.93701 12.4523 4.20832 12.4523 4.543C12.4523 4.87768 12.7236 5.149 13.0583 5.149Z" fill="white"/>
<path d="M16.2813 8.20651H7.79737C7.68719 8.20651 7.60455 8.12387 7.60455 8.01369V5.50709C7.60455 4.07475 9.50516 3.00049 12.0393 3.00049C14.5735 3.00049 16.4741 4.07475 16.4741 5.50709V8.01369C16.4741 8.12387 16.3914 8.20651 16.2813 8.20651ZM8.76145 7.04962H15.3172V5.50709C15.3172 4.95619 14.0501 4.15738 12.0393 4.15738C10.0285 4.15738 8.76145 4.95619 8.76145 5.50709V7.04962Z" fill="white"/>
<path d="M8.66145 7.04962V7.14962H8.76145H15.3172H15.4172V7.04962V5.50709C15.4172 5.33176 15.3178 5.15463 15.159 4.99358C14.9983 4.83063 14.7664 4.67299 14.475 4.53524C13.8917 4.25947 13.0573 4.05738 12.0393 4.05738C11.0214 4.05738 10.187 4.25947 9.60359 4.53524C9.31221 4.67299 9.08028 4.83063 8.91963 4.99358C8.76086 5.15463 8.66145 5.33176 8.66145 5.50709V7.04962ZM16.2813 8.10651H7.79737C7.74242 8.10651 7.70455 8.06865 7.70455 8.01369V5.50709C7.70455 4.8406 8.1463 4.2415 8.92083 3.80372C9.69425 3.36657 10.785 3.10049 12.0393 3.10049C13.2937 3.10049 14.3844 3.36657 15.1578 3.80372C15.9323 4.2415 16.3741 4.8406 16.3741 5.50709V8.01369C16.3741 8.06865 16.3362 8.10651 16.2813 8.10651Z" stroke="black" stroke-opacity="0.8" stroke-width="0.2"/>
</g>
<defs>
<clipPath id="clip0_5559_72478">
<rect width="24.0006" height="23.9999" fill="white" transform="translate(0.00164795)"/>
</clipPath>
</defs>
</svg>
