<svg width="32" height="33" viewBox="0 0 32 33" fill="none" xmlns="http://www.w3.org/2000/svg">
<path fill-rule="evenodd" clip-rule="evenodd" d="M15.4641 27.3401C13.1141 26.2101 10.9641 24.7601 9.20412 23.1101C7.43412 21.4501 6.03412 19.5901 5.19412 17.6301C4.52412 16.0701 4.22412 14.5901 4.22412 13.2201C4.22412 11.6401 4.63412 10.2201 5.35412 9.07012C6.07412 7.92012 7.10412 7.04012 8.29412 6.53012C9.23412 6.12012 10.2341 5.87012 11.2941 5.87012C12.0941 5.87012 12.9241 6.02012 13.7441 6.35012C14.4141 6.63012 15.0841 7.04012 15.7341 7.57012C16.3841 7.04012 17.0441 6.63012 17.7241 6.35012C18.5441 6.02012 19.3641 5.87012 20.1741 5.87012C21.2241 5.87012 22.2341 6.12012 23.1641 6.53012C24.3641 7.04012 25.3841 7.92012 26.1041 9.07012C26.8241 10.2201 27.2441 11.6401 27.2441 13.2201C27.2441 14.5901 26.9341 16.0701 26.2741 17.6301C25.4341 19.5901 24.0341 21.4501 22.2641 23.1101C20.4941 24.7601 18.3541 26.2101 16.0041 27.3401C15.8341 27.4201 15.6341 27.4201 15.4641 27.3401ZM18.1919 7.50805C18.8619 7.23805 19.5219 7.11805 20.1719 7.11805C21.0219 7.11805 21.8619 7.32805 22.6719 7.66805C23.6319 8.08805 24.4619 8.79805 25.0519 9.73805C25.6419 10.678 25.9919 11.858 25.9919 13.228C25.9919 14.398 25.7319 15.718 25.1219 17.138C24.3719 18.898 23.0819 20.638 21.4119 22.198C19.8119 23.698 17.8619 25.028 15.7319 26.078C13.6019 25.028 11.6519 23.698 10.0519 22.198C8.38193 20.638 7.09193 18.898 6.34193 17.138C5.73193 15.718 5.47193 14.398 5.47193 13.228C5.47193 11.858 5.82193 10.678 6.41193 9.73805C7.00193 8.79805 7.83193 8.08805 8.79193 7.66805C9.60193 7.32805 10.4419 7.11805 11.2919 7.11805C11.9419 7.11805 12.6019 7.23805 13.2719 7.50805C13.6919 7.68805 14.1219 7.92805 14.5519 8.23805H14.5719C14.6629 8.30334 14.7453 8.36628 14.8225 8.42525C15.1355 8.66432 15.3629 8.83805 15.7319 8.83805C16.1009 8.83805 16.3283 8.66432 16.6413 8.42525C16.7185 8.36628 16.8009 8.30334 16.8919 8.23805H16.9119C17.3419 7.92805 17.7719 7.68805 18.1919 7.50805Z" fill="black" fill-opacity="0.85"/>
<path fill-rule="evenodd" clip-rule="evenodd" d="M14.8651 10.7808C15.1851 11.0708 15.4751 11.4208 15.7351 11.8308C15.9851 11.4208 16.2751 11.0708 16.5951 10.7808C17.4851 9.96082 18.5751 9.59082 19.5951 9.59082C20.6651 9.59082 21.6751 9.98082 22.3751 10.7308C22.7651 11.1508 23.0451 11.6408 23.2251 12.1508C23.4051 12.6708 23.4751 13.2208 23.4751 13.7608C23.4751 14.5908 23.2951 15.4108 22.9751 16.1608C22.3751 17.5708 21.4051 18.8808 20.2051 20.0508C19.0151 21.2108 17.5751 22.2408 16.0351 23.0808C15.8451 23.1908 15.6251 23.1908 15.4351 23.0808C13.8851 22.2408 12.4551 21.2108 11.2551 20.0508C10.0551 18.8808 9.08511 17.5708 8.48511 16.1608C8.16511 15.4108 7.98511 14.5908 7.98511 13.7608C7.98511 13.2208 8.06511 12.6708 8.24511 12.1508C8.41511 11.6408 8.69511 11.1508 9.08511 10.7308C9.78511 9.98082 10.8051 9.59082 11.8651 9.59082C12.8851 9.59082 13.9751 9.96082 14.8651 10.7808ZM21.4629 11.5789C21.7229 11.8589 21.9129 12.1889 22.0429 12.5589C22.1729 12.9289 22.2329 13.3389 22.2329 13.7589C22.2329 14.3989 22.0829 15.0789 21.8329 15.6689C21.3129 16.8989 20.4429 18.0789 19.3429 19.1489C18.3129 20.1589 17.0729 21.0489 15.7329 21.8189C14.3929 21.0489 13.1529 20.1589 12.1229 19.1489C11.0229 18.0789 10.1529 16.8989 9.63291 15.6689C9.37291 15.0789 9.23291 14.3989 9.23291 13.7589C9.23291 13.3389 9.29291 12.9289 9.42291 12.5589C9.55291 12.1889 9.74291 11.8589 10.0029 11.5789C10.4229 11.1289 11.1129 10.8389 11.8629 10.8389C12.5929 10.8389 13.3729 11.0989 14.0229 11.6989C14.2829 11.9389 14.5229 12.2389 14.7329 12.5889H14.7429C15.0329 13.1089 15.4129 13.2289 15.7329 13.2289C16.0529 13.2289 16.4329 13.1089 16.7229 12.5889H16.7329C16.9429 12.2389 17.1829 11.9389 17.4429 11.6989C18.0929 11.0989 18.8729 10.8389 19.6029 10.8389C20.3529 10.8389 21.0429 11.1289 21.4629 11.5789Z" fill="black" fill-opacity="0.85"/>
</svg>
