<svg width="32" height="32" viewBox="0 0 32 32" fill="none" xmlns="http://www.w3.org/2000/svg">
<path fill-rule="evenodd" clip-rule="evenodd" d="M5.50464 16.0059C5.50464 10.2159 10.2146 5.50586 16.0046 5.50586C21.7846 5.50586 26.4946 10.2159 26.4946 16.0059C26.4946 17.8059 26.0346 19.5859 25.1546 21.1459L26.3946 26.0259C26.4546 26.2459 26.2546 26.4559 26.0246 26.3959L21.1446 25.1559C19.5846 26.0359 17.8046 26.4959 16.0046 26.4959C10.2146 26.4959 5.50464 21.7859 5.50464 16.0059ZM7.03979 16.0027C7.03979 11.0627 11.0598 7.04272 15.9998 7.04272C20.9398 7.04272 24.9598 11.0627 24.9598 16.0027C24.9598 17.6427 24.5098 19.2427 23.6698 20.6327L23.6398 20.6927C23.5498 20.8327 23.5298 21.0027 23.5698 21.1627L24.3898 24.3927L21.1598 23.5727C20.9998 23.5327 20.8298 23.5527 20.6898 23.6427L20.6298 23.6727C19.2398 24.5127 17.6398 24.9627 15.9998 24.9627C11.0598 24.9627 7.03979 20.9427 7.03979 16.0027Z" fill="#5D658C"/>
</svg>
