<svg width="24" height="24" viewBox="0 0 24 24" fill="none" xmlns="http://www.w3.org/2000/svg">
<g clip-path="url(#clip0)">
<path fill-rule="evenodd" clip-rule="evenodd" d="M11.154 18.619L11.334 18.339C11.284 18.369 11.224 18.389 11.154 18.389V17.979L11.274 18.239L11.154 17.979L10.754 17.969C10.754 17.959 10.754 17.949 10.754 17.939C10.754 17.949 10.754 17.969 10.754 17.979C10.744 18.029 10.744 18.109 10.744 18.299C10.744 18.459 10.744 18.549 10.744 18.599C10.754 18.619 10.754 18.639 10.754 18.659C10.754 18.659 10.754 18.649 10.754 18.639L11.154 18.619L11.334 18.339L11.154 18.619V18.219C11.184 18.219 11.214 18.219 11.244 18.229C11.254 18.229 11.264 18.229 11.274 18.239L11.154 17.979V18.389C11.224 18.389 11.284 18.369 11.334 18.339L11.274 18.239C11.264 18.229 11.254 18.229 11.244 18.229C11.214 18.219 11.184 18.219 11.154 18.219V18.619Z" fill="white"/>
<path fill-rule="evenodd" clip-rule="evenodd" d="M11.334 18.3393L11.154 18.6193L11.474 18.3793C11.464 18.3593 11.434 18.3293 11.404 18.2993C11.384 18.3193 11.354 18.3293 11.334 18.3393Z" fill="white"/>
<path fill-rule="evenodd" clip-rule="evenodd" d="M11.474 18.3793C11.514 18.4293 11.524 18.4593 11.534 18.4793C11.544 18.5193 11.554 18.5393 11.554 18.5493V18.5693C11.554 18.5693 11.554 18.5693 11.554 18.5593C11.534 18.4493 11.484 18.3593 11.404 18.2993C11.434 18.3293 11.464 18.3593 11.474 18.3793Z" fill="white"/>
<path fill-rule="evenodd" clip-rule="evenodd" d="M11.404 18.2993C11.384 18.3193 11.364 18.3293 11.334 18.3393C11.354 18.3293 11.384 18.3193 11.404 18.2993Z" fill="white"/>
<path fill-rule="evenodd" clip-rule="evenodd" d="M11.544 18.0693C11.544 18.0893 11.544 18.1093 11.514 18.1593C11.504 18.1793 11.484 18.2193 11.434 18.2693C11.424 18.2793 11.414 18.2893 11.404 18.2993C11.474 18.2393 11.524 18.1593 11.544 18.0693Z" fill="white"/>
<path fill-rule="evenodd" clip-rule="evenodd" d="M11.554 18.5591C11.554 18.5291 11.554 18.4591 11.554 18.2991C11.554 18.1491 11.554 18.0691 11.554 18.0391C11.554 18.0491 11.554 18.0491 11.554 18.0591V18.0691C11.544 18.0691 11.544 18.0691 11.544 18.0691C11.524 18.1591 11.474 18.2391 11.404 18.2991C11.484 18.3591 11.534 18.4491 11.554 18.5591Z" fill="white"/>
<path fill-rule="evenodd" clip-rule="evenodd" d="M11.554 18.0591C11.554 18.0591 11.554 18.0691 11.544 18.0691H11.554V18.0591Z" fill="white"/>
<path fill-rule="evenodd" clip-rule="evenodd" d="M11.554 18.0593C11.554 18.0393 11.554 18.0293 11.554 18.0293L11.274 18.0093L11.544 18.0693C11.554 18.0693 11.554 18.0593 11.554 18.0593Z" fill="white"/>
<path fill-rule="evenodd" clip-rule="evenodd" d="M11.274 18.0093H11.264L11.544 18.0693L11.274 18.0093Z" fill="white"/>
<path fill-rule="evenodd" clip-rule="evenodd" d="M11.334 18.3393C11.364 18.3293 11.384 18.3193 11.404 18.2993C11.394 18.2893 11.384 18.2893 11.374 18.2793L11.334 18.3393Z" fill="white"/>
<path fill-rule="evenodd" clip-rule="evenodd" d="M11.274 18.2393L11.334 18.3393L11.374 18.2793C11.344 18.2593 11.314 18.2493 11.274 18.2393Z" fill="white"/>
<path fill-rule="evenodd" clip-rule="evenodd" d="M11.334 18.3393L11.374 18.2793L11.334 18.3393Z" fill="white"/>
<path fill-rule="evenodd" clip-rule="evenodd" d="M11.154 19.0191V18.6191L10.754 18.6391C10.754 18.6491 10.754 18.6591 10.754 18.6591C10.754 18.6691 10.754 18.6691 10.754 18.6791C10.754 18.6891 10.764 18.7091 10.774 18.7491C10.784 18.7791 10.794 18.8091 10.834 18.8591C10.854 18.8891 10.884 18.9191 10.934 18.9591C10.964 18.9791 10.994 18.9891 11.034 19.0091C11.074 19.0191 11.114 19.0191 11.154 19.0191Z" fill="white"/>
<path fill-rule="evenodd" clip-rule="evenodd" d="M10.774 17.8391C10.764 17.8891 10.764 17.8991 10.754 17.9191C10.754 17.9291 10.754 17.9291 10.754 17.9391C10.754 17.9491 10.754 17.9591 10.754 17.9691L11.154 17.9791V17.5791C11.074 17.5791 10.984 17.6091 10.934 17.6391C10.884 17.6791 10.854 17.7091 10.834 17.7391C10.794 17.7891 10.784 17.8191 10.774 17.8391Z" fill="white"/>
<path fill-rule="evenodd" clip-rule="evenodd" d="M11.554 18.0293L11.274 18.0093L11.554 18.0293Z" fill="white"/>
<path fill-rule="evenodd" clip-rule="evenodd" d="M13.504 17.5791V17.9791L13.914 17.9591C13.914 17.9591 13.914 17.9491 13.904 17.9391V17.9291C13.904 17.9091 13.904 17.8891 13.884 17.8491C13.874 17.8191 13.874 17.7891 13.834 17.7391C13.804 17.7091 13.774 17.6791 13.724 17.6391C13.694 17.6291 13.664 17.6091 13.624 17.5991C13.594 17.5791 13.554 17.5791 13.504 17.5791Z" fill="white"/>
<path fill-rule="evenodd" clip-rule="evenodd" d="M13.904 17.9291V17.9391C13.894 17.7091 13.844 17.4991 13.744 17.3191C13.594 17.0391 13.354 16.8491 13.104 16.7391C12.854 16.6391 12.584 16.5991 12.334 16.5991V16.9991V16.5991H12.324C12.154 16.5991 11.984 16.6191 11.804 16.6591C11.554 16.7191 11.284 16.8391 11.084 17.0691C10.984 17.1791 10.904 17.3191 10.844 17.4691C10.794 17.6091 10.764 17.7691 10.754 17.9391C10.754 17.9291 10.754 17.9291 10.754 17.9191C10.764 17.8991 10.764 17.8891 10.774 17.8391C10.784 17.8191 10.794 17.7891 10.834 17.7391C10.854 17.7091 10.884 17.6791 10.934 17.6391C10.984 17.6091 11.074 17.5791 11.154 17.5791V17.9791L11.164 17.9891L11.274 18.0091L11.554 18.0291V18.0391C11.554 18.0291 11.554 18.0091 11.554 17.9891C11.564 17.8591 11.594 17.7591 11.624 17.6891C11.674 17.5991 11.744 17.5391 11.864 17.4891C11.984 17.4391 12.144 17.4091 12.324 17.4091H12.334C12.444 17.4091 12.554 17.4191 12.654 17.4391C12.804 17.4791 12.904 17.5391 12.974 17.6091C13.034 17.6891 13.094 17.7891 13.104 17.9991C13.104 18.0091 13.104 18.0291 13.104 18.0391V18.0291L13.204 18.0191L13.394 17.9991L13.494 17.9891L13.134 18.1191L13.504 17.9791V17.5791C13.554 17.5791 13.594 17.5791 13.624 17.5991C13.664 17.6091 13.694 17.6291 13.724 17.6391C13.774 17.6791 13.804 17.7091 13.834 17.7391C13.874 17.7891 13.874 17.8191 13.884 17.8491C13.904 17.8891 13.904 17.9091 13.904 17.9291Z" fill="white"/>
<path fill-rule="evenodd" clip-rule="evenodd" d="M13.444 18.3789C13.464 18.3789 13.484 18.3889 13.504 18.3889C13.484 18.3889 13.464 18.3789 13.444 18.3789Z" fill="white"/>
<path fill-rule="evenodd" clip-rule="evenodd" d="M13.504 17.979L13.184 18.229H13.194C13.204 18.249 13.224 18.279 13.264 18.299C13.284 18.289 13.304 18.269 13.334 18.259L13.504 17.979Z" fill="white"/>
<path fill-rule="evenodd" clip-rule="evenodd" d="M13.504 17.979L13.334 18.259C13.344 18.249 13.364 18.239 13.384 18.239C13.424 18.219 13.464 18.219 13.504 18.219V18.619L13.914 18.629C13.914 18.639 13.914 18.649 13.904 18.659C13.914 18.649 13.914 18.639 13.914 18.619C13.914 18.569 13.914 18.489 13.914 18.299C13.914 18.139 13.914 18.049 13.914 17.999C13.914 17.979 13.914 17.959 13.904 17.939C13.914 17.949 13.914 17.959 13.914 17.959L13.504 17.979V18.389C13.484 18.389 13.464 18.379 13.444 18.379C13.424 18.379 13.404 18.369 13.384 18.369L13.504 18.619V18.219C13.464 18.219 13.424 18.219 13.384 18.239C13.364 18.239 13.354 18.249 13.334 18.259L13.384 18.369C13.404 18.369 13.424 18.379 13.444 18.379C13.464 18.379 13.484 18.389 13.504 18.389V17.979Z" fill="white"/>
<path fill-rule="evenodd" clip-rule="evenodd" d="M13.384 18.3693C13.344 18.3493 13.294 18.3293 13.264 18.2993C13.244 18.3093 13.234 18.3193 13.224 18.3293L13.504 18.6193L13.384 18.3693Z" fill="white"/>
<path fill-rule="evenodd" clip-rule="evenodd" d="M13.504 19.0191C13.594 19.0291 13.674 18.9991 13.724 18.9591C13.774 18.9291 13.804 18.8891 13.824 18.8691C13.864 18.8091 13.874 18.7791 13.884 18.7591C13.904 18.7191 13.904 18.6991 13.904 18.6791C13.904 18.6791 13.904 18.6691 13.904 18.6591C13.914 18.6491 13.914 18.6391 13.914 18.6291L13.504 18.6191V19.0191Z" fill="white"/>
<path fill-rule="evenodd" clip-rule="evenodd" d="M13.384 18.2392C13.424 18.2192 13.464 18.2192 13.504 18.2192C13.464 18.2192 13.424 18.2192 13.384 18.2392Z" fill="white"/>
<path fill-rule="evenodd" clip-rule="evenodd" d="M11.274 18.239C11.324 18.249 11.364 18.269 11.404 18.299C11.414 18.289 11.424 18.279 11.434 18.269L11.154 17.979L11.274 18.239Z" fill="white"/>
<path fill-rule="evenodd" clip-rule="evenodd" d="M13.394 17.999L13.114 18.049L13.394 17.999Z" fill="white"/>
<path fill-rule="evenodd" clip-rule="evenodd" d="M13.114 18.0493C13.114 18.0593 13.114 18.0593 13.114 18.0693V18.0793C13.114 18.0893 13.124 18.0993 13.134 18.1193L13.494 17.9893L13.394 17.9993L13.114 18.0493Z" fill="white"/>
<path fill-rule="evenodd" clip-rule="evenodd" d="M13.234 18.019L13.104 18.029V18.039L13.114 18.049L13.394 17.999L13.204 18.019H13.234Z" fill="white"/>
<path fill-rule="evenodd" clip-rule="evenodd" d="M13.104 18.029L13.204 18.019L13.104 18.029Z" fill="white"/>
<path fill-rule="evenodd" clip-rule="evenodd" d="M13.104 18.029L13.234 18.019H13.204L13.104 18.029Z" fill="white"/>
<path fill-rule="evenodd" clip-rule="evenodd" d="M12.334 19.419V19.189H12.324L12.334 19.419Z" fill="white"/>
<path fill-rule="evenodd" clip-rule="evenodd" d="M11.554 18.5491L11.174 18.6091L11.534 18.4791L11.154 18.6191V19.0191C11.114 19.0191 11.074 19.0191 11.034 19.0091C10.994 18.9891 10.964 18.9791 10.934 18.9591C10.884 18.9191 10.854 18.8891 10.834 18.8591C10.794 18.8091 10.784 18.7791 10.774 18.7491C10.764 18.7091 10.754 18.6891 10.754 18.6791C10.754 18.6691 10.754 18.6691 10.754 18.6591C10.764 18.8891 10.824 19.0991 10.914 19.2791C11.064 19.5591 11.314 19.7591 11.564 19.8591C11.814 19.9691 12.074 19.9991 12.334 19.9991H12.344V19.7891V19.9991C12.514 19.9991 12.684 19.9791 12.854 19.9391C13.114 19.8791 13.374 19.7591 13.584 19.5291C13.684 19.4191 13.764 19.2791 13.814 19.1291C13.874 18.9891 13.904 18.8291 13.904 18.6591C13.904 18.6691 13.904 18.6791 13.904 18.6791C13.904 18.6991 13.904 18.7191 13.884 18.7591C13.874 18.7791 13.864 18.8091 13.824 18.8691C13.804 18.8891 13.774 18.9291 13.724 18.9591C13.674 18.9991 13.594 19.0291 13.504 19.0191V18.6191L13.224 18.3291L13.504 18.6191L13.144 18.4391L13.504 18.6191L13.394 18.5891L13.104 18.5691C13.104 18.5791 13.104 18.5991 13.104 18.6091C13.104 18.7491 13.074 18.8391 13.034 18.9091C12.984 18.9991 12.914 19.0591 12.794 19.1191C12.684 19.1691 12.514 19.1891 12.344 19.1891H12.334H12.324H12.334C12.214 19.1891 12.104 19.1791 12.004 19.1591C11.864 19.1191 11.764 19.0691 11.694 18.9891C11.624 18.9191 11.574 18.8091 11.554 18.5991C11.554 18.5891 11.554 18.5691 11.554 18.5591C11.554 18.5691 11.554 18.5691 11.554 18.5691L11.434 18.5791L11.554 18.5691L11.264 18.5991L11.554 18.5491Z" fill="white"/>
<path fill-rule="evenodd" clip-rule="evenodd" d="M11.554 18.2994C11.554 18.4594 11.554 18.5294 11.554 18.5594C11.554 18.5694 11.554 18.5894 11.554 18.5994C11.574 18.8094 11.624 18.9194 11.694 18.9894C11.764 19.0694 11.864 19.1194 12.004 19.1594C12.104 19.1794 12.214 19.1894 12.334 19.1894V19.4194L12.324 19.1894H12.334H12.344C12.514 19.1894 12.684 19.1694 12.794 19.1194C12.914 19.0594 12.984 18.9994 13.034 18.9094C13.074 18.8394 13.104 18.7494 13.104 18.6094C13.104 18.5994 13.104 18.5794 13.104 18.5694V18.5594C13.104 18.5294 13.114 18.4594 13.114 18.2994C13.114 18.1494 13.114 18.0794 13.104 18.0494V18.0394C13.104 18.0294 13.104 18.0094 13.104 17.9994C13.094 17.7894 13.034 17.6894 12.974 17.6094C12.904 17.5394 12.804 17.4794 12.654 17.4394C12.554 17.4194 12.444 17.4094 12.334 17.4094H12.324V17.3394V17.4094C12.144 17.4094 11.984 17.4394 11.864 17.4894C11.744 17.5394 11.674 17.5994 11.624 17.6894C11.594 17.7594 11.564 17.8594 11.554 17.9894C11.554 18.0094 11.554 18.0294 11.554 18.0394C11.554 18.0694 11.554 18.1494 11.554 18.2994Z" fill="white"/>
<path fill-rule="evenodd" clip-rule="evenodd" d="M11.554 18.5693L11.434 18.5793L11.554 18.5693Z" fill="white"/>
<path fill-rule="evenodd" clip-rule="evenodd" d="M11.554 18.5493L11.264 18.5993L11.554 18.5693V18.5493Z" fill="white"/>
<path fill-rule="evenodd" clip-rule="evenodd" d="M13.134 18.119C13.134 18.139 13.144 18.169 13.184 18.219V18.229L13.504 17.979L13.134 18.119Z" fill="white"/>
<path fill-rule="evenodd" clip-rule="evenodd" d="M13.504 17.979L13.184 18.229L13.504 17.979Z" fill="white"/>
<path fill-rule="evenodd" clip-rule="evenodd" d="M13.114 18.5291C13.114 18.5191 13.124 18.4991 13.144 18.4391C13.154 18.4191 13.174 18.3891 13.204 18.3491C13.214 18.3491 13.214 18.3391 13.214 18.3391C13.224 18.3391 13.224 18.3291 13.224 18.3291C13.234 18.3191 13.244 18.3091 13.264 18.2991C13.234 18.2791 13.214 18.2591 13.194 18.2291H13.184V18.2191C13.154 18.1791 13.134 18.1291 13.114 18.0791V18.0691C13.114 18.0591 13.104 18.0491 13.104 18.0391V18.0491C13.114 18.0791 13.114 18.1491 13.114 18.2991C13.114 18.4591 13.104 18.5291 13.104 18.5591V18.5691V18.5591C13.114 18.5491 13.114 18.5491 13.114 18.5291Z" fill="white"/>
<path fill-rule="evenodd" clip-rule="evenodd" d="M11.164 17.9893L11.514 18.1593C11.544 18.1093 11.544 18.0893 11.544 18.0693L11.264 18.0093H11.274L11.164 17.9893Z" fill="white"/>
<path fill-rule="evenodd" clip-rule="evenodd" d="M11.154 18.6189L11.534 18.4789C11.524 18.4589 11.514 18.4289 11.474 18.3789L11.154 18.6189Z" fill="white"/>
<path fill-rule="evenodd" clip-rule="evenodd" d="M11.154 18.6189L11.474 18.3789L11.154 18.6189Z" fill="white"/>
<path fill-rule="evenodd" clip-rule="evenodd" d="M11.404 18.2993C11.364 18.2693 11.324 18.2493 11.274 18.2393C11.314 18.2493 11.344 18.2593 11.374 18.2793C11.384 18.2893 11.394 18.2893 11.404 18.2993Z" fill="white"/>
<path fill-rule="evenodd" clip-rule="evenodd" d="M13.214 18.3391C13.224 18.3391 13.224 18.3291 13.224 18.3291C13.224 18.3291 13.224 18.3391 13.214 18.3391Z" fill="white"/>
<path fill-rule="evenodd" clip-rule="evenodd" d="M13.224 18.3293C13.234 18.3193 13.244 18.3093 13.264 18.2993C13.244 18.3093 13.234 18.3193 13.224 18.3293Z" fill="white"/>
<path fill-rule="evenodd" clip-rule="evenodd" d="M13.204 18.3491C13.184 18.3791 13.164 18.4091 13.144 18.4391L13.504 18.6191L13.224 18.3291C13.224 18.3291 13.224 18.3391 13.214 18.3391C13.214 18.3391 13.214 18.3491 13.204 18.3491Z" fill="white"/>
<path fill-rule="evenodd" clip-rule="evenodd" d="M13.204 18.3494C13.214 18.3494 13.214 18.3394 13.214 18.3394C13.214 18.3394 13.214 18.3494 13.204 18.3494Z" fill="white"/>
<path fill-rule="evenodd" clip-rule="evenodd" d="M13.144 18.4391C13.164 18.4091 13.184 18.3791 13.204 18.3491C13.174 18.3891 13.154 18.4191 13.144 18.4391Z" fill="white"/>
<path fill-rule="evenodd" clip-rule="evenodd" d="M11.174 18.609L11.554 18.549C11.554 18.539 11.544 18.519 11.534 18.479L11.174 18.609Z" fill="white"/>
<path fill-rule="evenodd" clip-rule="evenodd" d="M13.114 18.0791C13.134 18.1291 13.154 18.1791 13.184 18.2191C13.144 18.1691 13.134 18.1391 13.134 18.1191C13.124 18.0991 13.114 18.0891 13.114 18.0791Z" fill="white"/>
<path fill-rule="evenodd" clip-rule="evenodd" d="M11.514 18.159L11.164 17.989L11.154 17.979L11.434 18.269C11.484 18.219 11.504 18.179 11.514 18.159Z" fill="white"/>
<path fill-rule="evenodd" clip-rule="evenodd" d="M11.154 17.979L11.434 18.269L11.154 17.979Z" fill="white"/>
<path fill-rule="evenodd" clip-rule="evenodd" d="M11.164 17.9893L11.514 18.1593L11.164 17.9893Z" fill="white"/>
<path fill-rule="evenodd" clip-rule="evenodd" d="M13.104 18.0391C13.104 18.0491 13.114 18.0591 13.114 18.0691C13.114 18.0591 13.114 18.0591 13.114 18.0491L13.104 18.0391Z" fill="white"/>
<path fill-rule="evenodd" clip-rule="evenodd" d="M13.334 18.2593C13.354 18.2493 13.364 18.2393 13.384 18.2393C13.364 18.2393 13.344 18.2493 13.334 18.2593Z" fill="white"/>
<path fill-rule="evenodd" clip-rule="evenodd" d="M13.264 18.2993C13.274 18.3093 13.274 18.3093 13.294 18.3193L13.334 18.2593C13.304 18.2693 13.284 18.2793 13.264 18.2993Z" fill="white"/>
<path fill-rule="evenodd" clip-rule="evenodd" d="M13.334 18.2593C13.304 18.2693 13.284 18.2893 13.264 18.2993C13.284 18.2793 13.304 18.2693 13.334 18.2593Z" fill="white"/>
<path fill-rule="evenodd" clip-rule="evenodd" d="M13.294 18.3193C13.314 18.3393 13.344 18.3493 13.384 18.3693L13.334 18.2593L13.294 18.3193Z" fill="white"/>
<path fill-rule="evenodd" clip-rule="evenodd" d="M13.264 18.2993C13.294 18.3293 13.344 18.3493 13.384 18.3693C13.344 18.3493 13.314 18.3393 13.294 18.3193C13.274 18.3093 13.274 18.3093 13.264 18.2993Z" fill="white"/>
<path fill-rule="evenodd" clip-rule="evenodd" d="M13.114 18.529L13.394 18.589L13.504 18.619L13.144 18.439C13.134 18.469 13.124 18.499 13.114 18.529Z" fill="white"/>
<path fill-rule="evenodd" clip-rule="evenodd" d="M13.144 18.439C13.124 18.499 13.114 18.519 13.114 18.529C13.124 18.499 13.134 18.469 13.144 18.439Z" fill="white"/>
<path fill-rule="evenodd" clip-rule="evenodd" d="M13.104 18.5593C13.104 18.5693 13.104 18.5693 13.104 18.5693L13.394 18.5893L13.114 18.5293C13.114 18.5393 13.114 18.5493 13.104 18.5593Z" fill="white"/>
<path fill-rule="evenodd" clip-rule="evenodd" d="M13.114 18.5293C13.114 18.5493 13.114 18.5493 13.104 18.5593C13.114 18.5493 13.114 18.5393 13.114 18.5293Z" fill="white"/>
<path fill-rule="evenodd" clip-rule="evenodd" d="M13.394 18.5893L13.114 18.5293L13.394 18.5893Z" fill="white"/>
<path fill-rule="evenodd" clip-rule="evenodd" d="M13.444 18.3791C13.424 18.3791 13.404 18.3691 13.384 18.3691C13.404 18.3691 13.424 18.3791 13.444 18.3791Z" fill="white"/>
<path fill-rule="evenodd" clip-rule="evenodd" d="M11.274 18.2393L11.334 18.3393L11.274 18.2393Z" fill="white"/>
<path fill-rule="evenodd" clip-rule="evenodd" d="M11.274 18.239C11.264 18.229 11.254 18.229 11.244 18.229C11.254 18.229 11.264 18.229 11.274 18.239Z" fill="white"/>
<path fill-rule="evenodd" clip-rule="evenodd" d="M11.154 18.2192C11.184 18.2192 11.214 18.2192 11.244 18.2292C11.214 18.2192 11.184 18.2192 11.154 18.2192Z" fill="white"/>
<path fill-rule="evenodd" clip-rule="evenodd" d="M11.154 18.3894C11.224 18.3894 11.284 18.3694 11.334 18.3394C11.284 18.3694 11.224 18.3894 11.154 18.3894Z" fill="white"/>
<path fill-rule="evenodd" clip-rule="evenodd" d="M13.264 18.299C13.224 18.279 13.204 18.249 13.194 18.229C13.214 18.259 13.234 18.279 13.264 18.299Z" fill="white"/>
<path fill-rule="evenodd" clip-rule="evenodd" d="M13.504 17.979L13.914 17.959L13.504 17.979Z" fill="white"/>
<path fill-rule="evenodd" clip-rule="evenodd" d="M13.504 17.979L13.914 17.959L13.504 17.979Z" fill="white"/>
<path fill-rule="evenodd" clip-rule="evenodd" d="M11.334 18.3393L11.274 18.2393L11.334 18.3393Z" fill="white"/>
<path fill-rule="evenodd" clip-rule="evenodd" d="M13.494 17.9893L13.394 17.9993L13.494 17.9893Z" fill="white"/>
<path fill-rule="evenodd" clip-rule="evenodd" d="M11.534 18.479L11.174 18.609L11.534 18.479Z" fill="white"/>
<path fill-rule="evenodd" clip-rule="evenodd" d="M13.504 18.6191L13.384 18.3691L13.504 18.6191Z" fill="white"/>
<path fill-rule="evenodd" clip-rule="evenodd" d="M13.394 18.5893L13.114 18.5293L13.394 18.5893Z" fill="white"/>
<path fill-rule="evenodd" clip-rule="evenodd" d="M13.114 18.049L13.394 17.999L13.114 18.049Z" fill="white"/>
<path fill-rule="evenodd" clip-rule="evenodd" d="M11.554 18.5693L11.434 18.5793L11.554 18.5693Z" fill="white"/>
<path fill-rule="evenodd" clip-rule="evenodd" d="M11.154 17.979L11.274 18.239L11.154 17.979Z" fill="white"/>
<path fill-rule="evenodd" clip-rule="evenodd" d="M13.504 18.619L13.144 18.439L13.504 18.619Z" fill="white"/>
<path fill-rule="evenodd" clip-rule="evenodd" d="M13.504 18.6191L13.224 18.3291L13.504 18.6191Z" fill="white"/>
<path fill-rule="evenodd" clip-rule="evenodd" d="M11.374 18.2793L11.334 18.3393L11.374 18.2793Z" fill="white"/>
<path fill-rule="evenodd" clip-rule="evenodd" d="M11.434 18.269L11.154 17.979L11.434 18.269Z" fill="white"/>
<path fill-rule="evenodd" clip-rule="evenodd" d="M13.294 18.3193L13.334 18.2593L13.294 18.3193Z" fill="white"/>
<path fill-rule="evenodd" clip-rule="evenodd" d="M11.174 18.6093L11.554 18.5493L11.174 18.6093Z" fill="white"/>
<path fill-rule="evenodd" clip-rule="evenodd" d="M13.104 18.5693L13.394 18.5893L13.104 18.5693Z" fill="white"/>
<path fill-rule="evenodd" clip-rule="evenodd" d="M11.154 18.6194L11.334 18.3394L11.154 18.6194Z" fill="white"/>
<path fill-rule="evenodd" clip-rule="evenodd" d="M11.554 18.5493L11.264 18.5993L11.554 18.5493Z" fill="white"/>
<path fill-rule="evenodd" clip-rule="evenodd" d="M11.164 17.9893L11.514 18.1593L11.164 17.9893Z" fill="white"/>
<path fill-rule="evenodd" clip-rule="evenodd" d="M11.434 18.5793L11.554 18.5693L11.434 18.5793Z" fill="white"/>
<path fill-rule="evenodd" clip-rule="evenodd" d="M11.514 18.1593L11.164 17.9893L11.514 18.1593Z" fill="white"/>
<path fill-rule="evenodd" clip-rule="evenodd" d="M11.154 17.979L11.434 18.269L11.154 17.979Z" fill="white"/>
<path fill-rule="evenodd" clip-rule="evenodd" d="M11.264 18.0093L11.544 18.0693L11.264 18.0093Z" fill="white"/>
<path fill-rule="evenodd" clip-rule="evenodd" d="M12.324 19.189L12.334 19.419L12.324 19.189Z" fill="white"/>
<path fill-rule="evenodd" clip-rule="evenodd" d="M13.504 17.979L13.334 18.259L13.504 17.979Z" fill="white"/>
<path fill-rule="evenodd" clip-rule="evenodd" d="M11.264 18.5993L11.554 18.5693L11.264 18.5993Z" fill="white"/>
<path fill-rule="evenodd" clip-rule="evenodd" d="M13.294 18.3193L13.334 18.2593L13.294 18.3193Z" fill="white"/>
<path fill-rule="evenodd" clip-rule="evenodd" d="M13.134 18.1193L13.494 17.9893L13.134 18.1193Z" fill="white"/>
<path fill-rule="evenodd" clip-rule="evenodd" d="M11.474 18.3789L11.154 18.6189L11.474 18.3789Z" fill="white"/>
</g>
<path fill-rule="evenodd" clip-rule="evenodd" d="M10.319 8.94H8.98897H8.34897C8.04897 8.94 7.81897 8.68 7.81897 8.35C7.84897 7.4 8.06897 6.56 8.48897 5.88C8.94897 5.15 9.62897 4.61 10.479 4.31C11.039 4.1 11.679 4 12.379 4C13.779 4 14.979 4.49 15.809 5.31C16.639 6.14 17.099 7.28 17.099 8.53C17.099 9.46 16.819 10.27 16.389 10.96C15.969 11.65 15.409 12.23 14.859 12.75C14.539 13.05 14.289 13.33 14.119 13.64C13.949 13.95 13.849 14.31 13.849 14.82V14.83V15.06C13.849 15.37 13.629 15.54 13.309 15.55H11.229C10.919 15.54 10.689 15.37 10.689 15.06V14.83V14.25C10.689 13.32 11.019 12.54 11.459 11.92C11.8621 11.32 12.3619 10.8431 12.8018 10.4233C12.8311 10.3953 12.8602 10.3675 12.889 10.34C13.179 10.07 13.419 9.83 13.589 9.61C13.759 9.39 13.869 9.2 13.929 8.99C13.979 8.85 13.999 8.71 13.999 8.53C13.999 8.09 13.829 7.76 13.549 7.51C13.269 7.26 12.869 7.11 12.379 7.1C11.889 7.11 11.529 7.26 11.279 7.5C11.139 7.63 11.049 7.81 10.979 8.01C10.979 8.015 10.9765 8.015 10.9727 8.015C10.969 8.015 10.964 8.015 10.959 8.02C10.9281 8.07564 10.9086 8.19241 10.8888 8.31128C10.8766 8.38469 10.8642 8.45891 10.849 8.52C10.789 8.82 10.629 8.93 10.319 8.94ZM14.316 12.157C13.966 12.487 13.646 12.817 13.416 13.247C13.186 13.657 13.066 14.157 13.056 14.737H11.496V14.257C11.496 13.507 11.746 12.917 12.116 12.377C12.486 11.837 12.986 11.367 13.456 10.927C13.846 10.547 14.176 10.207 14.416 9.83701C14.546 9.64701 14.636 9.44701 14.706 9.22701C14.776 9.00701 14.806 8.77701 14.806 8.53701C14.806 7.87701 14.536 7.29701 14.086 6.90701C13.646 6.50701 13.036 6.29701 12.376 6.29701C11.716 6.29701 11.126 6.51701 10.716 6.91701C10.396 7.23701 10.186 7.65701 10.116 8.12701H8.64597C8.67597 7.69701 8.74597 7.28701 8.87597 6.93701C9.12597 6.25701 9.53597 5.73701 10.116 5.37701C10.696 5.01701 11.446 4.80701 12.376 4.80701C13.596 4.80701 14.566 5.22701 15.236 5.88701C15.916 6.55701 16.296 7.47701 16.296 8.53701C16.296 9.29701 16.066 9.94701 15.706 10.537C15.336 11.137 14.836 11.667 14.316 12.157Z" fill="white"/>
<defs>
<clipPath id="clip0">
<rect width="3.174" height="3.401" fill="white" transform="translate(10.744 16.5991)"/>
</clipPath>
</defs>
</svg>
