<svg width="18" height="18" viewBox="0 0 18 18" fill="none" xmlns="http://www.w3.org/2000/svg">
<path fill-rule="evenodd" clip-rule="evenodd" d="M17.854 8.89697L9.02897 0.0429688L0.146971 8.89597C0.05575 8.99014 0.00516662 9.11637 0.00611666 9.24748C0.0070667 9.37858 0.0594742 9.50407 0.152051 9.59691C0.244627 9.68974 0.369964 9.74251 0.501066 9.74383C0.632168 9.74515 0.758543 9.69492 0.852971 9.60397L1.99997 8.46097V17.5C1.99997 17.6326 2.05265 17.7598 2.14642 17.8535C2.24019 17.9473 2.36736 18 2.49997 18H6.99997C7.13258 18 7.25976 17.9473 7.35353 17.8535C7.44729 17.7598 7.49997 17.6326 7.49997 17.5V13.1295C7.49997 12.9969 7.55265 12.8697 7.64642 12.7759C7.74019 12.6821 7.86736 12.6295 7.99997 12.6295H9.99997C10.1326 12.6295 10.2598 12.6821 10.3535 12.7759C10.4473 12.8697 10.5 12.9969 10.5 13.1295V17.4995C10.5 17.6321 10.5526 17.7593 10.6464 17.853C10.7402 17.9468 10.8674 17.9995 11 17.9995H15.5C15.6326 17.9995 15.7598 17.9468 15.8535 17.853C15.9473 17.7593 16 17.6321 16 17.4995V8.45397L17.146 9.60347C17.2401 9.69469 17.3664 9.74527 17.4975 9.74432C17.6286 9.74337 17.7541 9.69097 17.8469 9.59839C17.9397 9.50581 17.9925 9.38048 17.9938 9.24937C17.9952 9.11827 17.9449 8.9919 17.854 8.89747V8.89697ZM15 7.44997L9.02647 1.45697L2.99997 7.46397V17H6.49997V13.1295C6.49997 12.7316 6.65801 12.3501 6.93931 12.0688C7.22062 11.7875 7.60215 11.6295 7.99997 11.6295H9.99997C10.3978 11.6295 10.7793 11.7875 11.0606 12.0688C11.3419 12.3501 11.5 12.7316 11.5 13.1295V16.9995H15V7.44997Z" fill="white"/>
</svg>
