<svg width="20" height="20" viewBox="0 0 20 20" fill="none" xmlns="http://www.w3.org/2000/svg">
<path d="M9.58333 8.33333V13.3333V8.33333ZM9.58333 13.3333L7.08333 10.8333L9.58333 13.3333ZM9.58333 13.3333L12.0833 10.8333L9.58333 13.3333ZM13.75 17.5H5.41667C4.97464 17.5 4.55072 17.3244 4.23816 17.0118C3.92559 16.6993 3.75 16.2754 3.75 15.8333V4.16667C3.75 3.72464 3.92559 3.30072 4.23816 2.98816C4.55072 2.67559 4.97464 2.5 5.41667 2.5H10.0717C10.2927 2.50005 10.5046 2.58788 10.6608 2.74417L15.1725 7.25583C15.3288 7.41208 15.4166 7.624 15.4167 7.845V15.8333C15.4167 16.2754 15.2411 16.6993 14.9285 17.0118C14.616 17.3244 14.192 17.5 13.75 17.5Z" stroke="#1890FF" stroke-width="1.2" stroke-linecap="round" stroke-linejoin="round"/>
</svg>
