<svg width="22" height="21" viewBox="0 0 22 21" fill="none" xmlns="http://www.w3.org/2000/svg">
<path fill-rule="evenodd" clip-rule="evenodd" d="M18.14 14.11C16.59 13.84 15.41 12.49 15.41 10.87C15.41 9.05 16.89 7.58 18.7 7.57C20.52 7.58 22 9.05 22 10.87C22 12.5 20.81 13.84 19.26 14.11C19.15 17.87 16.07 20.89 12.28 20.89C8.6 20.89 5.59 18.05 5.31 14.43C4.6 14.37 3.94 14.19 3.35 13.89C2.61 13.52 1.99 12.98 1.49 12.32C0.49 11 0 9.18 0 7.12V2.36C0 1.06 1.06 0 2.36 0C3.66 0 4.72 1.06 4.73 2.36C4.71 3.67 3.66 4.72 2.36 4.72C1.9 4.72 1.48 4.59 1.12 4.36V7.11C1.12 8.53 1.38 9.78 1.84 10.76C2.32 11.75 2.98 12.47 3.85 12.9C4.42 13.18 5.08 13.34 5.85 13.34C6.62 13.34 7.28 13.18 7.85 12.9C8.42 12.61 8.91 12.2 9.31 11.66C10.12 10.59 10.58 9 10.58 7.11V4.36C10.2 4.58 9.78 4.72 9.32 4.72C8.01 4.72 6.95 3.66 6.95 2.35C6.96 1.06 8.02 0 9.32 0C10.62 0 11.68 1.06 11.68 2.36V7.12C11.68 8.67 11.4 10.08 10.84 11.25C10.28 12.42 9.44 13.35 8.33 13.91C7.76 14.2 7.12 14.38 6.41 14.45C6.54 15.86 7.16 17.12 8.11 18.07C9.17 19.13 10.64 19.79 12.26 19.79C13.89 19.78 15.35 19.13 16.41 18.07C17.44 17.04 18.09 15.65 18.14 14.11ZM10.21 1.48C10.43 1.71 10.57 2.02 10.57 2.37C10.57 2.71 10.43 3.02 10.21 3.25C9.98 3.46 9.67 3.6 9.32 3.6C8.98 3.6 8.67 3.46 8.44 3.24C8.22 3.02 8.08 2.71 8.08 2.36C8.08 2.01 8.22 1.7 8.44 1.47C8.67 1.25 8.98 1.11 9.32 1.11C9.67 1.12 9.98 1.26 10.21 1.48ZM3.6 2.36C3.6 2.01 3.46 1.7 3.23 1.47C3.02 1.26 2.71 1.12 2.36 1.12C2.02 1.12 1.71 1.26 1.48 1.48C1.26 1.7 1.12 2.01 1.12 2.36C1.12 2.7 1.26 3.01 1.48 3.24C1.7 3.46 2.01 3.6 2.36 3.6C2.71 3.6 3.02 3.46 3.24 3.24C3.46 3.02 3.6 2.71 3.6 2.36ZM20.24 9.33C20.64 9.73 20.87 10.27 20.88 10.87C20.87 11.48 20.63 12.01 20.24 12.41C19.84 12.81 19.31 13.05 18.7 13.05C18.1 13.05 17.56 12.8 17.16 12.41C16.77 12.01 16.53 11.48 16.53 10.87C16.53 10.27 16.78 9.73 17.16 9.33C17.56 8.94 18.1 8.7 18.7 8.7C19.31 8.69 19.85 8.94 20.24 9.33Z" fill="#8089AA"/>
</svg>
