<svg width="16" height="16" viewBox="0 0 16 16" fill="none" xmlns="http://www.w3.org/2000/svg">
<g clip-path="url(#clip0)">
<path fill-rule="evenodd" clip-rule="evenodd" d="M9.57725 0.466797C9.68725 0.466797 9.79725 0.506797 9.87725 0.586797C9.95725 0.666797 9.99725 0.776797 9.99725 0.886797V2.6268C10.5772 2.8468 11.0972 3.1568 11.5672 3.5368L13.0872 2.6668C13.2772 2.5468 13.5372 2.6168 13.6472 2.8168L15.2772 5.6368C15.3372 5.7368 15.3472 5.8468 15.3272 5.9568C15.2972 6.0568 15.2272 6.1568 15.1272 6.2068L13.6172 7.0768C13.6672 7.3768 13.6972 7.6768 13.6972 7.9868C13.6972 8.2968 13.6672 8.6068 13.6172 8.8968L15.1272 9.7668C15.3272 9.8868 15.3972 10.1368 15.2772 10.3368L13.6472 13.1568C13.5972 13.2568 13.5072 13.3268 13.3972 13.3568C13.2972 13.3868 13.1772 13.3668 13.0872 13.3168L11.5672 12.4368C11.0972 12.8168 10.5772 13.1268 9.99725 13.3468V15.0968C9.99725 15.3268 9.80725 15.5068 9.57725 15.5068H6.31725C6.21725 15.5068 6.10725 15.4668 6.02725 15.3868C5.94725 15.3068 5.90725 15.2068 5.90725 15.0968V13.3468C5.32725 13.1268 4.80725 12.8168 4.33725 12.4368L2.81725 13.3168C2.72725 13.3668 2.60725 13.3868 2.50725 13.3568C2.39725 13.3268 2.30725 13.2568 2.25725 13.1568L0.627248 10.3368C0.507248 10.1368 0.577248 9.8868 0.777248 9.7668L2.28725 8.8968C2.23725 8.5968 2.20725 8.2968 2.20725 7.9868C2.20725 7.6768 2.23725 7.3768 2.28725 7.0768L0.777248 6.2068C0.577248 6.0968 0.507248 5.8368 0.627248 5.6368L2.25725 2.8168C2.36725 2.6168 2.61725 2.5468 2.81725 2.6668L4.33725 3.5368C4.80725 3.1568 5.32725 2.8468 5.90725 2.6268V0.886797C5.90725 0.776797 5.94725 0.666797 6.02725 0.586797C6.10725 0.506797 6.21725 0.466797 6.31725 0.466797H9.57725ZM9.16197 2.91871C9.16197 3.09871 9.28197 3.25871 9.45197 3.31871C10.122 3.52871 10.732 3.88871 11.242 4.35871C11.372 4.47871 11.572 4.49871 11.732 4.40871L13.142 3.58871L14.352 5.69871L12.952 6.50871C12.792 6.59871 12.712 6.77871 12.752 6.95871C12.822 7.28871 12.862 7.63871 12.862 7.98871C12.862 8.33871 12.822 8.68871 12.752 9.01871C12.712 9.19871 12.792 9.37871 12.952 9.46871L14.352 10.2787L13.142 12.3887L11.732 11.5687C11.572 11.4787 11.372 11.4987 11.242 11.6187C10.732 12.0887 10.122 12.4487 9.45197 12.6587C9.28197 12.7187 9.16197 12.8787 9.16197 13.0587V14.6787H6.74197V13.0587C6.74197 12.8787 6.62197 12.7187 6.45197 12.6587C5.78197 12.4487 5.17197 12.0887 4.66197 11.6187C4.53197 11.4987 4.33197 11.4787 4.17197 11.5687L2.76197 12.3887L1.55197 10.2787L2.95197 9.46871C3.11197 9.37871 3.19197 9.19871 3.15197 9.01871C3.08197 8.68871 3.04197 8.33871 3.04197 7.98871C3.04197 7.63871 3.08197 7.28871 3.15197 6.94871C3.19197 6.77871 3.11197 6.59871 2.95197 6.50871L1.55197 5.69871L2.76197 3.58871L4.17197 4.40871C4.33197 4.49871 4.53197 4.47871 4.66197 4.35871C5.17197 3.88871 5.78197 3.52871 6.45197 3.31871C6.62197 3.25871 6.74197 3.09871 6.74197 2.91871V1.29871H9.16197V2.91871Z" fill="black" fill-opacity="0.85"/>
<path fill-rule="evenodd" clip-rule="evenodd" d="M10.252 7.98848C10.252 9.25848 9.22198 10.2885 7.95198 10.2885C6.68198 10.2885 5.65198 9.25848 5.65198 7.98848C5.65198 6.71848 6.68198 5.68848 7.95198 5.68848C9.22198 5.68848 10.252 6.71848 10.252 7.98848ZM9.41495 7.99148C9.41495 8.39148 9.25495 8.76148 8.98495 9.03148C8.72495 9.29148 8.35495 9.46148 7.95495 9.46148C7.54495 9.46148 7.18495 9.29148 6.91495 9.03148C6.64495 8.76148 6.48495 8.39148 6.48495 7.99148C6.48495 7.58148 6.64495 7.22148 6.91495 6.95148C7.18495 6.68148 7.54495 6.52148 7.95495 6.52148C8.35495 6.52148 8.72495 6.68148 8.98495 6.95148C9.25495 7.22148 9.41495 7.58148 9.41495 7.99148Z" fill="black" fill-opacity="0.85"/>
</g>
<defs>
<clipPath id="clip0">
<rect width="14.7695" height="15.043" fill="white" transform="translate(0.567261 0.466797)"/>
</clipPath>
</defs>
</svg>
