<svg width="17" height="15" viewBox="0 0 17 15" fill="none" xmlns="http://www.w3.org/2000/svg">
<path fill-rule="evenodd" clip-rule="evenodd" d="M16.18 7.41012H15.76H16.6C16.6 6.35012 16.36 5.40012 15.93 4.58012C15.29 3.34012 14.21 2.41012 12.89 1.80012C11.57 1.18012 9.99 0.870117 8.3 0.870117C6.04 0.870117 3.99 1.42012 2.47 2.52012C1.72 3.06012 1.09 3.76012 0.67 4.58012C0.23 5.40012 0 6.35012 0 7.41012C0 8.47012 0.23 9.42012 0.67 10.2401C1.31 11.4701 2.38 12.4001 3.71 13.0201C5.03 13.6301 6.61 13.9401 8.3 13.9401C9.28 13.9401 10.22 13.8301 11.09 13.6301L10.96 13.5701L11.13 13.1801L11.23 13.5901C11.18 13.6001 11.14 13.6101 11.09 13.6301L14.18 14.9601C14.32 15.0201 14.49 15.0001 14.61 14.9001C14.73 14.8101 14.79 14.6501 14.76 14.5001L14.37 12.1101C14.3 12.1601 14.23 12.2201 14.16 12.2701L13.91 11.9301L14.33 11.8601L14.37 12.1101C15.02 11.5901 15.56 10.9601 15.94 10.2201C16.37 9.40012 16.6 8.46012 16.6 7.41012H16.18Z" fill="#8A8A8E"/>
</svg>
