<svg width="7" height="12" viewBox="0 0 7 12" fill="none" xmlns="http://www.w3.org/2000/svg">
<path d="M6.27565 6.37284C6.34303 6.31025 6.3964 6.23411 6.43225 6.14943C6.46809 6.06474 6.48561 5.97342 6.48363 5.88148C6.48166 5.78954 6.46025 5.69905 6.4208 5.61598C6.38136 5.53291 6.32477 5.45913 6.25477 5.39949L0.385884 0L0 0.41828L5.86673 5.81777C5.88111 5.82584 5.89309 5.8376 5.90142 5.85183C5.90976 5.86607 5.91415 5.88227 5.91415 5.89876C5.91415 5.91526 5.90976 5.93146 5.90142 5.94569C5.89309 5.95993 5.88111 5.97168 5.86673 5.97975L0.0763132 11.4296L0.464356 11.84L6.27565 6.37284Z" fill="black"/>
</svg>
