<svg width="20" height="14" viewBox="0 0 20 14" fill="none" xmlns="http://www.w3.org/2000/svg">
<path fill-rule="evenodd" clip-rule="evenodd" d="M17.533 5.53302H7.05501C6.90298 5.53304 6.75245 5.50302 6.61207 5.44467C6.47168 5.38632 6.34422 5.3008 6.23701 5.19302L6.94601 4.48802C6.97501 4.51702 7.01451 4.53302 7.05501 4.53302H17.533C18.6195 4.53302 19.5 5.42102 19.5 6.51652C19.5 7.61152 18.6195 8.50002 17.533 8.50002H5.53601C5.38651 8.50002 5.24351 8.44002 5.13751 8.33352L1.08351 4.25202C0.709652 3.87436 0.499939 3.36442 0.499939 2.83302C0.499939 2.30161 0.709652 1.79167 1.08351 1.41402C1.26734 1.22831 1.48617 1.0809 1.72733 0.980289C1.96849 0.879682 2.2272 0.827881 2.48851 0.827881C2.74981 0.827881 3.00853 0.879682 3.24969 0.980289C3.49085 1.0809 3.70967 1.22831 3.89351 1.41402L6.94601 4.48802L6.23701 5.19302L3.18401 2.11902C3.09315 2.02683 2.98488 1.95362 2.86548 1.90366C2.74608 1.85369 2.61794 1.82796 2.48851 1.82796C2.35907 1.82796 2.23093 1.85369 2.11153 1.90366C1.99213 1.95362 1.88386 2.02683 1.79301 2.11902C1.60525 2.30933 1.49998 2.56592 1.49998 2.83327C1.49998 3.10061 1.60525 3.3572 1.79301 3.54752L5.71901 7.50002H17.533C18.06 7.50002 18.5 7.06752 18.5 6.51652C18.5 5.96552 18.059 5.53302 17.533 5.53302Z" fill="white"/>
<path d="M1.5 4.5L2.5 5.091V11H1.5V4.5Z" fill="white"/>
<path d="M17 8.26147H18V11.1H17V8.26197V8.26147Z" fill="white"/>
<path fill-rule="evenodd" clip-rule="evenodd" d="M20 11H0V10H20V11Z" fill="white"/>
<path fill-rule="evenodd" clip-rule="evenodd" d="M2.25 13C2.44891 13 2.63968 12.921 2.78033 12.7803C2.92098 12.6397 3 12.4489 3 12.25C3 12.0511 2.92098 11.8603 2.78033 11.7197C2.63968 11.579 2.44891 11.5 2.25 11.5C2.05109 11.5 1.86032 11.579 1.71967 11.7197C1.57902 11.8603 1.5 12.0511 1.5 12.25C1.5 12.4489 1.57902 12.6397 1.71967 12.7803C1.86032 12.921 2.05109 13 2.25 13ZM2.25 14C2.71413 14 3.15925 13.8156 3.48744 13.4874C3.81563 13.1592 4 12.7141 4 12.25C4 11.7859 3.81563 11.3408 3.48744 11.0126C3.15925 10.6844 2.71413 10.5 2.25 10.5C1.78587 10.5 1.34075 10.6844 1.01256 11.0126C0.684375 11.3408 0.5 11.7859 0.5 12.25C0.5 12.7141 0.684375 13.1592 1.01256 13.4874C1.34075 13.8156 1.78587 14 2.25 14Z" fill="white"/>
<path fill-rule="evenodd" clip-rule="evenodd" d="M17.75 13C17.9489 13 18.1397 12.921 18.2803 12.7803C18.421 12.6397 18.5 12.4489 18.5 12.25C18.5 12.0511 18.421 11.8603 18.2803 11.7197C18.1397 11.579 17.9489 11.5 17.75 11.5C17.5511 11.5 17.3603 11.579 17.2197 11.7197C17.079 11.8603 17 12.0511 17 12.25C17 12.4489 17.079 12.6397 17.2197 12.7803C17.3603 12.921 17.5511 13 17.75 13ZM17.75 14C18.2141 14 18.6592 13.8156 18.9874 13.4874C19.3156 13.1592 19.5 12.7141 19.5 12.25C19.5 11.7859 19.3156 11.3408 18.9874 11.0126C18.6592 10.6844 18.2141 10.5 17.75 10.5C17.2859 10.5 16.8408 10.6844 16.5126 11.0126C16.1844 11.3408 16 11.7859 16 12.25C16 12.7141 16.1844 13.1592 16.5126 13.4874C16.8408 13.8156 17.2859 14 17.75 14Z" fill="white"/>
<path fill-rule="evenodd" clip-rule="evenodd" d="M3.38148 0.551506C3.55663 0.376487 3.76454 0.23768 3.99334 0.143011C4.22213 0.0483413 4.46733 -0.000336867 4.71494 -0.000244008C4.96255 -0.000151149 5.20771 0.0487109 5.43644 0.143552C5.66516 0.238393 5.87297 0.377356 6.04798 0.552506L6.94798 1.45301C7.12306 1.62812 7.26192 1.83602 7.35663 2.06482C7.45134 2.29362 7.50004 2.53884 7.49994 2.78646C7.49985 3.03409 7.45097 3.27927 7.35609 3.508C7.26121 3.73673 7.12219 3.94452 6.94698 4.11951L6.21198 4.85351L5.50548 4.14651L6.24048 3.41151C6.40643 3.24554 6.49966 3.02045 6.49966 2.78576C6.49966 2.55106 6.40643 2.32597 6.24048 2.16001L5.34048 1.26001C5.17456 1.0939 4.94947 1.00048 4.71469 1.00029C4.47991 1.0001 4.25467 1.09316 4.08848 1.25901L3.35348 1.99351L2.64648 1.28601L3.38148 0.551506Z" fill="white"/>
</svg>
