<svg width="16" height="16" viewBox="0 0 16 16" fill="none" xmlns="http://www.w3.org/2000/svg">
<path d="M12.5 2.5H11V2C11 1.73478 10.8946 1.48043 10.7071 1.29289C10.5196 1.10536 10.2652 1 10 1H6C5.73478 1 5.48043 1.10536 5.29289 1.29289C5.10536 1.48043 5 1.73478 5 2V2.5H3.5C3.23478 2.5 2.98043 2.60536 2.79289 2.79289C2.60536 2.98043 2.5 3.23478 2.5 3.5V14C2.5 14.2652 2.60536 14.5196 2.79289 14.7071C2.98043 14.8946 3.23478 15 3.5 15H12.5C12.7652 15 13.0196 14.8946 13.2071 14.7071C13.3946 14.5196 13.5 14.2652 13.5 14V3.5C13.5 3.23478 13.3946 2.98043 13.2071 2.79289C13.0196 2.60536 12.7652 2.5 12.5 2.5V2.5ZM6 2H10V4H6V2ZM12.5 14H3.5V3.5H5V5H11V3.5H12.5V14Z" fill="white"/>
<path fill-rule="evenodd" clip-rule="evenodd" d="M8.99833 6.1657L8.46764 8.84427H7.40206C7.31848 8.84427 7.24744 8.90277 7.23073 8.98217L6.84629 10.9253L5.91025 6.1657C5.89353 6.08212 5.82249 6.02362 5.73892 6.02362C5.65534 6.02362 5.58431 6.08212 5.56759 6.1657L5.04107 8.83591H3.97131V9.18275H5.18315C5.26672 9.18275 5.33776 9.12424 5.35448 9.04067L5.73892 7.09756L6.67496 11.853H6.67914C6.68749 11.9324 6.75017 11.9909 6.82957 11.9992C6.91732 12.0076 7.0009 11.9491 7.01761 11.8613L7.54413 9.1911H8.61389C8.65986 9.1911 8.70582 9.17021 8.73507 9.14096C8.76433 9.11171 8.77686 9.07828 8.78104 9.04067H8.78522L9.16966 7.09756L10.1057 11.853C10.1182 11.9324 10.1767 11.9909 10.2603 11.9992C10.3481 12.0076 10.4275 11.9491 10.4484 11.8613L10.9749 9.1911H12.0446V8.84427H10.8286C10.745 8.84427 10.674 8.90277 10.6615 8.98217L10.277 10.9253L9.33681 6.1657C9.3201 6.08212 9.24906 6.02362 9.16966 6.02362C9.08609 6.02362 9.01087 6.08212 8.99833 6.1657Z" fill="white" fill-opacity="0.85" stroke="white" stroke-width="0.3"/>
</svg>
