<svg width="12" height="22" viewBox="0 0 12 22" fill="none" xmlns="http://www.w3.org/2000/svg">
<path d="M11.6502 17.3362C11.4368 16.9473 11.0794 16.6578 10.6548 16.5297L8.63808 15.7245L7.87733 12.7606L9.61864 11.6652C9.79806 11.5467 9.95154 11.3929 10.0698 11.2133C10.188 11.0338 10.2686 10.832 10.3065 10.6204C10.3924 10.2002 10.3166 9.76314 10.0941 9.39652C10.0781 9.37306 8.51705 6.94758 7.39199 5.41498C7.27837 5.25443 7.10795 5.02225 7.23885 4.85553C7.66076 4.29424 7.89187 3.6126 7.89833 2.91045C7.89833 1.39144 7.01533 0.370117 5.70008 0.370117C4.38484 0.370117 3.5006 1.38897 3.5006 2.90798C3.5006 4.14295 4.11808 4.82095 4.32432 5.09759L4.36878 5.15687C4.39424 5.19815 4.41182 5.24379 4.42065 5.29148C4.4614 5.53847 4.42806 5.7583 4.20577 6.12879C3.87564 6.65148 3.68122 7.24831 3.64015 7.86516C2.42988 8.39126 1.66419 8.70123 1.65061 8.70494H1.63702C1.2966 8.84886 1.01676 9.10657 0.845346 9.43401C0.673935 9.76145 0.621608 10.1383 0.697314 10.5C0.77302 10.8618 0.972056 11.186 1.26038 11.4172C1.54871 11.6485 1.90841 11.7723 2.27798 11.7677C2.49346 11.7675 2.7066 11.7229 2.90411 11.6368L3.62286 11.3391V12.8717L0.210633 19.217C-0.217902 20.0506 0.0253877 20.9954 0.777485 21.414C1.03139 21.5565 1.31748 21.6317 1.60862 21.6326C1.77605 21.6326 1.94254 21.6076 2.10261 21.5585C2.31902 21.4936 2.52033 21.3862 2.69483 21.2426C2.86932 21.0991 3.01351 20.9223 3.11899 20.7224L5.41974 16.6335C5.60231 17.2168 5.91856 17.7494 6.34329 18.1889C6.76802 18.6284 7.28951 18.9627 7.86622 19.1651L9.66063 19.7937L9.68657 19.8024C9.84081 19.8464 10.0004 19.8688 10.1608 19.8691C10.4572 19.8685 10.7483 19.7907 11.0055 19.6433C11.2626 19.496 11.4769 19.2841 11.6273 19.0287C11.7776 18.7733 11.8588 18.4831 11.8628 18.1867C11.8668 17.8903 11.7935 17.598 11.6502 17.3386V17.3362ZM2.44964 10.7698C2.31755 10.8043 2.17813 10.7983 2.0495 10.7525C1.93389 10.7095 1.83382 10.6328 1.76218 10.5324C1.69054 10.432 1.65062 10.3124 1.64756 10.1891C1.6445 10.0658 1.67845 9.94438 1.74503 9.84053C1.81161 9.73669 1.90776 9.65516 2.0211 9.60647C2.2965 9.46074 3.64385 8.81732 3.64385 8.81732L3.62656 10.3684C3.24143 10.5224 2.8486 10.6564 2.44964 10.7698ZM2.26686 20.2544C2.26686 20.2544 2.26686 20.2643 2.25822 20.2704C2.2128 20.3566 2.15062 20.4327 2.07532 20.4944C2.00003 20.5562 1.91315 20.6022 1.8198 20.6298C1.72556 20.6587 1.62641 20.6678 1.52848 20.6568C1.43055 20.6457 1.33593 20.6147 1.25048 20.5656C0.908392 20.3742 0.919506 19.9629 1.07017 19.669L4.53674 13.2237C4.574 13.1529 4.5935 13.074 4.59355 12.994V10.0424C4.59355 9.85099 4.59355 9.64722 4.5849 9.43851C4.56391 8.45053 4.54415 7.33042 4.99491 6.65736C5.3654 6.10285 5.44568 5.6879 5.42345 5.32729C5.41357 5.24406 5.3983 5.16156 5.37775 5.0803C5.34152 4.91083 5.27319 4.74986 5.17645 4.60607L5.11594 4.52209L5.04308 4.42947C4.67584 4.00965 4.47584 3.46943 4.48116 2.91169C4.48116 2.5412 4.56885 1.35192 5.70008 1.35192C6.83131 1.35192 6.919 2.5449 6.919 2.91169C6.91167 3.39818 6.75136 3.87001 6.46082 4.26028C6.20148 4.59742 6.02488 5.17292 6.5942 5.97689C7.70567 7.4922 9.26174 9.89916 9.27409 9.92015C9.3636 10.0755 9.39179 10.2588 9.35312 10.4339C9.34312 10.5238 9.31472 10.6106 9.26967 10.689C9.22463 10.7674 9.16391 10.8357 9.09131 10.8896L7.36235 11.9677C7.22454 12.0488 7.06065 12.0732 6.90517 12.0359C6.7497 11.9986 6.61476 11.9025 6.52875 11.7677C6.48677 11.7023 6.45827 11.6291 6.44492 11.5526C6.43156 11.476 6.4336 11.3976 6.45094 11.3218C6.48576 11.1686 6.57991 11.0353 6.71276 10.9514L7.60317 10.3894C7.71161 10.3204 7.78833 10.2113 7.81656 10.0858C7.84479 9.96042 7.82224 9.82893 7.75384 9.72009L6.57567 7.85281L5.76059 8.3715L6.67818 9.82506L6.19901 10.1276C5.97688 10.2679 5.79371 10.462 5.66646 10.6918C5.53921 10.9217 5.47198 11.1799 5.471 11.4426C5.47001 11.7054 5.5353 11.9641 5.66083 12.1949C5.78635 12.4257 5.96805 12.6211 6.18913 12.7631C6.28718 12.8247 6.39854 12.8619 6.51393 12.8717C6.35662 13.0254 6.22636 13.2045 6.12862 13.4015L2.26686 20.2544ZM10.8635 18.3624C10.8086 18.5463 10.6844 18.7018 10.5172 18.796C10.3499 18.8902 10.1527 18.9159 9.9669 18.8675L8.18731 18.2439C7.69383 18.0721 7.25483 17.7724 6.91524 17.3753C6.57565 16.9782 6.34765 16.498 6.25458 15.9839L6.13973 15.3441L7.11906 13.299L7.76372 16.2024C7.78321 16.2763 7.81957 16.3446 7.86992 16.402C7.92028 16.4595 7.98327 16.5044 8.05394 16.5334L10.3201 17.4374L10.3658 17.4535C10.4585 17.4799 10.5451 17.5243 10.6205 17.5843C10.696 17.6443 10.7588 17.7186 10.8055 17.803C10.8976 17.9746 10.9184 18.1756 10.8635 18.3624Z" fill="black" fill-opacity="0.85"/>
</svg>
