<svg width="17" height="16" viewBox="0 0 17 16" fill="none" xmlns="http://www.w3.org/2000/svg">
<g clip-path="url(#clip0)">
<path fill-rule="evenodd" clip-rule="evenodd" d="M0.47998 1.55597C0.47998 0.69663 1.17661 0 2.03595 0H14.9197C15.7788 0 16.4752 0.696434 16.4752 1.55553V14.4445C16.4752 15.3036 15.7788 16 14.9197 16H2.03558C1.17644 16 0.47998 15.3035 0.47998 14.4444V1.55597Z" fill="#7F7F7F"/>
<path fill-rule="evenodd" clip-rule="evenodd" d="M6.35048 5.26054C6.35048 5.89178 6.59225 6.4889 7.02743 6.90689C6.01201 7.47842 5.37535 8.58736 5.37535 9.81573V13.1596C5.37535 13.5435 5.66547 13.8506 6.02812 13.8506H10.9441C11.2987 13.8506 11.5968 13.5435 11.5968 13.1596V9.81573C11.5968 8.58736 10.9521 7.47842 9.94476 6.90689C10.3719 6.4889 10.6217 5.89178 10.6217 5.26054C10.6217 4.01511 9.6627 3 8.48609 3C7.30949 3 6.35048 4.01511 6.35048 5.26054ZM9.26139 6.49725C9.10004 6.61495 9.01552 6.82513 9.03857 7.04372C9.05393 7.2539 9.17687 7.43045 9.3536 7.51452C10.1988 7.90125 10.7443 8.79242 10.7443 9.79288V12.996H6.22635V9.79288C6.22635 8.80083 6.77189 7.90125 7.60941 7.51452C7.78613 7.43045 7.91675 7.2539 7.93212 7.04372C7.93981 7.01849 7.93981 7.00168 7.93981 6.97646C7.93981 6.78309 7.85529 6.60654 7.7093 6.49725C7.36353 6.21981 7.14839 5.77422 7.14839 5.30342C7.14839 4.50473 7.74771 3.84897 8.48534 3.84897C9.22297 3.84897 9.81462 4.50473 9.81462 5.30342C9.81462 5.77422 9.60716 6.21981 9.26139 6.49725ZM4.75719 6.79159C4.78965 6.83366 4.78965 6.89677 4.75719 6.93884C4.28653 7.53484 3.9998 8.34821 3.97816 9.2387C3.97275 9.29479 3.94029 9.34388 3.8916 9.34388H3.56159C3.51831 9.34388 3.47503 9.29479 3.48044 9.2387C3.50208 8.17291 3.84291 7.19828 4.40555 6.48308C4.43801 6.441 4.49211 6.44802 4.52457 6.48308L4.75719 6.79159ZM12.443 6.48308C12.4754 6.44802 12.524 6.441 12.5618 6.48308C13.1232 7.19828 13.4633 8.17291 13.4795 9.2387C13.4849 9.29479 13.4471 9.34388 13.4039 9.34388H13.0692C13.026 9.34388 12.9882 9.29479 12.9882 9.2387C12.9667 8.34821 12.6806 7.53484 12.2055 6.93884C12.1785 6.89677 12.1785 6.83366 12.2055 6.79159L12.443 6.48308Z" fill="white"/>
</g>
<defs>
<clipPath id="clip0">
<rect width="16" height="16" fill="white" transform="translate(0.47998)"/>
</clipPath>
</defs>
</svg>
