<svg width="32" height="32" viewBox="0 0 32 32" fill="none" xmlns="http://www.w3.org/2000/svg">
<path fill-rule="evenodd" clip-rule="evenodd" d="M9.43609 22.4988C11.1961 24.1888 13.3561 25.6587 15.7561 26.6887C15.9161 26.7487 16.0961 26.7487 16.2461 26.6887C18.6561 25.6587 20.8061 24.1888 22.5761 22.4988C24.3361 20.7988 25.7061 18.8787 26.5461 16.9187C27.2061 15.3587 27.5161 13.8787 27.5161 12.5087C27.5161 10.9187 27.0961 9.48875 26.3761 8.32875C25.6661 7.17875 24.6361 6.28875 23.4361 5.76875C22.6361 5.42875 21.7261 5.21875 20.7861 5.21875C19.8361 5.21875 18.8561 5.42875 17.9261 5.93875C17.2361 6.30875 16.5761 6.85875 16.0061 7.56875C15.4261 6.85875 14.7761 6.30875 14.0761 5.92875C13.1561 5.42875 12.1661 5.21875 11.2161 5.21875C10.2761 5.21875 9.37609 5.42875 8.56609 5.76875C7.36609 6.28875 6.34609 7.17875 5.62609 8.32875C4.90609 9.48875 4.49609 10.9187 4.49609 12.5087C4.49609 13.8787 4.79609 15.3587 5.46609 16.9187C6.29609 18.8787 7.67609 20.7988 9.43609 22.4988ZM16.5351 8.9868C16.4251 9.1668 16.2251 9.2768 16.0051 9.2768C15.7851 9.2768 15.5851 9.1668 15.4751 8.9868C14.8951 8.0468 14.2051 7.4268 13.4851 7.0268C12.7551 6.6368 11.9851 6.4668 11.2151 6.4668C10.4651 6.4668 9.71512 6.6368 9.06512 6.9168C8.10512 7.3368 7.27512 8.0468 6.68512 8.9968C6.09512 9.9368 5.74512 11.1268 5.74512 12.5068C5.74512 13.6868 6.00512 15.0068 6.61512 16.4268C7.37512 18.1968 8.64512 19.9968 10.3051 21.5968C11.8951 23.1268 13.8451 24.4568 16.0051 25.4168C18.1651 24.4568 20.1151 23.1268 21.7051 21.5968C23.3651 19.9968 24.6351 18.1968 25.3951 16.4268C26.0051 15.0068 26.2651 13.6868 26.2651 12.5068C26.2651 11.1268 25.9051 9.9368 25.3151 8.9968C24.7251 8.0468 23.9051 7.3368 22.9451 6.9168C22.2951 6.6368 21.5451 6.4668 20.7951 6.4668C20.0251 6.4668 19.2551 6.6368 18.5251 7.0268C17.7951 7.4268 17.1151 8.0468 16.5351 8.9868ZM13.3411 22.2737V21.1737H18.7811V22.2737H13.3411ZM13.3411 16.2028H18.7811V17.3028H13.3411V16.2028ZM13.3411 12.3307V11.2307H18.7811V12.3307H13.3411ZM13.3411 18.6887V19.7887H16.4411V18.6887H13.3411ZM13.3411 14.8168V13.7168H16.4411V14.8168H13.3411Z" fill="black" fill-opacity="0.85"/>
</svg>
