<svg width="32" height="32" viewBox="0 0 32 32" fill="none" xmlns="http://www.w3.org/2000/svg">
<path d="M11.1727 24.6673C11.1384 24.5987 11.1041 24.513 11.0527 24.4616C11.0012 24.393 10.9498 24.3244 10.8984 24.2729C10.8469 24.2215 10.7783 24.1701 10.7098 24.1186C10.7098 24.1186 10.7098 24.1186 10.6926 24.1186V8.27539H9.33805V24.1015C9.33805 24.1015 9.33805 24.1015 9.3209 24.1015C9.25231 24.1529 9.18373 24.2044 9.13229 24.2558C9.08085 24.3072 9.02941 24.3758 8.97797 24.4444C8.92653 24.513 8.89224 24.5816 8.85795 24.6502C8.82366 24.7187 8.80651 24.8045 8.78936 24.8902C8.77222 24.9759 8.77222 25.0445 8.77222 25.1303C8.77222 25.456 8.90939 25.7818 9.13229 26.0047C9.18373 26.0562 9.25231 26.1076 9.3209 26.159C9.38949 26.2105 9.45807 26.2448 9.52666 26.2791C9.59524 26.3134 9.68097 26.3305 9.76671 26.3477C9.85244 26.3648 9.92102 26.3648 10.0068 26.3648C10.0925 26.3648 10.1611 26.3477 10.2468 26.3477C10.3325 26.3305 10.4011 26.3134 10.4697 26.2791C10.5383 26.2448 10.624 26.2105 10.6755 26.159C10.744 26.1076 10.8126 26.0562 10.8641 26.0047C11.087 25.7818 11.2241 25.456 11.2241 25.1303C11.2241 25.0445 11.207 24.9759 11.207 24.8902C11.2241 24.8216 11.207 24.7359 11.1727 24.6673Z" fill="black" fill-opacity="0.85"/>
<path d="M26.3986 3.64648H18.3741V5.00105H26.3986V3.64648Z" fill="black" fill-opacity="0.85"/>
<path d="M26.3815 9.45898H22.0778V10.8135H26.3815V9.45898Z" fill="black" fill-opacity="0.85"/>
<path d="M26.3815 15.2881H22.0778V16.6426H26.3815V15.2881Z" fill="black" fill-opacity="0.85"/>
<path d="M26.3815 21.1006H22.0778V22.4551H26.3815V21.1006Z" fill="black" fill-opacity="0.85"/>
<path d="M26.3815 26.9141H22.0778V28.2686H26.3815V26.9141Z" fill="black" fill-opacity="0.85"/>
<path d="M13.2817 21.1353V5.25781C13.2817 3.47459 11.8242 2 10.0239 2C8.22351 2 6.76607 3.45744 6.76607 5.25781V21.1353C5.65156 22.0784 5 23.4672 5 24.9761C5 27.7538 7.26332 30 10.0239 30C12.8016 30 15.0478 27.7367 15.0478 24.9761C15.0649 23.4672 14.4133 22.0784 13.2817 21.1353ZM10.0239 28.6626C8.00061 28.6626 6.33742 27.0165 6.33742 24.9761C6.33742 23.673 7.00612 22.4899 8.12064 21.8212V5.25781C8.12064 4.21188 8.97795 3.35456 10.0239 3.35456C11.0698 3.35456 11.9271 4.21188 11.9271 5.25781V21.8383C13.0245 22.507 13.7103 23.6901 13.7103 24.9933C13.7103 27.0165 12.0643 28.6626 10.0239 28.6626Z" fill="black" fill-opacity="0.85"/>
</svg>
