<svg width="25" height="25" viewBox="0 0 25 25" fill="none" xmlns="http://www.w3.org/2000/svg">
<path fill-rule="evenodd" clip-rule="evenodd" d="M13.2086 19.3223L20.0386 12.4923C20.8586 11.6723 21.3386 10.5823 21.3886 9.42227C21.4386 8.27227 21.0586 7.15227 20.3286 6.27227C20.2386 6.15227 20.1386 6.04227 20.0386 5.94227C19.9386 5.84227 19.8286 5.74227 19.7086 5.65227C18.8286 4.92227 17.7086 4.54227 16.5586 4.59227C15.3986 4.65227 14.3086 5.13227 13.4886 5.95227L6.65864 12.7823C5.04864 14.3923 4.84864 16.9023 6.16864 18.7423C6.31864 18.9523 6.47864 19.1523 6.65864 19.3223C6.82864 19.5023 7.02864 19.6623 7.23864 19.8123C9.07864 21.1423 11.5886 20.9323 13.2086 19.3223ZM14.3581 6.81561L11.3681 9.80561L16.1781 14.6156L19.1681 11.6256C20.4181 10.3756 20.5081 8.41561 19.3781 7.05561C19.3081 6.96561 19.2381 6.88561 19.1681 6.81561C19.0981 6.74561 19.0181 6.67561 18.9281 6.60561C17.5681 5.47561 15.6081 5.56561 14.3581 6.81561ZM15.3261 15.4665L12.3361 18.4565C11.0861 19.7065 9.12614 19.7965 7.76614 18.6665C7.67614 18.5965 7.59614 18.5265 7.52614 18.4565C7.46401 18.3944 7.40189 18.3244 7.33278 18.2465C7.32401 18.2366 7.31514 18.2266 7.30614 18.2165C6.18614 16.8565 6.27614 14.8965 7.52614 13.6465L10.5161 10.6565L15.3261 15.4665Z" fill="#CACBCC"/>
<path opacity="0.5" fill-rule="evenodd" clip-rule="evenodd" d="M12.3361 18.4563L15.3261 15.4662L10.5161 10.6562L7.52611 13.6463C6.27611 14.8962 6.18611 16.8562 7.30611 18.2162C7.38611 18.3063 7.45611 18.3863 7.52611 18.4563C7.59611 18.5263 7.67611 18.5963 7.76611 18.6663C9.12611 19.7963 11.0861 19.7063 12.3361 18.4563Z" fill="#D5D6D9"/>
</svg>
