<svg width="17" height="9" viewBox="0 0 17 9" fill="none" xmlns="http://www.w3.org/2000/svg">
<g clip-path="url(#clip0)">
<path fill-rule="evenodd" clip-rule="evenodd" d="M0.74093 8.24332C0.83093 8.34332 0.94093 8.43332 1.05093 8.50332C2.05093 9.22332 3.41093 9.11332 4.29093 8.24332L7.99093 4.53332C8.44093 4.09332 8.70093 3.50332 8.73093 2.87332C8.75093 2.25332 8.55093 1.64332 8.15093 1.16332C8.10093 1.10332 8.05093 1.04332 7.99093 0.983319C7.94093 0.933319 7.88093 0.883319 7.82093 0.833319C7.34093 0.433319 6.73093 0.233319 6.11093 0.253319C5.48093 0.283319 4.89093 0.543319 4.44093 0.993319L0.74093 4.69332C-0.12907 5.56332 -0.24907 6.93332 0.47093 7.93332C0.55093 8.04332 0.64093 8.15332 0.74093 8.24332ZM4.91295 1.45676L3.29295 3.08676L5.90295 5.68676L7.52295 4.06676C8.20295 3.38676 8.25295 2.32676 7.64295 1.58676C7.60295 1.53676 7.56295 1.49676 7.52295 1.45676C7.48295 1.41676 7.44295 1.37676 7.39295 1.34676C6.65295 0.736761 5.59295 0.786761 4.91295 1.45676ZM5.43682 6.15279L3.81682 7.77279C3.13682 8.45279 2.07682 8.50279 1.33682 7.89279C1.28682 7.85279 1.24682 7.81279 1.20682 7.77279C1.17369 7.73965 1.14741 7.70652 1.11663 7.6677C1.11026 7.65965 1.10369 7.65137 1.09682 7.64279C0.486824 6.90279 0.536824 5.84279 1.20682 5.16279L2.83682 3.54279L5.43682 6.15279Z" fill="#D5D6D9"/>
<g clip-path="url(#clip1)">
<path fill-rule="evenodd" clip-rule="evenodd" d="M8.36594 4.90332L9.60594 6.15332L7.98594 7.77332C7.30594 8.45332 6.24594 8.50332 5.50594 7.89332C5.47594 7.87332 5.45594 7.85332 5.43594 7.83332L4.96594 8.30332C5.04594 8.37332 5.12594 8.44332 5.21594 8.50332C6.21594 9.23332 7.58594 9.11332 8.45594 8.24332L12.1559 4.53332C12.6059 4.09332 12.8659 3.50332 12.8959 2.87332C12.9159 2.25332 12.7159 1.64332 12.3259 1.16332C12.2659 1.10332 12.2159 1.04332 12.1659 0.983319C12.1059 0.933319 12.0459 0.883319 11.9859 0.833319C11.5059 0.433319 10.8959 0.233319 10.2759 0.253319C9.66594 0.283319 9.08594 0.533319 8.64594 0.953319C8.78594 1.14332 8.90594 1.33332 8.99594 1.54332L9.08594 1.46332C9.75594 0.783319 10.8259 0.733319 11.5659 1.34332C11.6059 1.38332 11.6459 1.42332 11.6859 1.46332C11.7259 1.49332 11.7659 1.54332 11.8059 1.59332C12.4159 2.32332 12.3659 3.39332 11.6859 4.06332L10.0659 5.69332L8.77594 4.39332C8.65594 4.57332 8.51594 4.75332 8.36594 4.90332Z" fill="#D5D6D9"/>
<path opacity="0.5" fill-rule="evenodd" clip-rule="evenodd" d="M9.60799 6.14625L8.35799 4.90625L5.43799 7.82625C5.45799 7.84625 5.47799 7.86625 5.50799 7.88625C6.23799 8.49625 7.30799 8.44625 7.98799 7.77625L9.60799 6.14625Z" fill="#D5D6D9"/>
</g>
<g clip-path="url(#clip2)">
<path fill-rule="evenodd" clip-rule="evenodd" d="M16.984 2.87332C17.004 2.25332 16.804 1.64332 16.404 1.16332C16.354 1.10332 16.304 1.04332 16.244 0.983319C16.194 0.933319 16.134 0.883319 16.074 0.833319C15.594 0.433319 14.984 0.233319 14.364 0.253319C13.754 0.283319 13.174 0.533319 12.734 0.953319C12.874 1.14332 12.994 1.33332 13.084 1.54332L13.164 1.46332C13.844 0.783319 14.914 0.733319 15.644 1.34332C15.694 1.38332 15.734 1.42332 15.774 1.46332C15.814 1.49332 15.854 1.54332 15.894 1.59332C16.504 2.32332 16.454 3.39332 15.774 4.06332L14.154 5.69332L12.854 4.39332C12.744 4.57332 12.604 4.75332 12.454 4.90332L13.694 6.15332L12.074 7.77332C11.394 8.45332 10.324 8.50332 9.59396 7.89332C9.56396 7.87332 9.54396 7.85332 9.52396 7.83332L9.05396 8.30332C9.13396 8.37332 9.21396 8.44332 9.30396 8.50332C10.304 9.23332 11.664 9.11332 12.544 8.24332L16.244 4.53332C16.694 4.09332 16.954 3.50332 16.984 2.87332Z" fill="#D5D6D9"/>
<path opacity="0.5" fill-rule="evenodd" clip-rule="evenodd" d="M13.695 6.14625L12.445 4.90625L9.52502 7.82625C9.54502 7.84625 9.56502 7.86625 9.58502 7.88625C10.325 8.49625 11.395 8.44625 12.065 7.77625L13.695 6.14625Z" fill="#D5D6D9"/>
</g>
<path opacity="0.5" fill-rule="evenodd" clip-rule="evenodd" d="M3.81692 7.77199L5.43692 6.15199L2.83692 3.54199L1.20692 5.16199C0.536918 5.84199 0.486918 6.90199 1.09692 7.64199C1.13692 7.69199 1.16692 7.73199 1.20692 7.77199C1.24692 7.81199 1.28692 7.85199 1.33692 7.89199C2.07692 8.50199 3.13692 8.45199 3.81692 7.77199Z" fill="#D5D6D9"/>
</g>
<defs>
<clipPath id="clip0">
<rect width="16.9814" height="8.72873" fill="white" transform="translate(0.000976562 0.25293)"/>
</clipPath>
<clipPath id="clip1">
<rect width="7.92939" height="8.72873" fill="white" transform="translate(4.96594 0.25293)"/>
</clipPath>
<clipPath id="clip2">
<rect width="7.9284" height="8.72873" fill="white" transform="translate(9.05396 0.25293)"/>
</clipPath>
</defs>
</svg>
