<svg width="24" height="24" viewBox="0 0 24 24" fill="none" xmlns="http://www.w3.org/2000/svg">
<rect width="24" height="24" rx="12" fill="#3FAEFF"/>
<path d="M15.8669 14.8066C15.6563 14.308 15.3508 13.855 14.9673 13.4729C14.585 13.0898 14.1321 12.7843 13.6336 12.5734C13.6291 12.5712 13.6247 12.57 13.6202 12.5678C14.3155 12.0656 14.7675 11.2475 14.7675 10.3245C14.7675 8.79548 13.5287 7.55664 11.9997 7.55664C10.4707 7.55664 9.23182 8.79548 9.23182 10.3245C9.23182 11.2475 9.68383 12.0656 10.3791 12.5689C10.3747 12.5712 10.3702 12.5723 10.3658 12.5745C9.86575 12.7854 9.41709 13.0879 9.03205 13.4741C8.64891 13.8564 8.34343 14.3093 8.13249 14.8078C7.92526 15.2958 7.8135 15.819 7.80325 16.3491C7.80295 16.361 7.80504 16.3728 7.8094 16.3839C7.81375 16.395 7.82028 16.4051 7.8286 16.4136C7.83692 16.4222 7.84686 16.4289 7.85784 16.4336C7.86883 16.4382 7.88062 16.4406 7.89254 16.4406H8.56218C8.61129 16.4406 8.65035 16.4015 8.65146 16.3535C8.67379 15.4919 9.01977 14.685 9.63138 14.0734C10.2642 13.4406 11.1046 13.0924 11.9997 13.0924C12.8948 13.0924 13.7352 13.4406 14.368 14.0734C14.9796 14.685 15.3256 15.4919 15.3479 16.3535C15.349 16.4026 15.3881 16.4406 15.4372 16.4406H16.1068C16.1187 16.4406 16.1305 16.4382 16.1415 16.4336C16.1525 16.4289 16.1624 16.4222 16.1708 16.4136C16.1791 16.4051 16.1856 16.395 16.19 16.3839C16.1943 16.3728 16.1964 16.361 16.1961 16.3491C16.1849 15.8156 16.0745 15.2966 15.8669 14.8066ZM11.9997 12.2441C11.4874 12.2441 11.0053 12.0444 10.6425 11.6816C10.2798 11.3189 10.08 10.8368 10.08 10.3245C10.08 9.81222 10.2798 9.33008 10.6425 8.96736C11.0053 8.60463 11.4874 8.40486 11.9997 8.40486C12.512 8.40486 12.9941 8.60463 13.3568 8.96736C13.7195 9.33008 13.9193 9.81222 13.9193 10.3245C13.9193 10.8368 13.7195 11.3189 13.3568 11.6816C12.9941 12.0444 12.512 12.2441 11.9997 12.2441Z" fill="white"/>
</svg>
