<svg width="16" height="17" viewBox="0 0 16 17" fill="none" xmlns="http://www.w3.org/2000/svg">
<path d="M5 9.87012H9V10.8701H5V9.87012Z" fill="black" fill-opacity="0.85" />
<path d="M5 7.37012H11V8.37012H5V7.37012Z" fill="black" fill-opacity="0.85"/>
<path d="M5 12.3701H7.5V13.3701H5V12.3701Z" fill="black" fill-opacity="0.85"/>
<path d="M12.5 3.37012H11V2.87012C11 2.6049 10.8946 2.35055 10.7071 2.16301C10.5196 1.97547 10.2652 1.87012 10 1.87012H6C5.73478 1.87012 5.48043 1.97547 5.29289 2.16301C5.10536 2.35055 5 2.6049 5 2.87012V3.37012H3.5C3.23478 3.37012 2.98043 3.47547 2.79289 3.66301C2.60536 3.85055 2.5 4.1049 2.5 4.37012V14.8701C2.5 15.1353 2.60536 15.3897 2.79289 15.5772C2.98043 15.7648 3.23478 15.8701 3.5 15.8701H12.5C12.7652 15.8701 13.0196 15.7648 13.2071 15.5772C13.3946 15.3897 13.5 15.1353 13.5 14.8701V4.37012C13.5 4.1049 13.3946 3.85055 13.2071 3.66301C13.0196 3.47547 12.7652 3.37012 12.5 3.37012ZM6 2.87012H10V4.87012H6V2.87012ZM12.5 14.8701H3.5V4.37012H5V5.87012H11V4.37012H12.5V14.8701Z" fill="black" fill-opacity="0.85"/>
</svg>
