<svg width="32" height="32" viewBox="0 0 32 32" fill="none" xmlns="http://www.w3.org/2000/svg">
<path d="M31.7623 30H30.1091V10.0149H24.7309C24.2706 10.0149 23.9148 9.63827 23.9148 9.1988V3.65321H8.84753V9.1988C8.84753 9.65919 8.47085 10.0149 8.03139 10.0149H2.65321V30H1V9.1988C1 8.73842 1.37668 8.38266 1.81614 8.38266H7.19432V2.81614C7.19432 2.35575 7.571 2 8.01046 2H24.7309C25.1913 2 25.5471 2.37668 25.5471 2.81614V8.36173H30.9253C31.3856 8.36173 31.7414 8.73842 31.7414 9.17788V30H31.7623Z" fill="black" fill-opacity="0.85"/>
<path d="M18.6203 27.1333H14.1002C13.6398 27.1333 13.284 26.7566 13.284 26.3171V22.5503H9.51719C9.0568 22.5503 8.70105 22.1736 8.70105 21.7342V17.193C8.70105 16.7327 9.07773 16.3769 9.51719 16.3769H13.284V12.6101C13.284 12.1497 13.6607 11.7939 14.1002 11.7939H18.6203C19.0807 11.7939 19.4365 12.1706 19.4365 12.6101V16.3769H23.2033C23.6637 16.3769 24.0194 16.7536 24.0194 17.193V21.7132C24.0194 22.1736 23.6428 22.5294 23.2033 22.5294H19.4365V26.2962C19.4574 26.7775 19.0807 27.1333 18.6203 27.1333ZM14.9163 25.501H17.8042V21.7342C17.8042 21.2738 18.1809 20.918 18.6203 20.918H22.3871V18.0301H18.6203C18.1599 18.0301 17.8042 17.6534 17.8042 17.214V13.4472H14.9163V17.214C14.9163 17.6744 14.5396 18.0301 14.1002 18.0301H10.3333V20.918H14.1002C14.5605 20.918 14.9163 21.2947 14.9163 21.7342V25.501Z" fill="black" fill-opacity="0.85"/>
</svg>
