<svg width="25" height="24" viewBox="0 0 25 24" fill="none" xmlns="http://www.w3.org/2000/svg">
<g clip-path="url(#clip0_5559_72421)">
<g clip-path="url(#clip1_5559_72421)">
<mask id="mask0_5559_72421" style="mask-type:alpha" maskUnits="userSpaceOnUse" x="0" y="-1" width="25" height="25">
<path fill-rule="evenodd" clip-rule="evenodd" d="M0.0032959 -0.000488281H24.0039V23.9531H0.0032959V-0.000488281Z" fill="white"/>
</mask>
<g mask="url(#mask0_5559_72421)">
</g>
<g clip-path="url(#clip2_5559_72421)">
<path fill-rule="evenodd" clip-rule="evenodd" d="M13.6859 14.0943L14.8933 16.1343H17.0458C17.4808 16.1343 17.8858 16.3068 18.2008 16.6143C18.5083 16.9218 18.6733 17.3268 18.6733 17.7693C18.6808 18.2043 18.5083 18.6093 18.2008 18.9168C17.8933 19.2318 17.4808 19.3968 17.0458 19.3968L14.3234 19.4043C13.5284 19.4043 12.7784 18.9768 12.3734 18.2943L12.2609 18.0993L10.9109 21.9093C10.6709 22.5768 10.0409 22.9968 9.36588 22.9968C9.18588 22.9968 9.00588 22.9668 8.82588 22.8993C8.41339 22.7568 8.08339 22.4568 7.88839 22.0668C7.70089 21.6693 7.67839 21.2268 7.82839 20.8143L9.92838 14.9118V12.3543L8.37589 12.3468C7.52089 12.3468 6.82339 11.6568 6.82339 10.8018C6.82339 10.3893 6.98839 9.99933 7.28089 9.70683C7.57339 9.41433 7.96339 9.24933 8.37589 9.24933H9.92838V8.15434C9.92838 7.41934 10.1309 6.98434 10.2659 6.69935L10.2734 6.68435C9.59838 6.15935 9.20088 5.36435 9.20088 4.49436C9.20088 3.75936 9.49338 3.06937 10.0109 2.54437C10.5359 2.01937 11.2334 1.73438 11.9684 1.73438C12.7109 1.73438 13.4084 2.01937 13.9259 2.54437C14.4509 3.06937 14.7433 3.75936 14.7433 4.50186C14.7433 5.28935 14.4059 6.03185 13.8284 6.54935L16.5658 9.28683C16.8583 9.57933 17.0233 9.96933 17.0233 10.3818C17.0233 10.7943 16.8583 11.1843 16.5658 11.4768L14.7958 13.2393C14.5333 13.5018 14.1959 13.6593 13.8284 13.6893L13.6859 14.0943ZM17.5257 17.7632C17.5257 17.8982 17.4732 18.0182 17.3832 18.1082C17.2932 18.1982 17.1732 18.2507 17.0382 18.2507H14.3233C13.9333 18.2507 13.5658 18.0407 13.3708 17.7107L12.7633 16.6907L13.1833 15.5058L14.1433 17.1182C14.2033 17.2232 14.3158 17.2832 14.4283 17.2832H17.0382C17.1732 17.2832 17.2932 17.3357 17.3832 17.4257C17.4732 17.5157 17.5257 17.6357 17.5257 17.7632ZM11.0147 15.2892L8.91473 21.1992C8.86973 21.3192 8.87723 21.4542 8.92973 21.5667C8.98973 21.6867 9.08723 21.7767 9.20723 21.8142C9.45473 21.9042 9.73223 21.7767 9.82223 21.5217L12.7247 13.3542C12.7022 13.3355 12.6816 13.3167 12.661 13.298C12.6403 13.2792 12.6197 13.2605 12.5972 13.2417C12.3047 12.9417 12.1397 12.5592 12.1472 12.1392C12.1472 11.7267 12.3047 11.3367 12.5972 11.0442L13.2722 10.3767L12.4247 9.52923C12.3497 9.45423 12.3497 9.33423 12.4247 9.25923L12.9647 8.71923C13.0397 8.64423 13.1597 8.64423 13.2347 8.71923L14.7647 10.2417C14.8397 10.3167 14.8397 10.4367 14.7647 10.5117L13.4147 11.8617C13.3397 11.9367 13.2947 12.0342 13.2947 12.1392C13.2947 12.2517 13.3397 12.3492 13.4147 12.4242C13.4897 12.4992 13.5872 12.5442 13.6997 12.5442C13.8047 12.5442 13.9022 12.4992 13.9772 12.4242L15.7547 10.6617C15.8297 10.5867 15.8672 10.4892 15.8672 10.3767C15.8672 10.3392 15.8597 10.3017 15.8522 10.2642C15.8191 10.1519 15.7337 10.0744 15.6471 9.99604L15.6122 9.96423C15.1643 9.51008 13.7152 8.06515 13.1571 7.50855L12.9422 7.29424C12.6572 7.00924 12.5822 6.92674 12.5447 6.86674C12.4772 6.75424 12.4472 6.62675 12.4547 6.49925C12.4697 6.24425 12.6122 6.00425 12.8372 5.86175C13.3097 5.56175 13.5872 5.05175 13.5872 4.49676C13.5872 4.06926 13.4222 3.66426 13.1147 3.35676C12.8072 3.04927 12.4022 2.88427 11.9747 2.88427H11.9672C11.5397 2.88427 11.1347 3.04927 10.8272 3.35676C10.5197 3.66426 10.3547 4.06926 10.3547 4.49676C10.3547 5.05175 10.6322 5.56175 11.1047 5.86175C11.3447 6.01175 11.4872 6.27425 11.4872 6.55175C11.4872 6.80408 11.3917 7.01235 11.3098 7.19109L11.3072 7.19674L11.2961 7.22053C11.1934 7.4399 11.0747 7.69357 11.0747 8.15674V14.9142C11.0747 15.0417 11.0597 15.1692 11.0147 15.2892ZM9.9254 11.2009H8.37291C8.15541 11.2009 7.97541 11.0209 7.97541 10.7959C7.97541 10.6909 8.02041 10.5934 8.09541 10.5184C8.17041 10.4434 8.26791 10.3984 8.37291 10.3984H9.9254V11.2009Z" fill="white" stroke="black" stroke-opacity="0.8" stroke-width="0.4"/>
</g>
</g>
</g>
<defs>
<clipPath id="clip0_5559_72421">
<rect width="24.0006" height="23.9999" fill="white" transform="translate(0.0032959)"/>
</clipPath>
<clipPath id="clip1_5559_72421">
<rect width="24.0006" height="23.9536" fill="white" transform="translate(0.0032959 -0.000488281)"/>
</clipPath>
<clipPath id="clip2_5559_72421">
<rect width="11.8536" height="21.2603" fill="white" transform="translate(6.82346 1.73438)"/>
</clipPath>
</defs>
</svg>
