<svg width="8" height="14" viewBox="0 0 8 14" fill="none" xmlns="http://www.w3.org/2000/svg">
<path d="M7.0336 7.14253C7.10912 7.07239 7.16894 6.98705 7.20911 6.89213C7.24929 6.79722 7.26892 6.69487 7.26671 6.59183C7.2645 6.48878 7.2405 6.38737 7.19629 6.29426C7.15208 6.20116 7.08866 6.11846 7.0102 6.05162L0.432489 0L0 0.468799L6.57529 6.52042C6.59141 6.52947 6.60484 6.54265 6.61418 6.5586C6.62352 6.57456 6.62844 6.59271 6.62844 6.6112C6.62844 6.62968 6.62352 6.64784 6.61418 6.66379C6.60484 6.67975 6.59141 6.69292 6.57529 6.70197L0.08553 12.8101L0.52044 13.27L7.0336 7.14253Z" fill="#ffffff"/>
</svg>
