<svg width="32" height="32" viewBox="0 0 32 32" fill="none" xmlns="http://www.w3.org/2000/svg">
<path d="M17.2766 3.2241C17.1801 3.19195 16.8426 3.09551 16.3765 3.01514C15.7978 2.90263 15.2352 3.43305 15.6049 4.07598C15.8621 4.52604 15.9585 4.79928 16.1032 5.1529C16.1514 5.26541 16.1996 5.394 16.2479 5.50651C16.9551 7.51567 16.7461 9.83023 15.5889 11.8394C14.4316 13.8486 12.4546 15.2148 10.3168 15.5845C9.7221 15.6809 9.52922 15.7291 8.72555 15.7452C8.0344 15.7452 7.7933 16.3881 8.19513 16.9186C8.4523 17.2722 8.90236 17.674 8.9988 17.7544C10.4936 18.9599 12.342 19.6189 14.303 19.6189C18.9643 19.6189 22.7576 15.8256 22.7576 11.1643C22.7736 7.54782 20.5394 4.44567 17.2766 3.2241ZM14.303 18.3973C12.6796 18.3973 11.1205 17.8508 9.85068 16.8703C12.6153 16.6132 15.187 14.9576 16.6336 12.4502C18.0963 9.92667 18.257 6.98525 17.1319 4.47782C19.8001 5.60295 21.5521 8.20683 21.5521 11.1482C21.5521 15.1505 18.3053 18.3973 14.303 18.3973Z" fill="black"/>
<path d="M12.5027 21.7405H19.4625V22.6728H16.4728V25.4213H19.7197V26.3697H16.4728V29.0539H15.4442V26.3697H12.2295V25.4213H15.4602V22.6728H12.5027V21.7405ZM13.7886 22.8657C14.1422 23.5086 14.3994 24.2641 14.6083 24.9391L13.6439 25.2445C13.5475 24.8909 13.2903 23.9908 12.8885 23.1711L13.7886 22.8657ZM19.0607 23.155C18.7874 23.9747 18.5302 24.6498 18.1445 25.2927L17.2122 24.9552C17.6944 24.1355 18.0159 23.0103 18.048 22.8817L19.0607 23.155Z" fill="black"/>
<path d="M23.8667 24.5373C23.706 24.7463 23.6256 24.8588 23.4649 25.0195L22.7416 24.3283C22.838 24.2319 22.8701 24.1998 22.8862 24.1676H22.3879V26.4179C22.6773 26.3214 22.8862 26.2411 23.2238 26.1125L23.2881 27.0126C22.4522 27.4144 20.9896 27.9288 20.5074 28.0895L20.3788 27.0447C20.7163 26.9644 20.9574 26.9001 21.4236 26.7554V24.1837H20.5234V23.2354H21.4236V21.4994H22.3879V23.2354H23.1273V23.8783C23.931 22.8175 24.1078 21.8209 24.1721 21.4352L25.1365 21.5637C25.0883 21.8048 25.0561 21.9495 24.9275 22.4156H27.9654C27.9654 23.5247 27.9654 26.0321 27.7725 27.4626C27.6761 28.1217 27.5475 29.0378 26.2295 29.0378H24.9436L24.7829 28.0091H25.9723C26.4866 28.0091 26.6795 27.9127 26.7599 27.4144C26.9367 26.2732 26.9688 24.5534 26.9688 23.38H24.5418C24.4614 23.5729 24.3167 23.8622 24.0596 24.2641H26.2616V25.1642H23.8506V24.5373H23.8667ZM26.5027 26.7233C25.5383 27.1733 24.3007 27.6234 23.5292 27.8484L23.3523 26.8358C24.8954 26.45 25.9723 26.016 26.3741 25.8553L26.5027 26.7233Z" fill="black"/>
<path d="M10.4615 21.8852V22.7371C10.3329 22.93 10.0918 23.2514 9.89891 23.4443H11.1205V26.2411H9.85069V27.8323C9.85069 27.8966 9.86676 28.0091 9.9632 28.0091H10.349C10.4615 28.0091 10.5097 27.9609 10.5258 27.8163C10.5418 27.6395 10.5579 27.2858 10.5579 27.0287L11.3616 27.2537C11.3455 28.5556 11.233 28.9414 10.5901 28.9414H9.52922C8.91844 28.9414 8.91844 28.5074 8.91844 28.3628V26.2411H8.38802C8.29158 27.318 7.77723 28.4431 6.411 29.07L6.05739 28.4753H4V21.8048H6.33063V22.8496C6.50744 22.721 7.16644 22.2388 7.50398 21.4352L8.50053 21.5316C8.45231 21.6441 8.43624 21.7245 8.3398 21.8852H10.4615ZM5.52697 24.6177V22.7049H4.86796V24.6177H5.52697ZM5.52697 27.5269V25.5017H4.86796V27.543H5.52697V27.5269ZM6.71639 23.7497L6.66817 23.7658L6.33063 23.2997V27.977C7.26288 27.4787 7.47184 26.7393 7.52006 26.225H6.71639V23.7497ZM7.7933 22.721C7.53613 23.0586 7.45576 23.1228 7.11822 23.4443H8.77378C9.12739 23.1068 9.27205 22.8657 9.36849 22.721H7.7933ZM8.48446 25.3731V24.2801H7.56828V25.3731H8.48446ZM10.2525 25.3731V24.2801H9.32027V25.3731H10.2525Z" fill="black"/>
</svg>
