<svg xmlns="http://www.w3.org/2000/svg" viewBox="0 0 11.44 12.78"><defs><style>.cls-1{fill:#666;}</style></defs><g id="Layer_2" data-name="Layer 2"><g id="Layer_1-2" data-name="Layer 1"><polygon class="cls-1" points="4.02 4.99 4.42 4.58 4.83 4.99 5.14 4.68 4.74 4.27 5.14 3.87 4.83 3.55 4.42 3.96 4.02 3.55 3.7 3.87 4.11 4.27 3.7 4.68 4.02 4.99"/><polygon class="cls-1" points="6.63 4.99 7.03 4.58 7.44 4.99 7.75 4.68 7.34 4.27 7.75 3.87 7.44 3.55 7.03 3.96 6.63 3.55 6.31 3.87 6.72 4.27 6.31 4.68 6.63 4.99"/><path class="cls-1" d="M8.43,10.38c-.43-.14-.68-.31-.74-.51s.12-.53.3-.74A7,7,0,0,0,9.8,4.78C9.8,1.92,8.16,0,5.72,0S1.64,1.92,1.64,4.78a6.08,6.08,0,0,0,1.25,3.6V8.33a1.13,1.13,0,0,1,.3-.56,5.48,5.48,0,0,1-1-3,4.66,4.66,0,0,1,1-3.05A3.2,3.2,0,0,1,5.72.6,3.2,3.2,0,0,1,8.24,1.73a4.66,4.66,0,0,1,1,3.05,6.29,6.29,0,0,1-1.68,4A1.41,1.41,0,0,0,7.12,10,1.5,1.5,0,0,0,8.24,11c1.73.57,2.6,1.18,2.6,1.83h.6c0-1.26-1.72-2-3-2.4"/><path class="cls-1" d="M0,12.78H.6c0-.51.54-1,1.62-1.46.06-.23.11-.47.17-.72C1.23,11,0,11.71,0,12.78"/><path class="cls-1" d="M3.19,8.39c.14-.64.95-.92,1.69-1.14s1.69-.17,1.85.29c.24.68-.8,1.24-1.09,1.35l-.06,0a3.34,3.34,0,0,1-1.36.28H4L3.3,12.78h.61l.56-3a4.06,4.06,0,0,0,1.32-.31l.06,0c.78-.29,1.8-1.1,1.44-2.1s-1.88-.86-2.57-.66-1.88.54-2.11,1.59c-.26,1.22-.94,4.12-1,4.51h.62c.16-.7.76-3.26,1-4.39"/></g></g></svg>