<svg xmlns="http://www.w3.org/2000/svg" viewBox="0 0 11.62 12.98"><defs><style>.cls-1{fill:#666;}</style></defs><g id="Layer_2" data-name="Layer 2"><g id="Layer_1-2" data-name="Layer 1"><path class="cls-1" d="M8.57,10.55c-.44-.14-.7-.32-.76-.52s.13-.54.3-.76A7.11,7.11,0,0,0,10,4.86C10,2,8.29,0,5.81,0S1.66,2,1.66,4.86A6.69,6.69,0,0,0,3.51,9.27c.17.22.37.53.3.76s-.32.38-.75.52C1.74,11,0,11.7,0,13H.61c0-.66.88-1.28,2.63-1.85a1.58,1.58,0,0,0,1.15-.93A1.43,1.43,0,0,0,4,8.89a6.42,6.42,0,0,1-1.71-4,4.78,4.78,0,0,1,1-3.11A3.25,3.25,0,0,1,5.81.61,3.25,3.25,0,0,1,8.37,1.75a4.78,4.78,0,0,1,1,3.11,6.42,6.42,0,0,1-1.71,4,1.43,1.43,0,0,0-.41,1.31,1.58,1.58,0,0,0,1.15.93C10.13,11.7,11,12.32,11,13h.61c0-1.28-1.74-2-3-2.43"/><path class="cls-1" d="M7.67,4.33a.42.42,0,0,0-.42-.42.42.42,0,0,0-.42.42.41.41,0,0,0,.42.42.42.42,0,0,0,.42-.42"/><path class="cls-1" d="M4.37,3.91A.42.42,0,0,0,4,4.33a.42.42,0,0,0,.42.42.41.41,0,0,0,.42-.42.42.42,0,0,0-.42-.42"/><rect class="cls-1" x="4.99" y="6.96" width="1.65" height="0.44"/></g></g></svg>