<svg width="25" height="25" viewBox="0 0 25 25" fill="none" xmlns="http://www.w3.org/2000/svg">
<g clip-path="url(#clip0)">
<path fill-rule="evenodd" clip-rule="evenodd" d="M5.18268 18.7423C5.33268 18.9523 5.49268 19.1523 5.67268 19.3223C5.84268 19.5023 6.04268 19.6623 6.25268 19.8123C8.09268 21.1423 10.6027 20.9323 12.2227 19.3223L19.0527 12.4923C19.8727 11.6723 20.3527 10.5823 20.4027 9.42227C20.4527 8.27227 20.0727 7.15227 19.3427 6.27227C19.2527 6.15227 19.1527 6.04227 19.0527 5.94227C18.9527 5.84227 18.8427 5.74227 18.7227 5.65227C17.8427 4.92227 16.7227 4.54227 15.5727 4.59227C14.4127 4.65227 13.3227 5.13227 12.5027 5.95227L5.67268 12.7823C4.06268 14.3923 3.86268 16.9023 5.18268 18.7423ZM13.372 6.81561L10.382 9.80561L15.192 14.6156L18.182 11.6256C19.432 10.3756 19.522 8.41561 18.402 7.05561L18.3754 7.02562C18.3063 6.94774 18.2442 6.87774 18.182 6.81561C18.112 6.74561 18.032 6.67561 17.942 6.60561C16.582 5.47561 14.622 5.56561 13.372 6.81561ZM14.3402 15.4665L11.3502 18.4565C10.1002 19.7065 8.14024 19.7965 6.78024 18.6665C6.69024 18.5965 6.61024 18.5265 6.54024 18.4565C6.47812 18.3944 6.41599 18.3244 6.34688 18.2465C6.33812 18.2366 6.32924 18.2266 6.32024 18.2165C5.20024 16.8565 5.29024 14.8965 6.54024 13.6465L9.53024 10.6565L14.3402 15.4665Z" fill="#5D658C"/>
<path opacity="0.5" fill-rule="evenodd" clip-rule="evenodd" d="M11.3501 18.4563L14.3401 15.4662L9.53015 10.6562L6.54015 13.6463C5.29015 14.8962 5.20015 16.8562 6.32015 18.2162C6.40015 18.3063 6.47015 18.3863 6.54015 18.4563C6.61015 18.5263 6.69015 18.5963 6.78015 18.6663C8.14015 19.7963 10.1001 19.7063 11.3501 18.4563Z" fill="#5D658C"/>
</g>
<defs>
<clipPath id="clip0">
<rect width="16.092" height="16.0916" fill="white" transform="translate(4.31262 4.5918)"/>
</clipPath>
</defs>
</svg>
