<svg width="33" height="32" viewBox="0 0 33 32" fill="none" xmlns="http://www.w3.org/2000/svg">
<path d="M30.0748 9.79046C29.6005 9.27666 28.9286 9 28.2172 9C27.3477 9 26.4386 9.39523 25.6482 9.90903C25.6086 9.86951 25.5691 9.82999 25.5296 9.79046C25.1344 9.39523 24.6601 9.15809 24.1068 9.03952C23.5534 8.96048 22.8025 9.11857 22.4468 9.23714C22.0911 9.35571 21.6959 9.55332 21.3402 9.75094C20.9449 9.98808 20.5497 10.2647 20.194 10.5414C19.8383 10.8181 19.443 11.2528 18.9688 11.648C18.534 12.0828 18.1388 12.5176 17.8226 12.9523C17.5064 13.3871 17.2297 13.8218 17.0321 14.2566H2.52715C2.36906 14.2566 2.25049 14.3751 2.25049 14.5332V15.0866C2.25049 17.9322 3.67332 20.6198 6.24232 22.596C8.7718 24.5326 12.0917 25.5997 15.6488 25.5997C19.2059 25.5997 22.5258 24.5326 25.0553 22.596C27.6243 20.6198 29.0472 17.9717 29.0472 15.1261C29.7191 14.3751 30.1933 13.6242 30.47 12.9523C30.9838 11.6876 30.8652 10.5809 30.0748 9.79046ZM20.3916 12.5966C21.6563 11.3714 22.8816 10.66 23.672 10.66C23.9487 10.66 24.1463 10.739 24.3439 10.9366C24.4625 11.0552 24.7787 11.4109 24.423 12.3199C24.1858 12.9128 23.7511 13.5452 23.0792 14.2566H18.9688C19.3245 13.7428 19.7988 13.1499 20.3916 12.5966ZM15.6883 23.9397C9.60179 23.9397 4.54283 20.3827 3.98951 15.877H27.3477C26.8339 20.4222 21.7749 23.9397 15.6883 23.9397ZM28.9681 12.3199C28.731 12.9128 28.2962 13.5452 27.6243 14.2566H25.2134C25.5296 13.8218 25.7667 13.3475 25.9644 12.9523C26.162 12.4385 26.2805 11.9642 26.241 11.49C26.992 10.9366 27.7034 10.66 28.2172 10.66C28.4938 10.66 28.6915 10.739 28.8891 10.9366C29.0076 11.0552 29.3238 11.3714 28.9681 12.3199Z" fill="#5D658C"/>
</svg>
