<svg width="12" height="12" viewBox="0 0 12 12" fill="none" xmlns="http://www.w3.org/2000/svg">
<path fill-rule="evenodd" clip-rule="evenodd" d="M10.8615 8.86739C10.6691 9.04062 10.3727 9.02508 10.1995 8.83269L6.00166 4.17052L1.80382 8.83269C1.63059 9.02508 1.3342 9.04062 1.14182 8.86739C0.949429 8.69416 0.933895 8.39777 1.10712 8.20538L5.57191 3.24673C5.59735 3.19623 5.63242 3.1495 5.67697 3.10938C5.76956 3.02602 5.88622 2.98637 6.00166 2.98911C6.1171 2.98637 6.23376 3.02602 6.32635 3.10938C6.3709 3.1495 6.40597 3.19623 6.43141 3.24673L10.8962 8.20538C11.0694 8.39777 11.0539 8.69416 10.8615 8.86739Z" fill="white"/>
</svg>
