<svg width="33" height="32" viewBox="0 0 33 32" fill="none" xmlns="http://www.w3.org/2000/svg">
<g clip-path="url(#clip0_5394_78435)">
<path fill-rule="evenodd" clip-rule="evenodd" d="M12.388 10.5745V3.57445C12.388 3.43445 12.278 3.31445 12.138 3.31445H7.65798C7.51798 3.31445 7.39798 3.43445 7.39798 3.57445V10.5745C5.72798 11.4845 4.67798 13.2245 4.67798 15.1545V28.3745C4.67798 28.5145 4.78798 28.6245 4.93798 28.6245H14.858C14.998 28.6245 15.108 28.5145 15.108 28.3745V15.1545C15.108 13.2245 14.058 11.4845 12.388 10.5745ZM13.5741 23.9995H6.21411V27.0895H13.5741V23.9995ZM8.69411 11.6626C8.84411 11.6026 8.93411 11.4626 8.93411 11.3126V8.39258H10.8541V11.3126C10.8541 11.4626 10.9441 11.6026 11.0841 11.6626L11.3241 11.7626C12.6941 12.3426 13.5741 13.6726 13.5741 15.1526V16.3126H6.21411V15.1526C6.21411 13.6726 7.09411 12.3426 8.46411 11.7626L8.69411 11.6626ZM8.93506 4.84766V6.85766H10.8551V4.84766H8.93506ZM6.21411 22.4667V17.8467H13.5741V22.4667H6.21411Z" fill="#5D658C"/>
<path fill-rule="evenodd" clip-rule="evenodd" d="M27.0291 28.6261H19.0891C18.9491 28.6261 18.8391 28.5061 18.8391 28.3661V27.3461C18.8391 27.2061 18.9491 27.0961 19.0891 27.0961H22.2891V23.9261C20.0291 23.5561 18.2991 21.5961 18.2991 19.2361V15.2561C18.2991 15.1061 18.4091 14.9961 18.5591 14.9961H27.5691C27.7091 14.9961 27.8191 15.1061 27.8191 15.2561V19.2361C27.8191 21.5961 26.0891 23.5561 23.8291 23.9261V27.0961H27.0291C27.1691 27.0961 27.2891 27.2061 27.2891 27.3461V28.3661C27.2891 28.5061 27.1691 28.6261 27.0291 28.6261ZM23.065 22.4591C21.285 22.4591 19.835 21.0091 19.835 19.2391V16.5291H26.285V19.2391C26.285 21.0091 24.845 22.4591 23.065 22.4591Z" fill="#5D658C"/>
</g>
<defs>
<clipPath id="clip0_5394_78435">
<rect width="32.0009" height="32" fill="white" transform="translate(0.250488)"/>
</clipPath>
</defs>
</svg>
