<svg width="17" height="16" viewBox="0 0 17 16" fill="none" xmlns="http://www.w3.org/2000/svg">
<g clip-path="url(#clip0)">
<path fill-rule="evenodd" clip-rule="evenodd" d="M0.47998 1.55597C0.47998 0.69663 1.17661 0 2.03595 0H14.9245C15.7835 0 16.48 0.696434 16.48 1.55553V14.444C16.48 15.3033 15.7833 16 14.9239 16H2.03558C1.17644 16 0.47998 15.3035 0.47998 14.4444V1.55597Z" fill="#7F7F7F"/>
<path fill-rule="evenodd" clip-rule="evenodd" d="M6.81153 12.8207L6.84153 12.8107C7.84153 12.3907 8.91153 11.6607 9.75153 10.8007C10.7515 9.8007 11.4215 8.6607 11.7015 7.5207C12.2715 5.2307 11.1415 3.8007 9.99153 3.2707C9.00153 2.8107 7.65153 2.8807 6.67153 3.9207C5.68153 2.8807 4.33153 2.8107 3.35153 3.2707C2.20153 3.8007 1.06153 5.2307 1.63153 7.5207C1.91153 8.6607 2.59153 9.8007 3.58153 10.8007C4.43153 11.6607 5.49153 12.3907 6.49153 12.8107L6.53153 12.8207C6.61153 12.8607 6.72153 12.8607 6.81153 12.8207ZM10.1462 12.7489C11.0962 12.3289 12.0962 11.6189 12.9062 10.7989C13.9062 9.7989 14.5762 8.6689 14.8562 7.5289C15.4262 5.2289 14.2962 3.7989 13.1462 3.2789C12.8562 3.1389 12.5562 3.0589 12.2462 3.0189C12.1562 3.0089 12.0862 3.0789 12.0862 3.1589L12.0462 3.7689C12.0362 3.8589 12.0962 3.9289 12.1862 3.9389C12.3862 3.9689 12.5762 4.0289 12.7662 4.1089C13.5862 4.4889 14.3962 5.5589 13.9662 7.3089C13.4662 9.3389 11.5162 11.1289 9.79619 11.8989C9.71619 11.9289 9.67619 12.0189 9.70619 12.0989L9.94619 12.6689C9.97619 12.7489 10.0662 12.7789 10.1462 12.7489ZM7.04565 4.92169C7.79565 3.79169 8.89565 3.78169 9.60565 4.11169C10.2656 4.41169 10.9256 5.17169 10.9256 6.37169C10.9256 6.65169 10.8956 6.97169 10.8156 7.30169C10.3056 9.33169 8.37565 11.1017 6.66565 11.8817C4.95565 11.1017 3.02565 9.33169 2.52565 7.30169C2.44565 6.97169 2.40565 6.65169 2.40565 6.37169C2.40565 5.17169 3.06565 4.41169 3.72565 4.11169C4.44565 3.78169 5.54565 3.79169 6.28565 4.92169L6.58565 5.36169C6.62565 5.43169 6.71565 5.43169 6.74565 5.36169L7.04565 4.92169Z" fill="white"/>
</g>
<defs>
<clipPath id="clip0">
<rect width="16" height="16" fill="white" transform="translate(0.47998)"/>
</clipPath>
</defs>
</svg>
