<svg width="33" height="33" viewBox="0 0 33 33" fill="none" xmlns="http://www.w3.org/2000/svg">
<g clip-path="url(#clip0)">
<path fill-rule="evenodd" clip-rule="evenodd" d="M10.1857 11.794C10.2657 10.834 11.0757 10.084 12.0457 10.084H20.6857C21.6557 10.084 22.4657 10.834 22.5357 11.794L23.4357 26.004C23.4757 26.524 23.2957 27.034 22.9457 27.404C22.5957 27.784 22.1057 28.004 21.5857 28.004H11.1457C10.6257 28.004 10.1357 27.784 9.77566 27.404C9.42566 27.034 9.25566 26.524 9.29566 26.004L10.1857 11.794ZM20.9574 11.9129L21.8474 26.1329C21.8574 26.2329 21.8074 26.3029 21.7774 26.3329C21.7474 26.3629 21.6874 26.4129 21.5874 26.4129H11.1474C11.0374 26.4129 10.9774 26.3629 10.9474 26.3329C10.9174 26.3029 10.8674 26.2329 10.8774 26.1329L11.7774 11.9129C11.7874 11.7829 11.9074 11.6729 12.0374 11.6729H20.6874C20.8274 11.6729 20.9374 11.7829 20.9574 11.9129Z" fill="#5D658C"/>
<path fill-rule="evenodd" clip-rule="evenodd" d="M15.0421 5.93457C14.5921 5.93457 14.2321 6.29457 14.2321 6.74457C14.2321 7.18457 14.5921 7.54457 15.0421 7.54457C15.4821 7.54457 15.8421 7.18457 15.8421 6.74457C15.8421 6.29457 15.4821 5.93457 15.0421 5.93457Z" fill="#5D658C"/>
<path fill-rule="evenodd" clip-rule="evenodd" d="M17.6951 5.93457C17.2451 5.93457 16.8851 6.29457 16.8851 6.74457C16.8851 7.18457 17.2451 7.54457 17.6951 7.54457C18.1351 7.54457 18.4951 7.18457 18.4951 6.74457C18.4951 6.29457 18.1351 5.93457 17.6951 5.93457Z" fill="#5D658C"/>
<path fill-rule="evenodd" clip-rule="evenodd" d="M22.2711 8.03215V11.3721C22.2711 11.5121 22.1511 11.6221 22.0111 11.6221H10.7211C10.5711 11.6221 10.4611 11.5121 10.4611 11.3721V8.03215C10.4611 6.13215 13.0011 4.70215 16.3611 4.70215C19.7311 4.70215 22.2711 6.13215 22.2711 8.03215ZM16.3611 6.23901C19.0311 6.23901 20.7311 7.29901 20.7311 8.02901V10.089H12.0011V8.02901C12.0011 7.29901 13.7011 6.23901 16.3611 6.23901Z" fill="#5D658C"/>
</g>
<g clip-path="url(#clip1)">
<path fill-rule="evenodd" clip-rule="evenodd" d="M4.01196 30.9365L30.982 4.02648L29.852 2.89648L2.88196 29.8065L4.01196 30.9365Z" fill="white"/>
<path fill-rule="evenodd" clip-rule="evenodd" d="M2.88061 29.8076L29.8506 2.89758L28.7206 1.76758L1.75061 28.6776L2.88061 29.8076Z" fill="#5D658C"/>
</g>
<defs>
<clipPath id="clip0">
<rect width="14.1577" height="23.302" fill="white" transform="translate(9.28564 4.70215)"/>
</clipPath>
<clipPath id="clip1">
<rect width="29.2278" height="29.1704" fill="white" transform="translate(1.75061 1.76758)"/>
</clipPath>
</defs>
</svg>
