<svg width="25" height="24" viewBox="0 0 25 24" fill="none" xmlns="http://www.w3.org/2000/svg">
<g clip-path="url(#clip0_5559_72485)">
<mask id="path-1-inside-1_5559_72485" fill="white">
<path fill-rule="evenodd" clip-rule="evenodd" d="M9.10522 7.9313V2.68133C9.10522 2.57633 9.02272 2.48633 8.91772 2.48633H5.55774C5.45274 2.48633 5.36274 2.57633 5.36274 2.68133V7.9313C4.11025 8.61379 3.32275 9.91879 3.32275 11.3663V21.2812C3.32275 21.3862 3.40525 21.4687 3.51775 21.4687H10.9577C11.0627 21.4687 11.1452 21.3862 11.1452 21.2812V11.3663C11.1452 9.91879 10.3577 8.61379 9.10522 7.9313ZM9.99476 17.9999H4.4748V20.3174H9.99476V17.9999ZM6.33478 8.74709C6.44728 8.70209 6.51478 8.59709 6.51478 8.48459V6.29461H7.95477V8.48459C7.95477 8.59709 8.02227 8.70209 8.12727 8.74709L8.30727 8.82209C9.33477 9.25709 9.99476 10.2546 9.99476 11.3646V12.2346H4.4748V11.3646C4.4748 10.2546 5.13479 9.25709 6.16229 8.82209L6.33478 8.74709ZM6.51543 3.6362V5.14369H7.95542V3.6362H6.51543ZM4.4748 16.8504V13.3855H9.99476V16.8504H4.4748Z"/>
</mask>
<path fill-rule="evenodd" clip-rule="evenodd" d="M9.10522 7.9313V2.68133C9.10522 2.57633 9.02272 2.48633 8.91772 2.48633H5.55774C5.45274 2.48633 5.36274 2.57633 5.36274 2.68133V7.9313C4.11025 8.61379 3.32275 9.91879 3.32275 11.3663V21.2812C3.32275 21.3862 3.40525 21.4687 3.51775 21.4687H10.9577C11.0627 21.4687 11.1452 21.3862 11.1452 21.2812V11.3663C11.1452 9.91879 10.3577 8.61379 9.10522 7.9313ZM9.99476 17.9999H4.4748V20.3174H9.99476V17.9999ZM6.33478 8.74709C6.44728 8.70209 6.51478 8.59709 6.51478 8.48459V6.29461H7.95477V8.48459C7.95477 8.59709 8.02227 8.70209 8.12727 8.74709L8.30727 8.82209C9.33477 9.25709 9.99476 10.2546 9.99476 11.3646V12.2346H4.4748V11.3646C4.4748 10.2546 5.13479 9.25709 6.16229 8.82209L6.33478 8.74709ZM6.51543 3.6362V5.14369H7.95542V3.6362H6.51543ZM4.4748 16.8504V13.3855H9.99476V16.8504H4.4748Z" fill="white"/>
<path d="M9.10522 7.9313H8.90522V8.05008L9.00952 8.10692L9.10522 7.9313ZM5.36274 7.9313L5.45844 8.10692L5.56274 8.05008V7.9313H5.36274ZM4.4748 17.9999V17.7999H4.2748V17.9999H4.4748ZM9.99476 17.9999H10.1948V17.7999H9.99476V17.9999ZM4.4748 20.3174H4.2748V20.5174H4.4748V20.3174ZM9.99476 20.3174V20.5174H10.1948V20.3174H9.99476ZM6.33478 8.74709L6.26047 8.56131L6.25504 8.56368L6.33478 8.74709ZM6.51478 6.29461V6.09461H6.31478V6.29461H6.51478ZM7.95477 6.29461H8.15477V6.09461H7.95477V6.29461ZM8.12727 8.74709L8.04849 8.93093L8.05035 8.93171L8.12727 8.74709ZM8.30727 8.82209L8.38525 8.63791L8.3842 8.63748L8.30727 8.82209ZM9.99476 12.2346V12.4346H10.1948V12.2346H9.99476ZM4.4748 12.2346H4.2748V12.4346H4.4748V12.2346ZM6.16229 8.82209L6.24026 9.00627L6.24203 9.00551L6.16229 8.82209ZM6.51543 5.14369H6.31543V5.34369H6.51543V5.14369ZM6.51543 3.6362V3.4362H6.31543V3.6362H6.51543ZM7.95542 5.14369V5.34369H8.15542V5.14369H7.95542ZM7.95542 3.6362H8.15542V3.4362H7.95542V3.6362ZM4.4748 13.3855V13.1855H4.2748V13.3855H4.4748ZM4.4748 16.8504H4.2748V17.0504H4.4748V16.8504ZM9.99476 13.3855H10.1948V13.1855H9.99476V13.3855ZM9.99476 16.8504V17.0504H10.1948V16.8504H9.99476ZM8.90522 2.68133V7.9313H9.30522V2.68133H8.90522ZM8.91772 2.68633C8.91503 2.68633 8.91207 2.68568 8.90956 2.68456C8.90725 2.68352 8.90607 2.68244 8.90565 2.682C8.90543 2.68177 8.90533 2.68162 8.9053 2.68157C8.90526 2.68151 8.90525 2.68149 8.90525 2.68149C8.90525 2.68148 8.90524 2.68145 8.90523 2.68141C8.90522 2.68135 8.90522 2.68131 8.90522 2.68133H9.30522C9.30522 2.4762 9.14323 2.28633 8.91772 2.28633V2.68633ZM5.55774 2.68633H8.91772V2.28633H5.55774V2.68633ZM5.56274 2.68133C5.56274 2.68669 5.56062 2.68754 5.56229 2.68587C5.56396 2.6842 5.56311 2.68633 5.55774 2.68633V2.28633C5.34228 2.28633 5.16274 2.46587 5.16274 2.68133H5.56274ZM5.56274 7.9313V2.68133H5.16274V7.9313H5.56274ZM3.52275 11.3663C3.52275 9.9926 4.26972 8.75466 5.45844 8.10692L5.26705 7.75568C3.95078 8.47292 3.12275 9.84497 3.12275 11.3663H3.52275ZM3.52275 21.2812V11.3663H3.12275V21.2812H3.52275ZM3.51775 21.2687C3.51424 21.2687 3.51315 21.2681 3.51378 21.2684C3.51436 21.2686 3.51583 21.2693 3.51754 21.271C3.51924 21.2727 3.5207 21.2748 3.52168 21.2771C3.52214 21.2782 3.52243 21.2792 3.52259 21.28C3.52275 21.2808 3.52275 21.2812 3.52275 21.2812H3.12275C3.12275 21.5018 3.3 21.6687 3.51775 21.6687V21.2687ZM10.9577 21.2687H3.51775V21.6687H10.9577V21.2687ZM10.9452 21.2812C10.9452 21.2812 10.9452 21.2811 10.9452 21.281C10.9452 21.2808 10.9453 21.2805 10.9453 21.2802C10.9455 21.2796 10.9457 21.2788 10.9461 21.2779C10.9468 21.2761 10.9479 21.2744 10.9494 21.2729C10.9509 21.2714 10.9526 21.2703 10.9544 21.2696C10.9553 21.2692 10.956 21.269 10.9567 21.2689C10.957 21.2688 10.9573 21.2688 10.9574 21.2687C10.9576 21.2687 10.9577 21.2687 10.9577 21.2687V21.6687C11.1732 21.6687 11.3452 21.4967 11.3452 21.2812H10.9452ZM10.9452 11.3663V21.2812H11.3452V11.3663H10.9452ZM9.00952 8.10692C10.1982 8.75466 10.9452 9.9926 10.9452 11.3663H11.3452C11.3452 9.84497 10.5172 8.47292 9.20092 7.75568L9.00952 8.10692ZM4.4748 18.1999H9.99476V17.7999H4.4748V18.1999ZM4.6748 20.3174V17.9999H4.2748V20.3174H4.6748ZM9.99476 20.1174H4.4748V20.5174H9.99476V20.1174ZM9.79476 17.9999V20.3174H10.1948V17.9999H9.79476ZM6.31478 8.48459C6.31478 8.5161 6.29634 8.54706 6.26051 8.5614L6.40906 8.93279C6.59822 8.85712 6.71478 8.67808 6.71478 8.48459H6.31478ZM6.31478 6.29461V8.48459H6.71478V6.29461H6.31478ZM7.95477 6.09461H6.51478V6.49461H7.95477V6.09461ZM8.15477 8.48459V6.29461H7.75478V8.48459H8.15477ZM8.20606 8.56326C8.17589 8.55033 8.15477 8.51851 8.15477 8.48459H7.75478C7.75478 8.67568 7.86866 8.85385 8.04849 8.93092L8.20606 8.56326ZM8.3842 8.63748L8.2042 8.56248L8.05035 8.93171L8.23035 9.00671L8.3842 8.63748ZM10.1948 11.3646C10.1948 10.1741 9.48659 9.10418 8.38524 8.63792L8.2293 9.00627C9.18294 9.41 9.79476 10.335 9.79476 11.3646H10.1948ZM10.1948 12.2346V11.3646H9.79476V12.2346H10.1948ZM4.4748 12.4346H9.99476V12.0346H4.4748V12.4346ZM4.2748 11.3646V12.2346H4.6748V11.3646H4.2748ZM6.08431 8.63792C4.98297 9.10418 4.2748 10.1741 4.2748 11.3646H4.6748C4.6748 10.335 5.28662 9.41 6.24026 9.00627L6.08431 8.63792ZM6.25504 8.56368L6.08254 8.63868L6.24203 9.00551L6.41453 8.93051L6.25504 8.56368ZM6.71543 5.14369V3.6362H6.31543V5.14369H6.71543ZM7.95542 4.94369H6.51543V5.34369H7.95542V4.94369ZM7.75542 3.6362V5.14369H8.15542V3.6362H7.75542ZM6.51543 3.8362H7.95542V3.4362H6.51543V3.8362ZM4.2748 13.3855V16.8504H4.6748V13.3855H4.2748ZM9.99476 13.1855H4.4748V13.5855H9.99476V13.1855ZM10.1948 16.8504V13.3855H9.79476V16.8504H10.1948ZM4.4748 17.0504H9.99476V16.6504H4.4748V17.0504Z" fill="black" fill-opacity="0.8" mask="url(#path-1-inside-1_5559_72485)"/>
<mask id="path-3-inside-2_5559_72485" fill="white">
<path fill-rule="evenodd" clip-rule="evenodd" d="M20.0858 21.4695H14.1309C14.0259 21.4695 13.9434 21.3795 13.9434 21.2745V20.5095C13.9434 20.4045 14.0259 20.322 14.1309 20.322H16.5308V17.9445C14.8359 17.667 13.5384 16.197 13.5384 14.4271V11.4421C13.5384 11.3296 13.6209 11.2471 13.7334 11.2471H20.4908C20.5958 11.2471 20.6783 11.3296 20.6783 11.4421V14.4271C20.6783 16.197 19.3808 17.667 17.6858 17.9445V20.322H20.0858C20.1908 20.322 20.2808 20.4045 20.2808 20.5095V21.2745C20.2808 21.3795 20.1908 21.4695 20.0858 21.4695ZM17.1126 16.8444C15.7777 16.8444 14.6902 15.7569 14.6902 14.4294V12.3969H19.5276V14.4294C19.5276 15.7569 18.4476 16.8444 17.1126 16.8444Z"/>
</mask>
<path fill-rule="evenodd" clip-rule="evenodd" d="M20.0858 21.4695H14.1309C14.0259 21.4695 13.9434 21.3795 13.9434 21.2745V20.5095C13.9434 20.4045 14.0259 20.322 14.1309 20.322H16.5308V17.9445C14.8359 17.667 13.5384 16.197 13.5384 14.4271V11.4421C13.5384 11.3296 13.6209 11.2471 13.7334 11.2471H20.4908C20.5958 11.2471 20.6783 11.3296 20.6783 11.4421V14.4271C20.6783 16.197 19.3808 17.667 17.6858 17.9445V20.322H20.0858C20.1908 20.322 20.2808 20.4045 20.2808 20.5095V21.2745C20.2808 21.3795 20.1908 21.4695 20.0858 21.4695ZM17.1126 16.8444C15.7777 16.8444 14.6902 15.7569 14.6902 14.4294V12.3969H19.5276V14.4294C19.5276 15.7569 18.4476 16.8444 17.1126 16.8444Z" fill="white"/>
<path d="M16.5308 20.322V20.522H16.7308V20.322H16.5308ZM16.5308 17.9445H16.7308V17.7746L16.5632 17.7472L16.5308 17.9445ZM17.6858 17.9445L17.6535 17.7472L17.4858 17.7746V17.9445H17.6858ZM17.6858 20.322H17.4858V20.522H17.6858V20.322ZM14.6902 12.3969V12.1969H14.4902V12.3969H14.6902ZM19.5276 12.3969H19.7276V12.1969H19.5276V12.3969ZM14.1309 21.6695H20.0858V21.2695H14.1309V21.6695ZM13.7434 21.2745C13.7434 21.4796 13.9053 21.6695 14.1309 21.6695V21.2695C14.1335 21.2695 14.1365 21.2702 14.139 21.2713C14.1413 21.2723 14.1425 21.2734 14.1429 21.2738C14.1431 21.2741 14.1432 21.2742 14.1433 21.2743C14.1433 21.2743 14.1433 21.2744 14.1433 21.2744C14.1433 21.2744 14.1433 21.2744 14.1433 21.2744C14.1434 21.2745 14.1434 21.2745 14.1434 21.2745H13.7434ZM13.7434 20.5095V21.2745H14.1434V20.5095H13.7434ZM14.1309 20.122C13.9154 20.122 13.7434 20.2941 13.7434 20.5095H14.1434C14.1434 20.5095 14.1434 20.5096 14.1433 20.5098C14.1433 20.51 14.1433 20.5102 14.1432 20.5105C14.1431 20.5112 14.1429 20.512 14.1425 20.5128C14.1418 20.5146 14.1406 20.5163 14.1392 20.5178C14.1377 20.5193 14.136 20.5204 14.1342 20.5212C14.1333 20.5215 14.1325 20.5218 14.1319 20.5219C14.1316 20.5219 14.1313 20.522 14.1311 20.522C14.1309 20.522 14.1308 20.522 14.1309 20.522V20.122ZM16.5308 20.122H14.1309V20.522H16.5308V20.122ZM16.3308 17.9445V20.322H16.7308V17.9445H16.3308ZM13.3384 14.4271C13.3384 16.2972 14.709 17.8489 16.4985 18.1419L16.5632 17.7472C14.9628 17.4851 13.7384 16.0969 13.7384 14.4271H13.3384ZM13.3384 11.4421V14.4271H13.7384V11.4421H13.3384ZM13.7334 11.0471C13.5104 11.0471 13.3384 11.2191 13.3384 11.4421H13.7384C13.7384 11.4386 13.739 11.4378 13.7385 11.4389C13.7381 11.44 13.737 11.4419 13.7351 11.4438C13.7332 11.4457 13.7313 11.4468 13.7302 11.4472C13.7291 11.4477 13.7298 11.4471 13.7334 11.4471V11.0471ZM20.4908 11.0471H13.7334V11.4471H20.4908V11.0471ZM20.8783 11.4421C20.8783 11.2243 20.7114 11.0471 20.4908 11.0471V11.4471C20.4908 11.4471 20.4904 11.4471 20.4896 11.4469C20.4888 11.4467 20.4878 11.4465 20.4867 11.446C20.4844 11.445 20.4823 11.4436 20.4806 11.4419C20.4789 11.4401 20.4782 11.4387 20.478 11.4381C20.4777 11.4375 20.4783 11.4386 20.4783 11.4421H20.8783ZM20.8783 14.4271V11.4421H20.4783V14.4271H20.8783ZM17.7182 18.1419C19.5077 17.8489 20.8783 16.2972 20.8783 14.4271H20.4783C20.4783 16.0969 19.2539 17.4851 17.6535 17.7472L17.7182 18.1419ZM17.8858 20.322V17.9445H17.4858V20.322H17.8858ZM20.0858 20.122H17.6858V20.522H20.0858V20.122ZM20.4808 20.5095C20.4808 20.284 20.291 20.122 20.0858 20.122V20.522C20.0858 20.522 20.0858 20.522 20.0857 20.522C20.0857 20.522 20.0857 20.522 20.0857 20.522C20.0857 20.522 20.0856 20.522 20.0856 20.5219C20.0855 20.5219 20.0854 20.5218 20.0851 20.5216C20.0847 20.5212 20.0836 20.52 20.0826 20.5177C20.0815 20.5152 20.0808 20.5122 20.0808 20.5095H20.4808ZM20.4808 21.2745V20.5095H20.0808V21.2745H20.4808ZM20.0858 21.6695C20.3013 21.6695 20.4808 21.49 20.4808 21.2745H20.0808C20.0808 21.2691 20.0829 21.2683 20.0813 21.27C20.0796 21.2716 20.0805 21.2695 20.0858 21.2695V21.6695ZM14.4902 14.4294C14.4902 15.8678 15.6676 17.0444 17.1126 17.0444V16.6444C15.8877 16.6444 14.8902 15.6461 14.8902 14.4294H14.4902ZM14.4902 12.3969V14.4294H14.8902V12.3969H14.4902ZM19.5276 12.1969H14.6902V12.5969H19.5276V12.1969ZM19.7276 14.4294V12.3969H19.3276V14.4294H19.7276ZM17.1126 17.0444C18.5585 17.0444 19.7276 15.867 19.7276 14.4294H19.3276C19.3276 15.6469 18.3368 16.6444 17.1126 16.6444V17.0444Z" fill="black" fill-opacity="0.8" mask="url(#path-3-inside-2_5559_72485)"/>
</g>
<defs>
<clipPath id="clip0_5559_72485">
<rect width="24.0006" height="23.9999" fill="white" transform="translate(0.00219727)"/>
</clipPath>
</defs>
</svg>
