<svg width="16" height="29" viewBox="0 0 16 29" fill="none" xmlns="http://www.w3.org/2000/svg">
<path fill-rule="evenodd" clip-rule="evenodd" d="M1.33984 17.1426C0.849844 16.7426 0.589844 16.1626 0.589844 15.5726C0.589844 15.1326 0.729844 14.6926 1.02984 14.3226L4.16984 10.3826C6.28984 8.03258 6.54984 7.65258 6.38984 6.95258L6.37984 6.96258V6.92258C6.35984 6.87258 6.32984 6.82258 6.26984 6.76258L6.25984 6.75258C5.91984 6.41258 5.63984 5.98258 5.43984 5.50258C5.22984 5.02258 5.10984 4.48258 5.10984 3.92258C5.10984 3.23258 5.24984 2.61258 5.53984 2.08258C5.81984 1.56258 6.25984 1.13258 6.79984 0.892578C7.14984 0.722578 7.54984 0.642578 7.96984 0.642578C8.38984 0.642578 8.78984 0.722578 9.14984 0.892578C9.50984 1.05258 9.81984 1.29258 10.0698 1.59258C10.5798 2.19258 10.8298 3.01258 10.8298 3.92258C10.8298 4.86258 10.4898 5.73258 9.98984 6.39258C9.98984 6.39508 9.9886 6.40007 9.98672 6.40757L9.98672 6.40758C9.98109 6.43008 9.96984 6.47508 9.96984 6.54258C9.96984 6.63258 9.98984 6.75258 10.0298 6.87258C10.0598 6.98258 10.1098 7.08258 10.1498 7.12258C11.4988 8.97048 13.2832 11.7233 13.5783 12.1786L13.5783 12.1786L13.6198 12.2426L15.0798 14.4726C15.3098 14.8126 15.4198 15.1926 15.4198 15.5726C15.4198 16.2226 15.0998 16.8626 14.5098 17.2526C14.1698 17.4726 13.7898 17.5826 13.4098 17.5826C12.7598 17.5826 12.1198 17.2726 11.7298 16.6826L11.2998 16.0326V16.0226L10.6998 15.0726L10.6798 15.9226L13.2498 22.9526L14.2098 25.7026L14.2198 25.7226C14.2898 25.9626 14.3298 26.2226 14.3298 26.4726C14.3298 26.8626 14.2298 27.2626 14.0098 27.6026C13.7898 27.9426 13.4498 28.2226 13.0298 28.3726C12.7898 28.4726 12.5298 28.5226 12.2598 28.5226C11.8398 28.5226 11.3898 28.3726 11.0398 28.0826C10.6798 27.7926 10.4098 27.3626 10.2198 26.8426L9.76984 25.7026L8.36984 21.7926L6.63984 25.8726C6.51596 26.1327 6.40742 26.3571 6.32268 26.5322L6.32267 26.5323L6.32263 26.5323L6.32262 26.5324C6.20219 26.7813 6.12984 26.9308 6.12984 26.9426H6.11984C5.92984 27.3626 5.64984 27.7126 5.29984 27.9626C4.95984 28.2126 4.53984 28.3626 4.09984 28.3626C3.87984 28.3626 3.64984 28.3226 3.42984 28.2426C2.98984 28.1026 2.62984 27.8026 2.39984 27.4426C2.16984 27.0926 2.04984 26.6726 2.04984 26.2426C2.04984 26.0026 2.07984 25.7626 2.15984 25.5326L2.16984 25.5026L5.29984 17.5326V15.4026L4.16984 16.8226C3.76984 17.3226 3.17984 17.5826 2.59984 17.5826C2.15984 17.5826 1.70984 17.4326 1.33984 17.1426ZM5.22765 13.4906L3.18765 16.0406C3.03765 16.2306 2.81765 16.3306 2.59765 16.3306C2.42765 16.3306 2.26765 16.2806 2.12765 16.1706C1.93765 16.0106 1.83765 15.8006 1.83765 15.5706C1.83765 15.4006 1.88765 15.2406 2.00765 15.1006L2.81765 14.0806L5.59765 10.4906C5.35765 11.9806 5.40765 13.2706 5.40765 13.2706L5.22765 13.4906ZM9.14687 20.6306L11.3769 26.3906L11.3869 26.4106C11.5169 26.7806 11.6869 26.9906 11.8269 27.1106C11.9769 27.2306 12.1069 27.2706 12.2669 27.2706C12.3669 27.2706 12.4769 27.2506 12.5969 27.2106C12.7769 27.1406 12.8869 27.0406 12.9669 26.9206C13.0369 26.8006 13.0869 26.6506 13.0869 26.4706C13.0869 26.3606 13.0669 26.2306 13.0269 26.1006L10.4069 18.6206L10.1869 17.9706L9.03687 20.3506L9.14687 20.6306ZM9.12468 7.8516L9.13468 7.8616C9.85468 8.8316 10.7147 10.1016 11.3947 11.1216C11.7347 11.6316 12.5747 12.9216 12.5747 12.9216L14.0447 15.1616C14.1247 15.2916 14.1647 15.4316 14.1647 15.5716C14.1647 15.8216 14.0447 16.0616 13.8247 16.2116C13.6947 16.2916 13.5547 16.3316 13.4047 16.3316C13.1647 16.3316 12.9247 16.2216 12.7747 15.9916L12.0347 14.8716L9.38468 10.7216L8.33468 11.3916L9.66468 13.4716V14.9316C9.66468 16.1316 9.46468 16.9416 9.21468 17.6016C9.05182 18.0316 8.85925 18.4021 8.66738 18.7713C8.56473 18.9688 8.46228 19.166 8.36468 19.3716C8.14468 19.8216 7.30468 21.5816 6.52468 23.2216C6.12468 24.0516 5.74468 24.8416 5.46468 25.4316C5.18468 26.0216 4.99468 26.4016 4.99468 26.4016V26.4116C4.87468 26.6616 4.72468 26.8416 4.57468 26.9516C4.41468 27.0616 4.26468 27.1116 4.10468 27.1116C4.01468 27.1116 3.92468 27.1016 3.83468 27.0616C3.66468 27.0116 3.54468 26.9016 3.44468 26.7616C3.35468 26.6216 3.29468 26.4316 3.29468 26.2416C3.29468 26.1416 3.31468 26.0316 3.34468 25.9316L6.50468 17.8816C6.53468 17.8016 6.55468 17.7316 6.55468 17.6516V13.0816C6.55468 12.8241 6.54732 12.5567 6.5399 12.2868C6.53233 12.0118 6.52468 11.7341 6.52468 11.4616C6.52468 10.9216 6.55468 10.3816 6.63468 9.9116C6.70468 9.4716 6.84468 9.0916 7.02468 8.7916L7.04468 8.7716H7.03468C7.03968 8.7666 7.04468 8.7591 7.04968 8.7516C7.05468 8.7441 7.05968 8.7366 7.06468 8.7316C7.22468 8.4816 7.37468 8.2216 7.47468 7.9516C7.58468 7.6816 7.65468 7.4016 7.65468 7.0916C7.65468 6.8816 7.61468 6.6616 7.53468 6.4516C7.45468 6.2516 7.32468 6.0616 7.15468 5.8916V5.8816C6.93468 5.6616 6.73468 5.3616 6.58468 5.0216C6.44468 4.6816 6.35468 4.3016 6.35468 3.9216C6.35468 3.2416 6.55468 2.7316 6.82468 2.4016C6.96468 2.2316 7.12468 2.1116 7.31468 2.0216C7.50468 1.9416 7.71468 1.8916 7.97468 1.8916C8.22468 1.8916 8.44468 1.9416 8.62468 2.0216C8.90468 2.1516 9.13468 2.3616 9.30468 2.6816C9.47468 2.9916 9.58468 3.4116 9.58468 3.9216C9.58468 4.5616 9.33468 5.2016 8.99468 5.6516C8.99086 5.65542 8.98704 5.65778 8.98378 5.6598C8.9785 5.66306 8.97468 5.66542 8.97468 5.6716C8.77468 5.9616 8.72468 6.2716 8.72468 6.5416C8.72468 6.7916 8.76468 7.0316 8.83468 7.2516C8.91468 7.4716 9.00468 7.6716 9.12468 7.8516Z" fill="black" fill-opacity="0.85"/>
</svg>
