<svg xmlns="http://www.w3.org/2000/svg" viewBox="0 0 13.42 12.78"><defs><style>.cls-1{fill:#666;}</style></defs><g id="Layer_2" data-name="Layer 2"><g id="Layer_1-2" data-name="Layer 1"><polygon class="cls-1" points="5.48 4.43 5.66 4.83 7.03 4.23 6.85 3.83 5.48 4.43"/><rect class="cls-1" x="8.9" y="3.58" width="0.44" height="1.49" transform="translate(1.51 10.96) rotate(-66.44)"/><path class="cls-1" d="M7.69,6.37a1,1,0,1,0,.9,1,.94.94,0,0,0-.9-1m0,1.48a.5.5,0,0,1-.48-.52.48.48,0,1,1,1,0,.49.49,0,0,1-.47.52"/><path class="cls-1" d="M5,8.61l.4.52c.17.21.37.51.3.74s-.32.38-.74.52c-1.29.42-3,1.13-3,2.39h.6c0-.65.87-1.26,2.59-1.83A1.52,1.52,0,0,0,6.3,10a1.44,1.44,0,0,0-.4-1.29c-.16-.19-.32-.4-.48-.62a.72.72,0,0,1-.25.07A.84.84,0,0,1,5,8.61"/><path class="cls-1" d="M10.41,10.39c-.43-.14-.68-.32-.74-.52s.12-.53.3-.74a7,7,0,0,0,1.81-4.35C11.78,1.92,10.14,0,7.7,0S3.62,1.92,3.62,4.78A5.21,5.21,0,0,0,3.83,6.3l.16,0a.84.84,0,0,1,.53.19,4.88,4.88,0,0,1-.31-1.69,4.68,4.68,0,0,1,1-3.05A3.17,3.17,0,0,1,7.7.6a3.2,3.2,0,0,1,2.52,1.13,4.68,4.68,0,0,1,1,3.05,6.34,6.34,0,0,1-1.68,4A1.45,1.45,0,0,0,9.09,10a1.54,1.54,0,0,0,1.13.91c1.73.57,2.6,1.18,2.6,1.83h.6c0-1.26-1.72-2-3-2.39"/><path class="cls-1" d="M4.3,9.3A1.14,1.14,0,0,1,3.16,8.15a1.21,1.21,0,0,1,0-.19,1.18,1.18,0,0,1-.33-.81A1.14,1.14,0,0,1,4,6a1.12,1.12,0,0,1,.72.26A1.13,1.13,0,0,1,6.23,7.34a1.14,1.14,0,0,1-.82,1.1A1.13,1.13,0,0,1,4.3,9.3M4,6.57a.58.58,0,0,0-.58.58.55.55,0,0,0,.25.47l.18.13L3.76,8a.51.51,0,0,0,0,.2.59.59,0,0,0,.58.59.58.58,0,0,0,.58-.56V7.94l.25,0a.58.58,0,0,0-.06-1.16.63.63,0,0,0-.29.08L4.59,7l-.16-.18A.55.55,0,0,0,4,6.57"/><path class="cls-1" d="M1.15,6.75A1.15,1.15,0,0,1,0,5.6a1.14,1.14,0,0,1,.26-.72A1.19,1.19,0,0,1,.2,4.51a1.14,1.14,0,0,1,2.24-.33A1.15,1.15,0,0,1,2,6.42a1.16,1.16,0,0,1-.81.33m.19-2.82a.58.58,0,0,0-.58.58.6.6,0,0,0,.08.29L1,5l-.18.15a.58.58,0,0,0-.21.44.59.59,0,0,0,.58.59.61.61,0,0,0,.48-.25l.12-.18L2,5.83a.48.48,0,0,0,.2,0,.58.58,0,0,0,.58-.58.59.59,0,0,0-.55-.58H1.94l0-.25a.58.58,0,0,0-.58-.52"/></g></g></svg>