<svg width="40" height="40" viewBox="0 0 40 40" fill="none" xmlns="http://www.w3.org/2000/svg">
<path d="M16.1808 16.4197L17.2009 15.3999L18.2208 16.4197L19.0008 15.6597L18.0008 14.6399L19.0008 13.6399L18.2208 12.8398L17.2009 13.8599L16.1808 12.8398L15.3809 13.6399L16.4208 14.6399L15.3809 15.6597L16.1808 16.4197Z" fill="black" fill-opacity="0.85"/>
<path d="M22.7595 16.4197L23.7595 15.3999L24.7794 16.4197L25.5594 15.6597L24.5394 14.6399L25.5594 13.6399L24.7794 12.8398L23.7595 13.8599L22.7595 12.8398L21.9395 13.6399L22.9794 14.6399L21.9395 15.6597L22.7595 16.4197Z" fill="black" fill-opacity="0.85"/>
<path d="M27.2791 29.84C26.1991 29.48 25.5592 29.06 25.4192 28.56C25.2792 28.06 25.7192 27.24 26.1792 26.72C27.5363 25.2467 28.6259 23.5479 29.3991 21.7C30.1762 19.8592 30.623 17.8958 30.7191 15.9C30.7191 8.78001 26.5991 4 20.4591 4C14.3192 4 10.1992 8.78001 10.1992 15.9C10.229 19.1512 11.3329 22.3015 13.3392 24.8601V24.7399C13.4494 24.2087 13.7137 23.7219 14.0992 23.34C12.5209 21.1671 11.642 18.5649 11.5792 15.88C11.454 13.1227 12.3514 10.4163 14.0992 8.28002C15.3413 6.97886 16.9523 6.08964 18.7152 5.73205C20.4781 5.37446 22.3082 5.56568 23.9591 6.28002C25.046 6.73054 26.017 7.42113 26.7992 8.30004C28.549 10.4274 29.447 13.1284 29.3192 15.88C29.2375 17.7189 28.8241 19.5281 28.0991 21.2201C27.3792 22.9248 26.3636 24.4889 25.0991 25.84C24.6685 26.2046 24.3391 26.674 24.1429 27.2031C23.9467 27.7321 23.8903 28.3028 23.9792 28.8601C24.1898 29.4859 24.5625 30.0449 25.0592 30.48C25.5472 30.9279 26.1493 31.2324 26.7992 31.36C31.1591 32.78 33.3391 34.3 33.3391 35.9H34.8591C34.8591 32.78 30.5192 30.94 27.2992 29.9" fill="black" fill-opacity="0.85"/>
<path d="M6.08002 35.7999H7.58001C7.58001 34.5399 8.94001 33.3199 11.58 32.1799L12 30.3799C9.07999 31.3799 6 33.1399 6 35.7999" fill="black" fill-opacity="0.85"/>
<path d="M14.0991 24.8799C14.4591 23.2999 16.4791 22.5999 18.3391 22.0399C20.1991 21.4799 22.5991 21.6199 22.9991 22.7599C23.5991 24.4599 20.9991 25.8598 20.2591 26.1198H20.1191C19.0368 26.6 17.863 26.8389 16.6791 26.8199H16.1391L14.3791 35.7999H15.8991L17.3191 28.3399C18.4623 28.272 19.5853 28.0081 20.6391 27.5599H20.7791C22.7791 26.8399 25.3191 24.8399 24.4191 22.3399C23.5191 19.84 19.6791 20.1999 17.9391 20.6999C16.1991 21.1999 13.2192 22.0399 12.6392 24.6999C11.9792 27.7399 10.2791 34.9399 10.1191 35.9199H11.6791C12.0791 34.1799 13.6792 27.7998 14.1991 24.9999" fill="black" fill-opacity="0.85"/>
</svg>
