<svg width="78" height="16" viewBox="0 0 78 16" fill="none" xmlns="http://www.w3.org/2000/svg">
<g clip-path="url(#clip0)">
<path d="M28.24 0.394902C31.03 0.394902 33.3 2.6549 33.3 5.4449V14.8349H30.12V5.3649C30.12 4.1349 29.12 3.1249 27.88 3.1249H26.65V14.8249H23.47V3.1349H20V14.8349H16.82V0.484902C17.87 0.424902 18.93 0.384902 20 0.384902L28.24 0.394902ZM10.71 10.7049C9.91 11.5049 8.8 12.0149 7.58 12.0149C5.14 12.0149 3.17 10.0449 3.17 7.6049C3.17 5.1749 5.14 3.2049 7.58 3.2049C10.01 3.2049 11.98 5.1749 11.98 7.6049C11.99 8.8149 11.5 9.9049 10.71 10.7049L12.96 12.9449C14.32 11.5749 15.17 9.6849 15.17 7.5949C15.17 3.4249 11.77 0.0249023 7.59 0.0249023C3.4 0.0249023 0 3.4249 0 7.6049C0 11.7949 3.4 15.1849 7.59 15.1849C9.69 15.1849 11.59 14.3349 12.96 12.9449L10.71 10.7049ZM59.88 10.7149C59.08 11.5149 57.98 12.0049 56.76 12.0049C54.33 12.0049 52.36 10.0349 52.36 7.5949C52.36 5.1649 54.33 3.1949 56.76 3.1949C59.19 3.1949 61.17 5.1649 61.17 7.5949C61.17 8.8249 60.68 9.9249 59.88 10.7149L62.1 12.9849C63.48 11.6149 64.34 9.7049 64.34 7.5949C64.35 3.4249 60.96 0.0249023 56.77 0.0249023C52.58 0.0249023 49.19 3.4249 49.19 7.6049C49.19 11.7949 52.59 15.1849 56.77 15.1849C58.85 15.1849 60.74 14.3449 62.11 12.9949L59.88 10.7149ZM44.86 14.8249H48.76L43.4 7.6049L43.51 9.9649C46.04 9.9649 48.1 7.9049 48.1 5.3749C48.1 2.6249 45.87 0.394902 43.12 0.394902H38.94C37.87 0.394902 36.82 0.424902 35.76 0.494902V14.8249H38.94V3.1349H42.7C43.93 3.1349 44.94 4.1449 44.94 5.3749C44.94 6.6149 43.94 7.6149 42.7 7.6149H39.95L44.86 14.8249ZM69.05 0.384902C67.98 0.384902 66.92 0.414902 65.87 0.484902V14.8249H69.05V3.1249H72.59C73.82 3.1249 74.83 4.1349 74.83 5.3649V14.8249H78V5.4449C78 2.6549 75.74 0.394902 72.94 0.394902H69.05V0.384902Z" fill="white"/>
</g>
<defs>
<clipPath id="clip0">
<rect width="78" height="15.16" fill="white" transform="translate(0 0.0249023)"/>
</clipPath>
</defs>
</svg>
