<svg width="40" height="40" viewBox="0 0 40 40" fill="none" xmlns="http://www.w3.org/2000/svg">
<path d="M27.22 29.94C26.12 29.58 25.48 29.14 25.34 28.66C25.2 28.18 25.66 27.34 26.08 26.8C27.4549 25.3361 28.5648 23.6442 29.36 21.8C30.1698 19.966 30.6439 18.0015 30.76 16C30.76 8.97999 26.52 4 20.38 4C14.24 4 10.1 8.89999 10.1 16C10.2315 20.044 11.8643 23.8942 14.68 26.8C15.1 27.34 15.6 28.1 15.42 28.66C15.24 29.22 14.64 29.58 13.58 29.94C10.3 31.04 6 32.74 6 35.94H7.58001C7.58001 34.32 9.76003 32.8 14.1 31.4C14.7312 31.3009 15.3255 31.0382 15.8237 30.6382C16.3219 30.2383 16.7068 29.7148 16.94 29.1199C17.0997 28.5509 17.0997 27.949 16.94 27.38C16.7846 26.8005 16.4734 26.2748 16.04 25.8599C13.485 23.2156 11.978 19.7328 11.8 16.06C11.6754 13.3034 12.5568 10.5954 14.28 8.44005C15.0482 7.5366 16.0049 6.81233 17.0829 6.31823C18.161 5.82413 19.3341 5.57209 20.52 5.57995C21.7219 5.55355 22.9154 5.7855 24.02 6.26C25.1132 6.74546 26.0837 7.46989 26.86 8.38C28.5881 10.5326 29.4701 13.2426 29.34 16C29.153 19.6706 27.6474 23.1505 25.1 25.8C24.6693 26.1964 24.3517 26.7003 24.18 27.26C24.0078 27.8236 23.9735 28.4203 24.08 28.9999C24.3199 29.5941 24.7093 30.1162 25.2104 30.5157C25.7115 30.9151 26.3072 31.1784 26.94 31.28C31.2199 32.74 33.3799 34.26 33.3799 35.94H34.8799C34.8799 32.8 30.58 31.04 27.46 29.94" fill="black" fill-opacity="0.85"/>
<path d="M24.9805 14.6999C24.9829 14.5627 24.9575 14.4265 24.9059 14.2994C24.8544 14.1722 24.7777 14.0567 24.6805 13.9599C24.5844 13.8618 24.469 13.7845 24.3417 13.7329C24.2144 13.6813 24.0778 13.6565 23.9405 13.66C23.8063 13.658 23.6732 13.6836 23.5494 13.7352C23.4255 13.7868 23.3136 13.8633 23.2205 13.9599C23.1178 14.0535 23.0361 14.1679 22.9809 14.2955C22.9257 14.4231 22.8983 14.5609 22.9005 14.6999C22.9002 14.9763 23.0079 15.2419 23.2005 15.44C23.2969 15.5366 23.4127 15.6115 23.5403 15.6597C23.6679 15.708 23.8043 15.7285 23.9405 15.7199C24.0778 15.7234 24.2144 15.6987 24.3417 15.6471C24.469 15.5954 24.5844 15.5182 24.6805 15.42C24.7771 15.3269 24.8536 15.215 24.9052 15.0911C24.9568 14.9673 24.9825 14.8341 24.9805 14.6999Z" fill="black" fill-opacity="0.85"/>
<path d="M16.8206 13.6604C16.5697 13.6997 16.3383 13.8189 16.1606 14.0003C15.9886 14.1924 15.8956 14.4425 15.9006 14.7003C15.8986 14.8344 15.9242 14.9677 15.9758 15.0915C16.0274 15.2154 16.1039 15.3273 16.2006 15.4204C16.2974 15.5176 16.4128 15.5942 16.54 15.6457C16.6671 15.6973 16.8034 15.7226 16.9406 15.7203C17.077 15.7316 17.2142 15.7123 17.3422 15.6639C17.4702 15.6155 17.5858 15.5392 17.6805 15.4404C17.8732 15.2423 17.9809 14.9766 17.9806 14.7003C17.9833 14.5629 17.9582 14.4266 17.9069 14.2991C17.8556 14.1717 17.7791 14.0559 17.682 13.9588C17.5849 13.8617 17.4691 13.7853 17.3417 13.734C17.2143 13.6827 17.0779 13.6576 16.9406 13.6604" fill="black" fill-opacity="0.85"/>
<path d="M22.4393 21.1401H18.3594V22.2202H22.4393V21.1401Z" fill="black" fill-opacity="0.85"/>
</svg>
