<svg width="40" height="40" viewBox="0 0 40 40" fill="none" xmlns="http://www.w3.org/2000/svg">
<path d="M16.7206 31.5239L15.1606 30.8639C15.0518 30.8118 14.9611 30.7282 14.9006 30.6239C14.8608 30.5003 14.8608 30.3674 14.9006 30.2439L15.2606 29.4239L14.2806 28.704C14.2246 28.6699 14.1774 28.6232 14.1426 28.5676C14.1079 28.5121 14.0866 28.4491 14.0806 28.3839C14.0409 28.274 14.0409 28.1538 14.0806 28.0439L14.7606 27.1039L14.3006 26.084C14.2662 26.0346 14.2434 25.9779 14.2339 25.9185C14.2244 25.859 14.2284 25.7982 14.2457 25.7405C14.263 25.6828 14.2931 25.6297 14.3338 25.5853C14.3745 25.5409 14.4247 25.5062 14.4806 25.4839L15.9206 24.584L16.4206 25.3639L15.3206 26.064L15.7206 26.964C15.7696 27.0344 15.7959 27.1182 15.7959 27.204C15.7959 27.2898 15.7696 27.3735 15.7206 27.444L15.1606 28.1639L16.0406 28.824C16.1359 28.8823 16.2067 28.9732 16.2399 29.0799C16.273 29.1867 16.2662 29.3019 16.2206 29.4039L15.8806 30.1439L17.2006 30.6639L16.7206 31.5239Z" fill="black" fill-opacity="0.85"/>
<path d="M23.8409 31.5244L23.4609 30.6644L24.6609 30.1444L24.3409 29.4044C24.3086 29.3565 24.2864 29.3024 24.2759 29.2455C24.2654 29.1886 24.2668 29.1302 24.28 29.0738C24.2931 29.0175 24.3177 28.9646 24.3523 28.9182C24.3869 28.8718 24.4307 28.8331 24.481 28.8044L25.361 28.1644L24.8209 27.3844C24.7719 27.314 24.7456 27.2302 24.7456 27.1444C24.7456 27.0586 24.7719 26.9748 24.8209 26.9044L25.241 26.0044L24.1209 25.3044L24.6009 24.5244L26.0809 25.4244C26.1352 25.4488 26.1834 25.485 26.2219 25.5303C26.2605 25.5756 26.2884 25.6288 26.3038 25.6863C26.3191 25.7438 26.3214 25.8039 26.3105 25.8624C26.2997 25.9209 26.2759 25.9763 26.241 26.0244L25.7809 27.0444L26.4409 27.9844C26.4806 28.0942 26.4806 28.2146 26.4409 28.3245C26.4218 28.4495 26.3578 28.5632 26.2609 28.6444L25.361 29.3644L25.741 30.1844C25.7807 30.308 25.7807 30.4409 25.741 30.5644C25.7224 30.6508 25.6743 30.7279 25.6049 30.7827C25.5356 30.8375 25.4493 30.8663 25.361 30.8644L23.8409 31.5244Z" fill="black" fill-opacity="0.85"/>
<path d="M19.2404 25.6042C19.0316 25.5979 18.8247 25.6462 18.6403 25.7443C18.0003 26.0043 17.6003 26.9043 18.0803 28.0443C18.5747 29.0225 19.3853 29.8048 20.3803 30.2643C21.3782 29.8162 22.1858 29.0299 22.6603 28.0443C22.8861 27.6657 22.9559 27.2142 22.8552 26.7852C22.7544 26.3561 22.4909 25.9828 22.1203 25.7443C21.8915 25.608 21.6238 25.5518 21.3595 25.5843C21.0952 25.6169 20.8492 25.7365 20.6603 25.9243C20.5822 25.9989 20.4783 26.0405 20.3703 26.0405C20.2623 26.0405 20.1585 25.9989 20.0803 25.9243C19.8524 25.7128 19.5513 25.5981 19.2404 25.6042ZM20.2803 31.2442H20.0003C18.7672 30.6395 17.7788 29.63 17.2003 28.3843C17.0261 28.0909 16.9169 27.7635 16.8803 27.4243C16.8423 27.0811 16.8764 26.7336 16.9804 26.4043C17.0752 26.0738 17.2387 25.7671 17.4603 25.5043C17.6804 25.2384 17.9527 25.0206 18.2603 24.8643C19.5876 25.0436 20.933 25.0436 22.2603 24.8643C22.5646 25.0258 22.8359 25.2429 23.0603 25.5043C23.2819 25.7671 23.4455 26.0738 23.5403 26.4043C23.6099 26.7407 23.6099 27.0879 23.5403 27.4243C23.5037 27.7635 23.3946 28.0909 23.2203 28.3843C22.6319 29.6361 21.6083 30.6314 20.3403 31.1843H20.0803" fill="black" fill-opacity="0.85"/>
<path d="M29.4 35.7841H27.98V27.9241C27.98 23.1842 27.8 21.0041 23.4 19.1041C23.0326 19.0013 22.6979 18.8057 22.4282 18.536C22.1585 18.2662 21.9628 17.9316 21.86 17.5642C21.7777 17.1987 21.7996 16.8174 21.9234 16.4638C22.0471 16.1102 22.2677 15.7985 22.56 15.5642C23.622 14.4346 24.2827 12.9867 24.44 11.4442C24.5587 10.6152 24.5027 9.77049 24.2754 8.96447C24.048 8.15845 23.6544 7.40891 23.12 6.76415C22.7776 6.32669 22.3361 5.97702 21.8318 5.74401C21.3276 5.51101 20.775 5.40138 20.22 5.42419C19.6678 5.38372 19.114 5.47717 18.6056 5.69653C18.0973 5.91589 17.6494 6.25469 17.3 6.6842C16.7683 7.32656 16.3762 8.07276 16.1489 8.87511C15.9216 9.67747 15.8641 10.5184 15.98 11.3442C16.1403 12.9253 16.8067 14.4123 17.88 15.5842C18.1304 15.8456 18.3111 16.1658 18.4054 16.5152C18.4998 16.8647 18.5048 17.2323 18.42 17.5842C18.3501 17.9265 18.1966 18.2462 17.9733 18.5149C17.75 18.7835 17.4637 18.9928 17.14 19.1241C12.64 21.1241 12.46 23.2642 12.46 27.9442V35.8041H11V27.9442C11 23.0242 11.24 20.1241 16.46 17.7842C16.584 17.7404 16.6977 17.6717 16.794 17.5822C16.8903 17.4928 16.9672 17.3845 17.02 17.2641C17.0328 17.1431 17.0179 17.0208 16.9763 16.9065C16.9347 16.7921 16.8676 16.6886 16.78 16.6041C15.5053 15.2123 14.7189 13.443 14.54 11.5642C14.4077 10.5339 14.4885 9.48735 14.7775 8.48961C15.0665 7.49188 15.5575 6.56422 16.22 5.76416C16.7437 5.20718 17.3758 4.76336 18.0775 4.45996C18.7792 4.15656 19.5356 4 20.3 4C21.0645 4 21.8209 4.15656 22.5226 4.45996C23.2242 4.76336 23.8563 5.20718 24.38 5.76416C25.0499 6.55979 25.5455 7.48706 25.8349 8.48607C26.1242 9.48509 26.2009 10.5337 26.06 11.5642C25.8617 13.4797 25.0066 15.2674 23.64 16.6241C23.26 16.9241 23.26 17.1641 23.26 17.2641C23.26 17.3641 23.46 17.5842 23.94 17.7842C29.4 20.1441 29.4 23.4042 29.4 27.9442V35.7841Z" fill="black" fill-opacity="0.85"/>
</svg>
