<svg width="40" height="40" viewBox="0 0 40 40" fill="none" xmlns="http://www.w3.org/2000/svg">
<path d="M16.6191 15.02L17.0792 16.02L20.4792 14.54L20.0392 13.54L16.6191 15.02Z" fill="black" fill-opacity="0.85"/>
<path d="M24.1914 13.4663L23.752 14.4746L27.1437 15.9529L27.5832 14.9446L24.1914 13.4663Z" fill="black" fill-opacity="0.85"/>
<path d="M22.1197 23.5402C21.9567 23.5355 21.7964 23.4976 21.6485 23.4288C21.5006 23.36 21.3684 23.2618 21.2597 23.1402C21.1455 23.0215 21.0579 22.8799 21.0027 22.7247C20.9476 22.5695 20.9261 22.4043 20.9397 22.2402C20.9397 21.9113 21.0704 21.596 21.3029 21.3635C21.5355 21.1309 21.8508 21.0002 22.1797 21.0002C22.5086 21.0002 22.824 21.1309 23.0565 21.3635C23.2891 21.596 23.4197 21.9113 23.4197 22.2402C23.4333 22.4043 23.4118 22.5695 23.3566 22.7247C23.3014 22.8799 23.2139 23.0215 23.0997 23.1402C22.9935 23.2647 22.8617 23.3649 22.7133 23.4339C22.5649 23.5029 22.4033 23.5392 22.2397 23.5402H22.1197ZM22.1197 19.8603C21.7896 19.8231 21.4555 19.8572 21.1397 19.9603C20.8215 20.0557 20.528 20.2195 20.2797 20.4403C20.0209 20.6495 19.8089 20.9107 19.6574 21.207C19.5058 21.5032 19.418 21.8279 19.3997 22.1602C19.3791 22.4915 19.4198 22.8237 19.5197 23.1402C19.6243 23.4575 19.7938 23.7495 20.0177 23.9975C20.2416 24.2455 20.5147 24.4439 20.8197 24.5803C21.1216 24.7205 21.4474 24.802 21.7797 24.8203C22.1149 24.835 22.4495 24.7804 22.7627 24.66C23.0758 24.5395 23.3608 24.3557 23.5997 24.1202C23.8368 23.8926 24.027 23.6209 24.1597 23.3203C24.2951 23.0114 24.3632 22.6774 24.3597 22.3403C24.3789 22.0288 24.3382 21.7164 24.2397 21.4202C24.1387 21.1223 23.9751 20.8495 23.7597 20.6202C23.5481 20.3965 23.2973 20.2136 23.0197 20.0803C22.7411 19.9375 22.4328 19.8622 22.1197 19.8603Z" fill="black" fill-opacity="0.85"/>
<path d="M15.4408 25.4402L16.4208 26.7202C16.8608 27.2402 17.3408 28.0002 17.1808 28.5602C17.0208 29.1202 16.3809 29.5202 15.3409 29.8602C12.1209 30.9002 7.88086 32.6802 7.88086 35.8602H9.36084C9.36084 34.2402 11.5408 32.7402 15.8008 31.3202C16.443 31.205 17.0433 30.9221 17.5409 30.5001C18.0531 30.0955 18.4412 29.5549 18.6609 28.9402C18.7914 28.3677 18.7696 27.7709 18.5976 27.2095C18.4257 26.648 18.1096 26.1414 17.6808 25.7401C17.2808 25.2601 16.8809 24.7402 16.4809 24.2002C16.2876 24.2992 16.0771 24.3603 15.8608 24.3801C15.8211 24.7838 15.6763 25.1699 15.4408 25.5001" fill="black" fill-opacity="0.85"/>
<path d="M28.8791 29.8601C27.8191 29.5201 27.1992 29.06 27.0392 28.56C27.0331 28.2176 27.0973 27.8776 27.2281 27.5611C27.3588 27.2446 27.5532 26.9583 27.7991 26.72C30.4966 23.7368 32.0855 19.9163 32.2991 15.9C32.2991 8.78001 28.2991 4 22.1391 4C15.9792 4 11.9991 8.78001 11.9991 15.9C11.9824 17.1789 12.1577 18.4531 12.5192 19.68H12.9191C13.4027 19.6752 13.8716 19.8457 14.2391 20.16C13.7369 18.8167 13.4795 17.3942 13.4792 15.9601C13.3466 13.2084 14.2291 10.5039 15.9592 8.3601C16.706 7.44714 17.6501 6.71534 18.7206 6.21997C19.791 5.72459 20.9598 5.47842 22.1391 5.5C23.3721 5.48447 24.5914 5.75853 25.6991 6.30004C26.7902 6.77957 27.7554 7.50518 28.5191 8.42003C30.2412 10.5604 31.123 13.2556 30.9991 16C30.8387 19.7242 29.3568 23.2695 26.8191 26C26.4002 26.3737 26.0791 26.8444 25.8838 27.3708C25.6886 27.8972 25.6252 28.4634 25.6991 29.02C25.9486 29.6015 26.3324 30.1156 26.8191 30.52C27.3115 30.9183 27.8961 31.1865 28.5191 31.3C32.8191 32.72 34.9791 34.22 34.9791 35.84H36.4791C36.4791 32.72 32.1991 30.86 29.0191 29.84" fill="black" fill-opacity="0.85"/>
<path d="M12.941 20.3001C12.7519 20.3001 12.5646 20.3373 12.3899 20.4097C12.2152 20.4821 12.0564 20.5881 11.9227 20.7218C11.789 20.8555 11.6829 21.0143 11.6106 21.189C11.5382 21.3637 11.501 21.5509 11.501 21.74C11.4897 21.9714 11.5414 22.2015 11.6506 22.4058C11.7597 22.6101 11.9223 22.7809 12.121 22.9L12.581 23.24L12.3609 23.8601C12.3212 24.0177 12.3212 24.1826 12.3609 24.3401C12.3583 24.5318 12.3935 24.7221 12.4644 24.9003C12.5353 25.0784 12.6407 25.2409 12.7744 25.3783C12.9081 25.5157 13.0676 25.6255 13.2438 25.7013C13.4199 25.7771 13.6092 25.8175 13.8009 25.8201C14.176 25.8202 14.5364 25.674 14.8053 25.4125C15.0743 25.151 15.2305 24.795 15.2409 24.4201V23.7001H15.8609C16.0515 23.6924 16.2386 23.6459 16.4106 23.5634C16.5825 23.4808 16.7357 23.364 16.8609 23.2201C16.9891 23.0807 17.0872 22.9165 17.1491 22.7376C17.2111 22.5587 17.2355 22.3689 17.221 22.1801C17.2162 21.9891 17.1724 21.801 17.0923 21.6276C17.0121 21.4541 16.8973 21.2989 16.7549 21.1715C16.6125 21.0441 16.4456 20.9472 16.2643 20.8867C16.0831 20.8263 15.8913 20.8037 15.701 20.8201C15.4487 20.8297 15.2021 20.8982 14.981 21.02L14.4209 21.3601L14.021 20.9201C13.9086 20.7333 13.7504 20.5784 13.5614 20.4699C13.3724 20.3614 13.1589 20.3029 12.941 20.3001ZM13.701 27.0801C13.3228 27.0864 12.9477 27.0114 12.601 26.8601C12.2655 26.7378 11.959 26.547 11.701 26.3001C11.4429 26.0313 11.2332 25.7201 11.081 25.38C10.9455 25.0293 10.8776 24.6561 10.881 24.2801C10.8611 24.1274 10.8611 23.9728 10.881 23.8201C10.6195 23.557 10.4124 23.245 10.2717 22.9018C10.131 22.5586 10.0594 22.191 10.061 21.8201C10.0543 21.4354 10.1293 21.0537 10.281 20.7001C10.4305 20.3526 10.6404 20.0343 10.901 19.76C11.18 19.5009 11.5058 19.2973 11.8609 19.1601C12.2089 19.015 12.5842 18.9469 12.961 18.9601C13.4137 19.2729 13.9307 19.4802 14.4742 19.5667C15.0176 19.6532 15.5735 19.6168 16.101 19.4601C16.5451 19.537 16.9677 19.7075 17.341 19.9601C17.7064 20.2305 18.0071 20.579 18.221 20.9801C18.4209 21.3913 18.5235 21.8429 18.521 22.3001C18.5196 22.9118 18.3235 23.5072 17.961 24C17.5911 24.4913 17.0717 24.8492 16.481 25.02C16.3322 25.6426 15.9716 26.1941 15.461 26.5801C14.9698 26.9768 14.3519 27.1827 13.721 27.1601" fill="black" fill-opacity="0.85"/>
<path d="M6.44 13.7797C6.25023 13.7758 6.06173 13.8111 5.88622 13.8834C5.71072 13.9556 5.55197 14.0634 5.41998 14.1998C5.15198 14.4718 5.00123 14.838 5 15.2198C5.00034 15.4773 5.06204 15.7309 5.17999 15.9598L5.48004 16.4398L5.04003 16.8198C4.88678 16.9476 4.76175 17.1058 4.67291 17.2845C4.58407 17.4632 4.53333 17.6584 4.52392 17.8577C4.51452 18.0571 4.54666 18.2562 4.61828 18.4425C4.68991 18.6287 4.79946 18.7981 4.94 18.9398C5.06867 19.0818 5.22632 19.1946 5.40228 19.2705C5.57824 19.3464 5.76842 19.3836 5.96002 19.3797C6.19548 19.3824 6.42799 19.3273 6.6372 19.2192C6.84641 19.1111 7.02595 18.9533 7.16003 18.7597L7.46001 18.3198L7.98003 18.5197H8.48003C8.66979 18.5236 8.8583 18.4884 9.0338 18.4161C9.2093 18.3438 9.36799 18.2362 9.49999 18.0998C9.76798 17.8278 9.91874 17.4616 9.91997 17.0798C9.91503 16.7084 9.77254 16.3521 9.52001 16.0798C9.25872 15.8144 8.91113 15.6511 8.54003 15.6197H7.82V14.9997C7.78334 14.6474 7.61983 14.3205 7.35998 14.0798C7.22839 13.9582 7.07412 13.8637 6.90594 13.802C6.73776 13.7402 6.55901 13.7123 6.38 13.7198L6.44 13.7797ZM5.85998 20.7997C5.48274 20.7962 5.10958 20.7216 4.76001 20.5798C4.41201 20.4423 4.0981 20.2307 3.84003 19.9598C3.57569 19.6962 3.36512 19.3837 3.22003 19.0397C3.07819 18.6902 3.00352 18.317 3 17.9398C3.30163 17.563 3.50521 17.1173 3.59247 16.6427C3.67972 16.168 3.64793 15.6792 3.5 15.2198C3.48281 14.8789 3.53735 14.5383 3.66003 14.2198C3.87534 13.5624 4.33302 13.0117 4.94 12.6798C5.24461 12.5108 5.57615 12.3958 5.91998 12.3398C6.25734 12.28 6.60263 12.28 6.93999 12.3398C7.27654 12.4102 7.59594 12.546 7.87999 12.7397C8.17244 12.9193 8.42441 13.1578 8.61998 13.4398C8.82981 13.712 8.97976 14.0256 9.05998 14.3598C9.39232 14.4742 9.7033 14.6432 9.98003 14.8598C10.2417 15.0815 10.4647 15.345 10.64 15.6397C10.8181 15.9348 10.9401 16.2604 11 16.5998C11.07 16.9429 11.07 17.2966 11 17.6397C10.9421 17.9828 10.8126 18.31 10.62 18.5998C10.4429 18.8935 10.2122 19.1513 9.93999 19.3598C9.66617 19.5715 9.35368 19.7278 9.02001 19.8198C8.68951 19.9185 8.34437 19.9591 7.99999 19.9398C7.73693 20.2013 7.42491 20.4083 7.08172 20.549C6.73853 20.6897 6.37091 20.7613 5.99999 20.7597" fill="black" fill-opacity="0.85"/>
</svg>
